<svg width="58" height="64" viewBox="0 0 58 64" fill="none" xmlns="http://www.w3.org/2000/svg">
<path d="M29.6211 60.9608C33.358 59.4631 35.1732 55.2197 33.6755 51.4828C32.1779 47.7459 27.9344 45.9307 24.1976 47.4284C20.4607 48.926 18.6454 53.1695 20.1431 56.9064C21.6408 60.6432 25.8842 62.4585 29.6211 60.9608Z" fill="#407BFF"/>
<path d="M0.539551 44.7052L53.2041 63.9095L51.0972 58.4122C49.7989 55.0178 49.7674 51.2692 51.0084 47.8535L56.2151 33.5653C57.1396 31.0406 57.5564 28.3581 57.4418 25.6719C57.3271 22.9857 56.6832 20.3486 55.5469 17.9118C54.4107 15.4751 52.8045 13.2867 50.8204 11.4721C48.8364 9.65759 46.5136 8.25267 43.9854 7.33795C38.8993 5.49176 33.2885 5.73928 28.3848 8.02617C23.4811 10.3131 19.6853 14.4524 17.8307 19.5354L12.8258 33.2585C11.6638 36.4394 9.4698 39.1393 6.59387 40.9273L0.539551 44.7052Z" fill="#407BFF"/>
<path d="M42.3129 2.24497L39.9462 8.73701C39.4942 9.97684 40.1328 11.3483 41.3727 11.8003L42.0476 12.0464C43.2875 12.4984 44.659 11.8597 45.111 10.6199L47.4777 4.12787C47.9297 2.88804 47.2911 1.51655 46.0512 1.06455L45.3762 0.818478C44.1364 0.366482 42.7649 1.00514 42.3129 2.24497Z" fill="#407BFF"/>
<path d="M53.1718 63.9979C53.1315 64.1028 41.3861 59.9213 26.9445 54.65C12.5029 49.3787 0.822108 45.0196 0.86247 44.9066C0.902832 44.7935 12.6482 48.9428 27.0898 54.2544C41.5314 59.5661 53.2122 63.9171 53.1718 63.9979Z" fill="#263238"/>
<g opacity="0.3">
<path d="M19.986 51.8896C21.3588 54.0475 23.375 55.7192 25.7497 56.6685C28.2863 57.6613 31.0896 57.7384 33.6769 56.8865L19.986 51.8896Z" fill="black"/>
</g>
<g opacity="0.2">
<path d="M55.2868 29.9888C55.5261 29.3813 55.6174 28.7255 55.5532 28.0757C55.5121 27.7522 55.3615 27.4525 55.1266 27.2263C54.8916 27.0002 54.5864 26.8612 54.2616 26.8325C53.9125 26.7815 53.5565 26.8524 53.2536 27.0333C52.9507 27.2142 52.7194 27.4939 52.5987 27.8254C51.7914 30.0776 49.9267 35.0906 48.7158 37.9725C47.7229 40.3942 46.4233 42.8644 44.1711 44.164C42.3652 45.0909 40.2928 45.3592 38.3105 44.9228C36.3471 44.4774 34.4286 43.8532 32.579 43.0581C30.2221 42.0895 27.7549 41.4144 25.2331 41.0481C24.5634 40.9223 23.8721 40.978 23.2312 41.2095C22.9185 41.3352 22.6579 41.5635 22.4922 41.8569C22.3264 42.1503 22.2654 42.4913 22.319 42.824C22.4885 43.4214 23.1262 43.7604 23.6752 44.0187C29.4873 46.7391 35.3882 49.3788 41.6282 50.8561C42.9068 51.2646 44.2809 51.2646 45.5595 50.8561C46.9561 50.2749 47.7956 48.8622 48.4898 47.5222C51.2756 41.8929 53.5504 36.0249 55.2868 29.9888Z" fill="black"/>
</g>
<g opacity="0.2">
<path d="M40.4255 11.5275C40.369 10.2198 39.5536 8.79093 37.14 8.5649C33.4321 8.20807 29.7226 9.22812 26.7185 11.4306C23.4648 13.6517 21.0915 16.9418 20.0103 20.7301C19.639 22.0378 19.4614 23.5473 20.2121 24.6855C21.3342 26.413 24.0546 26.3 25.7175 25.1134C27.3804 23.9267 28.3007 21.9409 29.2855 20.1246C30.2704 18.3083 31.5377 16.4517 33.4832 15.7736C35.0492 15.2247 36.8655 15.5153 38.3266 14.7161C38.925 14.4148 39.4338 13.9618 39.8021 13.4022C40.1704 12.8427 40.3854 12.1962 40.4255 11.5275Z" fill="white"/>
</g>
<path d="M53.9226 14.8615C53.858 14.9099 53.1153 13.8201 51.6381 12.359C50.7653 11.5127 49.8259 10.7379 48.8289 10.0422C47.5878 9.20841 46.2717 8.49224 44.8976 7.90302C43.5146 7.3347 42.0825 6.89426 40.6192 6.58721C39.4215 6.35135 38.2066 6.21366 36.9866 6.17552C34.8958 6.12708 33.6123 6.36119 33.5962 6.28046C33.8857 6.17761 34.1865 6.10985 34.4922 6.07865C34.8468 6.01189 35.2055 5.96874 35.5659 5.94949C36.0293 5.89547 36.4958 5.8712 36.9624 5.87684C38.205 5.8651 39.4458 5.97323 40.6676 6.19974C43.6739 6.75669 46.524 7.95734 49.0226 9.71932C50.0379 10.4366 50.9838 11.2474 51.8479 12.141C52.2273 12.5124 52.518 12.8918 52.7924 13.2147C53.0304 13.4841 53.2489 13.77 53.4463 14.0704C53.6403 14.3112 53.8005 14.5773 53.9226 14.8615Z" fill="#263238"/>
<path d="M15.2798 28.5441C15.3398 28.1781 15.4344 27.8186 15.5623 27.4704C15.7641 26.7924 16.079 25.8075 16.4987 24.6047C17.5305 21.4254 18.957 18.3879 20.7448 15.5636C22.557 12.7298 25.0561 10.4 28.01 8.79084C28.9103 8.32174 29.8608 7.95615 30.8434 7.70106C31.1986 7.59721 31.564 7.53225 31.9332 7.50732C30.6303 7.93041 29.3663 8.46518 28.1553 9.10567C25.2996 10.7571 22.8784 13.0649 21.0919 15.8381C19.334 18.6322 17.8858 21.6097 16.7732 24.7177C16.3534 25.856 15.9659 26.8004 15.7157 27.5431C15.6075 27.8917 15.4613 28.2274 15.2798 28.5441Z" fill="white"/>
<path d="M8.25678 40.7089C8.18413 40.604 9.70175 39.5465 11.1306 37.8109C12.5594 36.0753 13.3424 34.4044 13.4554 34.4609C13.0922 35.8136 12.4051 37.0576 11.4535 38.0854C10.6128 39.2027 9.51665 40.1024 8.25678 40.7089Z" fill="white"/>
<path d="M25.6933 59.9622C25.6933 60.0187 25.217 60.0348 24.4905 59.8088C23.5363 59.5047 22.6811 58.9505 22.0138 58.2037C21.3465 57.4569 20.8916 56.545 20.6964 55.5627C20.5856 55.1639 20.5856 54.7425 20.6964 54.3438C20.826 54.7207 20.9285 55.1065 21.0032 55.4981C21.2588 56.3994 21.7157 57.231 22.3393 57.9301C22.963 58.6293 23.7371 59.1778 24.6035 59.5343C24.9765 59.6508 25.3407 59.7938 25.6933 59.9622Z" fill="white"/>
<path d="M44.6958 1.32422C44.7442 1.43723 43.8885 1.80049 43.1943 2.71268C42.8393 3.29552 42.5367 3.90874 42.2902 4.54512C42.2169 4.17791 42.2299 3.79873 42.3279 3.43736C42.426 3.07598 42.6065 2.74227 42.8553 2.46243C43.0483 2.13906 43.3163 1.86685 43.6366 1.66876C43.9569 1.47067 44.3202 1.3525 44.6958 1.32422Z" fill="white"/>
</svg>
