<svg width="276" height="586" viewBox="0 0 276 586" fill="none" xmlns="http://www.w3.org/2000/svg">
<g filter="url(#filter0_dd_1_35398)">
<g clip-path="url(#clip0_1_35398)">
<rect x="10" y="6" width="256" height="566" rx="26" fill="#FBFBFB"/>
<mask id="path-2-inside-1_1_35398" fill="white">
<path d="M10 488.707H265.782V572H10V488.707Z"/>
</mask>
<path d="M10 488.707H265.782V572H10V488.707Z" fill="white"/>
<path d="M10 488.707V489.363H265.782V488.707V488.051H10V488.707Z" fill="#122023" fill-opacity="0.14" mask="url(#path-2-inside-1_1_35398)"/>
<g filter="url(#filter1_di_1_35398)">
<path d="M25.7432 499.529H127.4C130.117 499.529 132.318 501.731 132.318 504.448V528.058C132.318 530.774 130.117 532.977 127.4 532.977H25.7432C23.0265 532.977 20.8242 530.774 20.8242 528.058V504.448C20.8242 501.731 23.0265 499.529 25.7432 499.529Z" stroke="#F2F2F2" stroke-width="0.655852" shape-rendering="crispEdges"/>
<path d="M67.3257 519.9C66.3524 519.9 65.5383 519.572 64.8833 518.917C64.2345 518.262 63.91 517.445 63.91 516.466C63.91 515.486 64.2345 514.672 64.8833 514.023C65.5322 513.362 66.3463 513.032 67.3257 513.032C68.3174 513.032 69.1223 513.39 69.7406 514.106L69.1346 514.693C68.6632 514.124 68.0603 513.84 67.3257 513.84C66.5973 513.84 65.9882 514.084 65.4985 514.574C65.0149 515.058 64.7731 515.688 64.7731 516.466C64.7731 517.243 65.0149 517.873 65.4985 518.357C65.9882 518.847 66.5973 519.092 67.3257 519.092C68.0909 519.092 68.755 518.77 69.3182 518.127L69.9334 518.724C69.6212 519.098 69.2386 519.388 68.7856 519.597C68.3327 519.799 67.846 519.9 67.3257 519.9ZM70.8423 518.375C70.8423 518.596 70.9341 518.779 71.1177 518.926C71.3075 519.073 71.5278 519.147 71.7788 519.147C72.1338 519.147 72.4491 519.015 72.7245 518.752C73.0061 518.489 73.1469 518.18 73.1469 517.824C72.8837 517.616 72.5164 517.512 72.0451 517.512C71.7023 517.512 71.4146 517.595 71.182 517.76C70.9555 517.925 70.8423 518.131 70.8423 518.375ZM71.9349 515.107C72.5593 515.107 73.052 515.275 73.4132 515.612C73.7743 515.942 73.9549 516.398 73.9549 516.98V519.753H73.1469V519.128H73.1102C72.7613 519.643 72.2961 519.9 71.7145 519.9C71.2187 519.9 70.8025 519.753 70.4658 519.459C70.1352 519.165 69.97 518.798 69.97 518.357C69.97 517.892 70.1444 517.521 70.4933 517.246C70.8484 516.971 71.3197 516.833 71.9074 516.833C72.4093 516.833 72.8225 516.925 73.1469 517.108V516.915C73.1469 516.622 73.0306 516.374 72.798 516.172C72.5654 515.964 72.293 515.86 71.9808 515.86C71.5095 515.86 71.1361 516.058 70.8606 516.456L70.1169 515.988C70.527 515.4 71.133 515.107 71.9349 515.107ZM74.5404 515.254H75.3484V515.878H75.3852C75.5137 515.658 75.7096 515.474 75.9728 515.327C76.2421 515.18 76.5207 515.107 76.8084 515.107C77.3593 515.107 77.7816 515.266 78.0755 515.584C78.3754 515.896 78.5254 516.343 78.5254 516.925V519.753H77.6806V516.98C77.6623 516.245 77.2919 515.878 76.5696 515.878C76.233 515.878 75.9514 516.016 75.7249 516.291C75.4984 516.56 75.3852 516.885 75.3852 517.264V519.753H74.5404V515.254ZM81.2064 519.9C80.5392 519.9 79.9852 519.673 79.5445 519.22C79.1099 518.755 78.8926 518.183 78.8926 517.503C78.8926 516.811 79.1099 516.239 79.5445 515.786C79.9852 515.333 80.5392 515.107 81.2064 515.107C81.6655 515.107 82.0665 515.223 82.4093 515.456C82.752 515.682 83.0091 515.997 83.1805 516.401L82.4093 516.723C82.1705 516.159 81.7512 515.878 81.1513 515.878C80.7657 515.878 80.4321 516.034 80.1505 516.346C79.875 516.658 79.7373 517.044 79.7373 517.503C79.7373 517.962 79.875 518.348 80.1505 518.66C80.4321 518.972 80.7657 519.128 81.1513 519.128C81.7696 519.128 82.2042 518.847 82.4552 518.284L83.2081 518.605C83.0428 519.009 82.7826 519.327 82.4276 519.56C82.0787 519.786 81.6716 519.9 81.2064 519.9ZM85.5548 519.9C84.8937 519.9 84.3489 519.673 83.9204 519.22C83.4919 518.767 83.2777 518.195 83.2777 517.503C83.2777 516.818 83.4858 516.248 83.902 515.795C84.3183 515.336 84.8508 515.107 85.4997 515.107C86.1669 515.107 86.6964 515.324 87.0882 515.759C87.486 516.187 87.685 516.79 87.685 517.567L87.6758 517.659H84.1408C84.153 518.1 84.2999 518.455 84.5815 518.724C84.8631 518.994 85.1997 519.128 85.5915 519.128C86.1302 519.128 86.5525 518.859 86.8586 518.32L87.6115 518.688C87.4095 519.067 87.1279 519.364 86.7668 519.578C86.4118 519.792 86.0078 519.9 85.5548 519.9ZM84.205 516.961H86.7852C86.7607 516.649 86.6321 516.392 86.3995 516.19C86.173 515.982 85.867 515.878 85.4813 515.878C85.163 515.878 84.8876 515.976 84.6549 516.172C84.4285 516.368 84.2785 516.631 84.205 516.961ZM88.9349 513.178V519.753H88.0902V513.178H88.9349Z" fill="#151515"/>
</g>
<g filter="url(#filter2_di_1_35398)">
<path d="M143.137 504.447C143.137 501.55 145.486 499.2 148.384 499.2H250.041C252.938 499.2 255.287 501.55 255.287 504.447V528.058C255.287 530.956 252.938 533.305 250.041 533.305H148.384C145.486 533.305 143.137 530.956 143.137 528.058V504.447Z" fill="#6D29D9" shape-rendering="crispEdges"/>
<path d="M191.717 519.753H190.872V513.178H191.9L195.096 518.293H195.132L195.096 517.026V513.178H195.94V519.753H195.059L191.717 514.39H191.68L191.717 515.658V519.753ZM198.771 519.9C198.11 519.9 197.565 519.673 197.137 519.22C196.708 518.767 196.494 518.195 196.494 517.503C196.494 516.818 196.702 516.248 197.118 515.795C197.535 515.336 198.067 515.107 198.716 515.107C199.383 515.107 199.913 515.324 200.305 515.759C200.702 516.187 200.901 516.79 200.901 517.567L200.892 517.659H197.357C197.369 518.1 197.516 518.455 197.798 518.724C198.079 518.994 198.416 519.128 198.808 519.128C199.347 519.128 199.769 518.859 200.075 518.32L200.828 518.688C200.626 519.067 200.344 519.364 199.983 519.578C199.628 519.792 199.224 519.9 198.771 519.9ZM197.421 516.961H200.002C199.977 516.649 199.848 516.392 199.616 516.19C199.389 515.982 199.083 515.878 198.698 515.878C198.379 515.878 198.104 515.976 197.871 516.172C197.645 516.368 197.495 516.631 197.421 516.961ZM203.356 517.466L204.963 519.753H203.971L202.86 518.091L201.768 519.753H200.776L202.365 517.466L200.813 515.254H201.768L202.879 516.842L203.935 515.254H204.926L203.356 517.466ZM206.962 519.826C206.595 519.826 206.289 519.713 206.044 519.486C205.805 519.26 205.683 518.945 205.676 518.541V516.025H204.887V515.254H205.676V513.876H206.521V515.254H207.623V516.025H206.521V518.265C206.521 518.565 206.579 518.77 206.696 518.88C206.812 518.984 206.943 519.036 207.09 519.036C207.158 519.036 207.222 519.03 207.283 519.018C207.351 519 207.412 518.978 207.467 518.954L207.733 519.707C207.513 519.786 207.256 519.826 206.962 519.826Z" fill="white"/>
</g>
<rect width="255.782" height="28.8575" transform="translate(10 6)" fill="white"/>
<rect opacity="0.35" x="235.722" y="20.3196" width="13.7729" height="6.77713" rx="1.42101" stroke="black" stroke-width="0.655852"/>
<path opacity="0.4" d="M250.477 22.3965V25.0199C251.004 24.7977 251.348 24.2808 251.348 23.7082C251.348 23.1355 251.004 22.6187 250.477 22.3965Z" fill="black"/>
<rect x="236.703" y="21.3032" width="11.8053" height="4.80958" rx="0.874469" fill="black"/>
<path d="M225.632 25.5161C226.472 24.8065 227.702 24.8064 228.542 25.5161C228.584 25.5543 228.608 25.6086 228.609 25.6655C228.611 25.7224 228.588 25.7771 228.548 25.8169L227.232 27.1431C227.194 27.1819 227.142 27.2036 227.087 27.2036C227.032 27.2036 226.979 27.182 226.94 27.1431L225.625 25.8169C225.585 25.7771 225.562 25.7223 225.563 25.6655C225.565 25.6086 225.59 25.5543 225.632 25.5161ZM223.879 23.7476C225.689 22.0657 228.49 22.0657 230.3 23.7476C230.341 23.787 230.365 23.8412 230.365 23.8979C230.366 23.9546 230.343 24.0091 230.303 24.0493L229.543 24.8169C229.465 24.8952 229.338 24.8968 229.258 24.8208C228.664 24.2832 227.89 23.9849 227.089 23.9849C226.288 23.9852 225.515 24.2835 224.921 24.8208C224.841 24.8969 224.714 24.8951 224.636 24.8169L223.876 24.0493C223.836 24.0092 223.813 23.9546 223.813 23.8979C223.814 23.8412 223.838 23.787 223.879 23.7476ZM222.122 21.9829C224.898 19.3253 229.276 19.3254 232.052 21.9829C232.092 22.0223 232.115 22.0761 232.115 22.1323C232.116 22.1886 232.093 22.2428 232.054 22.2827L231.293 23.0503C231.215 23.129 231.086 23.1307 231.007 23.0532C229.949 22.0487 228.546 21.4879 227.087 21.4878C225.628 21.4879 224.225 22.0487 223.167 23.0532C223.087 23.1307 222.96 23.1291 222.882 23.0503L222.12 22.2827C222.081 22.2428 222.058 22.1885 222.059 22.1323C222.059 22.0761 222.082 22.0223 222.122 21.9829Z" fill="black"/>
<path d="M208.94 24.582C209.303 24.582 209.597 24.8761 209.597 25.2383V26.5498C209.597 26.912 209.303 27.2061 208.94 27.2061H208.285C207.923 27.2061 207.629 26.912 207.629 26.5498V25.2383C207.629 24.8761 207.923 24.582 208.285 24.582H208.94ZM212.002 23.2705C212.364 23.2705 212.658 23.5645 212.658 23.9268V26.5498C212.658 26.912 212.364 27.2061 212.002 27.2061H211.347C210.984 27.2061 210.69 26.912 210.69 26.5498V23.9268C210.69 23.5645 210.984 23.2705 211.347 23.2705H212.002ZM215.062 21.7402C215.424 21.7404 215.717 22.0344 215.717 22.3965V26.5498C215.717 26.9119 215.424 27.2059 215.062 27.2061H214.405C214.043 27.206 213.75 26.912 213.75 26.5498V22.3965C213.75 22.0343 214.043 21.7403 214.405 21.7402H215.062ZM218.123 20.21C218.485 20.2101 218.778 20.5041 218.778 20.8662V26.5498C218.778 26.9119 218.485 27.2059 218.123 27.2061H217.467C217.105 27.206 216.812 26.912 216.812 26.5498V20.8662C216.812 20.504 217.105 20.21 217.467 20.21H218.123Z" fill="black"/>
<path d="M28.3479 21.2168C27.6508 21.2168 27.1942 20.8374 27.1523 20.2925L27.1501 20.2661H27.6927L27.6949 20.2903C27.7258 20.5595 27.9751 20.7514 28.3479 20.7514C28.7162 20.7514 28.9611 20.5462 28.9611 20.2506V20.2462C28.9611 19.9109 28.714 19.7256 28.306 19.7256H27.931V19.3021H28.2949C28.6457 19.3021 28.8795 19.1036 28.8795 18.8257V18.8212C28.8795 18.5301 28.6832 18.358 28.3435 18.358C28.0082 18.358 27.7766 18.5367 27.7479 18.8212L27.7457 18.8433H27.2163L27.2185 18.819C27.267 18.2676 27.7016 17.9058 28.3435 17.9058C28.9986 17.9058 29.4243 18.2477 29.4243 18.7462V18.7507C29.4243 19.1455 29.1398 19.408 28.7582 19.4874V19.4984C29.2258 19.5426 29.5368 19.8205 29.5368 20.2617V20.2661C29.5368 20.8264 29.0537 21.2168 28.3479 21.2168ZM30.4948 19.0904C30.2941 19.0904 30.1441 18.9359 30.1441 18.7418C30.1441 18.5455 30.2941 18.3933 30.4948 18.3933C30.6977 18.3933 30.8455 18.5455 30.8455 18.7418C30.8455 18.9359 30.6977 19.0904 30.4948 19.0904ZM30.4948 20.7271C30.2941 20.7271 30.1441 20.5749 30.1441 20.3786C30.1441 20.1823 30.2941 20.0301 30.4948 20.0301C30.6977 20.0301 30.8455 20.1823 30.8455 20.3786C30.8455 20.5749 30.6977 20.7271 30.4948 20.7271ZM32.6373 21.2168C31.9402 21.2168 31.4836 20.8374 31.4417 20.2925L31.4395 20.2661H31.9821L31.9844 20.2903C32.0152 20.5595 32.2645 20.7514 32.6373 20.7514C33.0057 20.7514 33.2505 20.5462 33.2505 20.2506V20.2462C33.2505 19.9109 33.0035 19.7256 32.5954 19.7256H32.2204V19.3021H32.5843C32.9351 19.3021 33.1689 19.1036 33.1689 18.8257V18.8212C33.1689 18.5301 32.9726 18.358 32.6329 18.358C32.2976 18.358 32.066 18.5367 32.0373 18.8212L32.0351 18.8433H31.5057L31.5079 18.819C31.5564 18.2676 31.991 17.9058 32.6329 17.9058C33.288 17.9058 33.7137 18.2477 33.7137 18.7462V18.7507C33.7137 19.1455 33.4292 19.408 33.0476 19.4874V19.4984C33.5152 19.5426 33.8262 19.8205 33.8262 20.2617V20.2661C33.8262 20.8264 33.3432 21.2168 32.6373 21.2168ZM35.5276 21.2322C34.771 21.2322 34.3166 20.5903 34.3166 19.5624V19.558C34.3166 18.5301 34.771 17.8904 35.5276 17.8904C36.2842 17.8904 36.743 18.5301 36.743 19.558V19.5624C36.743 20.5903 36.2842 21.2322 35.5276 21.2322ZM35.5276 20.7712C35.9334 20.7712 36.1695 20.3168 36.1695 19.5624V19.558C36.1695 18.8036 35.9334 18.3536 35.5276 18.3536C35.1217 18.3536 34.8901 18.8036 34.8901 19.558V19.5624C34.8901 20.3168 35.1217 20.7712 35.5276 20.7712Z" fill="black"/>
<rect x="94.0586" y="563.175" width="87.8841" height="3.27926" rx="1.63963" fill="#243134"/>
<rect x="10" y="34.8574" width="255.782" height="41.9745" fill="white"/>
<path d="M32.4331 60.5668L27.7109 55.8447L32.4331 51.1226" stroke="#445368" stroke-width="1.18053" stroke-linecap="square" stroke-linejoin="round"/>
<path d="M39.5158 55.8447H28.3008" stroke="#445368" stroke-width="1.18053"/>
<path d="M246.105 51.9097L238.234 59.7799" stroke="#344053" stroke-width="1.3117" stroke-linecap="square" stroke-linejoin="round"/>
<path d="M238.234 51.9097L246.105 59.7799" stroke="#344053" stroke-width="1.3117" stroke-linecap="square" stroke-linejoin="round"/>
<rect x="58.5352" y="54.533" width="45.9096" height="2.62341" fill="#009FE2"/>
<rect x="114.938" y="54.533" width="45.9096" height="2.62341" fill="#F8F9FD"/>
<rect x="171.34" y="54.533" width="45.9096" height="2.62341" fill="#F8F9FD"/>
<rect x="20.8221" y="173.57" width="234.139" height="36.0718" rx="4.91889" fill="white"/>
<rect x="20.8221" y="173.57" width="234.139" height="36.0718" rx="4.91889" stroke="#F2F2F2" stroke-width="0.655852"/>
<path d="M39.9295 188.032H40.811L39.0573 194.606H38.1942L36.7801 190.272H36.7434L35.3294 194.606H34.4663L32.6391 188.032H33.5206L34.907 193.201H34.9438L36.367 188.913H37.1566L38.5798 193.201H38.6165L39.9295 188.032ZM42.3843 188.555C42.3843 188.72 42.3261 188.861 42.2098 188.977C42.0935 189.094 41.9527 189.152 41.7874 189.152C41.6222 189.152 41.4814 189.094 41.3651 188.977C41.2488 188.861 41.1906 188.72 41.1906 188.555C41.1906 188.39 41.2488 188.249 41.3651 188.133C41.4814 188.016 41.6222 187.958 41.7874 187.958C41.9527 187.958 42.0935 188.016 42.2098 188.133C42.3261 188.249 42.3843 188.39 42.3843 188.555ZM42.2098 190.107V194.606H41.3651V190.107H42.2098ZM46.7524 193.357C46.7524 193.749 46.581 194.08 46.2382 194.349C45.8954 194.618 45.4638 194.753 44.9435 194.753C44.4905 194.753 44.0927 194.637 43.7499 194.404C43.4071 194.165 43.1622 193.853 43.0153 193.467L43.7682 193.146C43.8784 193.415 44.0376 193.627 44.2457 193.78C44.4599 193.926 44.6925 194 44.9435 194C45.2129 194 45.4363 193.942 45.6138 193.825C45.7974 193.709 45.8893 193.571 45.8893 193.412C45.8893 193.125 45.6689 192.913 45.2282 192.779L44.4569 192.586C43.5815 192.366 43.1439 191.943 43.1439 191.319C43.1439 190.909 43.3091 190.581 43.6397 190.336C43.9764 190.085 44.4048 189.96 44.9252 189.96C45.323 189.96 45.6811 190.055 45.9994 190.245C46.3239 190.434 46.5504 190.688 46.6789 191.007L45.926 191.319C45.8403 191.129 45.6995 190.982 45.5036 190.878C45.3139 190.768 45.0996 190.713 44.8609 190.713C44.6405 190.713 44.4416 190.768 44.2641 190.878C44.0927 190.988 44.007 191.123 44.007 191.282C44.007 191.539 44.2488 191.723 44.7323 191.833L45.4118 192.007C46.3055 192.228 46.7524 192.678 46.7524 193.357ZM47.4876 188.032H48.3324V190.107L48.2956 190.731H48.3324C48.4609 190.511 48.6568 190.327 48.92 190.18C49.1893 190.033 49.4679 189.96 49.7556 189.96C50.3065 189.96 50.7288 190.119 51.0227 190.437C51.3226 190.75 51.4726 191.196 51.4726 191.778V194.606H50.6278V191.943C50.6278 191.135 50.2698 190.731 49.5536 190.731C49.2108 190.731 48.92 190.875 48.6813 191.163C48.4487 191.444 48.3324 191.775 48.3324 192.154V194.606H47.4876V188.032ZM53.3089 188.032V194.606H52.4642V188.032H53.3089ZM55.4309 188.555C55.4309 188.72 55.3727 188.861 55.2564 188.977C55.1401 189.094 54.9993 189.152 54.834 189.152C54.6688 189.152 54.528 189.094 54.4117 188.977C54.2954 188.861 54.2372 188.72 54.2372 188.555C54.2372 188.39 54.2954 188.249 54.4117 188.133C54.528 188.016 54.6688 187.958 54.834 187.958C54.9993 187.958 55.1401 188.016 55.2564 188.133C55.3727 188.249 55.4309 188.39 55.4309 188.555ZM55.2564 190.107V194.606H54.4117V190.107H55.2564ZM59.7989 193.357C59.7989 193.749 59.6275 194.08 59.2848 194.349C58.942 194.618 58.5104 194.753 57.9901 194.753C57.5371 194.753 57.1392 194.637 56.7964 194.404C56.4537 194.165 56.2088 193.853 56.0619 193.467L56.8148 193.146C56.925 193.415 57.0842 193.627 57.2923 193.78C57.5065 193.926 57.7391 194 57.9901 194C58.2594 194 58.4829 193.942 58.6604 193.825C58.844 193.709 58.9358 193.571 58.9358 193.412C58.9358 193.125 58.7155 192.913 58.2747 192.779L57.5035 192.586C56.6281 192.366 56.1904 191.943 56.1904 191.319C56.1904 190.909 56.3557 190.581 56.6863 190.336C57.0229 190.085 57.4514 189.96 57.9717 189.96C58.3696 189.96 58.7277 190.055 59.046 190.245C59.3704 190.434 59.5969 190.688 59.7255 191.007L58.9726 191.319C58.8869 191.129 58.7461 190.982 58.5502 190.878C58.3604 190.768 58.1462 190.713 57.9075 190.713C57.6871 190.713 57.4882 190.768 57.3106 190.878C57.1392 190.988 57.0535 191.123 57.0535 191.282C57.0535 191.539 57.2953 191.723 57.7789 191.833L58.4584 192.007C59.3521 192.228 59.7989 192.678 59.7989 193.357ZM62.2707 194.679C61.9034 194.679 61.5973 194.566 61.3525 194.34C61.1137 194.113 60.9913 193.798 60.9852 193.394V190.878H60.1956V190.107H60.9852V188.73H61.8299V190.107H62.9318V190.878H61.8299V193.118C61.8299 193.418 61.8881 193.623 62.0044 193.734C62.1207 193.838 62.2523 193.89 62.3992 193.89C62.4666 193.89 62.5308 193.884 62.592 193.871C62.6594 193.853 62.7206 193.832 62.7757 193.807L63.042 194.56C62.8216 194.64 62.5645 194.679 62.2707 194.679ZM67.7725 188.84V194.606H66.9278V188.84H65.0914V188.032H69.6089V188.84H67.7725ZM71.1585 188.555C71.1585 188.72 71.1003 188.861 70.984 188.977C70.8677 189.094 70.7269 189.152 70.5617 189.152C70.3964 189.152 70.2556 189.094 70.1393 188.977C70.023 188.861 69.9648 188.72 69.9648 188.555C69.9648 188.39 70.023 188.249 70.1393 188.133C70.2556 188.016 70.3964 187.958 70.5617 187.958C70.7269 187.958 70.8677 188.016 70.984 188.133C71.1003 188.249 71.1585 188.39 71.1585 188.555ZM70.984 190.107V194.606H70.1393V190.107H70.984ZM73.8198 194.679C73.4525 194.679 73.1465 194.566 72.9016 194.34C72.6629 194.113 72.5405 193.798 72.5343 193.394V190.878H71.7447V190.107H72.5343V188.73H73.3791V190.107H74.4809V190.878H73.3791V193.118C73.3791 193.418 73.4372 193.623 73.5535 193.734C73.6698 193.838 73.8014 193.89 73.9484 193.89C74.0157 193.89 74.08 193.884 74.1412 193.871C74.2085 193.853 74.2697 193.832 74.3248 193.807L74.5911 194.56C74.3707 194.64 74.1136 194.679 73.8198 194.679ZM76.174 188.032V194.606H75.3293V188.032H76.174ZM79.1785 194.753C78.5174 194.753 77.9726 194.526 77.5442 194.073C77.1157 193.62 76.9014 193.048 76.9014 192.356C76.9014 191.671 77.1095 191.102 77.5258 190.649C77.942 190.189 78.4746 189.96 79.1234 189.96C79.7907 189.96 80.3202 190.177 80.7119 190.612C81.1098 191.04 81.3087 191.643 81.3087 192.421L81.2996 192.512H77.7645C77.7768 192.953 77.9237 193.308 78.2053 193.578C78.4868 193.847 78.8235 193.982 79.2153 193.982C79.7539 193.982 80.1763 193.712 80.4824 193.174L81.2353 193.541C81.0333 193.92 80.7517 194.217 80.3906 194.432C80.0355 194.646 79.6315 194.753 79.1785 194.753ZM77.8288 191.815H80.4089C80.3844 191.502 80.2559 191.245 80.0233 191.043C79.7968 190.835 79.4907 190.731 79.1051 190.731C78.7868 190.731 78.5113 190.829 78.2787 191.025C78.0522 191.221 77.9022 191.484 77.8288 191.815Z" fill="#434343" fill-opacity="0.7"/>
<rect x="20.4941" y="113.56" width="234.795" height="49.1889" rx="5.24681" fill="white"/>
<rect x="20.8221" y="113.887" width="234.139" height="48.533" rx="4.91889" stroke="#122023" stroke-opacity="0.14" stroke-width="0.655852" stroke-dasharray="3.28 3.28"/>
<path d="M87.2921 135.388V141.154H86.4474V135.388H84.611V134.58H89.1285V135.388H87.2921ZM89.7882 139.777C89.7882 139.997 89.88 140.181 90.0636 140.328C90.2534 140.475 90.4737 140.548 90.7247 140.548C91.0798 140.548 91.395 140.416 91.6705 140.153C91.952 139.89 92.0928 139.581 92.0928 139.226C91.8296 139.018 91.4623 138.914 90.991 138.914C90.6482 138.914 90.3605 138.996 90.1279 139.162C89.9014 139.327 89.7882 139.532 89.7882 139.777ZM90.8808 136.508C91.5052 136.508 91.9979 136.676 92.3591 137.013C92.7203 137.344 92.9008 137.8 92.9008 138.381V141.154H92.0928V140.53H92.0561C91.7072 141.044 91.242 141.301 90.6604 141.301C90.1646 141.301 89.7484 141.154 89.4117 140.86C89.0812 140.566 88.9159 140.199 88.9159 139.758C88.9159 139.293 89.0903 138.923 89.4392 138.647C89.7943 138.372 90.2656 138.234 90.8533 138.234C91.3552 138.234 91.7684 138.326 92.0928 138.51V138.317C92.0928 138.023 91.9765 137.775 91.7439 137.573C91.5113 137.365 91.2389 137.261 90.9267 137.261C90.4554 137.261 90.082 137.46 89.8065 137.858L89.0628 137.389C89.4729 136.802 90.0789 136.508 90.8808 136.508ZM96.0573 140.53C96.4613 140.53 96.801 140.377 97.0765 140.071C97.3519 139.771 97.4896 139.382 97.4896 138.904C97.4896 138.433 97.3519 138.044 97.0765 137.738C96.801 137.432 96.4613 137.279 96.0573 137.279C95.6471 137.279 95.3043 137.432 95.0289 137.738C94.7596 138.044 94.6249 138.433 94.6249 138.904C94.6249 139.382 94.7596 139.774 95.0289 140.08C95.3043 140.38 95.6471 140.53 96.0573 140.53ZM96.195 141.301C95.8644 141.301 95.5614 141.231 95.286 141.09C95.0166 140.949 94.8085 140.762 94.6616 140.53H94.6249L94.6616 141.154V143.137H93.8169V136.655H94.6249V137.279H94.6616C94.8085 137.047 95.0166 136.86 95.286 136.719C95.5614 136.578 95.8644 136.508 96.195 136.508C96.7888 136.508 97.2907 136.741 97.7008 137.206C98.1232 137.677 98.3344 138.243 98.3344 138.904C98.3344 139.572 98.1232 140.138 97.7008 140.603C97.2907 141.068 96.7888 141.301 96.195 141.301ZM102.907 141.228C102.54 141.228 102.234 141.114 101.989 140.888C101.75 140.661 101.628 140.346 101.621 139.942V137.426H100.832V136.655H101.621V135.278H102.466V136.655H103.568V137.426H102.466V139.667C102.466 139.967 102.524 140.172 102.641 140.282C102.757 140.386 102.889 140.438 103.035 140.438C103.103 140.438 103.167 140.432 103.228 140.419C103.296 140.401 103.357 140.38 103.412 140.355L103.678 141.108C103.458 141.188 103.201 141.228 102.907 141.228ZM104.07 138.904C104.07 138.213 104.287 137.64 104.722 137.187C105.162 136.734 105.716 136.508 106.383 136.508C107.051 136.508 107.602 136.734 108.036 137.187C108.477 137.64 108.697 138.213 108.697 138.904C108.697 139.602 108.477 140.175 108.036 140.622C107.602 141.074 107.051 141.301 106.383 141.301C105.716 141.301 105.162 141.074 104.722 140.622C104.287 140.169 104.07 139.596 104.07 138.904ZM104.914 138.904C104.914 139.388 105.055 139.78 105.337 140.08C105.618 140.38 105.967 140.53 106.383 140.53C106.8 140.53 107.149 140.38 107.43 140.08C107.712 139.78 107.853 139.388 107.853 138.904C107.853 138.427 107.712 138.038 107.43 137.738C107.143 137.432 106.794 137.279 106.383 137.279C105.973 137.279 105.624 137.432 105.337 137.738C105.055 138.038 104.914 138.427 104.914 138.904ZM115.43 141.154H114.622V140.53H114.586C114.457 140.75 114.258 140.934 113.989 141.081C113.726 141.228 113.45 141.301 113.162 141.301C112.612 141.301 112.186 141.145 111.886 140.833C111.592 140.514 111.445 140.064 111.445 139.483V136.655H112.29V139.428C112.309 140.162 112.679 140.53 113.401 140.53C113.738 140.53 114.019 140.395 114.246 140.126C114.472 139.85 114.586 139.523 114.586 139.143V136.655H115.43V141.154ZM118.662 140.53C119.066 140.53 119.406 140.377 119.682 140.071C119.957 139.771 120.095 139.382 120.095 138.904C120.095 138.433 119.957 138.044 119.682 137.738C119.406 137.432 119.066 137.279 118.662 137.279C118.252 137.279 117.909 137.432 117.634 137.738C117.365 138.044 117.23 138.433 117.23 138.904C117.23 139.382 117.365 139.774 117.634 140.08C117.909 140.38 118.252 140.53 118.662 140.53ZM118.8 141.301C118.47 141.301 118.167 141.231 117.891 141.09C117.622 140.949 117.414 140.762 117.267 140.53H117.23L117.267 141.154V143.137H116.422V136.655H117.23V137.279H117.267C117.414 137.047 117.622 136.86 117.891 136.719C118.167 136.578 118.47 136.508 118.8 136.508C119.394 136.508 119.896 136.741 120.306 137.206C120.728 137.677 120.939 138.243 120.939 138.904C120.939 139.572 120.728 140.138 120.306 140.603C119.896 141.068 119.394 141.301 118.8 141.301ZM122.468 134.58V141.154H121.624V134.58H122.468ZM123.196 138.904C123.196 138.213 123.413 137.64 123.848 137.187C124.288 136.734 124.842 136.508 125.509 136.508C126.177 136.508 126.728 136.734 127.162 137.187C127.603 137.64 127.823 138.213 127.823 138.904C127.823 139.602 127.603 140.175 127.162 140.622C126.728 141.074 126.177 141.301 125.509 141.301C124.842 141.301 124.288 141.074 123.848 140.622C123.413 140.169 123.196 139.596 123.196 138.904ZM124.04 138.904C124.04 139.388 124.181 139.78 124.463 140.08C124.744 140.38 125.093 140.53 125.509 140.53C125.926 140.53 126.275 140.38 126.556 140.08C126.838 139.78 126.979 139.388 126.979 138.904C126.979 138.427 126.838 138.038 126.556 137.738C126.269 137.432 125.92 137.279 125.509 137.279C125.099 137.279 124.75 137.432 124.463 137.738C124.181 138.038 124.04 138.427 124.04 138.904ZM129.206 139.777C129.206 139.997 129.298 140.181 129.481 140.328C129.671 140.475 129.891 140.548 130.142 140.548C130.497 140.548 130.813 140.416 131.088 140.153C131.37 139.89 131.511 139.581 131.511 139.226C131.247 139.018 130.88 138.914 130.409 138.914C130.066 138.914 129.778 138.996 129.546 139.162C129.319 139.327 129.206 139.532 129.206 139.777ZM130.299 136.508C130.923 136.508 131.416 136.676 131.777 137.013C132.138 137.344 132.319 137.8 132.319 138.381V141.154H131.511V140.53H131.474C131.125 141.044 130.66 141.301 130.078 141.301C129.582 141.301 129.166 141.154 128.829 140.86C128.499 140.566 128.334 140.199 128.334 139.758C128.334 139.293 128.508 138.923 128.857 138.647C129.212 138.372 129.683 138.234 130.271 138.234C130.773 138.234 131.186 138.326 131.511 138.51V138.317C131.511 138.023 131.394 137.775 131.162 137.573C130.929 137.365 130.657 137.261 130.344 137.261C129.873 137.261 129.5 137.46 129.224 137.858L128.48 137.389C128.891 136.802 129.497 136.508 130.299 136.508ZM135.246 140.53C135.663 140.53 136.002 140.38 136.266 140.08C136.541 139.78 136.679 139.388 136.679 138.904C136.679 138.433 136.541 138.044 136.266 137.738C135.996 137.432 135.657 137.279 135.246 137.279C134.842 137.279 134.503 137.432 134.227 137.738C133.952 138.044 133.814 138.433 133.814 138.904C133.814 139.382 133.952 139.771 134.227 140.071C134.503 140.377 134.842 140.53 135.246 140.53ZM135.109 141.301C134.521 141.301 134.016 141.068 133.594 140.603C133.178 140.132 132.969 139.566 132.969 138.904C132.969 138.243 133.178 137.677 133.594 137.206C134.016 136.741 134.521 136.508 135.109 136.508C135.439 136.508 135.739 136.578 136.009 136.719C136.284 136.86 136.495 137.047 136.642 137.279H136.679L136.642 136.655V134.58H137.487V141.154H136.679V140.53H136.642C136.495 140.762 136.284 140.949 136.009 141.09C135.739 141.231 135.439 141.301 135.109 141.301ZM143.596 141.301C142.623 141.301 141.809 140.973 141.154 140.318C140.505 139.664 140.181 138.846 140.181 137.867C140.181 136.888 140.505 136.073 141.154 135.425C141.803 134.763 142.617 134.433 143.596 134.433C144.588 134.433 145.393 134.791 146.011 135.507L145.405 136.095C144.934 135.526 144.331 135.241 143.596 135.241C142.868 135.241 142.259 135.486 141.769 135.975C141.285 136.459 141.044 137.09 141.044 137.867C141.044 138.644 141.285 139.275 141.769 139.758C142.259 140.248 142.868 140.493 143.596 140.493C144.361 140.493 145.026 140.172 145.589 139.529L146.204 140.126C145.892 140.499 145.509 140.79 145.056 140.998C144.603 141.2 144.117 141.301 143.596 141.301ZM146.608 138.904C146.608 138.213 146.825 137.64 147.26 137.187C147.7 136.734 148.254 136.508 148.922 136.508C149.589 136.508 150.14 136.734 150.574 137.187C151.015 137.64 151.235 138.213 151.235 138.904C151.235 139.602 151.015 140.175 150.574 140.622C150.14 141.074 149.589 141.301 148.922 141.301C148.254 141.301 147.7 141.074 147.26 140.622C146.825 140.169 146.608 139.596 146.608 138.904ZM147.453 138.904C147.453 139.388 147.593 139.78 147.875 140.08C148.156 140.38 148.505 140.53 148.922 140.53C149.338 140.53 149.687 140.38 149.968 140.08C150.25 139.78 150.391 139.388 150.391 138.904C150.391 138.427 150.25 138.038 149.968 137.738C149.681 137.432 149.332 137.279 148.922 137.279C148.511 137.279 148.163 137.432 147.875 137.738C147.593 138.038 147.453 138.427 147.453 138.904ZM154.098 141.154H153.254L151.436 136.655H152.354L153.676 140.144H153.694L155.035 136.655H155.935L154.098 141.154ZM158.372 141.301C157.711 141.301 157.166 141.074 156.737 140.622C156.309 140.169 156.095 139.596 156.095 138.904C156.095 138.219 156.303 137.65 156.719 137.197C157.135 136.738 157.668 136.508 158.317 136.508C158.984 136.508 159.513 136.725 159.905 137.16C160.303 137.588 160.502 138.191 160.502 138.969L160.493 139.061H156.958C156.97 139.501 157.117 139.856 157.398 140.126C157.68 140.395 158.017 140.53 158.408 140.53C158.947 140.53 159.369 140.26 159.676 139.722L160.428 140.089C160.226 140.468 159.945 140.765 159.584 140.98C159.229 141.194 158.825 141.301 158.372 141.301ZM157.022 138.363H159.602C159.578 138.051 159.449 137.793 159.216 137.591C158.99 137.383 158.684 137.279 158.298 137.279C157.98 137.279 157.704 137.377 157.472 137.573C157.245 137.769 157.095 138.032 157.022 138.363ZM162.119 141.154H161.274V136.655H162.082V137.389H162.119C162.205 137.151 162.379 136.949 162.642 136.783C162.912 136.612 163.175 136.526 163.432 136.526C163.677 136.526 163.885 136.563 164.057 136.637L163.799 137.454C163.695 137.411 163.53 137.389 163.304 137.389C162.985 137.389 162.707 137.518 162.468 137.775C162.235 138.032 162.119 138.332 162.119 138.675V141.154ZM167.72 135.103C167.72 135.268 167.662 135.409 167.546 135.526C167.429 135.642 167.289 135.7 167.123 135.7C166.958 135.7 166.817 135.642 166.701 135.526C166.585 135.409 166.527 135.268 166.527 135.103C166.527 134.938 166.585 134.797 166.701 134.681C166.817 134.564 166.958 134.506 167.123 134.506C167.289 134.506 167.429 134.564 167.546 134.681C167.662 134.797 167.72 134.938 167.72 135.103ZM167.546 136.655V141.154H166.701V136.655H167.546ZM169.49 141.154H168.645V136.655H169.453V137.279H169.49C169.618 137.059 169.814 136.875 170.077 136.728C170.347 136.581 170.613 136.508 170.876 136.508C171.207 136.508 171.498 136.585 171.749 136.738C171.999 136.891 172.183 137.102 172.299 137.371C172.673 136.796 173.19 136.508 173.851 136.508C174.371 136.508 174.772 136.667 175.054 136.985C175.336 137.304 175.476 137.757 175.476 138.344V141.154H174.632V138.473C174.632 138.051 174.555 137.748 174.402 137.564C174.249 137.374 173.992 137.279 173.631 137.279C173.306 137.279 173.034 137.417 172.814 137.692C172.593 137.968 172.483 138.292 172.483 138.666V141.154H171.638V138.473C171.638 138.051 171.562 137.748 171.409 137.564C171.256 137.374 170.999 137.279 170.638 137.279C170.313 137.279 170.041 137.417 169.82 137.692C169.6 137.968 169.49 138.292 169.49 138.666V141.154ZM177.034 139.777C177.034 139.997 177.126 140.181 177.31 140.328C177.5 140.475 177.72 140.548 177.971 140.548C178.326 140.548 178.641 140.416 178.917 140.153C179.198 139.89 179.339 139.581 179.339 139.226C179.076 139.018 178.709 138.914 178.237 138.914C177.894 138.914 177.607 138.996 177.374 139.162C177.148 139.327 177.034 139.532 177.034 139.777ZM178.127 136.508C178.751 136.508 179.244 136.676 179.605 137.013C179.966 137.344 180.147 137.8 180.147 138.381V141.154H179.339V140.53H179.302C178.953 141.044 178.488 141.301 177.907 141.301C177.411 141.301 176.995 141.154 176.658 140.86C176.327 140.566 176.162 140.199 176.162 139.758C176.162 139.293 176.337 138.923 176.685 138.647C177.04 138.372 177.512 138.234 178.099 138.234C178.601 138.234 179.015 138.326 179.339 138.51V138.317C179.339 138.023 179.223 137.775 178.99 137.573C178.758 137.365 178.485 137.261 178.173 137.261C177.702 137.261 177.328 137.46 177.053 137.858L176.309 137.389C176.719 136.802 177.325 136.508 178.127 136.508ZM183.075 140.53C183.491 140.53 183.831 140.38 184.094 140.08C184.37 139.78 184.507 139.388 184.507 138.904C184.507 138.433 184.37 138.044 184.094 137.738C183.825 137.432 183.485 137.279 183.075 137.279C182.671 137.279 182.331 137.432 182.056 137.738C181.78 138.044 181.643 138.433 181.643 138.904C181.643 139.382 181.78 139.771 182.056 140.071C182.331 140.377 182.671 140.53 183.075 140.53ZM183.047 143.284C182.796 143.284 182.561 143.251 182.34 143.183C182.12 143.122 181.918 143.033 181.734 142.917C181.557 142.801 181.404 142.663 181.275 142.504C181.147 142.345 181.049 142.167 180.982 141.971L181.78 141.641C181.872 141.904 182.031 142.115 182.258 142.274C182.484 142.433 182.748 142.513 183.047 142.513C183.507 142.513 183.865 142.375 184.122 142.1C184.379 141.824 184.507 141.445 184.507 140.961V140.53H184.471C184.311 140.768 184.094 140.958 183.819 141.099C183.549 141.234 183.256 141.301 182.937 141.301C182.35 141.301 181.845 141.071 181.422 140.612C181.006 140.141 180.798 139.572 180.798 138.904C180.798 138.237 181.006 137.671 181.422 137.206C181.845 136.741 182.35 136.508 182.937 136.508C183.256 136.508 183.549 136.578 183.819 136.719C184.094 136.854 184.311 137.041 184.471 137.279H184.507V136.655H185.315V140.961C185.315 141.684 185.11 142.25 184.7 142.66C184.284 143.076 183.733 143.284 183.047 143.284ZM188.321 141.301C187.659 141.301 187.115 141.074 186.686 140.622C186.258 140.169 186.043 139.596 186.043 138.904C186.043 138.219 186.252 137.65 186.668 137.197C187.084 136.738 187.617 136.508 188.265 136.508C188.933 136.508 189.462 136.725 189.854 137.16C190.252 137.588 190.451 138.191 190.451 138.969L190.442 139.061H186.907C186.919 139.501 187.066 139.856 187.347 140.126C187.629 140.395 187.965 140.53 188.357 140.53C188.896 140.53 189.318 140.26 189.624 139.722L190.377 140.089C190.175 140.468 189.894 140.765 189.533 140.98C189.178 141.194 188.774 141.301 188.321 141.301ZM186.971 138.363H189.551C189.526 138.051 189.398 137.793 189.165 137.591C188.939 137.383 188.633 137.279 188.247 137.279C187.929 137.279 187.653 137.377 187.421 137.573C187.194 137.769 187.044 138.032 186.971 138.363Z" fill="#434343" fill-opacity="0.7"/>
<rect x="20.8221" y="220.791" width="234.139" height="68.2086" rx="4.91889" fill="white"/>
<rect x="20.8221" y="220.791" width="234.139" height="68.2086" rx="4.91889" stroke="#F2F2F2" stroke-width="0.655852"/>
<path d="M33.1533 238.645V232.071H35.1641C36.168 232.071 36.973 232.374 37.579 232.98C38.1911 233.586 38.4972 234.379 38.4972 235.358C38.4972 236.344 38.1911 237.139 37.579 237.745C36.973 238.345 36.168 238.645 35.1641 238.645H33.1533ZM33.998 232.879V237.837H35.1641C35.9293 237.837 36.5322 237.62 36.973 237.185C37.4137 236.745 37.6341 236.136 37.6341 235.358C37.6341 234.587 37.4137 233.981 36.973 233.54C36.5322 233.099 35.9293 232.879 35.1641 232.879H33.998ZM41.2403 238.792C40.5792 238.792 40.0344 238.566 39.606 238.113C39.1775 237.66 38.9632 237.087 38.9632 236.396C38.9632 235.71 39.1713 235.141 39.5876 234.688C40.0038 234.229 40.5364 233.999 41.1852 233.999C41.8525 233.999 42.382 234.217 42.7737 234.651C43.1716 235.08 43.3705 235.683 43.3705 236.46L43.3614 236.552H39.8263C39.8386 236.993 39.9855 237.348 40.2671 237.617C40.5486 237.886 40.8853 238.021 41.2771 238.021C41.8157 238.021 42.2381 237.752 42.5442 237.213L43.2971 237.58C43.0951 237.96 42.8135 238.257 42.4524 238.471C42.0973 238.685 41.6933 238.792 41.2403 238.792ZM39.8906 235.854H42.4707C42.4462 235.542 42.3177 235.285 42.0851 235.083C41.8586 234.875 41.5525 234.77 41.1669 234.77C40.8486 234.77 40.5731 234.868 40.3405 235.064C40.114 235.26 39.964 235.523 39.8906 235.854ZM47.6311 237.397C47.6311 237.788 47.4597 238.119 47.1169 238.388C46.7741 238.658 46.3426 238.792 45.8223 238.792C45.3693 238.792 44.9714 238.676 44.6286 238.443C44.2858 238.205 44.041 237.892 43.8941 237.507L44.647 237.185C44.7572 237.455 44.9163 237.666 45.1244 237.819C45.3387 237.966 45.5713 238.039 45.8223 238.039C46.0916 238.039 46.315 237.981 46.4925 237.865C46.6762 237.748 46.768 237.611 46.768 237.452C46.768 237.164 46.5476 236.953 46.1069 236.818L45.3356 236.625C44.4603 236.405 44.0226 235.983 44.0226 235.358C44.0226 234.948 44.1879 234.621 44.5184 234.376C44.8551 234.125 45.2836 233.999 45.8039 233.999C46.2018 233.999 46.5599 234.094 46.8782 234.284C47.2026 234.474 47.4291 234.728 47.5576 235.046L46.8047 235.358C46.719 235.168 46.5782 235.021 46.3824 234.917C46.1926 234.807 45.9784 234.752 45.7396 234.752C45.5193 234.752 45.3203 234.807 45.1428 234.917C44.9714 235.028 44.8857 235.162 44.8857 235.321C44.8857 235.579 45.1275 235.762 45.6111 235.872L46.2905 236.047C47.1842 236.267 47.6311 236.717 47.6311 237.397ZM50.468 238.792C49.8007 238.792 49.2468 238.566 48.806 238.113C48.3714 237.647 48.1541 237.075 48.1541 236.396C48.1541 235.704 48.3714 235.132 48.806 234.679C49.2468 234.226 49.8007 233.999 50.468 233.999C50.927 233.999 51.328 234.116 51.6708 234.348C52.0136 234.575 52.2707 234.89 52.4421 235.294L51.6708 235.615C51.4321 235.052 51.0127 234.77 50.4129 234.77C50.0272 234.77 49.6936 234.927 49.412 235.239C49.1366 235.551 48.9988 235.937 48.9988 236.396C48.9988 236.855 49.1366 237.24 49.412 237.553C49.6936 237.865 50.0272 238.021 50.4129 238.021C51.0311 238.021 51.4657 237.739 51.7167 237.176L52.4696 237.498C52.3043 237.902 52.0442 238.22 51.6891 238.452C51.3402 238.679 50.9332 238.792 50.468 238.792ZM54.0083 238.645H53.1636V234.146H53.9716V234.881H54.0083C54.094 234.642 54.2685 234.44 54.5317 234.275C54.801 234.103 55.0642 234.018 55.3213 234.018C55.5662 234.018 55.7743 234.054 55.9457 234.128L55.6886 234.945C55.5845 234.902 55.4193 234.881 55.1928 234.881C54.8745 234.881 54.5959 235.009 54.3572 235.266C54.1246 235.523 54.0083 235.823 54.0083 236.166V238.645ZM57.5918 232.594C57.5918 232.76 57.5337 232.9 57.4174 233.017C57.3011 233.133 57.1603 233.191 56.995 233.191C56.8297 233.191 56.6889 233.133 56.5726 233.017C56.4563 232.9 56.3982 232.76 56.3982 232.594C56.3982 232.429 56.4563 232.288 56.5726 232.172C56.6889 232.056 56.8297 231.998 56.995 231.998C57.1603 231.998 57.3011 232.056 57.4174 232.172C57.5337 232.288 57.5918 232.429 57.5918 232.594ZM57.4174 234.146V238.645H56.5726V234.146H57.4174ZM60.7204 238.021C61.1244 238.021 61.4641 237.868 61.7396 237.562C62.015 237.262 62.1527 236.873 62.1527 236.396C62.1527 235.924 62.015 235.536 61.7396 235.23C61.4641 234.924 61.1244 234.77 60.7204 234.77C60.3102 234.77 59.9674 234.924 59.692 235.23C59.4226 235.536 59.288 235.924 59.288 236.396C59.288 236.873 59.4226 237.265 59.692 237.571C59.9674 237.871 60.3102 238.021 60.7204 238.021ZM60.8581 238.792C60.5275 238.792 60.2245 238.722 59.9491 238.581C59.6797 238.44 59.4716 238.254 59.3247 238.021H59.288L59.3247 238.645V240.629H58.48V234.146H59.288V234.77H59.3247C59.4716 234.538 59.6797 234.351 59.9491 234.21C60.2245 234.07 60.5275 233.999 60.8581 233.999C61.4519 233.999 61.9538 234.232 62.3639 234.697C62.7863 235.168 62.9975 235.735 62.9975 236.396C62.9975 237.063 62.7863 237.629 62.3639 238.094C61.9538 238.56 61.4519 238.792 60.8581 238.792ZM65.3732 238.719C65.0059 238.719 64.6998 238.605 64.455 238.379C64.2162 238.153 64.0938 237.837 64.0877 237.433V234.917H63.298V234.146H64.0877V232.769H64.9324V234.146H66.0343V234.917H64.9324V237.158C64.9324 237.458 64.9906 237.663 65.1069 237.773C65.2232 237.877 65.3548 237.929 65.5017 237.929C65.569 237.929 65.6333 237.923 65.6945 237.911C65.7619 237.892 65.8231 237.871 65.8782 237.846L66.1444 238.599C65.9241 238.679 65.667 238.719 65.3732 238.719ZM67.9753 232.594C67.9753 232.76 67.9171 232.9 67.8008 233.017C67.6845 233.133 67.5437 233.191 67.3785 233.191C67.2132 233.191 67.0724 233.133 66.9561 233.017C66.8398 232.9 66.7816 232.76 66.7816 232.594C66.7816 232.429 66.8398 232.288 66.9561 232.172C67.0724 232.056 67.2132 231.998 67.3785 231.998C67.5437 231.998 67.6845 232.056 67.8008 232.172C67.9171 232.288 67.9753 232.429 67.9753 232.594ZM67.8008 234.146V238.645H66.9561V234.146H67.8008ZM68.5982 236.396C68.5982 235.704 68.8155 235.132 69.2502 234.679C69.6909 234.226 70.2449 233.999 70.9121 233.999C71.5793 233.999 72.1302 234.226 72.5648 234.679C73.0056 235.132 73.2259 235.704 73.2259 236.396C73.2259 237.094 73.0056 237.666 72.5648 238.113C72.1302 238.566 71.5793 238.792 70.9121 238.792C70.2449 238.792 69.6909 238.566 69.2502 238.113C68.8155 237.66 68.5982 237.087 68.5982 236.396ZM69.443 236.396C69.443 236.879 69.5838 237.271 69.8653 237.571C70.1469 237.871 70.4958 238.021 70.9121 238.021C71.3283 238.021 71.6772 237.871 71.9588 237.571C72.2404 237.271 72.3812 236.879 72.3812 236.396C72.3812 235.918 72.2404 235.53 71.9588 235.23C71.6711 234.924 71.3222 234.77 70.9121 234.77C70.502 234.77 70.153 234.924 69.8653 235.23C69.5838 235.53 69.443 235.918 69.443 236.396ZM73.9036 234.146H74.7116V234.77H74.7483C74.8769 234.55 75.0728 234.366 75.336 234.22C75.6053 234.073 75.8838 233.999 76.1715 233.999C76.7224 233.999 77.1448 234.158 77.4386 234.477C77.7386 234.789 77.8885 235.236 77.8885 235.817V238.645H77.0438V235.872C77.0254 235.138 76.6551 234.77 75.9328 234.77C75.5961 234.77 75.3145 234.908 75.0881 235.184C74.8616 235.453 74.7483 235.777 74.7483 236.157V238.645H73.9036V234.146Z" fill="#434343" fill-opacity="0.7"/>
<path d="M34.1817 255.635C34.1817 255.806 34.1204 255.953 33.998 256.075C33.8817 256.198 33.7348 256.259 33.5573 256.259C33.3859 256.259 33.239 256.198 33.1166 256.075C32.9941 255.953 32.9329 255.806 32.9329 255.635C32.9329 255.457 32.9941 255.31 33.1166 255.194C33.239 255.071 33.3859 255.01 33.5573 255.01C33.7348 255.01 33.8817 255.071 33.998 255.194C34.1204 255.31 34.1817 255.457 34.1817 255.635ZM36.3157 255.635C36.3157 255.806 36.2545 255.953 36.1321 256.075C36.0158 256.198 35.8689 256.259 35.6914 256.259C35.52 256.259 35.3731 256.198 35.2506 256.075C35.1282 255.953 35.067 255.806 35.067 255.635C35.067 255.457 35.1282 255.31 35.2506 255.194C35.3731 255.071 35.52 255.01 35.6914 255.01C35.8689 255.01 36.0158 255.071 36.1321 255.194C36.2545 255.31 36.3157 255.457 36.3157 255.635ZM38.4498 255.635C38.4498 255.806 38.3886 255.953 38.2662 256.075C38.1499 256.198 38.003 256.259 37.8254 256.259C37.6541 256.259 37.5071 256.198 37.3847 256.075C37.2623 255.953 37.2011 255.806 37.2011 255.635C37.2011 255.457 37.2623 255.31 37.3847 255.194C37.5071 255.071 37.6541 255.01 37.8254 255.01C38.003 255.01 38.1499 255.071 38.2662 255.194C38.3886 255.31 38.4498 255.457 38.4498 255.635Z" fill="#434343" fill-opacity="0.7"/>
<path d="M22.2151 96.2825V99.3257H21.2497V91.8122H23.8101C24.4607 91.8122 25.0134 92.0291 25.4681 92.4629C25.9298 92.8966 26.1607 93.4248 26.1607 94.0474C26.1607 94.684 25.9298 95.2157 25.4681 95.6424C25.0204 96.0692 24.4677 96.2825 23.8101 96.2825H22.2151ZM22.2151 92.7357V95.3591H23.8311C24.2159 95.3591 24.5342 95.2297 24.786 94.9708C25.0449 94.712 25.1743 94.4042 25.1743 94.0474C25.1743 93.6976 25.0449 93.3933 24.786 93.1344C24.5342 92.8686 24.2159 92.7357 23.8311 92.7357H22.2151ZM27.9704 99.3257H27.0049V94.1838H27.9284V95.0233H27.9704C28.0683 94.7505 28.2677 94.5196 28.5685 94.3307C28.8763 94.1348 29.1771 94.0369 29.4709 94.0369C29.7508 94.0369 29.9886 94.0789 30.1845 94.1628L29.8907 95.0968C29.7718 95.0478 29.5829 95.0233 29.324 95.0233C28.9603 95.0233 28.642 95.1702 28.3691 95.464C28.1033 95.7579 27.9704 96.1006 27.9704 96.4924V99.3257ZM32.808 99.4936C32.0525 99.4936 31.4298 99.2347 30.9401 98.7171C30.4504 98.1994 30.2056 97.5453 30.2056 96.7547C30.2056 95.9712 30.4434 95.3206 30.9191 94.8029C31.3949 94.2782 32.0035 94.0159 32.745 94.0159C33.5076 94.0159 34.1127 94.2643 34.5604 94.761C35.0152 95.2507 35.2425 95.9397 35.2425 96.8282L35.232 96.9331H31.192C31.206 97.4368 31.3739 97.8426 31.6957 98.1504C32.0175 98.4582 32.4022 98.6121 32.85 98.6121C33.4656 98.6121 33.9483 98.3043 34.2981 97.6887L35.1586 98.1084C34.9277 98.5422 34.6059 98.8815 34.1932 99.1263C33.7874 99.3712 33.3257 99.4936 32.808 99.4936ZM31.2654 96.1356H34.2141C34.1862 95.7788 34.0393 95.485 33.7734 95.2542C33.5146 95.0163 33.1648 94.8974 32.7241 94.8974C32.3603 94.8974 32.0455 95.0093 31.7796 95.2332C31.5208 95.457 31.3494 95.7579 31.2654 96.1356ZM39.4833 96.4714H36.1254V95.6739H39.4833V96.4714ZM41.9036 92.4104C41.9036 92.5993 41.8371 92.7602 41.7042 92.8931C41.5713 93.026 41.4104 93.0925 41.2215 93.0925C41.0326 93.0925 40.8717 93.026 40.7388 92.8931C40.6059 92.7602 40.5394 92.5993 40.5394 92.4104C40.5394 92.2215 40.6059 92.0606 40.7388 91.9277C40.8717 91.7948 41.0326 91.7283 41.2215 91.7283C41.4104 91.7283 41.5713 91.7948 41.7042 91.9277C41.8371 92.0606 41.9036 92.2215 41.9036 92.4104ZM41.7042 94.1838V99.3257H40.7388V94.1838H41.7042ZM42.9606 94.1838H43.884V94.8974H43.926C44.0729 94.6455 44.2968 94.4357 44.5976 94.2678C44.9054 94.0999 45.2237 94.0159 45.5525 94.0159C46.1821 94.0159 46.6648 94.1978 47.0006 94.5616C47.3434 94.9184 47.5148 95.429 47.5148 96.0936V99.3257H46.5494V96.1566C46.5284 95.3171 46.1052 94.8974 45.2797 94.8974C44.8949 94.8974 44.5731 95.0548 44.3143 95.3696C44.0554 95.6774 43.926 96.0482 43.926 96.4819V99.3257H42.9606V94.1838ZM50.9171 91.7283C51.2669 91.7283 51.5537 91.7878 51.7776 91.9067L51.5153 92.7567C51.3474 92.6727 51.1585 92.6307 50.9486 92.6307C50.7108 92.6307 50.5149 92.7147 50.361 92.8826C50.2141 93.0435 50.1406 93.2604 50.1406 93.5332V94.1838H51.4838V95.0653H50.1406V99.3257H49.1752V95.0653H48.2098V94.1838H49.1752V93.4388C49.1752 92.9281 49.3361 92.5153 49.6579 92.2005C49.9867 91.8857 50.4064 91.7283 50.9171 91.7283ZM51.7974 96.7547C51.7974 95.9642 52.0458 95.3101 52.5425 94.7924C53.0462 94.2748 53.6793 94.0159 54.4418 94.0159C55.2044 94.0159 55.834 94.2748 56.3307 94.7924C56.8344 95.3101 57.0862 95.9642 57.0862 96.7547C57.0862 97.5523 56.8344 98.2064 56.3307 98.7171C55.834 99.2347 55.2044 99.4936 54.4418 99.4936C53.6793 99.4936 53.0462 99.2347 52.5425 98.7171C52.0458 98.1994 51.7974 97.5453 51.7974 96.7547ZM52.7629 96.7547C52.7629 97.3074 52.9238 97.7551 53.2456 98.0979C53.5674 98.4407 53.9661 98.6121 54.4418 98.6121C54.9176 98.6121 55.3163 98.4407 55.6381 98.0979C55.9599 97.7551 56.1208 97.3074 56.1208 96.7547C56.1208 96.2091 55.9599 95.7648 55.6381 95.4221C55.3093 95.0723 54.9106 94.8974 54.4418 94.8974C53.9731 94.8974 53.5744 95.0723 53.2456 95.4221C52.9238 95.7648 52.7629 96.2091 52.7629 96.7547ZM58.8261 99.3257H57.8607V94.1838H58.7842V95.0233H58.8261C58.9241 94.7505 59.1234 94.5196 59.4243 94.3307C59.7321 94.1348 60.0329 94.0369 60.3267 94.0369C60.6065 94.0369 60.8444 94.0789 61.0403 94.1628L60.7465 95.0968C60.6275 95.0478 60.4386 95.0233 60.1798 95.0233C59.816 95.0233 59.4977 95.1702 59.2249 95.464C58.959 95.7579 58.8261 96.1006 58.8261 96.4924V99.3257ZM62.6383 99.3257H61.6729V94.1838H62.5963V94.8974H62.6383C62.7852 94.6455 63.009 94.4357 63.3099 94.2678C63.6177 94.0999 63.922 94.0159 64.2228 94.0159C64.6006 94.0159 64.9329 94.1034 65.2197 94.2782C65.5065 94.4531 65.7164 94.6945 65.8493 95.0023C66.2761 94.3447 66.8672 94.0159 67.6227 94.0159C68.2174 94.0159 68.6756 94.1978 68.9974 94.5616C69.3192 94.9254 69.4801 95.443 69.4801 96.1146V99.3257H68.5147V96.2615C68.5147 95.7788 68.4272 95.4325 68.2524 95.2227C68.0775 95.0058 67.7836 94.8974 67.3709 94.8974C67.0001 94.8974 66.6888 95.0548 66.437 95.3696C66.1851 95.6844 66.0592 96.0552 66.0592 96.4819V99.3257H65.0938V96.2615C65.0938 95.7788 65.0063 95.4325 64.8314 95.2227C64.6565 95.0058 64.3627 94.8974 63.95 94.8974C63.5792 94.8974 63.2679 95.0548 63.016 95.3696C62.7642 95.6844 62.6383 96.0552 62.6383 96.4819V99.3257ZM71.2607 97.7516C71.2607 98.0035 71.3656 98.2134 71.5755 98.3813C71.7923 98.5492 72.0442 98.6331 72.331 98.6331C72.7368 98.6331 73.0971 98.4827 73.4119 98.1819C73.7337 97.8811 73.8946 97.5278 73.8946 97.122C73.5938 96.8842 73.174 96.7652 72.6353 96.7652C72.2436 96.7652 71.9148 96.8597 71.6489 97.0486C71.3901 97.2375 71.2607 97.4718 71.2607 97.7516ZM72.5094 94.0159C73.223 94.0159 73.7861 94.2083 74.1989 94.5931C74.6116 94.9708 74.818 95.492 74.818 96.1566V99.3257H73.8946V98.6121H73.8526C73.4538 99.1998 72.9222 99.4936 72.2576 99.4936C71.6909 99.4936 71.2152 99.3257 70.8304 98.9899C70.4527 98.6541 70.2638 98.2343 70.2638 97.7307C70.2638 97.199 70.4632 96.7757 70.8619 96.4609C71.2677 96.1461 71.8063 95.9887 72.4779 95.9887C73.0516 95.9887 73.5238 96.0936 73.8946 96.3035V96.0832C73.8946 95.7474 73.7616 95.464 73.4958 95.2332C73.23 94.9953 72.9187 94.8764 72.5619 94.8764C72.0232 94.8764 71.5965 95.1037 71.2817 95.5585L70.4317 95.0233C70.9004 94.3517 71.593 94.0159 72.5094 94.0159ZM77.8402 99.4096C77.4204 99.4096 77.0706 99.2802 76.7908 99.0214C76.518 98.7625 76.3781 98.4022 76.3711 97.9405V95.0653H75.4686V94.1838H76.3711V92.6098H77.3365V94.1838H78.5957V95.0653H77.3365V97.6257C77.3365 97.9685 77.4029 98.2029 77.5359 98.3288C77.6688 98.4477 77.8192 98.5072 77.9871 98.5072C78.064 98.5072 78.1375 98.5002 78.2074 98.4862C78.2844 98.4652 78.3544 98.4407 78.4173 98.4127L78.7216 99.2732C78.4698 99.3642 78.176 99.4096 77.8402 99.4096ZM80.814 92.4104C80.814 92.5993 80.7476 92.7602 80.6147 92.8931C80.4818 93.026 80.3208 93.0925 80.132 93.0925C79.9431 93.0925 79.7822 93.026 79.6493 92.8931C79.5163 92.7602 79.4499 92.5993 79.4499 92.4104C79.4499 92.2215 79.5163 92.0606 79.6493 91.9277C79.7822 91.7948 79.9431 91.7283 80.132 91.7283C80.3208 91.7283 80.4818 91.7948 80.6147 91.9277C80.7476 92.0606 80.814 92.2215 80.814 92.4104ZM80.6147 94.1838V99.3257H79.6493V94.1838H80.6147ZM81.526 96.7547C81.526 95.9642 81.7743 95.3101 82.271 94.7924C82.7747 94.2748 83.4078 94.0159 84.1704 94.0159C84.9329 94.0159 85.5625 94.2748 86.0592 94.7924C86.5629 95.3101 86.8148 95.9642 86.8148 96.7547C86.8148 97.5523 86.5629 98.2064 86.0592 98.7171C85.5625 99.2347 84.9329 99.4936 84.1704 99.4936C83.4078 99.4936 82.7747 99.2347 82.271 98.7171C81.7743 98.1994 81.526 97.5453 81.526 96.7547ZM82.4914 96.7547C82.4914 97.3074 82.6523 97.7551 82.9741 98.0979C83.2959 98.4407 83.6947 98.6121 84.1704 98.6121C84.6461 98.6121 85.0448 98.4407 85.3666 98.0979C85.6884 97.7551 85.8494 97.3074 85.8494 96.7547C85.8494 96.2091 85.6884 95.7648 85.3666 95.4221C85.0378 95.0723 84.6391 94.8974 84.1704 94.8974C83.7017 94.8974 83.3029 95.0723 82.9741 95.4221C82.6523 95.7648 82.4914 96.2091 82.4914 96.7547ZM87.5892 94.1838H88.5127V94.8974H88.5547C88.7016 94.6455 88.9254 94.4357 89.2263 94.2678C89.5341 94.0999 89.8524 94.0159 90.1812 94.0159C90.8108 94.0159 91.2935 94.1978 91.6293 94.5616C91.9721 94.9184 92.1435 95.429 92.1435 96.0936V99.3257H91.1781V96.1566C91.1571 95.3171 90.7338 94.8974 89.9083 94.8974C89.5236 94.8974 89.2018 95.0548 88.9429 95.3696C88.6841 95.6774 88.5547 96.0482 88.5547 96.4819V99.3257H87.5892V94.1838Z" fill="#151515"/>
<path d="M22 350.393V353.056H21.1552V346.481H23.3956C23.9649 346.481 24.4485 346.671 24.8464 347.051C25.2504 347.43 25.4524 347.892 25.4524 348.437C25.4524 348.994 25.2504 349.459 24.8464 349.833C24.4546 350.206 23.971 350.393 23.3956 350.393H22ZM22 347.289V349.585H23.414C23.7507 349.585 24.0292 349.472 24.2495 349.245C24.476 349.019 24.5893 348.749 24.5893 348.437C24.5893 348.131 24.476 347.865 24.2495 347.638C24.0292 347.406 23.7507 347.289 23.414 347.289H22ZM30.0497 353.056H29.2416V352.431H29.2049C29.0764 352.652 28.8774 352.835 28.6081 352.982C28.3449 353.129 28.0694 353.203 27.7817 353.203C27.2308 353.203 26.8054 353.046 26.5054 352.734C26.2116 352.416 26.0647 351.966 26.0647 351.385V348.557H26.9094V351.329C26.9278 352.064 27.2981 352.431 28.0204 352.431C28.3571 352.431 28.6387 352.297 28.8652 352.027C29.0917 351.752 29.2049 351.424 29.2049 351.045V348.557H30.0497V353.056ZM33.4561 353.203C33.1255 353.203 32.8225 353.132 32.5471 352.991C32.2777 352.851 32.0696 352.664 31.9227 352.431H31.886V353.056H31.078V346.481H31.9227V348.557L31.886 349.181H31.9227C32.0696 348.948 32.2777 348.762 32.5471 348.621C32.8225 348.48 33.1255 348.41 33.4561 348.41C34.0498 348.41 34.5518 348.642 34.9619 349.107C35.3843 349.579 35.5955 350.145 35.5955 350.806C35.5955 351.473 35.3843 352.04 34.9619 352.505C34.5518 352.97 34.0498 353.203 33.4561 353.203ZM33.3183 352.431C33.7224 352.431 34.0621 352.278 34.3375 351.972C34.613 351.672 34.7507 351.284 34.7507 350.806C34.7507 350.335 34.613 349.946 34.3375 349.64C34.0621 349.334 33.7224 349.181 33.3183 349.181C32.9082 349.181 32.5654 349.334 32.29 349.64C32.0206 349.946 31.886 350.335 31.886 350.806C31.886 351.284 32.0206 351.675 32.29 351.981C32.5654 352.281 32.9082 352.431 33.3183 352.431ZM37.1682 346.481V353.056H36.3235V346.481H37.1682ZM39.2902 347.005C39.2902 347.17 39.232 347.311 39.1157 347.427C38.9994 347.543 38.8586 347.602 38.6934 347.602C38.5281 347.602 38.3873 347.543 38.271 347.427C38.1547 347.311 38.0965 347.17 38.0965 347.005C38.0965 346.84 38.1547 346.699 38.271 346.582C38.3873 346.466 38.5281 346.408 38.6934 346.408C38.8586 346.408 38.9994 346.466 39.1157 346.582C39.232 346.699 39.2902 346.84 39.2902 347.005ZM39.1157 348.557V353.056H38.271V348.557H39.1157ZM42.227 353.203C41.5597 353.203 41.0058 352.976 40.565 352.523C40.1304 352.058 39.9131 351.486 39.9131 350.806C39.9131 350.114 40.1304 349.542 40.565 349.089C41.0058 348.636 41.5597 348.41 42.227 348.41C42.6861 348.41 43.087 348.526 43.4298 348.759C43.7726 348.985 44.0297 349.3 44.2011 349.704L43.4298 350.026C43.1911 349.462 42.7718 349.181 42.1719 349.181C41.7862 349.181 41.4526 349.337 41.171 349.649C40.8956 349.961 40.7579 350.347 40.7579 350.806C40.7579 351.265 40.8956 351.651 41.171 351.963C41.4526 352.275 41.7862 352.431 42.1719 352.431C42.7901 352.431 43.2247 352.15 43.4757 351.587L44.2286 351.908C44.0633 352.312 43.8032 352.63 43.4482 352.863C43.0992 353.089 42.6922 353.203 42.227 353.203Z" fill="#151515"/>
<rect width="13.117" height="13.117" transform="translate(240.859 343.497)" fill="white" fill-opacity="0.01"/>
<circle cx="247.418" cy="350.056" r="5.24681" stroke="#8B9293" stroke-width="1.3117"/>
<line x1="20.4941" y1="374.383" x2="256.601" y2="374.384" stroke="#122023" stroke-opacity="0.14" stroke-width="0.655852"/>
<path d="M23.7996 316.068H22.9182L20.6043 309.494H21.5409L23.3405 314.829H23.3773L25.2504 309.494H26.1869L23.7996 316.068ZM27.7231 310.017C27.7231 310.183 27.665 310.324 27.5487 310.44C27.4324 310.556 27.2916 310.614 27.1263 310.614C26.961 310.614 26.8202 310.556 26.7039 310.44C26.5876 310.324 26.5295 310.183 26.5295 310.017C26.5295 309.852 26.5876 309.711 26.7039 309.595C26.8202 309.479 26.961 309.421 27.1263 309.421C27.2916 309.421 27.4324 309.479 27.5487 309.595C27.665 309.711 27.7231 309.852 27.7231 310.017ZM27.5487 311.569V316.068H26.7039V311.569H27.5487ZM32.0912 314.82C32.0912 315.211 31.9198 315.542 31.577 315.811C31.2342 316.081 30.8027 316.215 30.2824 316.215C29.8294 316.215 29.4315 316.099 29.0887 315.866C28.7459 315.628 28.5011 315.315 28.3542 314.93L29.1071 314.608C29.2173 314.878 29.3764 315.089 29.5845 315.242C29.7988 315.389 30.0314 315.462 30.2824 315.462C30.5517 315.462 30.7751 315.404 30.9526 315.288C31.1363 315.172 31.2281 315.034 31.2281 314.875C31.2281 314.587 31.0077 314.376 30.567 314.241L29.7957 314.048C28.9204 313.828 28.4827 313.406 28.4827 312.781C28.4827 312.371 28.648 312.044 28.9785 311.799C29.3152 311.548 29.7437 311.422 30.264 311.422C30.6619 311.422 31.02 311.517 31.3383 311.707C31.6627 311.897 31.8892 312.151 32.0177 312.469L31.2648 312.781C31.1791 312.591 31.0383 312.445 30.8425 312.34C30.6527 312.23 30.4384 312.175 30.1997 312.175C29.9794 312.175 29.7804 312.23 29.6029 312.34C29.4315 312.451 29.3458 312.585 29.3458 312.745C29.3458 313.002 29.5876 313.185 30.0712 313.295L30.7506 313.47C31.6443 313.69 32.0912 314.14 32.0912 314.82ZM33.8743 310.017C33.8743 310.183 33.8161 310.324 33.6998 310.44C33.5835 310.556 33.4427 310.614 33.2775 310.614C33.1122 310.614 32.9714 310.556 32.8551 310.44C32.7388 310.324 32.6806 310.183 32.6806 310.017C32.6806 309.852 32.7388 309.711 32.8551 309.595C32.9714 309.479 33.1122 309.421 33.2775 309.421C33.4427 309.421 33.5835 309.479 33.6998 309.595C33.8161 309.711 33.8743 309.852 33.8743 310.017ZM33.6998 311.569V316.068H32.8551V311.569H33.6998ZM37.1773 316.215C36.8467 316.215 36.5437 316.145 36.2683 316.004C35.9989 315.863 35.7908 315.677 35.6439 315.444H35.6072V316.068H34.7991V309.494H35.6439V311.569L35.6072 312.194H35.6439C35.7908 311.961 35.9989 311.774 36.2683 311.633C36.5437 311.493 36.8467 311.422 37.1773 311.422C37.771 311.422 38.273 311.655 38.6831 312.12C39.1055 312.591 39.3167 313.158 39.3167 313.819C39.3167 314.486 39.1055 315.052 38.6831 315.517C38.273 315.983 37.771 316.215 37.1773 316.215ZM37.0395 315.444C37.4435 315.444 37.7833 315.291 38.0587 314.985C38.3342 314.685 38.4719 314.296 38.4719 313.819C38.4719 313.347 38.3342 312.959 38.0587 312.653C37.7833 312.347 37.4435 312.194 37.0395 312.194C36.6294 312.194 36.2866 312.347 36.0112 312.653C35.7418 312.959 35.6072 313.347 35.6072 313.819C35.6072 314.296 35.7418 314.688 36.0112 314.994C36.2866 315.294 36.6294 315.444 37.0395 315.444ZM41.1373 310.017C41.1373 310.183 41.0792 310.324 40.9629 310.44C40.8466 310.556 40.7058 310.614 40.5405 310.614C40.3752 310.614 40.2344 310.556 40.1181 310.44C40.0018 310.324 39.9437 310.183 39.9437 310.017C39.9437 309.852 40.0018 309.711 40.1181 309.595C40.2344 309.479 40.3752 309.421 40.5405 309.421C40.7058 309.421 40.8466 309.479 40.9629 309.595C41.0792 309.711 41.1373 309.852 41.1373 310.017ZM40.9629 311.569V316.068H40.1181V311.569H40.9629ZM42.9069 309.494V316.068H42.0622V309.494H42.9069ZM45.0289 310.017C45.0289 310.183 44.9707 310.324 44.8544 310.44C44.7381 310.556 44.5973 310.614 44.4321 310.614C44.2668 310.614 44.126 310.556 44.0097 310.44C43.8934 310.324 43.8352 310.183 43.8352 310.017C43.8352 309.852 43.8934 309.711 44.0097 309.595C44.126 309.479 44.2668 309.421 44.4321 309.421C44.5973 309.421 44.7381 309.479 44.8544 309.595C44.9707 309.711 45.0289 309.852 45.0289 310.017ZM44.8544 311.569V316.068H44.0097V311.569H44.8544ZM47.6902 316.142C47.3229 316.142 47.0169 316.029 46.772 315.802C46.5333 315.576 46.4109 315.26 46.4047 314.856V312.34H45.6151V311.569H46.4047V310.192H47.2495V311.569H48.3513V312.34H47.2495V314.581C47.2495 314.881 47.3076 315.086 47.4239 315.196C47.5402 315.3 47.6718 315.352 47.8188 315.352C47.8861 315.352 47.9504 315.346 48.0116 315.334C48.0789 315.315 48.1401 315.294 48.1952 315.27L48.4615 316.022C48.2411 316.102 47.984 316.142 47.6902 316.142ZM53.2214 311.569L50.4025 318.052H49.5302L50.577 315.784L48.7222 311.569H49.6404L50.981 314.801H50.9994L52.3032 311.569H53.2214Z" fill="#151515" fill-opacity="0.7"/>
<path d="M24.2495 432.957C23.2763 432.957 22.4621 432.629 21.8072 431.975C21.1583 431.32 20.8339 430.502 20.8339 429.523C20.8339 428.544 21.1583 427.729 21.8072 427.081C22.456 426.419 23.2701 426.089 24.2495 426.089C25.2412 426.089 26.0461 426.447 26.6644 427.163L26.0584 427.751C25.587 427.182 24.9841 426.897 24.2495 426.897C23.5211 426.897 22.912 427.142 22.4223 427.631C21.9388 428.115 21.697 428.746 21.697 429.523C21.697 430.3 21.9388 430.931 22.4223 431.414C22.912 431.904 23.5211 432.149 24.2495 432.149C25.0147 432.149 25.6789 431.828 26.242 431.185L26.8572 431.782C26.545 432.155 26.1624 432.446 25.7095 432.654C25.2565 432.856 24.7699 432.957 24.2495 432.957ZM27.2611 430.56C27.2611 429.869 27.4784 429.296 27.913 428.843C28.3537 428.39 28.9077 428.164 29.5749 428.164C30.2421 428.164 30.7931 428.39 31.2277 428.843C31.6684 429.296 31.8888 429.869 31.8888 430.56C31.8888 431.258 31.6684 431.831 31.2277 432.278C30.7931 432.73 30.2421 432.957 29.5749 432.957C28.9077 432.957 28.3537 432.73 27.913 432.278C27.4784 431.825 27.2611 431.252 27.2611 430.56ZM28.1058 430.56C28.1058 431.044 28.2466 431.436 28.5282 431.736C28.8098 432.036 29.1587 432.186 29.5749 432.186C29.9912 432.186 30.3401 432.036 30.6217 431.736C30.9032 431.436 31.044 431.044 31.044 430.56C31.044 430.083 30.9032 429.694 30.6217 429.394C30.334 429.088 29.985 428.935 29.5749 428.935C29.1648 428.935 28.8159 429.088 28.5282 429.394C28.2466 429.694 28.1058 430.083 28.1058 430.56ZM32.5664 428.311H33.3744V428.935H33.4112C33.5397 428.715 33.7356 428.531 33.9988 428.384C34.2681 428.237 34.5467 428.164 34.8344 428.164C35.3853 428.164 35.8077 428.323 36.1015 428.641C36.4014 428.954 36.5514 429.401 36.5514 429.982V432.81H35.7066V430.037C35.6883 429.303 35.3179 428.935 34.5956 428.935C34.259 428.935 33.9774 429.073 33.7509 429.348C33.5244 429.618 33.4112 429.942 33.4112 430.322V432.81H32.5664V428.311ZM39.0911 432.884C38.7238 432.884 38.4178 432.77 38.1729 432.544C37.9342 432.317 37.8118 432.002 37.8057 431.598V429.082H37.016V428.311H37.8057V426.934H38.6504V428.311H39.7522V429.082H38.6504V431.323C38.6504 431.623 38.7085 431.828 38.8248 431.938C38.9412 432.042 39.0728 432.094 39.2197 432.094C39.287 432.094 39.3513 432.088 39.4125 432.076C39.4798 432.057 39.541 432.036 39.5961 432.011L39.8624 432.764C39.642 432.844 39.3849 432.884 39.0911 432.884ZM41.4005 432.81H40.5558V428.311H41.3638V429.045H41.4005C41.4862 428.807 41.6607 428.605 41.9239 428.439C42.1932 428.268 42.4564 428.182 42.7135 428.182C42.9584 428.182 43.1665 428.219 43.3379 428.293L43.0808 429.11C42.9767 429.067 42.8115 429.045 42.585 429.045C42.2667 429.045 41.9882 429.174 41.7494 429.431C41.5168 429.688 41.4005 429.988 41.4005 430.331V432.81ZM44.9841 426.759C44.9841 426.924 44.9259 427.065 44.8096 427.182C44.6933 427.298 44.5525 427.356 44.3872 427.356C44.222 427.356 44.0812 427.298 43.9649 427.182C43.8486 427.065 43.7904 426.924 43.7904 426.759C43.7904 426.594 43.8486 426.453 43.9649 426.337C44.0812 426.22 44.222 426.162 44.3872 426.162C44.5525 426.162 44.6933 426.22 44.8096 426.337C44.9259 426.453 44.9841 426.594 44.9841 426.759ZM44.8096 428.311V432.81H43.9649V428.311H44.8096ZM48.287 432.957C47.9565 432.957 47.6535 432.887 47.378 432.746C47.1087 432.605 46.9006 432.418 46.7537 432.186H46.7169V432.81H45.9089V426.236H46.7537V428.311L46.7169 428.935H46.7537C46.9006 428.703 47.1087 428.516 47.378 428.375C47.6535 428.234 47.9565 428.164 48.287 428.164C48.8808 428.164 49.3827 428.397 49.7929 428.862C50.2152 429.333 50.4264 429.899 50.4264 430.56C50.4264 431.228 50.2152 431.794 49.7929 432.259C49.3827 432.724 48.8808 432.957 48.287 432.957ZM48.1493 432.186C48.5533 432.186 48.893 432.033 49.1685 431.727C49.444 431.427 49.5817 431.038 49.5817 430.56C49.5817 430.089 49.444 429.7 49.1685 429.394C48.893 429.088 48.5533 428.935 48.1493 428.935C47.7392 428.935 47.3964 429.088 47.1209 429.394C46.8516 429.7 46.7169 430.089 46.7169 430.56C46.7169 431.038 46.8516 431.43 47.1209 431.736C47.3964 432.036 47.7392 432.186 48.1493 432.186ZM55.1027 432.81H54.2947V432.186H54.2579C54.1294 432.406 53.9304 432.59 53.6611 432.737C53.3979 432.884 53.1224 432.957 52.8347 432.957C52.2838 432.957 51.8584 432.801 51.5585 432.489C51.2646 432.17 51.1177 431.72 51.1177 431.139V428.311H51.9625V431.084C51.9808 431.818 52.3512 432.186 53.0735 432.186C53.4101 432.186 53.6917 432.051 53.9182 431.782C54.1447 431.506 54.2579 431.179 54.2579 430.799V428.311H55.1027V432.81ZM57.9571 432.884C57.5898 432.884 57.2838 432.77 57.0389 432.544C56.8002 432.317 56.6778 432.002 56.6716 431.598V429.082H55.882V428.311H56.6716V426.934H57.5164V428.311H58.6182V429.082H57.5164V431.323C57.5164 431.623 57.5745 431.828 57.6908 431.938C57.8071 432.042 57.9387 432.094 58.0856 432.094C58.153 432.094 58.2173 432.088 58.2785 432.076C58.3458 432.057 58.407 432.036 58.4621 432.011L58.7284 432.764C58.508 432.844 58.2509 432.884 57.9571 432.884ZM60.5592 426.759C60.5592 426.924 60.5011 427.065 60.3848 427.182C60.2685 427.298 60.1277 427.356 59.9624 427.356C59.7971 427.356 59.6564 427.298 59.5401 427.182C59.4237 427.065 59.3656 426.924 59.3656 426.759C59.3656 426.594 59.4237 426.453 59.5401 426.337C59.6564 426.22 59.7971 426.162 59.9624 426.162C60.1277 426.162 60.2685 426.22 60.3848 426.337C60.5011 426.453 60.5592 426.594 60.5592 426.759ZM60.3848 428.311V432.81H59.5401V428.311H60.3848ZM61.1822 430.56C61.1822 429.869 61.3995 429.296 61.8341 428.843C62.2748 428.39 62.8288 428.164 63.496 428.164C64.1632 428.164 64.7142 428.39 65.1488 428.843C65.5895 429.296 65.8099 429.869 65.8099 430.56C65.8099 431.258 65.5895 431.831 65.1488 432.278C64.7142 432.73 64.1632 432.957 63.496 432.957C62.8288 432.957 62.2748 432.73 61.8341 432.278C61.3995 431.825 61.1822 431.252 61.1822 430.56ZM62.0269 430.56C62.0269 431.044 62.1677 431.436 62.4493 431.736C62.7309 432.036 63.0798 432.186 63.496 432.186C63.9123 432.186 64.2612 432.036 64.5428 431.736C64.8243 431.436 64.9651 431.044 64.9651 430.56C64.9651 430.083 64.8243 429.694 64.5428 429.394C64.2551 429.088 63.9062 428.935 63.496 428.935C63.0859 428.935 62.737 429.088 62.4493 429.394C62.1677 429.694 62.0269 430.083 62.0269 430.56ZM66.4875 428.311H67.2955V428.935H67.3323C67.4608 428.715 67.6567 428.531 67.9199 428.384C68.1893 428.237 68.4678 428.164 68.7555 428.164C69.3064 428.164 69.7288 428.323 70.0226 428.641C70.3225 428.954 70.4725 429.401 70.4725 429.982V432.81H69.6278V430.037C69.6094 429.303 69.2391 428.935 68.5167 428.935C68.1801 428.935 67.8985 429.073 67.672 429.348C67.4455 429.618 67.3323 429.942 67.3323 430.322V432.81H66.4875V428.311Z" fill="#151515" fill-opacity="0.7"/>
<path d="M22 387.776V390.439H21.1552V383.865H23.3956C23.9649 383.865 24.4485 384.055 24.8464 384.434C25.2504 384.814 25.4524 385.276 25.4524 385.821C25.4524 386.378 25.2504 386.843 24.8464 387.216C24.4546 387.59 23.971 387.776 23.3956 387.776H22ZM22 384.673V386.968H23.414C23.7507 386.968 24.0292 386.855 24.2495 386.629C24.476 386.402 24.5893 386.133 24.5893 385.821C24.5893 385.515 24.476 385.248 24.2495 385.022C24.0292 384.789 23.7507 384.673 23.414 384.673H22ZM27.0358 390.439H26.1911V385.94H26.9991V386.675H27.0358C27.1215 386.436 27.296 386.234 27.5592 386.069C27.8285 385.897 28.0918 385.812 28.3488 385.812C28.5937 385.812 28.8018 385.848 28.9732 385.922L28.7161 386.739C28.6121 386.696 28.4468 386.675 28.2203 386.675C27.902 386.675 27.6235 386.803 27.3847 387.06C27.1521 387.317 27.0358 387.617 27.0358 387.96V390.439ZM30.6194 384.388C30.6194 384.554 30.5612 384.694 30.4449 384.811C30.3286 384.927 30.1878 384.985 30.0225 384.985C29.8573 384.985 29.7165 384.927 29.6002 384.811C29.4839 384.694 29.4257 384.554 29.4257 384.388C29.4257 384.223 29.4839 384.082 29.6002 383.966C29.7165 383.85 29.8573 383.791 30.0225 383.791C30.1878 383.791 30.3286 383.85 30.4449 383.966C30.5612 384.082 30.6194 384.223 30.6194 384.388ZM30.4449 385.94V390.439H29.6002V385.94H30.4449ZM33.7295 390.439H32.8848L31.0668 385.94H31.985L33.3072 389.429H33.3255L34.6661 385.94H35.5659L33.7295 390.439ZM36.6428 389.062C36.6428 389.282 36.7346 389.466 36.9182 389.613C37.108 389.76 37.3284 389.833 37.5793 389.833C37.9344 389.833 38.2496 389.702 38.5251 389.438C38.8066 389.175 38.9474 388.866 38.9474 388.511C38.6842 388.303 38.3169 388.199 37.8456 388.199C37.5028 388.199 37.2151 388.281 36.9825 388.447C36.756 388.612 36.6428 388.817 36.6428 389.062ZM37.7354 385.793C38.3598 385.793 38.8526 385.961 39.2137 386.298C39.5749 386.629 39.7554 387.085 39.7554 387.666V390.439H38.9474V389.815H38.9107C38.5618 390.329 38.0966 390.586 37.5151 390.586C37.0192 390.586 36.603 390.439 36.2663 390.145C35.9358 389.852 35.7705 389.484 35.7705 389.044C35.7705 388.578 35.9449 388.208 36.2939 387.933C36.6489 387.657 37.1202 387.519 37.7079 387.519C38.2098 387.519 38.623 387.611 38.9474 387.795V387.602C38.9474 387.308 38.8311 387.06 38.5985 386.858C38.3659 386.65 38.0935 386.546 37.7813 386.546C37.31 386.546 36.9366 386.745 36.6611 387.143L35.9174 386.675C36.3275 386.087 36.9335 385.793 37.7354 385.793ZM42.3998 390.513C42.0326 390.513 41.7265 390.399 41.4816 390.173C41.2429 389.946 41.1205 389.631 41.1144 389.227V386.711H40.3247V385.94H41.1144V384.563H41.9591V385.94H43.0609V386.711H41.9591V388.952C41.9591 389.252 42.0173 389.457 42.1336 389.567C42.2499 389.671 42.3815 389.723 42.5284 389.723C42.5957 389.723 42.66 389.717 42.7212 389.705C42.7885 389.686 42.8498 389.665 42.9048 389.64L43.1711 390.393C42.9508 390.473 42.6937 390.513 42.3998 390.513ZM45.8397 390.586C45.1786 390.586 44.6338 390.36 44.2053 389.907C43.7768 389.454 43.5626 388.881 43.5626 388.19C43.5626 387.504 43.7707 386.935 44.1869 386.482C44.6032 386.023 45.1357 385.793 45.7846 385.793C46.4518 385.793 46.9813 386.01 47.3731 386.445C47.771 386.874 47.9699 387.477 47.9699 388.254L47.9607 388.346H44.4257C44.4379 388.786 44.5848 389.141 44.8664 389.411C45.148 389.68 45.4847 389.815 45.8764 389.815C46.4151 389.815 46.8375 389.546 47.1435 389.007L47.8964 389.374C47.6944 389.754 47.4129 390.051 47.0517 390.265C46.6967 390.479 46.2927 390.586 45.8397 390.586ZM44.4899 387.648H47.0701C47.0456 387.336 46.917 387.079 46.6844 386.877C46.4579 386.668 46.1519 386.564 45.7662 386.564C45.4479 386.564 45.1725 386.662 44.9399 386.858C44.7134 387.054 44.5634 387.317 44.4899 387.648Z" fill="#151515"/>
<rect width="13.117" height="13.117" transform="translate(240.859 380.881)" fill="white" fill-opacity="0.01"/>
<circle cx="247.418" cy="387.439" r="5.24681" stroke="#8B9293" stroke-width="1.3117"/>
<line x1="20.4941" y1="411.767" x2="256.601" y2="411.767" stroke="#122023" stroke-opacity="0.14" stroke-width="0.655852"/>
<path d="M24.9933 463.223V464.031H22V466.115H24.6995V466.905H22V468.989H24.9933V469.797H21.1552V463.223H24.9933ZM25.8952 465.298H26.7032V465.922H26.7399C26.8685 465.702 27.0644 465.518 27.3276 465.371C27.5969 465.225 27.8754 465.151 28.1631 465.151C28.714 465.151 29.1364 465.31 29.4302 465.629C29.7302 465.941 29.8801 466.388 29.8801 466.969V469.797H29.0354V467.024C29.017 466.29 28.6467 465.922 27.9244 465.922C27.5877 465.922 27.3061 466.06 27.0797 466.336C26.8532 466.605 26.7399 466.929 26.7399 467.309V469.797H25.8952V465.298ZM31.4421 468.42C31.4421 468.64 31.5339 468.824 31.7175 468.971C31.9073 469.118 32.1277 469.191 32.3786 469.191C32.7337 469.191 33.0489 469.06 33.3244 468.796C33.606 468.533 33.7467 468.224 33.7467 467.869C33.4835 467.661 33.1162 467.557 32.6449 467.557C32.3021 467.557 32.0144 467.639 31.7818 467.805C31.5553 467.97 31.4421 468.175 31.4421 468.42ZM32.5347 465.151C33.1591 465.151 33.6519 465.319 34.013 465.656C34.3742 465.987 34.5547 466.443 34.5547 467.024V469.797H33.7467V469.173H33.71C33.3611 469.687 32.8959 469.944 32.3144 469.944C31.8185 469.944 31.4023 469.797 31.0656 469.503C30.7351 469.209 30.5698 468.842 30.5698 468.401C30.5698 467.936 30.7443 467.566 31.0932 467.29C31.4482 467.015 31.9195 466.877 32.5072 466.877C33.0091 466.877 33.4223 466.969 33.7467 467.153V466.96C33.7467 466.666 33.6304 466.418 33.3978 466.216C33.1652 466.008 32.8928 465.904 32.5806 465.904C32.1093 465.904 31.7359 466.103 31.4604 466.501L30.7167 466.033C31.1268 465.445 31.7328 465.151 32.5347 465.151ZM37.8856 469.944C37.5551 469.944 37.2521 469.874 36.9766 469.733C36.7073 469.592 36.4992 469.405 36.3523 469.173H36.3155V469.797H35.5075V463.223H36.3523V465.298L36.3155 465.922H36.3523C36.4992 465.69 36.7073 465.503 36.9766 465.362C37.2521 465.221 37.5551 465.151 37.8856 465.151C38.4794 465.151 38.9813 465.384 39.3915 465.849C39.8138 466.32 40.025 466.886 40.025 467.548C40.025 468.215 39.8138 468.781 39.3915 469.246C38.9813 469.711 38.4794 469.944 37.8856 469.944ZM37.7479 469.173C38.1519 469.173 38.4916 469.02 38.7671 468.714C39.0426 468.414 39.1803 468.025 39.1803 467.548C39.1803 467.076 39.0426 466.688 38.7671 466.381C38.4916 466.075 38.1519 465.922 37.7479 465.922C37.3378 465.922 36.995 466.075 36.7195 466.381C36.4502 466.688 36.3155 467.076 36.3155 467.548C36.3155 468.025 36.4502 468.417 36.7195 468.723C36.995 469.023 37.3378 469.173 37.7479 469.173ZM41.5978 463.223V469.797H40.753V463.223H41.5978ZM44.6023 469.944C43.9412 469.944 43.3964 469.718 42.9679 469.265C42.5394 468.812 42.3252 468.239 42.3252 467.548C42.3252 466.862 42.5333 466.293 42.9495 465.84C43.3658 465.381 43.8983 465.151 44.5472 465.151C45.2144 465.151 45.7439 465.368 46.1357 465.803C46.5335 466.231 46.7325 466.834 46.7325 467.612L46.7233 467.704H43.1883C43.2005 468.144 43.3474 468.499 43.629 468.769C43.9106 469.038 44.2472 469.173 44.639 469.173C45.1777 469.173 45.6001 468.903 45.9061 468.365L46.659 468.732C46.457 469.112 46.1755 469.408 45.8143 469.623C45.4593 469.837 45.0553 469.944 44.6023 469.944ZM43.2525 467.006H45.8327C45.8082 466.694 45.6796 466.437 45.447 466.235C45.2205 466.026 44.9145 465.922 44.5288 465.922C44.2105 465.922 43.9351 466.02 43.7025 466.216C43.476 466.412 43.326 466.675 43.2525 467.006ZM50.7554 463.223L48.0284 469.797H47.2387L49.9657 463.223H50.7554ZM52.7979 469.173C53.2141 469.173 53.5538 469.023 53.8171 468.723C54.0925 468.423 54.2302 468.031 54.2302 467.548C54.2302 467.076 54.0925 466.688 53.8171 466.381C53.5477 466.075 53.208 465.922 52.7979 465.922C52.3939 465.922 52.0541 466.075 51.7787 466.381C51.5032 466.688 51.3655 467.076 51.3655 467.548C51.3655 468.025 51.5032 468.414 51.7787 468.714C52.0541 469.02 52.3939 469.173 52.7979 469.173ZM52.6601 469.944C52.0725 469.944 51.5675 469.711 51.1451 469.246C50.7289 468.775 50.5208 468.209 50.5208 467.548C50.5208 466.886 50.7289 466.32 51.1451 465.849C51.5675 465.384 52.0725 465.151 52.6601 465.151C52.9907 465.151 53.2906 465.221 53.56 465.362C53.8354 465.503 54.0466 465.69 54.1935 465.922H54.2302L54.1935 465.298V463.223H55.0383V469.797H54.2302V469.173H54.1935C54.0466 469.405 53.8354 469.592 53.56 469.733C53.2906 469.874 52.9907 469.944 52.6601 469.944ZM57.1609 463.746C57.1609 463.912 57.1027 464.052 56.9864 464.169C56.8701 464.285 56.7293 464.343 56.564 464.343C56.3988 464.343 56.258 464.285 56.1417 464.169C56.0254 464.052 55.9672 463.912 55.9672 463.746C55.9672 463.581 56.0254 463.44 56.1417 463.324C56.258 463.208 56.3988 463.149 56.564 463.149C56.7293 463.149 56.8701 463.208 56.9864 463.324C57.1027 463.44 57.1609 463.581 57.1609 463.746ZM56.9864 465.298V469.797H56.1417V465.298H56.9864ZM61.5289 468.548C61.5289 468.94 61.3575 469.271 61.0148 469.54C60.672 469.809 60.2404 469.944 59.7201 469.944C59.2671 469.944 58.8692 469.828 58.5265 469.595C58.1837 469.356 57.9388 469.044 57.7919 468.659L58.5448 468.337C58.655 468.607 58.8142 468.818 59.0223 468.971C59.2365 469.118 59.4691 469.191 59.7201 469.191C59.9894 469.191 60.2129 469.133 60.3904 469.017C60.574 468.9 60.6658 468.763 60.6658 468.603C60.6658 468.316 60.4455 468.105 60.0047 467.97L59.2335 467.777C58.3581 467.557 57.9204 467.134 57.9204 466.51C57.9204 466.1 58.0857 465.772 58.4163 465.528C58.7529 465.277 59.1814 465.151 59.7017 465.151C60.0996 465.151 60.4577 465.246 60.776 465.436C61.1005 465.625 61.3269 465.879 61.4555 466.198L60.7026 466.51C60.6169 466.32 60.4761 466.173 60.2802 466.069C60.0904 465.959 59.8762 465.904 59.6375 465.904C59.4171 465.904 59.2182 465.959 59.0406 466.069C58.8692 466.179 58.7835 466.314 58.7835 466.473C58.7835 466.73 59.0253 466.914 59.5089 467.024L60.1884 467.199C61.0821 467.419 61.5289 467.869 61.5289 468.548ZM62.9242 468.42C62.9242 468.64 63.0161 468.824 63.1997 468.971C63.3895 469.118 63.6098 469.191 63.8608 469.191C64.2158 469.191 64.5311 469.06 64.8065 468.796C65.0881 468.533 65.2289 468.224 65.2289 467.869C64.9657 467.661 64.5984 467.557 64.1271 467.557C63.7843 467.557 63.4966 467.639 63.264 467.805C63.0375 467.97 62.9242 468.175 62.9242 468.42ZM64.0169 465.151C64.6413 465.151 65.134 465.319 65.4952 465.656C65.8563 465.987 66.0369 466.443 66.0369 467.024V469.797H65.2289V469.173H65.1922C64.8433 469.687 64.378 469.944 63.7965 469.944C63.3007 469.944 62.8844 469.797 62.5478 469.503C62.2172 469.209 62.052 468.842 62.052 468.401C62.052 467.936 62.2264 467.566 62.5753 467.29C62.9304 467.015 63.4017 466.877 63.9893 466.877C64.4913 466.877 64.9045 466.969 65.2289 467.153V466.96C65.2289 466.666 65.1126 466.418 64.88 466.216C64.6474 466.008 64.375 465.904 64.0628 465.904C63.5915 465.904 63.2181 466.103 62.9426 466.501L62.1989 466.033C62.609 465.445 63.215 465.151 64.0169 465.151ZM69.3678 469.944C69.0372 469.944 68.7342 469.874 68.4588 469.733C68.1894 469.592 67.9813 469.405 67.8344 469.173H67.7977V469.797H66.9897V463.223H67.8344V465.298L67.7977 465.922H67.8344C67.9813 465.69 68.1894 465.503 68.4588 465.362C68.7342 465.221 69.0372 465.151 69.3678 465.151C69.9616 465.151 70.4635 465.384 70.8736 465.849C71.296 466.32 71.5072 466.886 71.5072 467.548C71.5072 468.215 71.296 468.781 70.8736 469.246C70.4635 469.711 69.9616 469.944 69.3678 469.944ZM69.2301 469.173C69.6341 469.173 69.9738 469.02 70.2493 468.714C70.5247 468.414 70.6624 468.025 70.6624 467.548C70.6624 467.076 70.5247 466.688 70.2493 466.381C69.9738 466.075 69.6341 465.922 69.2301 465.922C68.8199 465.922 68.4771 466.075 68.2017 466.381C67.9324 466.688 67.7977 467.076 67.7977 467.548C67.7977 468.025 67.9324 468.417 68.2017 468.723C68.4771 469.023 68.8199 469.173 69.2301 469.173ZM73.0799 463.223V469.797H72.2352V463.223H73.0799ZM76.0844 469.944C75.4233 469.944 74.8786 469.718 74.4501 469.265C74.0216 468.812 73.8073 468.239 73.8073 467.548C73.8073 466.862 74.0154 466.293 74.4317 465.84C74.8479 465.381 75.3805 465.151 76.0294 465.151C76.6966 465.151 77.2261 465.368 77.6178 465.803C78.0157 466.231 78.2146 466.834 78.2146 467.612L78.2055 467.704H74.6704C74.6827 468.144 74.8296 468.499 75.1112 468.769C75.3927 469.038 75.7294 469.173 76.1212 469.173C76.6598 469.173 77.0822 468.903 77.3883 468.365L78.1412 468.732C77.9392 469.112 77.6576 469.408 77.2965 469.623C76.9414 469.837 76.5374 469.944 76.0844 469.944ZM74.7347 467.006H77.3148C77.2903 466.694 77.1618 466.437 76.9292 466.235C76.7027 466.026 76.3966 465.922 76.011 465.922C75.6927 465.922 75.4172 466.02 75.1846 466.216C74.9581 466.412 74.8082 466.675 74.7347 467.006Z" fill="#151515"/>
<g clip-path="url(#clip1_1_35398)">
<rect x="229.711" y="460.894" width="24.9224" height="11.8053" rx="5.90267" fill="#8B9293"/>
<path fill-rule="evenodd" clip-rule="evenodd" d="M235.614 471.388C238.15 471.388 240.205 469.333 240.205 466.797C240.205 464.261 238.15 462.206 235.614 462.206C233.079 462.206 231.023 464.261 231.023 466.797C231.023 469.333 233.079 471.388 235.614 471.388Z" fill="white"/>
</g>
<line x1="20.4941" y1="491.125" x2="256.601" y2="491.125" stroke="#122023" stroke-opacity="0.14" stroke-width="0.655852"/>
</g>
</g>
<defs>
<filter id="filter0_dd_1_35398" x="0" y="0" width="276" height="586" filterUnits="userSpaceOnUse" color-interpolation-filters="sRGB">
<feFlood flood-opacity="0" result="BackgroundImageFix"/>
<feColorMatrix in="SourceAlpha" type="matrix" values="0 0 0 0 0 0 0 0 0 0 0 0 0 0 0 0 0 0 127 0" result="hardAlpha"/>
<feOffset dy="4"/>
<feGaussianBlur stdDeviation="2"/>
<feComposite in2="hardAlpha" operator="out"/>
<feColorMatrix type="matrix" values="0 0 0 0 0 0 0 0 0 0 0 0 0 0 0 0 0 0 0.08 0"/>
<feBlend mode="normal" in2="BackgroundImageFix" result="effect1_dropShadow_1_35398"/>
<feColorMatrix in="SourceAlpha" type="matrix" values="0 0 0 0 0 0 0 0 0 0 0 0 0 0 0 0 0 0 127 0" result="hardAlpha"/>
<feOffset dy="4"/>
<feGaussianBlur stdDeviation="5"/>
<feComposite in2="hardAlpha" operator="out"/>
<feColorMatrix type="matrix" values="0 0 0 0 0 0 0 0 0 0 0 0 0 0 0 0 0 0 0.08 0"/>
<feBlend mode="normal" in2="effect1_dropShadow_1_35398" result="effect2_dropShadow_1_35398"/>
<feBlend mode="normal" in="SourceGraphic" in2="effect2_dropShadow_1_35398" result="shape"/>
</filter>
<filter id="filter1_di_1_35398" x="18.5285" y="497.233" width="116.087" height="38.0394" filterUnits="userSpaceOnUse" color-interpolation-filters="sRGB">
<feFlood flood-opacity="0" result="BackgroundImageFix"/>
<feColorMatrix in="SourceAlpha" type="matrix" values="0 0 0 0 0 0 0 0 0 0 0 0 0 0 0 0 0 0 127 0" result="hardAlpha"/>
<feMorphology radius="1.3117" operator="dilate" in="SourceAlpha" result="effect1_dropShadow_1_35398"/>
<feOffset/>
<feGaussianBlur stdDeviation="0.327926"/>
<feComposite in2="hardAlpha" operator="out"/>
<feColorMatrix type="matrix" values="0 0 0 0 0.203922 0 0 0 0 0.0823529 0 0 0 0 0.509804 0 0 0 0.08 0"/>
<feBlend mode="normal" in2="BackgroundImageFix" result="effect1_dropShadow_1_35398"/>
<feBlend mode="normal" in="SourceGraphic" in2="effect1_dropShadow_1_35398" result="shape"/>
<feColorMatrix in="SourceAlpha" type="matrix" values="0 0 0 0 0 0 0 0 0 0 0 0 0 0 0 0 0 0 127 0" result="hardAlpha"/>
<feMorphology radius="1.3117" operator="erode" in="SourceAlpha" result="effect2_innerShadow_1_35398"/>
<feOffset/>
<feComposite in2="hardAlpha" operator="arithmetic" k2="-1" k3="1"/>
<feColorMatrix type="matrix" values="0 0 0 0 0.435085 0 0 0 0 0.183375 0 0 0 0 0.679167 0 0 0 1 0"/>
<feBlend mode="normal" in2="shape" result="effect2_innerShadow_1_35398"/>
</filter>
<filter id="filter2_di_1_35398" x="141.169" y="497.233" width="116.087" height="38.0394" filterUnits="userSpaceOnUse" color-interpolation-filters="sRGB">
<feFlood flood-opacity="0" result="BackgroundImageFix"/>
<feColorMatrix in="SourceAlpha" type="matrix" values="0 0 0 0 0 0 0 0 0 0 0 0 0 0 0 0 0 0 127 0" result="hardAlpha"/>
<feMorphology radius="1.3117" operator="dilate" in="SourceAlpha" result="effect1_dropShadow_1_35398"/>
<feOffset/>
<feGaussianBlur stdDeviation="0.327926"/>
<feComposite in2="hardAlpha" operator="out"/>
<feColorMatrix type="matrix" values="0 0 0 0 0.203922 0 0 0 0 0.0823529 0 0 0 0 0.509804 0 0 0 0.08 0"/>
<feBlend mode="normal" in2="BackgroundImageFix" result="effect1_dropShadow_1_35398"/>
<feBlend mode="normal" in="SourceGraphic" in2="effect1_dropShadow_1_35398" result="shape"/>
<feColorMatrix in="SourceAlpha" type="matrix" values="0 0 0 0 0 0 0 0 0 0 0 0 0 0 0 0 0 0 127 0" result="hardAlpha"/>
<feMorphology radius="1.3117" operator="erode" in="SourceAlpha" result="effect2_innerShadow_1_35398"/>
<feOffset/>
<feComposite in2="hardAlpha" operator="arithmetic" k2="-1" k3="1"/>
<feColorMatrix type="matrix" values="0 0 0 0 0.435085 0 0 0 0 0.183375 0 0 0 0 0.679167 0 0 0 1 0"/>
<feBlend mode="normal" in2="shape" result="effect2_innerShadow_1_35398"/>
</filter>
<clipPath id="clip0_1_35398">
<rect x="10" y="6" width="256" height="566" rx="26" fill="white"/>
</clipPath>
<clipPath id="clip1_1_35398">
<rect width="26.2341" height="13.117" fill="white" transform="translate(229.055 460.239)"/>
</clipPath>
</defs>
</svg>
