<svg width="358" height="132" viewBox="0 0 358 132" fill="none" xmlns="http://www.w3.org/2000/svg">
<rect width="358" height="132" rx="16" fill="white"/>
<path d="M68.296 37H67.008V26.976H68.576L73.448 34.774H73.504L73.448 32.842V26.976H74.736V37H73.392L68.296 28.824H68.24L68.296 30.756V37ZM78.912 37.224C77.904 37.224 77.0734 36.8787 76.42 36.188C75.7667 35.4973 75.44 34.6247 75.44 33.57C75.44 32.5247 75.7574 31.6567 76.392 30.966C77.0267 30.266 77.8387 29.916 78.828 29.916C79.8454 29.916 80.6527 30.2473 81.25 30.91C81.8567 31.5633 82.16 32.4827 82.16 33.668L82.146 33.808H76.756C76.7747 34.48 76.9987 35.0213 77.428 35.432C77.8574 35.8427 78.3707 36.048 78.968 36.048C79.7894 36.048 80.4334 35.6373 80.9 34.816L82.048 35.376C81.74 35.9547 81.3107 36.4073 80.76 36.734C80.2187 37.0607 79.6027 37.224 78.912 37.224ZM76.854 32.744H80.788C80.7507 32.268 80.5547 31.876 80.2 31.568C79.8547 31.2507 79.388 31.092 78.8 31.092C78.3147 31.092 77.8947 31.2413 77.54 31.54C77.1947 31.8387 76.966 32.24 76.854 32.744ZM92.2172 30.14L90.0052 37H88.6892L86.9812 31.736L85.2872 37H83.9852L81.7732 30.14H83.1172L84.6432 35.32H84.6572L86.3512 30.14H87.6812L89.3752 35.32H89.3892L90.9012 30.14H92.2172ZM99.4006 37.224C97.9166 37.224 96.6753 36.7247 95.6766 35.726C94.6873 34.7273 94.1926 33.4813 94.1926 31.988C94.1926 30.4947 94.6873 29.2533 95.6766 28.264C96.6659 27.256 97.9073 26.752 99.4006 26.752C100.913 26.752 102.14 27.298 103.083 28.39L102.159 29.286C101.44 28.418 100.521 27.984 99.4006 27.984C98.2899 27.984 97.3613 28.3573 96.6146 29.104C95.8773 29.8413 95.5086 30.8027 95.5086 31.988C95.5086 33.1733 95.8773 34.1347 96.6146 34.872C97.3613 35.6187 98.2899 35.992 99.4006 35.992C100.567 35.992 101.58 35.502 102.439 34.522L103.377 35.432C102.901 36.0013 102.317 36.4447 101.627 36.762C100.936 37.07 100.194 37.224 99.4006 37.224ZM103.292 33.57C103.292 32.5153 103.624 31.6427 104.286 30.952C104.958 30.2613 105.803 29.916 106.82 29.916C107.838 29.916 108.678 30.2613 109.34 30.952C110.012 31.6427 110.348 32.5153 110.348 33.57C110.348 34.634 110.012 35.5067 109.34 36.188C108.678 36.8787 107.838 37.224 106.82 37.224C105.803 37.224 104.958 36.8787 104.286 36.188C103.624 35.4973 103.292 34.6247 103.292 33.57ZM104.58 33.57C104.58 34.3073 104.795 34.9047 105.224 35.362C105.654 35.8193 106.186 36.048 106.82 36.048C107.455 36.048 107.987 35.8193 108.416 35.362C108.846 34.9047 109.06 34.3073 109.06 33.57C109.06 32.842 108.846 32.2493 108.416 31.792C107.978 31.3253 107.446 31.092 106.82 31.092C106.195 31.092 105.663 31.3253 105.224 31.792C104.795 32.2493 104.58 32.842 104.58 33.57ZM110.682 30.14H111.914V31.092H111.97C112.166 30.756 112.464 30.476 112.866 30.252C113.276 30.028 113.701 29.916 114.14 29.916C114.98 29.916 115.624 30.1587 116.072 30.644C116.529 31.12 116.758 31.8013 116.758 32.688V37H115.47V32.772C115.442 31.652 114.877 31.092 113.776 31.092C113.262 31.092 112.833 31.302 112.488 31.722C112.142 32.1327 111.97 32.6273 111.97 33.206V37H110.682V30.14ZM119.93 37.112C119.37 37.112 118.903 36.9393 118.53 36.594C118.166 36.2487 117.979 35.768 117.97 35.152V31.316H116.766V30.14H117.97V28.04H119.258V30.14H120.938V31.316H119.258V34.732C119.258 35.1893 119.347 35.502 119.524 35.67C119.701 35.8287 119.902 35.908 120.126 35.908C120.229 35.908 120.327 35.8987 120.42 35.88C120.523 35.852 120.616 35.8193 120.7 35.782L121.106 36.93C120.77 37.0513 120.378 37.112 119.93 37.112ZM122.751 37H121.463V30.14H122.695V31.26H122.751C122.882 30.896 123.148 30.588 123.549 30.336C123.96 30.0747 124.361 29.944 124.753 29.944C125.127 29.944 125.444 30 125.705 30.112L125.313 31.358C125.155 31.2927 124.903 31.26 124.557 31.26C124.072 31.26 123.647 31.456 123.283 31.848C122.929 32.24 122.751 32.6973 122.751 33.22V37ZM127.515 27.774C127.515 28.026 127.427 28.2407 127.249 28.418C127.072 28.5953 126.857 28.684 126.605 28.684C126.353 28.684 126.139 28.5953 125.961 28.418C125.784 28.2407 125.695 28.026 125.695 27.774C125.695 27.522 125.784 27.3073 125.961 27.13C126.139 26.9527 126.353 26.864 126.605 26.864C126.857 26.864 127.072 26.9527 127.249 27.13C127.427 27.3073 127.515 27.522 127.515 27.774ZM127.249 30.14V37H125.961V30.14H127.249ZM131.851 37.224C131.347 37.224 130.885 37.1167 130.465 36.902C130.055 36.6873 129.737 36.4027 129.513 36.048H129.457V37H128.225V26.976H129.513V30.14L129.457 31.092H129.513C129.737 30.7373 130.055 30.4527 130.465 30.238C130.885 30.0233 131.347 29.916 131.851 29.916C132.757 29.916 133.522 30.2707 134.147 30.98C134.791 31.6987 135.113 32.562 135.113 33.57C135.113 34.5873 134.791 35.4507 134.147 36.16C133.522 36.8693 132.757 37.224 131.851 37.224ZM131.641 36.048C132.257 36.048 132.775 35.8147 133.195 35.348C133.615 34.8907 133.825 34.298 133.825 33.57C133.825 32.8513 133.615 32.2587 133.195 31.792C132.775 31.3253 132.257 31.092 131.641 31.092C131.016 31.092 130.493 31.3253 130.073 31.792C129.663 32.2587 129.457 32.8513 129.457 33.57C129.457 34.298 129.663 34.8953 130.073 35.362C130.493 35.8193 131.016 36.048 131.641 36.048ZM141.543 37H140.311V36.048H140.255C140.059 36.384 139.756 36.664 139.345 36.888C138.944 37.112 138.524 37.224 138.085 37.224C137.245 37.224 136.597 36.986 136.139 36.51C135.691 36.0247 135.467 35.3387 135.467 34.452V30.14H136.755V34.368C136.783 35.488 137.348 36.048 138.449 36.048C138.963 36.048 139.392 35.8427 139.737 35.432C140.083 35.012 140.255 34.5127 140.255 33.934V30.14H141.543V37ZM145.196 37.112C144.636 37.112 144.169 36.9393 143.796 36.594C143.432 36.2487 143.245 35.768 143.236 35.152V31.316H142.032V30.14H143.236V28.04H144.524V30.14H146.204V31.316H144.524V34.732C144.524 35.1893 144.612 35.502 144.79 35.67C144.967 35.8287 145.168 35.908 145.392 35.908C145.494 35.908 145.592 35.8987 145.686 35.88C145.788 35.852 145.882 35.8193 145.966 35.782L146.372 36.93C146.036 37.0513 145.644 37.112 145.196 37.112ZM148.463 27.774C148.463 28.026 148.375 28.2407 148.197 28.418C148.02 28.5953 147.805 28.684 147.553 28.684C147.301 28.684 147.087 28.5953 146.909 28.418C146.732 28.2407 146.643 28.026 146.643 27.774C146.643 27.522 146.732 27.3073 146.909 27.13C147.087 26.9527 147.301 26.864 147.553 26.864C147.805 26.864 148.02 26.9527 148.197 27.13C148.375 27.3073 148.463 27.522 148.463 27.774ZM148.197 30.14V37H146.909V30.14H148.197ZM148.713 33.57C148.713 32.5153 149.044 31.6427 149.707 30.952C150.379 30.2613 151.224 29.916 152.241 29.916C153.258 29.916 154.098 30.2613 154.761 30.952C155.433 31.6427 155.769 32.5153 155.769 33.57C155.769 34.634 155.433 35.5067 154.761 36.188C154.098 36.8787 153.258 37.224 152.241 37.224C151.224 37.224 150.379 36.8787 149.707 36.188C149.044 35.4973 148.713 34.6247 148.713 33.57ZM150.001 33.57C150.001 34.3073 150.216 34.9047 150.645 35.362C151.074 35.8193 151.606 36.048 152.241 36.048C152.876 36.048 153.408 35.8193 153.837 35.362C154.266 34.9047 154.481 34.3073 154.481 33.57C154.481 32.842 154.266 32.2493 153.837 31.792C153.398 31.3253 152.866 31.092 152.241 31.092C151.616 31.092 151.084 31.3253 150.645 31.792C150.216 32.2493 150.001 32.842 150.001 33.57ZM156.102 30.14H157.334V31.092H157.39C157.586 30.756 157.885 30.476 158.286 30.252C158.697 30.028 159.122 29.916 159.56 29.916C160.4 29.916 161.044 30.1587 161.492 30.644C161.95 31.12 162.178 31.8013 162.178 32.688V37H160.89V32.772C160.862 31.652 160.298 31.092 159.196 31.092C158.683 31.092 158.254 31.302 157.908 31.722C157.563 32.1327 157.39 32.6273 157.39 33.206V37H156.102V30.14Z" fill="#242424"/>
<path d="M21.726 94.224C20.242 94.224 19.0007 93.7247 18.002 92.726C17.0127 91.7273 16.518 90.4813 16.518 88.988C16.518 87.4947 17.0127 86.2533 18.002 85.264C18.9913 84.256 20.2327 83.752 21.726 83.752C23.238 83.752 24.4653 84.298 25.408 85.39L24.484 86.286C23.7653 85.418 22.846 84.984 21.726 84.984C20.6153 84.984 19.6867 85.3573 18.94 86.104C18.2027 86.8413 17.834 87.8027 17.834 88.988C17.834 90.1733 18.2027 91.1347 18.94 91.872C19.6867 92.6187 20.6153 92.992 21.726 92.992C22.8927 92.992 23.9053 92.502 24.764 91.522L25.702 92.432C25.226 93.0013 24.6427 93.4447 23.952 93.762C23.2613 94.07 22.5193 94.224 21.726 94.224ZM25.6178 90.57C25.6178 89.5153 25.9491 88.6427 26.6118 87.952C27.2838 87.2613 28.1284 86.916 29.1458 86.916C30.1631 86.916 31.0031 87.2613 31.6658 87.952C32.3378 88.6427 32.6738 89.5153 32.6738 90.57C32.6738 91.634 32.3378 92.5067 31.6658 93.188C31.0031 93.8787 30.1631 94.224 29.1458 94.224C28.1284 94.224 27.2838 93.8787 26.6118 93.188C25.9491 92.4973 25.6178 91.6247 25.6178 90.57ZM26.9058 90.57C26.9058 91.3073 27.1204 91.9047 27.5498 92.362C27.9791 92.8193 28.5111 93.048 29.1458 93.048C29.7804 93.048 30.3124 92.8193 30.7418 92.362C31.1711 91.9047 31.3858 91.3073 31.3858 90.57C31.3858 89.842 31.1711 89.2493 30.7418 88.792C30.3031 88.3253 29.7711 88.092 29.1458 88.092C28.5204 88.092 27.9884 88.3253 27.5498 88.792C27.1204 89.2493 26.9058 89.842 26.9058 90.57ZM33.007 87.14H34.239V88.092H34.295C34.491 87.756 34.7897 87.476 35.191 87.252C35.6017 87.028 36.0264 86.916 36.465 86.916C37.305 86.916 37.949 87.1587 38.397 87.644C38.8544 88.12 39.083 88.8013 39.083 89.688V94H37.795V89.772C37.767 88.652 37.2024 88.092 36.101 88.092C35.5877 88.092 35.1584 88.302 34.813 88.722C34.4677 89.1327 34.295 89.6273 34.295 90.206V94H33.007V87.14ZM42.2555 94.112C41.6955 94.112 41.2288 93.9393 40.8555 93.594C40.4915 93.2487 40.3048 92.768 40.2955 92.152V88.316H39.0915V87.14H40.2955V85.04H41.5835V87.14H43.2635V88.316H41.5835V91.732C41.5835 92.1893 41.6721 92.502 41.8495 92.67C42.0268 92.8287 42.2275 92.908 42.4515 92.908C42.5541 92.908 42.6521 92.8987 42.7455 92.88C42.8481 92.852 42.9415 92.8193 43.0255 92.782L43.4315 93.93C43.0955 94.0513 42.7035 94.112 42.2555 94.112ZM45.0767 94H43.7887V87.14H45.0207V88.26H45.0767C45.2074 87.896 45.4734 87.588 45.8747 87.336C46.2854 87.0747 46.6867 86.944 47.0787 86.944C47.452 86.944 47.7694 87 48.0307 87.112L47.6387 88.358C47.48 88.2927 47.228 88.26 46.8827 88.26C46.3974 88.26 45.9727 88.456 45.6087 88.848C45.254 89.24 45.0767 89.6973 45.0767 90.22V94ZM49.8406 84.774C49.8406 85.026 49.752 85.2407 49.5746 85.418C49.3973 85.5953 49.1826 85.684 48.9306 85.684C48.6786 85.684 48.464 85.5953 48.2866 85.418C48.1093 85.2407 48.0206 85.026 48.0206 84.774C48.0206 84.522 48.1093 84.3073 48.2866 84.13C48.464 83.9527 48.6786 83.864 48.9306 83.864C49.1826 83.864 49.3973 83.9527 49.5746 84.13C49.752 84.3073 49.8406 84.522 49.8406 84.774ZM49.5746 87.14V94H48.2866V87.14H49.5746ZM54.1768 94.224C53.6728 94.224 53.2108 94.1167 52.7908 93.902C52.3801 93.6873 52.0628 93.4027 51.8388 93.048H51.7828V94H50.5508V83.976H51.8388V87.14L51.7828 88.092H51.8388C52.0628 87.7373 52.3801 87.4527 52.7908 87.238C53.2108 87.0233 53.6728 86.916 54.1768 86.916C55.0821 86.916 55.8475 87.2707 56.4728 87.98C57.1168 88.6987 57.4388 89.562 57.4388 90.57C57.4388 91.5873 57.1168 92.4507 56.4728 93.16C55.8475 93.8693 55.0821 94.224 54.1768 94.224ZM53.9668 93.048C54.5828 93.048 55.1008 92.8147 55.5208 92.348C55.9408 91.8907 56.1508 91.298 56.1508 90.57C56.1508 89.8513 55.9408 89.2587 55.5208 88.792C55.1008 88.3253 54.5828 88.092 53.9668 88.092C53.3415 88.092 52.8188 88.3253 52.3988 88.792C51.9881 89.2587 51.7828 89.8513 51.7828 90.57C51.7828 91.298 51.9881 91.8953 52.3988 92.362C52.8188 92.8193 53.3415 93.048 53.9668 93.048ZM63.8688 94H62.6368V93.048H62.5808C62.3848 93.384 62.0815 93.664 61.6708 93.888C61.2695 94.112 60.8495 94.224 60.4108 94.224C59.5708 94.224 58.9222 93.986 58.4648 93.51C58.0168 93.0247 57.7928 92.3387 57.7928 91.452V87.14H59.0808V91.368C59.1088 92.488 59.6735 93.048 60.7748 93.048C61.2882 93.048 61.7175 92.8427 62.0628 92.432C62.4082 92.012 62.5808 91.5127 62.5808 90.934V87.14H63.8688V94ZM67.5211 94.112C66.9611 94.112 66.4944 93.9393 66.1211 93.594C65.7571 93.2487 65.5704 92.768 65.5611 92.152V88.316H64.3571V87.14H65.5611V85.04H66.8491V87.14H68.5291V88.316H66.8491V91.732C66.8491 92.1893 66.9378 92.502 67.1151 92.67C67.2924 92.8287 67.4931 92.908 67.7171 92.908C67.8198 92.908 67.9178 92.8987 68.0111 92.88C68.1138 92.852 68.2071 92.8193 68.2911 92.782L68.6971 93.93C68.3611 94.0513 67.9691 94.112 67.5211 94.112ZM70.7887 84.774C70.7887 85.026 70.7 85.2407 70.5227 85.418C70.3453 85.5953 70.1307 85.684 69.8787 85.684C69.6267 85.684 69.412 85.5953 69.2347 85.418C69.0573 85.2407 68.9687 85.026 68.9687 84.774C68.9687 84.522 69.0573 84.3073 69.2347 84.13C69.412 83.9527 69.6267 83.864 69.8787 83.864C70.1307 83.864 70.3453 83.9527 70.5227 84.13C70.7 84.3073 70.7887 84.522 70.7887 84.774ZM70.5227 87.14V94H69.2347V87.14H70.5227ZM71.0385 90.57C71.0385 89.5153 71.3698 88.6427 72.0325 87.952C72.7045 87.2613 73.5492 86.916 74.5665 86.916C75.5838 86.916 76.4238 87.2613 77.0865 87.952C77.7585 88.6427 78.0945 89.5153 78.0945 90.57C78.0945 91.634 77.7585 92.5067 77.0865 93.188C76.4238 93.8787 75.5838 94.224 74.5665 94.224C73.5492 94.224 72.7045 93.8787 72.0325 93.188C71.3698 92.4973 71.0385 91.6247 71.0385 90.57ZM72.3265 90.57C72.3265 91.3073 72.5412 91.9047 72.9705 92.362C73.3998 92.8193 73.9318 93.048 74.5665 93.048C75.2012 93.048 75.7332 92.8193 76.1625 92.362C76.5918 91.9047 76.8065 91.3073 76.8065 90.57C76.8065 89.842 76.5918 89.2493 76.1625 88.792C75.7238 88.3253 75.1918 88.092 74.5665 88.092C73.9412 88.092 73.4092 88.3253 72.9705 88.792C72.5412 89.2493 72.3265 89.842 72.3265 90.57ZM78.4277 87.14H79.6597V88.092H79.7157C79.9117 87.756 80.2104 87.476 80.6117 87.252C81.0224 87.028 81.4471 86.916 81.8857 86.916C82.7257 86.916 83.3697 87.1587 83.8177 87.644C84.2751 88.12 84.5037 88.8013 84.5037 89.688V94H83.2157V89.772C83.1877 88.652 82.6231 88.092 81.5217 88.092C81.0084 88.092 80.5791 88.302 80.2337 88.722C79.8884 89.1327 79.7157 89.6273 79.7157 90.206V94H78.4277V87.14ZM90.5824 83.864C91.049 83.864 91.4317 83.9433 91.7304 84.102L91.3804 85.236C91.1564 85.124 90.9044 85.068 90.6244 85.068C90.307 85.068 90.0457 85.18 89.8404 85.404C89.6444 85.6187 89.5464 85.908 89.5464 86.272V87.14H91.3384V88.316H89.5464V94H88.2584V88.316H86.9704V87.14H88.2584V86.146C88.2584 85.4647 88.473 84.914 88.9024 84.494C89.341 84.074 89.901 83.864 90.5824 83.864ZM93.1607 94H91.8727V87.14H93.1047V88.26H93.1607C93.2913 87.896 93.5573 87.588 93.9587 87.336C94.3693 87.0747 94.7707 86.944 95.1627 86.944C95.536 86.944 95.8533 87 96.1147 87.112L95.7227 88.358C95.564 88.2927 95.312 88.26 94.9667 88.26C94.4813 88.26 94.0567 88.456 93.6927 88.848C93.338 89.24 93.1607 89.6973 93.1607 90.22V94ZM95.4428 90.57C95.4428 89.5153 95.7741 88.6427 96.4368 87.952C97.1088 87.2613 97.9534 86.916 98.9708 86.916C99.9881 86.916 100.828 87.2613 101.491 87.952C102.163 88.6427 102.499 89.5153 102.499 90.57C102.499 91.634 102.163 92.5067 101.491 93.188C100.828 93.8787 99.9881 94.224 98.9708 94.224C97.9534 94.224 97.1088 93.8787 96.4368 93.188C95.7741 92.4973 95.4428 91.6247 95.4428 90.57ZM96.7308 90.57C96.7308 91.3073 96.9454 91.9047 97.3748 92.362C97.8041 92.8193 98.3361 93.048 98.9708 93.048C99.6054 93.048 100.137 92.8193 100.567 92.362C100.996 91.9047 101.211 91.3073 101.211 90.57C101.211 89.842 100.996 89.2493 100.567 88.792C100.128 88.3253 99.5961 88.092 98.9708 88.092C98.3454 88.092 97.8134 88.3253 97.3748 88.792C96.9454 89.2493 96.7308 89.842 96.7308 90.57ZM104.12 94H102.832V87.14H104.064V88.092H104.12C104.316 87.756 104.615 87.476 105.016 87.252C105.427 87.028 105.833 86.916 106.234 86.916C106.738 86.916 107.181 87.0327 107.564 87.266C107.947 87.4993 108.227 87.8213 108.404 88.232C108.973 87.3547 109.762 86.916 110.77 86.916C111.563 86.916 112.175 87.1587 112.604 87.644C113.033 88.1293 113.248 88.82 113.248 89.716V94H111.96V89.912C111.96 89.268 111.843 88.806 111.61 88.526C111.377 88.2367 110.985 88.092 110.434 88.092C109.939 88.092 109.524 88.302 109.188 88.722C108.852 89.142 108.684 89.6367 108.684 90.206V94H107.396V89.912C107.396 89.268 107.279 88.806 107.046 88.526C106.813 88.2367 106.421 88.092 105.87 88.092C105.375 88.092 104.96 88.302 104.624 88.722C104.288 89.142 104.12 89.6367 104.12 90.206V94ZM118.27 94.224C117.514 94.224 116.861 94.0187 116.31 93.608C115.759 93.1973 115.372 92.628 115.148 91.9L116.366 91.396C116.683 92.46 117.318 92.992 118.27 92.992C118.793 92.992 119.213 92.81 119.53 92.446C119.857 92.0727 120.02 91.592 120.02 91.004V83.976H121.308V90.892C121.308 91.928 121.033 92.7447 120.482 93.342C119.941 93.93 119.203 94.224 118.27 94.224ZM121.709 90.57C121.709 89.5153 122.041 88.6427 122.703 87.952C123.375 87.2613 124.22 86.916 125.237 86.916C126.255 86.916 127.095 87.2613 127.757 87.952C128.429 88.6427 128.765 89.5153 128.765 90.57C128.765 91.634 128.429 92.5067 127.757 93.188C127.095 93.8787 126.255 94.224 125.237 94.224C124.22 94.224 123.375 93.8787 122.703 93.188C122.041 92.4973 121.709 91.6247 121.709 90.57ZM122.997 90.57C122.997 91.3073 123.212 91.9047 123.641 92.362C124.071 92.8193 124.603 93.048 125.237 93.048C125.872 93.048 126.404 92.8193 126.833 92.362C127.263 91.9047 127.477 91.3073 127.477 90.57C127.477 89.842 127.263 89.2493 126.833 88.792C126.395 88.3253 125.863 88.092 125.237 88.092C124.612 88.092 124.08 88.3253 123.641 88.792C123.212 89.2493 122.997 89.842 122.997 90.57ZM129.167 83.976H130.455V87.14L130.399 88.092H130.455C130.651 87.756 130.949 87.476 131.351 87.252C131.761 87.028 132.186 86.916 132.625 86.916C133.465 86.916 134.109 87.1587 134.557 87.644C135.014 88.12 135.243 88.8013 135.243 89.688V94H133.955V89.94C133.955 88.708 133.409 88.092 132.317 88.092C131.794 88.092 131.351 88.3113 130.987 88.75C130.632 89.1793 130.455 89.6833 130.455 90.262V94H129.167V83.976ZM136.055 87.14H137.287V88.092H137.343C137.539 87.756 137.837 87.476 138.239 87.252C138.649 87.028 139.074 86.916 139.513 86.916C140.353 86.916 140.997 87.1587 141.445 87.644C141.902 88.12 142.131 88.8013 142.131 89.688V94H140.843V89.772C140.815 88.652 140.25 88.092 139.149 88.092C138.635 88.092 138.206 88.302 137.861 88.722C137.515 89.1327 137.343 89.6273 137.343 90.206V94H136.055V87.14Z" fill="#242424" fill-opacity="0.6"/>
<path d="M144.735 88.008C144.735 88.2693 144.641 88.4933 144.455 88.68C144.277 88.8667 144.053 88.96 143.783 88.96C143.521 88.96 143.297 88.8667 143.111 88.68C142.924 88.4933 142.831 88.2693 142.831 88.008C142.831 87.7373 142.924 87.5133 143.111 87.336C143.297 87.1493 143.521 87.056 143.783 87.056C144.053 87.056 144.277 87.1493 144.455 87.336C144.641 87.5133 144.735 87.7373 144.735 88.008ZM144.735 93.132C144.735 93.3933 144.641 93.6173 144.455 93.804C144.277 93.9907 144.053 94.084 143.783 94.084C143.521 94.084 143.297 93.9907 143.111 93.804C142.924 93.6173 142.831 93.3933 142.831 93.132C142.831 92.8613 142.924 92.6373 143.111 92.46C143.297 92.2733 143.521 92.18 143.783 92.18C144.053 92.18 144.277 92.2733 144.455 92.46C144.641 92.6373 144.735 92.8613 144.735 93.132ZM17.974 103.762C17.974 104.322 18.4033 104.812 19.262 105.232V102.474C18.87 102.539 18.5573 102.689 18.324 102.922C18.0907 103.155 17.974 103.435 17.974 103.762ZM21.614 108.48C21.614 107.901 21.1847 107.416 20.326 107.024V109.922C21.1847 109.726 21.614 109.245 21.614 108.48ZM20.326 111.182V112.4H19.262V111.196C18.5527 111.103 17.932 110.827 17.4 110.37C16.868 109.913 16.5133 109.334 16.336 108.634L17.484 108.172C17.596 108.62 17.8107 109.007 18.128 109.334C18.4547 109.651 18.8327 109.857 19.262 109.95V106.59C18.3287 106.217 17.666 105.806 17.274 105.358C16.882 104.901 16.686 104.369 16.686 103.762C16.686 103.099 16.924 102.53 17.4 102.054C17.876 101.569 18.4967 101.289 19.262 101.214V100.024H20.326V101.256C20.9047 101.349 21.404 101.569 21.824 101.914C22.2533 102.259 22.5427 102.665 22.692 103.132L21.544 103.622C21.376 103.043 20.97 102.675 20.326 102.516V105.666C21.278 106.067 21.9453 106.483 22.328 106.912C22.7107 107.341 22.902 107.855 22.902 108.452C22.902 109.189 22.6687 109.801 22.202 110.286C21.7447 110.762 21.1193 111.061 20.326 111.182ZM29.8628 108.004C29.8628 108.919 29.5455 109.684 28.9108 110.3C28.2762 110.916 27.4922 111.224 26.5588 111.224C25.8122 111.224 25.1355 110.991 24.5288 110.524C23.9222 110.057 23.5208 109.427 23.3248 108.634L24.4728 108.172C24.6128 108.732 24.8648 109.175 25.2288 109.502C25.6022 109.829 26.0362 109.992 26.5308 109.992C27.1282 109.992 27.6135 109.81 27.9868 109.446C28.3695 109.073 28.5608 108.597 28.5608 108.018C28.5608 107.43 28.3695 106.949 27.9868 106.576C27.6135 106.203 27.1328 106.016 26.5448 106.016C25.8635 106.016 25.3268 106.291 24.9348 106.842L23.6328 106.282L24.2488 101.424H29.2748V102.656H25.3268L24.9768 105.4L25.0328 105.414C25.5088 105.031 26.0875 104.84 26.7688 104.84C27.6275 104.84 28.3555 105.143 28.9528 105.75C29.5595 106.357 29.8628 107.108 29.8628 108.004ZM30.4465 106.212C30.4465 104.756 30.8058 103.557 31.5245 102.614C32.2431 101.671 33.1671 101.2 34.2965 101.2C35.4258 101.2 36.3498 101.676 37.0685 102.628C37.7871 103.571 38.1465 104.765 38.1465 106.212C38.1465 107.649 37.7871 108.849 37.0685 109.81C36.3498 110.753 35.4258 111.224 34.2965 111.224C33.1671 111.224 32.2431 110.753 31.5245 109.81C30.8058 108.849 30.4465 107.649 30.4465 106.212ZM36.8305 106.212C36.8305 105.111 36.5971 104.205 36.1305 103.496C35.6731 102.787 35.0618 102.432 34.2965 102.432C33.5311 102.432 32.9198 102.787 32.4625 103.496C31.9958 104.205 31.7625 105.111 31.7625 106.212C31.7625 107.313 31.9958 108.223 32.4625 108.942C32.9198 109.642 33.5311 109.992 34.2965 109.992C35.0618 109.992 35.6731 109.637 36.1305 108.928C36.5971 108.209 36.8305 107.304 36.8305 106.212ZM40.6342 110.132C40.6342 110.393 40.5409 110.617 40.3542 110.804C40.1769 110.991 39.9529 111.084 39.6822 111.084C39.4209 111.084 39.1969 110.991 39.0102 110.804C38.8235 110.617 38.7302 110.393 38.7302 110.132C38.7302 109.861 38.8235 109.637 39.0102 109.46C39.1969 109.273 39.4209 109.18 39.6822 109.18C39.9529 109.18 40.1769 109.273 40.3542 109.46C40.5409 109.637 40.6342 109.861 40.6342 110.132ZM41.2281 106.212C41.2281 104.756 41.5874 103.557 42.3061 102.614C43.0248 101.671 43.9488 101.2 45.0781 101.2C46.2074 101.2 47.1314 101.676 47.8501 102.628C48.5688 103.571 48.9281 104.765 48.9281 106.212C48.9281 107.649 48.5688 108.849 47.8501 109.81C47.1314 110.753 46.2074 111.224 45.0781 111.224C43.9488 111.224 43.0248 110.753 42.3061 109.81C41.5874 108.849 41.2281 107.649 41.2281 106.212ZM47.6121 106.212C47.6121 105.111 47.3788 104.205 46.9121 103.496C46.4548 102.787 45.8434 102.432 45.0781 102.432C44.3128 102.432 43.7014 102.787 43.2441 103.496C42.7774 104.205 42.5441 105.111 42.5441 106.212C42.5441 107.313 42.7774 108.223 43.2441 108.942C43.7014 109.642 44.3128 109.992 45.0781 109.992C45.8434 109.992 46.4548 109.637 46.9121 108.928C47.3788 108.209 47.6121 107.304 47.6121 106.212ZM49.4558 106.212C49.4558 104.756 49.8152 103.557 50.5338 102.614C51.2525 101.671 52.1765 101.2 53.3058 101.2C54.4352 101.2 55.3592 101.676 56.0778 102.628C56.7965 103.571 57.1558 104.765 57.1558 106.212C57.1558 107.649 56.7965 108.849 56.0778 109.81C55.3592 110.753 54.4352 111.224 53.3058 111.224C52.1765 111.224 51.2525 110.753 50.5338 109.81C49.8152 108.849 49.4558 107.649 49.4558 106.212ZM55.8398 106.212C55.8398 105.111 55.6065 104.205 55.1398 103.496C54.6825 102.787 54.0712 102.432 53.3058 102.432C52.5405 102.432 51.9292 102.787 51.4718 103.496C51.0052 104.205 50.7718 105.111 50.7718 106.212C50.7718 107.313 51.0052 108.223 51.4718 108.942C51.9292 109.642 52.5405 109.992 53.3058 109.992C54.0712 109.992 54.6825 109.637 55.1398 108.928C55.6065 108.209 55.8398 107.304 55.8398 106.212Z" fill="#242424"/>
<path d="M247.349 94V83.976H250.415C251.945 83.976 253.173 84.438 254.097 85.362C255.03 86.286 255.497 87.4947 255.497 88.988C255.497 90.4907 255.03 91.704 254.097 92.628C253.173 93.5427 251.945 94 250.415 94H247.349ZM248.637 85.208V92.768H250.415C251.581 92.768 252.501 92.4367 253.173 91.774C253.845 91.102 254.181 90.1733 254.181 88.988C254.181 87.812 253.845 86.888 253.173 86.216C252.501 85.544 251.581 85.208 250.415 85.208H248.637ZM257.042 91.9C257.042 92.236 257.182 92.516 257.462 92.74C257.752 92.964 258.088 93.076 258.47 93.076C259.012 93.076 259.492 92.8753 259.912 92.474C260.342 92.0727 260.556 91.6013 260.556 91.06C260.155 90.7427 259.595 90.584 258.876 90.584C258.354 90.584 257.915 90.71 257.56 90.962C257.215 91.214 257.042 91.5267 257.042 91.9ZM258.708 86.916C259.66 86.916 260.412 87.1727 260.962 87.686C261.513 88.19 261.788 88.8853 261.788 89.772V94H260.556V93.048H260.5C259.968 93.832 259.259 94.224 258.372 94.224C257.616 94.224 256.982 94 256.468 93.552C255.964 93.104 255.712 92.544 255.712 91.872C255.712 91.1627 255.978 90.598 256.51 90.178C257.052 89.758 257.77 89.548 258.666 89.548C259.432 89.548 260.062 89.688 260.556 89.968V89.674C260.556 89.226 260.379 88.848 260.024 88.54C259.67 88.2227 259.254 88.064 258.778 88.064C258.06 88.064 257.49 88.3673 257.07 88.974L255.936 88.26C256.562 87.364 257.486 86.916 258.708 86.916ZM265.12 94.112C264.56 94.112 264.094 93.9393 263.72 93.594C263.356 93.2487 263.17 92.768 263.16 92.152V88.316H261.956V87.14H263.16V85.04H264.448V87.14H266.128V88.316H264.448V91.732C264.448 92.1893 264.537 92.502 264.714 92.67C264.892 92.8287 265.092 92.908 265.316 92.908C265.419 92.908 265.517 92.8987 265.61 92.88C265.713 92.852 265.806 92.8193 265.89 92.782L266.296 93.93C265.96 94.0513 265.568 94.112 265.12 94.112ZM269.665 94.224C268.657 94.224 267.827 93.8787 267.173 93.188C266.52 92.4973 266.193 91.6247 266.193 90.57C266.193 89.5247 266.511 88.6567 267.145 87.966C267.78 87.266 268.592 86.916 269.581 86.916C270.599 86.916 271.406 87.2473 272.003 87.91C272.61 88.5633 272.913 89.4827 272.913 90.668L272.899 90.808H267.509C267.528 91.48 267.752 92.0213 268.181 92.432C268.611 92.8427 269.124 93.048 269.721 93.048C270.543 93.048 271.187 92.6373 271.653 91.816L272.801 92.376C272.493 92.9547 272.064 93.4073 271.513 93.734C270.972 94.0607 270.356 94.224 269.665 94.224ZM267.607 89.744H271.541C271.504 89.268 271.308 88.876 270.953 88.568C270.608 88.2507 270.141 88.092 269.553 88.092C269.068 88.092 268.648 88.2413 268.293 88.54C267.948 88.8387 267.719 89.24 267.607 89.744ZM278.903 94.224C277.886 94.224 277.041 93.8787 276.369 93.188C275.707 92.4787 275.375 91.606 275.375 90.57C275.375 89.5153 275.707 88.6427 276.369 87.952C277.041 87.2613 277.886 86.916 278.903 86.916C279.603 86.916 280.215 87.0933 280.737 87.448C281.26 87.7933 281.652 88.274 281.913 88.89L280.737 89.38C280.373 88.5213 279.734 88.092 278.819 88.092C278.231 88.092 277.723 88.33 277.293 88.806C276.873 89.282 276.663 89.87 276.663 90.57C276.663 91.27 276.873 91.858 277.293 92.334C277.723 92.81 278.231 93.048 278.819 93.048C279.762 93.048 280.425 92.6187 280.807 91.76L281.955 92.25C281.703 92.866 281.307 93.3513 280.765 93.706C280.233 94.0513 279.613 94.224 278.903 94.224ZM281.921 90.57C281.921 89.5153 282.253 88.6427 282.915 87.952C283.587 87.2613 284.432 86.916 285.449 86.916C286.467 86.916 287.307 87.2613 287.969 87.952C288.641 88.6427 288.977 89.5153 288.977 90.57C288.977 91.634 288.641 92.5067 287.969 93.188C287.307 93.8787 286.467 94.224 285.449 94.224C284.432 94.224 283.587 93.8787 282.915 93.188C282.253 92.4973 281.921 91.6247 281.921 90.57ZM283.209 90.57C283.209 91.3073 283.424 91.9047 283.853 92.362C284.283 92.8193 284.815 93.048 285.449 93.048C286.084 93.048 286.616 92.8193 287.045 92.362C287.475 91.9047 287.689 91.3073 287.689 90.57C287.689 89.842 287.475 89.2493 287.045 88.792C286.607 88.3253 286.075 88.092 285.449 88.092C284.824 88.092 284.292 88.3253 283.853 88.792C283.424 89.2493 283.209 89.842 283.209 90.57ZM289.311 87.14H290.543V88.092H290.599C290.795 87.756 291.093 87.476 291.495 87.252C291.905 87.028 292.33 86.916 292.769 86.916C293.609 86.916 294.253 87.1587 294.701 87.644C295.158 88.12 295.387 88.8013 295.387 89.688V94H294.099V89.772C294.071 88.652 293.506 88.092 292.405 88.092C291.891 88.092 291.462 88.302 291.117 88.722C290.771 89.1327 290.599 89.6273 290.599 90.206V94H289.311V87.14ZM298.559 94.112C297.999 94.112 297.532 93.9393 297.159 93.594C296.795 93.2487 296.608 92.768 296.599 92.152V88.316H295.395V87.14H296.599V85.04H297.887V87.14H299.567V88.316H297.887V91.732C297.887 92.1893 297.976 92.502 298.153 92.67C298.33 92.8287 298.531 92.908 298.755 92.908C298.858 92.908 298.956 92.8987 299.049 92.88C299.152 92.852 299.245 92.8193 299.329 92.782L299.735 93.93C299.399 94.0513 299.007 94.112 298.559 94.112ZM301.38 94H300.092V87.14H301.324V88.26H301.38C301.511 87.896 301.777 87.588 302.178 87.336C302.589 87.0747 302.99 86.944 303.382 86.944C303.756 86.944 304.073 87 304.334 87.112L303.942 88.358C303.784 88.2927 303.532 88.26 303.186 88.26C302.701 88.26 302.276 88.456 301.912 88.848C301.558 89.24 301.38 89.6973 301.38 90.22V94ZM306.144 84.774C306.144 85.026 306.055 85.2407 305.878 85.418C305.701 85.5953 305.486 85.684 305.234 85.684C304.982 85.684 304.767 85.5953 304.59 85.418C304.413 85.2407 304.324 85.026 304.324 84.774C304.324 84.522 304.413 84.3073 304.59 84.13C304.767 83.9527 304.982 83.864 305.234 83.864C305.486 83.864 305.701 83.9527 305.878 84.13C306.055 84.3073 306.144 84.522 306.144 84.774ZM305.878 87.14V94H304.59V87.14H305.878ZM310.48 94.224C309.976 94.224 309.514 94.1167 309.094 93.902C308.684 93.6873 308.366 93.4027 308.142 93.048H308.086V94H306.854V83.976H308.142V87.14L308.086 88.092H308.142C308.366 87.7373 308.684 87.4527 309.094 87.238C309.514 87.0233 309.976 86.916 310.48 86.916C311.386 86.916 312.151 87.2707 312.776 87.98C313.42 88.6987 313.742 89.562 313.742 90.57C313.742 91.5873 313.42 92.4507 312.776 93.16C312.151 93.8693 311.386 94.224 310.48 94.224ZM310.27 93.048C310.886 93.048 311.404 92.8147 311.824 92.348C312.244 91.8907 312.454 91.298 312.454 90.57C312.454 89.8513 312.244 89.2587 311.824 88.792C311.404 88.3253 310.886 88.092 310.27 88.092C309.645 88.092 309.122 88.3253 308.702 88.792C308.292 89.2587 308.086 89.8513 308.086 90.57C308.086 91.298 308.292 91.8953 308.702 92.362C309.122 92.8193 309.645 93.048 310.27 93.048ZM320.172 94H318.94V93.048H318.884C318.688 93.384 318.385 93.664 317.974 93.888C317.573 94.112 317.153 94.224 316.714 94.224C315.874 94.224 315.226 93.986 314.768 93.51C314.32 93.0247 314.096 92.3387 314.096 91.452V87.14H315.384V91.368C315.412 92.488 315.977 93.048 317.078 93.048C317.592 93.048 318.021 92.8427 318.366 92.432C318.712 92.012 318.884 91.5127 318.884 90.934V87.14H320.172V94ZM323.825 94.112C323.265 94.112 322.798 93.9393 322.425 93.594C322.061 93.2487 321.874 92.768 321.865 92.152V88.316H320.661V87.14H321.865V85.04H323.153V87.14H324.833V88.316H323.153V91.732C323.153 92.1893 323.241 92.502 323.419 92.67C323.596 92.8287 323.797 92.908 324.021 92.908C324.123 92.908 324.221 92.8987 324.315 92.88C324.417 92.852 324.511 92.8193 324.595 92.782L325.001 93.93C324.665 94.0513 324.273 94.112 323.825 94.112ZM328.369 94.224C327.361 94.224 326.531 93.8787 325.877 93.188C325.224 92.4973 324.897 91.6247 324.897 90.57C324.897 89.5247 325.215 88.6567 325.849 87.966C326.484 87.266 327.296 86.916 328.285 86.916C329.303 86.916 330.11 87.2473 330.707 87.91C331.314 88.5633 331.617 89.4827 331.617 90.668L331.603 90.808H326.213C326.232 91.48 326.456 92.0213 326.885 92.432C327.315 92.8427 327.828 93.048 328.425 93.048C329.247 93.048 329.891 92.6373 330.357 91.816L331.505 92.376C331.197 92.9547 330.768 93.4073 330.217 93.734C329.676 94.0607 329.06 94.224 328.369 94.224ZM326.311 89.744H330.245C330.208 89.268 330.012 88.876 329.657 88.568C329.312 88.2507 328.845 88.092 328.257 88.092C327.772 88.092 327.352 88.2413 326.997 88.54C326.652 88.8387 326.423 89.24 326.311 89.744ZM335.244 93.048C335.878 93.048 336.396 92.8193 336.798 92.362C337.218 91.9047 337.428 91.3073 337.428 90.57C337.428 89.8513 337.218 89.2587 336.798 88.792C336.387 88.3253 335.869 88.092 335.244 88.092C334.628 88.092 334.11 88.3253 333.69 88.792C333.27 89.2587 333.06 89.8513 333.06 90.57C333.06 91.298 333.27 91.8907 333.69 92.348C334.11 92.8147 334.628 93.048 335.244 93.048ZM335.034 94.224C334.138 94.224 333.368 93.8693 332.724 93.16C332.089 92.4413 331.772 91.578 331.772 90.57C331.772 89.562 332.089 88.6987 332.724 87.98C333.368 87.2707 334.138 86.916 335.034 86.916C335.538 86.916 335.995 87.0233 336.406 87.238C336.826 87.4527 337.148 87.7373 337.372 88.092H337.428L337.372 87.14V83.976H338.66V94H337.428V93.048H337.372C337.148 93.4027 336.826 93.6873 336.406 93.902C335.995 94.1167 335.538 94.224 335.034 94.224ZM341.322 88.008C341.322 88.2693 341.229 88.4933 341.042 88.68C340.865 88.8667 340.641 88.96 340.37 88.96C340.109 88.96 339.885 88.8667 339.698 88.68C339.511 88.4933 339.418 88.2693 339.418 88.008C339.418 87.7373 339.511 87.5133 339.698 87.336C339.885 87.1493 340.109 87.056 340.37 87.056C340.641 87.056 340.865 87.1493 341.042 87.336C341.229 87.5133 341.322 87.7373 341.322 88.008ZM341.322 93.132C341.322 93.3933 341.229 93.6173 341.042 93.804C340.865 93.9907 340.641 94.084 340.37 94.084C340.109 94.084 339.885 93.9907 339.698 93.804C339.511 93.6173 339.418 93.3933 339.418 93.132C339.418 92.8613 339.511 92.6373 339.698 92.46C339.885 92.2733 340.109 92.18 340.37 92.18C340.641 92.18 340.865 92.2733 341.042 92.46C341.229 92.6373 341.322 92.8613 341.322 93.132Z" fill="#242424" fill-opacity="0.6"/>
<path d="M274.391 106.212C274.391 104.756 274.75 103.557 275.469 102.614C276.187 101.671 277.111 101.2 278.241 101.2C279.37 101.2 280.294 101.676 281.013 102.628C281.731 103.571 282.091 104.765 282.091 106.212C282.091 107.649 281.731 108.849 281.013 109.81C280.294 110.753 279.37 111.224 278.241 111.224C277.111 111.224 276.187 110.753 275.469 109.81C274.75 108.849 274.391 107.649 274.391 106.212ZM280.775 106.212C280.775 105.111 280.541 104.205 280.075 103.496C279.617 102.787 279.006 102.432 278.241 102.432C277.475 102.432 276.864 102.787 276.407 103.496C275.94 104.205 275.707 105.111 275.707 106.212C275.707 107.313 275.94 108.223 276.407 108.942C276.864 109.642 277.475 109.992 278.241 109.992C279.006 109.992 279.617 109.637 280.075 108.928C280.541 108.209 280.775 107.304 280.775 106.212ZM285.558 107.5C284.793 107.5 284.098 107.197 283.472 106.59C282.866 105.965 282.562 105.237 282.562 104.406C282.562 103.538 282.889 102.791 283.542 102.166C284.196 101.522 284.961 101.2 285.838 101.2C286.762 101.2 287.542 101.517 288.176 102.152C288.811 102.787 289.128 103.538 289.128 104.406C289.128 105.181 288.816 106.063 288.19 107.052L285.404 111.224L284.368 110.51L286.734 107.234L286.706 107.206C286.408 107.402 286.025 107.5 285.558 107.5ZM287.826 104.392C287.826 103.851 287.63 103.389 287.238 103.006C286.856 102.623 286.389 102.432 285.838 102.432C285.288 102.432 284.821 102.623 284.438 103.006C284.056 103.389 283.864 103.851 283.864 104.392C283.864 104.933 284.056 105.395 284.438 105.778C284.84 106.161 285.306 106.352 285.838 106.352C286.37 106.352 286.837 106.161 287.238 105.778C287.63 105.405 287.826 104.943 287.826 104.392ZM294.453 100.976L290.295 111H289.091L293.249 100.976H294.453ZM294.466 106.212C294.466 104.756 294.826 103.557 295.544 102.614C296.263 101.671 297.187 101.2 298.316 101.2C299.446 101.2 300.37 101.676 301.088 102.628C301.807 103.571 302.166 104.765 302.166 106.212C302.166 107.649 301.807 108.849 301.088 109.81C300.37 110.753 299.446 111.224 298.316 111.224C297.187 111.224 296.263 110.753 295.544 109.81C294.826 108.849 294.466 107.649 294.466 106.212ZM300.85 106.212C300.85 105.111 300.617 104.205 300.15 103.496C299.693 102.787 299.082 102.432 298.316 102.432C297.551 102.432 296.94 102.787 296.482 103.496C296.016 104.205 295.782 105.111 295.782 106.212C295.782 107.313 296.016 108.223 296.482 108.942C296.94 109.642 297.551 109.992 298.316 109.992C299.082 109.992 299.693 109.637 300.15 108.928C300.617 108.209 300.85 107.304 300.85 106.212ZM308.703 102.74L304.055 111.224L302.907 110.636L307.345 102.656H302.501L302.529 101.424H308.703V102.74ZM313.325 100.976L309.167 111H307.963L312.121 100.976H313.325ZM319.66 109.768V111H313.556V109.712L316.034 107.206C316.865 106.357 317.439 105.722 317.756 105.302C318.074 104.873 318.232 104.425 318.232 103.958C318.232 103.538 318.069 103.179 317.742 102.88C317.416 102.581 316.996 102.432 316.482 102.432C316.044 102.432 315.666 102.563 315.348 102.824C315.031 103.085 314.826 103.403 314.732 103.776L313.556 103.3C313.743 102.712 314.102 102.217 314.634 101.816C315.166 101.405 315.792 101.2 316.51 101.2C317.378 101.2 318.102 101.466 318.68 101.998C319.259 102.53 319.548 103.183 319.548 103.958C319.548 104.882 319.04 105.881 318.022 106.954L315.222 109.768H319.66ZM320.186 106.212C320.186 104.756 320.545 103.557 321.264 102.614C321.983 101.671 322.907 101.2 324.036 101.2C325.165 101.2 326.089 101.676 326.808 102.628C327.527 103.571 327.886 104.765 327.886 106.212C327.886 107.649 327.527 108.849 326.808 109.81C326.089 110.753 325.165 111.224 324.036 111.224C322.907 111.224 321.983 110.753 321.264 109.81C320.545 108.849 320.186 107.649 320.186 106.212ZM326.57 106.212C326.57 105.111 326.337 104.205 325.87 103.496C325.413 102.787 324.801 102.432 324.036 102.432C323.271 102.432 322.659 102.787 322.202 103.496C321.735 104.205 321.502 105.111 321.502 106.212C321.502 107.313 321.735 108.223 322.202 108.942C322.659 109.642 323.271 109.992 324.036 109.992C324.801 109.992 325.413 109.637 325.87 108.928C326.337 108.209 326.57 107.304 326.57 106.212ZM334.325 109.768V111H328.221V109.712L330.699 107.206C331.53 106.357 332.104 105.722 332.421 105.302C332.738 104.873 332.897 104.425 332.897 103.958C332.897 103.538 332.734 103.179 332.407 102.88C332.08 102.581 331.66 102.432 331.147 102.432C330.708 102.432 330.33 102.563 330.013 102.824C329.696 103.085 329.49 103.403 329.397 103.776L328.221 103.3C328.408 102.712 328.767 102.217 329.299 101.816C329.831 101.405 330.456 101.2 331.175 101.2C332.043 101.2 332.766 101.466 333.345 101.998C333.924 102.53 334.213 103.183 334.213 103.958C334.213 104.882 333.704 105.881 332.687 106.954L329.887 109.768H334.325ZM341.332 108.004C341.332 108.919 341.015 109.684 340.38 110.3C339.746 110.916 338.962 111.224 338.028 111.224C337.282 111.224 336.605 110.991 335.998 110.524C335.392 110.057 334.99 109.427 334.794 108.634L335.942 108.172C336.082 108.732 336.334 109.175 336.698 109.502C337.072 109.829 337.506 109.992 338 109.992C338.598 109.992 339.083 109.81 339.456 109.446C339.839 109.073 340.03 108.597 340.03 108.018C340.03 107.43 339.839 106.949 339.456 106.576C339.083 106.203 338.602 106.016 338.014 106.016C337.333 106.016 336.796 106.291 336.404 106.842L335.102 106.282L335.718 101.424H340.744V102.656H336.796L336.446 105.4L336.502 105.414C336.978 105.031 337.557 104.84 338.238 104.84C339.097 104.84 339.825 105.143 340.422 105.75C341.029 106.357 341.332 107.108 341.332 108.004Z" fill="#242424"/>
<rect x="251" y="16" width="89" height="33" rx="4" fill="#6D28D9" fill-opacity="0.1"/>
<path d="M266.04 37H264.696L261.168 26.976H262.596L265.34 35.11H265.396L268.252 26.976H269.68L266.04 37ZM271.322 27.774C271.322 28.026 271.234 28.2407 271.056 28.418C270.879 28.5953 270.664 28.684 270.412 28.684C270.16 28.684 269.946 28.5953 269.768 28.418C269.591 28.2407 269.502 28.026 269.502 27.774C269.502 27.522 269.591 27.3073 269.768 27.13C269.946 26.9527 270.16 26.864 270.412 26.864C270.664 26.864 270.879 26.9527 271.056 27.13C271.234 27.3073 271.322 27.522 271.322 27.774ZM271.056 30.14V37H269.768V30.14H271.056ZM275.044 37.224C274.036 37.224 273.205 36.8787 272.552 36.188C271.899 35.4973 271.572 34.6247 271.572 33.57C271.572 32.5247 271.889 31.6567 272.524 30.966C273.159 30.266 273.971 29.916 274.96 29.916C275.977 29.916 276.785 30.2473 277.382 30.91C277.989 31.5633 278.292 32.4827 278.292 33.668L278.278 33.808H272.888C272.907 34.48 273.131 35.0213 273.56 35.432C273.989 35.8427 274.503 36.048 275.1 36.048C275.921 36.048 276.565 35.6373 277.032 34.816L278.18 35.376C277.872 35.9547 277.443 36.4073 276.892 36.734C276.351 37.0607 275.735 37.224 275.044 37.224ZM272.986 32.744H276.92C276.883 32.268 276.687 31.876 276.332 31.568C275.987 31.2507 275.52 31.092 274.932 31.092C274.447 31.092 274.027 31.2413 273.672 31.54C273.327 31.8387 273.098 32.24 272.986 32.744ZM288.349 30.14L286.137 37H284.821L283.113 31.736L281.419 37H280.117L277.905 30.14H279.249L280.775 35.32H280.789L282.483 30.14H283.813L285.507 35.32H285.521L287.033 30.14H288.349ZM300.58 30.14L298.368 37H297.052L295.344 31.736L293.65 37H292.348L290.136 30.14H291.48L293.006 35.32H293.02L294.714 30.14H296.044L297.738 35.32H297.752L299.264 30.14H300.58ZM302.385 27.774C302.385 28.026 302.296 28.2407 302.119 28.418C301.941 28.5953 301.727 28.684 301.475 28.684C301.223 28.684 301.008 28.5953 300.831 28.418C300.653 28.2407 300.565 28.026 300.565 27.774C300.565 27.522 300.653 27.3073 300.831 27.13C301.008 26.9527 301.223 26.864 301.475 26.864C301.727 26.864 301.941 26.9527 302.119 27.13C302.296 27.3073 302.385 27.522 302.385 27.774ZM302.119 30.14V37H300.831V30.14H302.119ZM308.345 35.096C308.345 35.6933 308.084 36.1973 307.561 36.608C307.038 37.0187 306.38 37.224 305.587 37.224C304.896 37.224 304.29 37.0467 303.767 36.692C303.244 36.328 302.871 35.852 302.647 35.264L303.795 34.774C303.963 35.1847 304.206 35.5067 304.523 35.74C304.85 35.964 305.204 36.076 305.587 36.076C305.998 36.076 306.338 35.9873 306.609 35.81C306.889 35.6327 307.029 35.4227 307.029 35.18C307.029 34.7413 306.693 34.4193 306.021 34.214L304.845 33.92C303.51 33.584 302.843 32.94 302.843 31.988C302.843 31.3627 303.095 30.8633 303.599 30.49C304.112 30.1073 304.766 29.916 305.559 29.916C306.166 29.916 306.712 30.0607 307.197 30.35C307.692 30.6393 308.037 31.0267 308.233 31.512L307.085 31.988C306.954 31.6987 306.74 31.4747 306.441 31.316C306.152 31.148 305.825 31.064 305.461 31.064C305.125 31.064 304.822 31.148 304.551 31.316C304.29 31.484 304.159 31.6893 304.159 31.932C304.159 32.324 304.528 32.604 305.265 32.772L306.301 33.038C307.664 33.374 308.345 34.06 308.345 35.096ZM308.766 26.976H310.054V30.14L309.998 31.092H310.054C310.25 30.756 310.549 30.476 310.95 30.252C311.361 30.028 311.785 29.916 312.224 29.916C313.064 29.916 313.708 30.1587 314.156 30.644C314.613 31.12 314.842 31.8013 314.842 32.688V37H313.554V32.94C313.554 31.708 313.008 31.092 311.916 31.092C311.393 31.092 310.95 31.3113 310.586 31.75C310.231 32.1793 310.054 32.6833 310.054 33.262V37H308.766V26.976ZM316.942 26.976V37H315.654V26.976H316.942ZM319.477 27.774C319.477 28.026 319.389 28.2407 319.211 28.418C319.034 28.5953 318.819 28.684 318.567 28.684C318.315 28.684 318.101 28.5953 317.923 28.418C317.746 28.2407 317.657 28.026 317.657 27.774C317.657 27.522 317.746 27.3073 317.923 27.13C318.101 26.9527 318.315 26.864 318.567 26.864C318.819 26.864 319.034 26.9527 319.211 27.13C319.389 27.3073 319.477 27.522 319.477 27.774ZM319.211 30.14V37H317.923V30.14H319.211ZM325.438 35.096C325.438 35.6933 325.176 36.1973 324.654 36.608C324.131 37.0187 323.473 37.224 322.68 37.224C321.989 37.224 321.382 37.0467 320.86 36.692C320.337 36.328 319.964 35.852 319.74 35.264L320.888 34.774C321.056 35.1847 321.298 35.5067 321.616 35.74C321.942 35.964 322.297 36.076 322.68 36.076C323.09 36.076 323.431 35.9873 323.702 35.81C323.982 35.6327 324.122 35.4227 324.122 35.18C324.122 34.7413 323.786 34.4193 323.114 34.214L321.938 33.92C320.603 33.584 319.936 32.94 319.936 31.988C319.936 31.3627 320.188 30.8633 320.692 30.49C321.205 30.1073 321.858 29.916 322.652 29.916C323.258 29.916 323.804 30.0607 324.29 30.35C324.784 30.6393 325.13 31.0267 325.326 31.512L324.178 31.988C324.047 31.6987 323.832 31.4747 323.534 31.316C323.244 31.148 322.918 31.064 322.554 31.064C322.218 31.064 321.914 31.148 321.644 31.316C321.382 31.484 321.252 31.6893 321.252 31.932C321.252 32.324 321.62 32.604 322.358 32.772L323.394 33.038C324.756 33.374 325.438 34.06 325.438 35.096ZM328.506 37.112C327.946 37.112 327.48 36.9393 327.106 36.594C326.742 36.2487 326.556 35.768 326.546 35.152V31.316H325.342V30.14H326.546V28.04H327.834V30.14H329.514V31.316H327.834V34.732C327.834 35.1893 327.923 35.502 328.1 35.67C328.278 35.8287 328.478 35.908 328.702 35.908C328.805 35.908 328.903 35.8987 328.996 35.88C329.099 35.852 329.192 35.8193 329.276 35.782L329.682 36.93C329.346 37.0513 328.954 37.112 328.506 37.112Z" fill="#6D29D9"/>
<line x1="6" y1="64.5" x2="351" y2="64.5" stroke="#D7D7D7"/>
<rect x="16" y="13" width="40" height="40" rx="20" fill="#2A9921" fill-opacity="0.05"/>
<path d="M32.8623 31.2323C32.8659 31.1316 32.8491 31.0313 32.813 30.9372C32.777 30.8432 32.7223 30.7574 32.6524 30.6849C32.5824 30.6125 32.4986 30.5548 32.4059 30.5155C32.3132 30.4761 32.2135 30.4558 32.1128 30.4558C32.0121 30.4558 31.9124 30.4761 31.8197 30.5155C31.727 30.5548 31.6431 30.6125 31.5732 30.6849C31.5032 30.7574 31.4486 30.8432 31.4125 30.9372C31.3765 31.0313 31.3597 31.1316 31.3633 31.2323L31.3633 36.8891C31.3634 37.0879 31.4424 37.2784 31.5829 37.419C31.7235 37.5595 31.914 37.6385 32.1128 37.6387L37.7696 37.6387C37.8703 37.6422 37.9706 37.6254 38.0647 37.5894C38.1587 37.5533 38.2445 37.4987 38.317 37.4287C38.3895 37.3588 38.4471 37.2749 38.4865 37.1822C38.5258 37.0895 38.5461 36.9898 38.5461 36.8891C38.5461 36.7884 38.5258 36.6887 38.4864 36.596C38.4471 36.5033 38.3895 36.4195 38.317 36.3495C38.2445 36.2796 38.1587 36.2249 38.0647 36.1889C37.9706 36.1528 37.8703 36.136 37.7696 36.1396L33.923 36.1396L40.7748 29.2877C40.9155 29.1471 40.9945 28.9563 40.9945 28.7574C40.9945 28.5585 40.9155 28.3677 40.7748 28.2271C40.6342 28.0864 40.4434 28.0074 40.2445 28.0074C40.0456 28.0074 39.8548 28.0864 39.7142 28.2271L32.8623 35.0789L32.8623 31.2323Z" fill="#2A9921"/>
</svg>
