<svg width="100" height="100" viewBox="0 0 100 100" fill="none" xmlns="http://www.w3.org/2000/svg">
<path d="M82.5387 14.0845C85.3146 16.4829 87.6456 19.0311 89.8304 21.9719C89.9521 22.1356 90.0739 22.2994 90.1993 22.4681C95.44 29.6318 98.5992 38.7327 98.8699 47.6057C98.8812 47.9615 98.8925 48.3174 98.9041 48.684C99.0271 54.5936 98.2525 60.6846 96.045 66.1972C95.8586 66.1972 95.6722 66.1972 95.4801 66.1972C95.0948 65.7455 94.7272 65.2788 94.3678 64.8064C90.2401 59.6745 84.4029 57.3593 78.0895 56.1444C70.1922 55.4285 61.689 57.1172 54.8606 61.1873C54.0234 61.652 53.4658 61.8092 52.5422 61.9719C52.0092 62.2169 51.4853 62.4823 50.9709 62.7641C50.7083 62.9054 50.4458 63.0466 50.1753 63.1922C49.4304 63.6241 49.4304 63.6241 48.9128 64.2034C47.823 65.2529 46.447 65.8444 45.1093 66.5317C44.7953 66.6931 44.4814 66.8545 44.1579 67.0208C35.5304 71.377 26.6843 74.1443 17.1156 71.2588C12.7175 69.7116 7.63808 66.5351 5.08458 62.5352C4.34251 60.4867 4.01989 58.3513 3.76043 56.1972C3.72486 55.9036 3.68929 55.6099 3.65264 55.3074C2.30568 43.4008 5.41667 30.8085 12.9001 21.3125C20.9599 11.3089 31.9961 4.28531 44.9526 2.67719C58.8097 1.29441 71.904 5.04991 82.5387 14.0845Z" fill="#6D29D9"/>
<path d="M70.6356 59.6723C78.2977 59.4658 85.7123 61.6954 91.5252 66.7596C95.0014 70.0549 97.7301 74.578 98.0223 79.4357C97.1206 78.7818 96.4117 78.0895 95.7095 77.235C92.8183 73.8932 88.2309 71.8657 83.8604 71.4976C74.9061 70.9634 67.6025 75.0496 60.3596 79.8072C54.5717 83.6064 48.5973 87.3257 41.8077 89.0132C41.6276 89.0585 41.4476 89.1038 41.2621 89.1504C32.9062 91.1685 23.6601 89.787 16.2985 85.3699C8.97924 80.7854 3.49629 73.6425 1.41217 65.2456C1.08681 63.7893 1.08681 63.7893 1.41217 62.816C1.61263 63.0976 1.61263 63.0976 1.81714 63.3849C6.1913 69.4642 11.2231 74.3692 18.7959 75.9479C23.0054 76.5986 27.2995 76.1108 31.3557 74.9287C31.6418 74.8516 31.6418 74.8516 31.9337 74.773C37.4927 73.263 42.7959 70.3808 47.7895 67.5591C55.1796 63.384 62.0401 60.1222 70.6356 59.6723Z" fill="#009FE2"/>
<path d="M42.5503 14.5207C47.4254 17.5 49.6919 22.6069 51.1297 27.8878C51.2482 27.4379 51.2482 27.4379 51.3692 26.9789C52.7235 22.0146 54.7213 17.4396 59.3218 14.6483C61.3491 13.5074 63.6586 13.5554 65.9128 13.9056C67.6605 14.4109 68.7376 15.7548 69.7738 17.1836C70.6284 18.8525 70.6079 20.7445 70.1015 22.5247C68.5717 26.5207 65.9167 28.8437 62.1467 30.7047C62.3294 30.7076 62.5122 30.7105 62.7005 30.7135C64.5976 30.7439 66.4946 30.7762 68.3916 30.8096C69.1002 30.8218 69.8088 30.8335 70.5174 30.8448C71.5341 30.861 72.5508 30.8789 73.5675 30.8972C74.0451 30.9043 74.0451 30.9043 74.5323 30.9115C74.9734 30.9199 74.9734 30.9199 75.4234 30.9285C75.6831 30.9329 75.9428 30.9373 76.2103 30.9418C76.8359 30.9864 76.8359 30.9864 77.4009 31.2681C77.4079 32.7822 77.413 34.2963 77.4164 35.8105C77.4178 36.3258 77.4198 36.8411 77.4222 37.3564C77.4256 38.0962 77.4272 38.836 77.4285 39.5757C77.4299 39.807 77.4314 40.0382 77.4329 40.2764C77.4331 41.9081 77.4331 41.9081 77.1184 42.5357C69.3811 42.5357 61.6438 42.5357 53.6721 42.5357C53.6721 39.2821 53.6721 36.0286 53.6721 32.6765C51.9941 32.6765 50.3162 32.6765 48.5873 32.6765C48.5873 35.93 48.5873 39.1836 48.5873 42.5357C45.5352 42.542 42.4831 42.5472 39.4309 42.5503C38.0138 42.5517 36.5968 42.5537 35.1797 42.5569C33.8133 42.56 32.4469 42.5617 31.0806 42.5624C30.5581 42.5629 30.0355 42.5639 29.513 42.5654C28.7838 42.5675 28.0546 42.5678 27.3254 42.5676C27.1072 42.5687 26.8889 42.5697 26.6641 42.5707C25.1732 42.5678 25.1732 42.5678 24.8585 42.254C24.83 41.4448 24.8191 40.6425 24.821 39.8332C24.8207 39.5904 24.8205 39.3476 24.8202 39.0975C24.82 38.5832 24.8205 38.0688 24.8217 37.5545C24.8232 36.7644 24.8217 35.9743 24.8199 35.1842C24.8201 34.6858 24.8205 34.1873 24.821 33.6888C24.8201 33.3319 24.8201 33.3319 24.8193 32.9677C24.8261 31.3004 24.8261 31.3004 25.141 30.9864C25.6003 30.9518 26.061 30.9363 26.5215 30.9285C26.8156 30.9229 27.1096 30.9173 27.4126 30.9115C27.7325 30.9068 28.0523 30.9021 28.3819 30.8972C28.7075 30.8914 29.0332 30.8855 29.3687 30.8795C30.4135 30.861 31.4584 30.8444 32.5033 30.8279C33.2097 30.8158 33.9161 30.8035 34.6225 30.7911C36.3584 30.7608 38.0943 30.7322 39.8303 30.7047C39.6164 30.5898 39.4025 30.475 39.1822 30.3566C38.9019 30.2053 38.6217 30.054 38.3329 29.8981C38.0549 29.7484 37.777 29.5987 37.4906 29.4444C35.0866 28.0982 32.8729 25.569 32.0354 22.8988C31.6252 20.5936 31.5555 18.3223 32.8719 16.3121C35.3375 13.4416 39.1316 12.9309 42.5503 14.5207Z" fill="#FDFCFD"/>
<path d="M90.9602 76.6189C85.8631 85.9566 75.3238 92.8503 65.3181 95.9253C64.0805 96.2841 62.8349 96.6012 61.5816 96.9006C61.3765 96.9511 61.1714 97.0016 60.9601 97.0537C54.7056 98.5218 46.9076 98.4283 40.6777 96.9006C40.4604 96.8478 40.2431 96.7949 40.0192 96.7405C37.4559 96.1007 34.9454 95.3325 32.4856 94.3654C32.4856 94.1795 32.4856 93.9935 32.4856 93.802C32.6688 93.7979 32.852 93.7938 33.0407 93.7896C38.3257 93.6596 38.3257 93.6596 43.5025 92.6752C43.6906 92.6242 43.8786 92.5731 44.0723 92.5205C49.9276 90.8809 55.1266 87.822 60.1692 84.5062C61.7646 83.465 63.3633 82.4292 64.9715 81.4076C65.1642 81.2849 65.357 81.1621 65.5556 81.0356C72.8391 76.4433 82.5319 72.9209 90.9602 76.6189Z" fill="#6C27D8"/>
<path d="M28.5309 46.4785C35.336 46.4785 42.1411 46.4785 49.1524 46.4785C49.1524 52.3349 49.1524 58.1912 49.1524 64.225C43.8505 67.1989 43.8505 67.1989 41.949 68.0806C41.7248 68.1849 41.5007 68.2892 41.2697 68.3967C32.5569 72.394 32.5569 72.394 28.2484 72.394C28.3416 63.8419 28.4349 55.2898 28.5309 46.4785Z" fill="#FCFBFD"/>
<path d="M53.3895 46.7617C60.1013 46.7617 66.8132 46.7617 73.7284 46.7617C73.8217 49.8293 73.9149 52.8969 74.0109 56.0575C72.5777 56.1534 72.5777 56.1534 71.1155 56.2512C65.3536 56.7225 59.8243 58.273 54.8074 61.206C53.9544 61.6913 53.9544 61.6913 53.3895 61.6913C53.3895 56.7645 53.3895 51.8378 53.3895 46.7617Z" fill="#FDFDFD"/>
<path d="M64.4066 19.1551C64.9715 19.7185 64.9715 19.7185 65.0951 20.4579C64.7794 22.8862 62.8226 24.5393 61.0167 26.0213C57.105 29.0143 57.105 29.0143 55.367 29.0143C55.909 25.3061 58.9289 21.3796 61.8642 19.1551C62.7452 18.7159 63.4639 18.9705 64.4066 19.1551Z" fill="#702DD9"/>
<path d="M39.5479 18.8719C42.3456 20.2928 43.9008 23.2641 45.3389 25.9141C45.4379 26.0964 45.537 26.2787 45.639 26.4664C46.0645 27.2776 46.3276 27.8023 46.3276 28.731C43.1855 28.314 39.8541 25.4329 37.9302 23.0587C37.1748 21.954 36.75 21.0868 37.0055 19.7169C37.6345 18.6716 38.4051 18.6784 39.5479 18.8719Z" fill="#712EDA"/>
</svg>
