<svg width="124" height="87" viewBox="0 0 124 87" fill="none" xmlns="http://www.w3.org/2000/svg">
<path d="M19.2173 20.5555C18.9472 20.5378 18.6938 20.418 18.5088 20.2204C18.3237 20.0228 18.2207 19.7622 18.2207 19.4915C18.2207 19.2208 18.3237 18.9602 18.5088 18.7626C18.6938 18.565 18.9472 18.4452 19.2173 18.4275C21.8238 18.4275 24.0202 14.6955 24.0202 10.2754C24.0378 10.0053 24.1576 9.75195 24.3552 9.56687C24.5528 9.3818 24.8134 9.27881 25.0842 9.27881C25.3549 9.27881 25.6155 9.3818 25.8131 9.56687C26.0107 9.75195 26.1305 10.0053 26.1482 10.2754C26.1482 16.0397 23.1134 20.5555 19.2173 20.5555Z" fill="#407BFF"/>
<path d="M35.2984 20.5555C35.0282 20.5378 34.7749 20.418 34.5898 20.2204C34.4047 20.0228 34.3018 19.7622 34.3018 19.4915C34.3018 19.2208 34.4047 18.9602 34.5898 18.7626C34.7749 18.565 35.0282 18.4452 35.2984 18.4275C37.9049 18.4275 40.1012 14.6955 40.1012 10.2754C40.1189 10.0053 40.2387 9.75195 40.4363 9.56687C40.6339 9.3818 40.8945 9.27881 41.1652 9.27881C41.436 9.27881 41.6966 9.3818 41.8942 9.56687C42.0917 9.75195 42.2115 10.0053 42.2292 10.2754C42.252 16.0397 39.1853 20.5555 35.2984 20.5555Z" fill="#407BFF"/>
<path d="M51.3658 20.5557C51.0956 20.538 50.8423 20.4182 50.6572 20.2206C50.4721 20.023 50.3691 19.7624 50.3691 19.4917C50.3691 19.2209 50.4721 18.9603 50.6572 18.7627C50.8423 18.5651 51.0956 18.4453 51.3658 18.4277C53.9677 18.4277 56.1686 14.6957 56.1686 10.2756C56.1686 9.99401 56.2805 9.72395 56.4796 9.52484C56.6787 9.32572 56.9487 9.21387 57.2303 9.21387C57.5119 9.21387 57.782 9.32572 57.9811 9.52484C58.1802 9.72395 58.2921 9.99401 58.2921 10.2756C58.3057 16.0399 55.2664 20.5557 51.3658 20.5557Z" fill="#407BFF"/>
<path d="M67.4602 20.5557C67.3146 20.5652 67.1686 20.5448 67.0312 20.4956C66.8939 20.4464 66.768 20.3696 66.6616 20.2699C66.5551 20.1702 66.4702 20.0496 66.4122 19.9158C66.3542 19.7819 66.3242 19.6376 66.3242 19.4917C66.3242 19.3458 66.3542 19.2014 66.4122 19.0676C66.4702 18.9337 66.5551 18.8132 66.6616 18.7134C66.768 18.6137 66.8939 18.5369 67.0312 18.4877C67.1686 18.4386 67.3146 18.4181 67.4602 18.4277C70.0621 18.4277 72.263 14.6957 72.263 10.2756C72.263 9.99401 72.3749 9.72395 72.574 9.52484C72.7731 9.32572 73.0431 9.21387 73.3247 9.21387C73.6063 9.21387 73.8764 9.32572 74.0755 9.52484C74.2746 9.72395 74.3865 9.99401 74.3865 10.2756C74.3865 16.0399 71.3425 20.5557 67.4602 20.5557Z" fill="#407BFF"/>
<path d="M83.5367 20.5555C83.2665 20.5378 83.0132 20.418 82.8281 20.2204C82.643 20.0228 82.54 19.7622 82.54 19.4915C82.54 19.2208 82.643 18.9602 82.8281 18.7626C83.0132 18.565 83.2665 18.4452 83.5367 18.4275C86.1431 18.4275 88.3395 14.6955 88.3395 10.2754C88.3572 10.0053 88.477 9.75195 88.6746 9.56687C88.8722 9.3818 89.1328 9.27881 89.4035 9.27881C89.6742 9.27881 89.9348 9.3818 90.1324 9.56687C90.33 9.75195 90.4498 10.0053 90.4675 10.2754C90.4675 16.0397 87.4236 20.5555 83.5367 20.5555Z" fill="#407BFF"/>
<path d="M99.6177 20.5555C99.3476 20.5378 99.0942 20.418 98.9092 20.2204C98.7241 20.0228 98.6211 19.7622 98.6211 19.4915C98.6211 19.2208 98.7241 18.9602 98.9092 18.7626C99.0942 18.565 99.3476 18.4452 99.6177 18.4275C102.22 18.4275 104.421 14.6955 104.421 10.2754C104.438 10.0053 104.558 9.75195 104.756 9.56687C104.953 9.3818 105.214 9.27881 105.485 9.27881C105.755 9.27881 106.016 9.3818 106.213 9.56687C106.411 9.75195 106.531 10.0053 106.549 10.2754C106.549 16.0397 103.505 20.5555 99.6177 20.5555Z" fill="#407BFF"/>
<g opacity="0.3">
<path d="M19.2173 20.5555C18.9472 20.5378 18.6938 20.418 18.5088 20.2204C18.3237 20.0228 18.2207 19.7622 18.2207 19.4915C18.2207 19.2208 18.3237 18.9602 18.5088 18.7626C18.6938 18.565 18.9472 18.4452 19.2173 18.4275C21.8238 18.4275 24.0202 14.6955 24.0202 10.2754C24.0378 10.0053 24.1576 9.75195 24.3552 9.56687C24.5528 9.3818 24.8134 9.27881 25.0842 9.27881C25.3549 9.27881 25.6155 9.3818 25.8131 9.56687C26.0107 9.75195 26.1305 10.0053 26.1482 10.2754C26.1482 16.0397 23.1134 20.5555 19.2173 20.5555Z" fill="black"/>
<path d="M35.2984 20.5555C35.0282 20.5378 34.7749 20.418 34.5898 20.2204C34.4047 20.0228 34.3018 19.7622 34.3018 19.4915C34.3018 19.2208 34.4047 18.9602 34.5898 18.7626C34.7749 18.565 35.0282 18.4452 35.2984 18.4275C37.9049 18.4275 40.1012 14.6955 40.1012 10.2754C40.1189 10.0053 40.2387 9.75195 40.4363 9.56687C40.6339 9.3818 40.8945 9.27881 41.1652 9.27881C41.436 9.27881 41.6966 9.3818 41.8942 9.56687C42.0917 9.75195 42.2115 10.0053 42.2292 10.2754C42.252 16.0397 39.1853 20.5555 35.2984 20.5555Z" fill="black"/>
<path d="M51.3658 20.5552C51.0956 20.5375 50.8423 20.4177 50.6572 20.2201C50.4721 20.0225 50.3691 19.7619 50.3691 19.4912C50.3691 19.2204 50.4721 18.9598 50.6572 18.7623C50.8423 18.5647 51.0956 18.4449 51.3658 18.4272C53.9677 18.4272 56.1686 14.6952 56.1686 10.2751C56.1686 9.99352 56.2805 9.72346 56.4796 9.52435C56.6787 9.32524 56.9487 9.21338 57.2303 9.21338C57.5119 9.21338 57.782 9.32524 57.9811 9.52435C58.1802 9.72346 58.2921 9.99352 58.2921 10.2751C58.3057 16.0394 55.2664 20.5552 51.3658 20.5552Z" fill="black"/>
<path d="M67.4602 20.5552C67.3146 20.5647 67.1686 20.5443 67.0312 20.4951C66.8939 20.446 66.768 20.3691 66.6616 20.2694C66.5551 20.1697 66.4702 20.0491 66.4122 19.9153C66.3542 19.7814 66.3242 19.6371 66.3242 19.4912C66.3242 19.3453 66.3542 19.2009 66.4122 19.0671C66.4702 18.9332 66.5551 18.8127 66.6616 18.713C66.768 18.6132 66.8939 18.5364 67.0312 18.4872C67.1686 18.4381 67.3146 18.4176 67.4602 18.4272C70.0621 18.4272 72.263 14.6952 72.263 10.2751C72.263 9.99352 72.3749 9.72346 72.574 9.52435C72.7731 9.32524 73.0431 9.21338 73.3247 9.21338C73.6063 9.21338 73.8764 9.32524 74.0755 9.52435C74.2746 9.72346 74.3865 9.99352 74.3865 10.2751C74.3865 16.0394 71.3425 20.5552 67.4602 20.5552Z" fill="black"/>
<path d="M83.5367 20.5555C83.2665 20.5378 83.0132 20.418 82.8281 20.2204C82.643 20.0228 82.54 19.7622 82.54 19.4915C82.54 19.2208 82.643 18.9602 82.8281 18.7626C83.0132 18.565 83.2665 18.4452 83.5367 18.4275C86.1431 18.4275 88.3395 14.6955 88.3395 10.2754C88.3572 10.0053 88.477 9.75195 88.6746 9.56687C88.8722 9.3818 89.1328 9.27881 89.4035 9.27881C89.6742 9.27881 89.9348 9.3818 90.1324 9.56687C90.33 9.75195 90.4498 10.0053 90.4675 10.2754C90.4675 16.0397 87.4236 20.5555 83.5367 20.5555Z" fill="black"/>
<path d="M99.6167 20.5555C99.3466 20.5378 99.0933 20.418 98.9082 20.2204C98.7231 20.0228 98.6201 19.7622 98.6201 19.4915C98.6201 19.2208 98.7231 18.9602 98.9082 18.7626C99.0933 18.565 99.3466 18.4452 99.6167 18.4275C102.219 18.4275 104.42 14.6955 104.42 10.2754C104.437 10.0053 104.557 9.75195 104.755 9.56687C104.952 9.3818 105.213 9.27881 105.484 9.27881C105.754 9.27881 106.015 9.3818 106.213 9.56687C106.41 9.75195 106.53 10.0053 106.548 10.2754C106.548 16.0397 103.504 20.5555 99.6167 20.5555Z" fill="black"/>
</g>
<path d="M9.14262 11.3643H112.663C114.051 11.3921 115.382 11.9255 116.404 12.8643C117.427 13.8031 118.072 15.0828 118.218 16.4634L123.951 81.0921C124.02 81.7406 123.952 82.3965 123.749 83.0164C123.546 83.6363 123.214 84.2062 122.775 84.6882C122.335 85.1702 121.799 85.5534 121.2 85.8125C120.602 86.0716 119.955 86.2007 119.303 86.1911H15.7773C14.3899 86.1614 13.0608 85.6274 12.0385 84.689C11.0162 83.7505 10.3707 82.4719 10.2226 81.0921L4.49472 16.4634C4.42422 15.8147 4.49244 15.1585 4.69486 14.5383C4.89728 13.918 5.22926 13.3479 5.66879 12.8657C6.10831 12.3835 6.64534 12.0003 7.24425 11.7414C7.84316 11.4826 8.49026 11.3541 9.14262 11.3643Z" fill="#407BFF"/>
<path opacity="0.4" d="M9.14262 11.3643H112.663C114.051 11.3921 115.382 11.9255 116.404 12.8643C117.427 13.8031 118.072 15.0828 118.218 16.4634L123.951 81.0921C124.02 81.7406 123.952 82.3965 123.749 83.0164C123.546 83.6363 123.214 84.2062 122.775 84.6882C122.335 85.1702 121.799 85.5534 121.2 85.8125C120.602 86.0716 119.955 86.2007 119.303 86.1911H15.7773C14.3899 86.1614 13.0608 85.6274 12.0385 84.689C11.0162 83.7505 10.3707 82.4719 10.2226 81.0921L4.49472 16.4634C4.42422 15.8147 4.49244 15.1585 4.69486 14.5383C4.89728 13.918 5.22926 13.3479 5.66879 12.8657C6.10831 12.3835 6.64534 12.0003 7.24425 11.7414C7.84316 11.4826 8.49026 11.3541 9.14262 11.3643Z" fill="#FAFAFA"/>
<path d="M111.802 11.3643H8.27695C6.90762 11.3806 5.59554 11.9162 4.60588 12.8627C3.61622 13.8092 3.02279 15.0961 2.94553 16.4634L0.0291898 81.0921C-0.0055494 81.7505 0.094487 82.4091 0.323173 83.0274C0.551859 83.6458 0.904386 84.211 1.35915 84.6884C1.81391 85.1657 2.36134 85.5453 2.9679 85.8037C3.57447 86.062 4.22741 86.1939 4.88671 86.1911H108.421C109.79 86.1748 111.103 85.6393 112.092 84.6928C113.082 83.7463 113.675 82.4594 113.753 81.0921L116.673 16.4634C116.708 15.804 116.607 15.1446 116.377 14.5255C116.147 13.9065 115.793 13.341 115.337 12.8635C114.881 12.3861 114.332 12.0069 113.725 11.7491C113.117 11.4913 112.463 11.3604 111.802 11.3643Z" fill="#407BFF"/>
<path opacity="0.2" d="M111.802 11.3643H8.27695C6.90762 11.3806 5.59554 11.9162 4.60588 12.8627C3.61622 13.8092 3.02279 15.0961 2.94553 16.4634L0.0291898 81.0921C-0.0055494 81.7505 0.094487 82.4091 0.323173 83.0274C0.551859 83.6458 0.904386 84.211 1.35915 84.6884C1.81391 85.1657 2.36134 85.5453 2.9679 85.8037C3.57447 86.062 4.22741 86.1939 4.88671 86.1911H108.421C109.79 86.1748 111.103 85.6393 112.092 84.6928C113.082 83.7463 113.675 82.4594 113.753 81.0921L116.673 16.4634C116.708 15.804 116.607 15.1446 116.377 14.5255C116.147 13.9065 115.793 13.341 115.337 12.8635C114.881 12.3861 114.332 12.0069 113.725 11.7491C113.117 11.4913 112.463 11.3604 111.802 11.3643Z" fill="#FAFAFA"/>
<path d="M10.1773 69.1124L12.5878 15.7389C12.6167 15.2153 12.8438 14.7224 13.223 14.3602C13.6021 13.998 14.1049 13.7936 14.6292 13.7886H105.232C105.484 13.787 105.734 13.8371 105.967 13.9356C106.2 14.0342 106.409 14.1793 106.584 14.3619C106.758 14.5445 106.894 14.7608 106.982 14.9976C107.07 15.2344 107.108 15.4867 107.095 15.7389L104.68 69.1124C104.651 69.636 104.424 70.1289 104.045 70.4911C103.666 70.8534 103.163 71.0577 102.639 71.0627H12.041C11.7884 71.0643 11.5382 71.0142 11.3056 70.9157C11.0731 70.8171 10.8631 70.672 10.6886 70.4894C10.5141 70.3068 10.3787 70.0905 10.2908 69.8537C10.2029 69.6169 10.1642 69.3647 10.1773 69.1124Z" fill="#407BFF"/>
<path opacity="0.1" d="M10.1773 69.1124L12.5878 15.7389C12.6167 15.2153 12.8438 14.7224 13.223 14.3602C13.6021 13.998 14.1049 13.7936 14.6292 13.7886H105.232C105.484 13.787 105.734 13.8371 105.967 13.9356C106.2 14.0342 106.409 14.1793 106.584 14.3619C106.758 14.5445 106.894 14.7608 106.982 14.9976C107.07 15.2344 107.108 15.4867 107.095 15.7389L104.68 69.1124C104.651 69.636 104.424 70.1289 104.045 70.4911C103.666 70.8534 103.163 71.0577 102.639 71.0627H12.041C11.7884 71.0643 11.5382 71.0142 11.3056 70.9157C11.0731 70.8171 10.8631 70.672 10.6886 70.4894C10.5141 70.3068 10.3787 70.0905 10.2908 69.8537C10.2029 69.6169 10.1642 69.3647 10.1773 69.1124Z" fill="#FAFAFA"/>
<path opacity="0.1" d="M7.62054 73.4689L10.1496 17.4206C10.1786 16.8708 10.4164 16.3529 10.8145 15.9727C11.2125 15.5924 11.7407 15.3785 12.2912 15.3746H107.437C107.702 15.3723 107.965 15.4244 108.209 15.5276C108.453 15.6308 108.674 15.783 108.857 15.9747C109.04 16.1664 109.182 16.3936 109.274 16.6423C109.366 16.8909 109.406 17.1558 109.392 17.4206L106.858 73.4689C106.829 74.0183 106.592 74.536 106.195 74.9169C105.798 75.2978 105.271 75.5132 104.721 75.5194H9.56629C9.30132 75.5211 9.03882 75.4685 8.79504 75.3646C8.55125 75.2608 8.33137 75.1081 8.14898 74.9159C7.9666 74.7237 7.82559 74.4961 7.7347 74.2472C7.6438 73.9983 7.60495 73.7334 7.62054 73.4689Z" fill="black"/>
<path d="M5.26982 77.9893L7.90819 19.5259C7.94361 18.9542 8.19304 18.4169 8.60681 18.0208C9.02058 17.6248 9.56834 17.3991 10.141 17.3887H109.392C109.669 17.3865 109.943 17.4409 110.198 17.5488C110.453 17.6566 110.684 17.8156 110.875 18.0158C111.066 18.216 111.215 18.4533 111.311 18.713C111.407 18.9727 111.448 19.2494 111.434 19.5259L108.781 77.9893C108.746 78.561 108.497 79.0983 108.083 79.4943C107.669 79.8904 107.121 80.1161 106.549 80.1264H7.31126C7.03417 80.1294 6.75943 80.0753 6.50408 79.9677C6.24873 79.8601 6.01821 79.7012 5.82681 79.5008C5.63541 79.3004 5.4872 79.0629 5.39139 78.8029C5.29558 78.5429 5.2542 78.2659 5.26982 77.9893Z" fill="#FAFAFA"/>
<path d="M99.6039 20.8927C99.4172 20.8931 99.2325 20.8552 99.0611 20.7814C98.8896 20.7077 98.7351 20.5996 98.607 20.4638C98.479 20.3281 98.38 20.1675 98.3164 19.9921C98.2527 19.8166 98.2256 19.63 98.2368 19.4437C98.2542 19.0781 98.4107 18.733 98.6741 18.4789C98.9375 18.2248 99.288 18.0809 99.654 18.0767C99.8406 18.0763 100.025 18.1142 100.197 18.188C100.368 18.2618 100.523 18.3699 100.651 18.5056C100.779 18.6414 100.878 18.8019 100.941 18.9774C101.005 19.1528 101.032 19.3394 101.021 19.5257C101.004 19.8913 100.847 20.2364 100.584 20.4905C100.32 20.7446 99.9698 20.8885 99.6039 20.8927Z" fill="#407BFF"/>
<path d="M83.5228 20.8927C83.3362 20.8931 83.1514 20.8552 82.98 20.7814C82.8086 20.7077 82.6541 20.5996 82.526 20.4638C82.3979 20.3281 82.299 20.1675 82.2353 19.9921C82.1716 19.8166 82.1446 19.63 82.1558 19.4437C82.1732 19.0781 82.3296 18.733 82.593 18.4789C82.8564 18.2248 83.207 18.0809 83.5729 18.0767C83.7596 18.0763 83.9443 18.1142 84.1157 18.188C84.2872 18.2618 84.4417 18.3699 84.5698 18.5056C84.6978 18.6414 84.7968 18.8019 84.8604 18.9774C84.9241 19.1528 84.9512 19.3394 84.94 19.5257C84.9236 19.8917 84.7676 20.2374 84.5039 20.4918C84.2403 20.7461 83.8891 20.8896 83.5228 20.8927Z" fill="#407BFF"/>
<path d="M67.4418 20.8927C67.2551 20.8931 67.0704 20.8552 66.899 20.7814C66.7275 20.7077 66.573 20.5996 66.4449 20.4638C66.3169 20.3281 66.2179 20.1675 66.1543 19.9921C66.0906 19.8166 66.0635 19.63 66.0747 19.4437C66.0932 19.0785 66.2499 18.734 66.5131 18.4801C66.7763 18.2262 67.1262 18.082 67.4919 18.0767C67.6785 18.0763 67.8633 18.1142 68.0347 18.188C68.2061 18.2618 68.3606 18.3699 68.4887 18.5056C68.6168 18.6414 68.7157 18.8019 68.7794 18.9774C68.843 19.1528 68.8701 19.3394 68.8589 19.5257C68.8426 19.8917 68.6865 20.2374 68.4229 20.4918C68.1592 20.7461 67.8081 20.8896 67.4418 20.8927Z" fill="#407BFF"/>
<path d="M51.3656 20.8927C51.179 20.8931 50.9942 20.8552 50.8228 20.7814C50.6513 20.7077 50.4968 20.5996 50.3688 20.4638C50.2407 20.3281 50.1418 20.1675 50.0781 19.9921C50.0144 19.8166 49.9874 19.63 49.9986 19.4437C50.0182 19.0781 50.1759 18.7336 50.4398 18.4798C50.7037 18.226 51.0542 18.0819 51.4203 18.0767C51.6069 18.0763 51.7916 18.1142 51.9631 18.188C52.1345 18.2618 52.289 18.3699 52.4171 18.5056C52.5452 18.6414 52.6441 18.8019 52.7078 18.9774C52.7714 19.1528 52.7985 19.3394 52.7873 19.5257C52.7709 19.8925 52.6142 20.2389 52.3496 20.4933C52.085 20.7478 51.7327 20.8908 51.3656 20.8927Z" fill="#407BFF"/>
<path d="M35.2845 20.8927C35.0979 20.8931 34.9132 20.8552 34.7417 20.7814C34.5703 20.7077 34.4158 20.5996 34.2877 20.4638C34.1596 20.3281 34.0607 20.1675 33.997 19.9921C33.9334 19.8166 33.9063 19.63 33.9175 19.4437C33.9349 19.0781 34.0913 18.733 34.3547 18.4789C34.6181 18.2248 34.9687 18.0809 35.3347 18.0767C35.5213 18.0763 35.706 18.1142 35.8775 18.188C36.0489 18.2618 36.2034 18.3699 36.3315 18.5056C36.4596 18.6414 36.5585 18.8019 36.6221 18.9774C36.6858 19.1528 36.7129 19.3394 36.7017 19.5257C36.6843 19.8913 36.5279 20.2364 36.2645 20.4905C36.001 20.7446 35.6505 20.8885 35.2845 20.8927Z" fill="#407BFF"/>
<path d="M19.2045 20.8927C19.0178 20.8931 18.8331 20.8552 18.6616 20.7814C18.4902 20.7077 18.3357 20.5996 18.2076 20.4638C18.0795 20.3281 17.9806 20.1675 17.917 19.9921C17.8533 19.8166 17.8262 19.63 17.8374 19.4437C17.8548 19.0781 18.0112 18.733 18.2746 18.4789C18.5381 18.2248 18.8886 18.0809 19.2546 18.0767C19.4412 18.0763 19.6259 18.1142 19.7974 18.188C19.9688 18.2618 20.1233 18.3699 20.2514 18.5056C20.3795 18.6414 20.4784 18.8019 20.5421 18.9774C20.6057 19.1528 20.6328 19.3394 20.6216 19.5257C20.6053 19.8917 20.4492 20.2374 20.1856 20.4918C19.9219 20.7461 19.5708 20.8896 19.2045 20.8927Z" fill="#407BFF"/>
<g opacity="0.1">
<path d="M99.6039 20.8927C99.4172 20.8931 99.2325 20.8552 99.0611 20.7814C98.8896 20.7077 98.7351 20.5996 98.607 20.4638C98.479 20.3281 98.38 20.1675 98.3164 19.9921C98.2527 19.8166 98.2256 19.63 98.2368 19.4437C98.2542 19.0781 98.4107 18.733 98.6741 18.4789C98.9375 18.2248 99.288 18.0809 99.654 18.0767C99.8406 18.0763 100.025 18.1142 100.197 18.188C100.368 18.2618 100.523 18.3699 100.651 18.5056C100.779 18.6414 100.878 18.8019 100.941 18.9774C101.005 19.1528 101.032 19.3394 101.021 19.5257C101.004 19.8913 100.847 20.2364 100.584 20.4905C100.32 20.7446 99.9698 20.8885 99.6039 20.8927Z" fill="#FAFAFA"/>
<path d="M83.5238 20.8927C83.3372 20.8931 83.1524 20.8552 82.981 20.7814C82.8095 20.7077 82.655 20.5996 82.527 20.4638C82.3989 20.3281 82.3 20.1675 82.2363 19.9921C82.1726 19.8166 82.1456 19.63 82.1568 19.4437C82.1742 19.0781 82.3306 18.733 82.594 18.4789C82.8574 18.2248 83.2079 18.0809 83.5739 18.0767C83.7605 18.0763 83.9453 18.1142 84.1167 18.188C84.2882 18.2618 84.4427 18.3699 84.5707 18.5056C84.6988 18.6414 84.7977 18.8019 84.8614 18.9774C84.9251 19.1528 84.9521 19.3394 84.9409 19.5257C84.9246 19.8917 84.7686 20.2374 84.5049 20.4918C84.2413 20.7461 83.8901 20.8896 83.5238 20.8927Z" fill="#FAFAFA"/>
<path d="M67.4427 20.8927C67.2561 20.8931 67.0714 20.8552 66.8999 20.7814C66.7285 20.7077 66.574 20.5996 66.4459 20.4638C66.3178 20.3281 66.2189 20.1675 66.1552 19.9921C66.0916 19.8166 66.0645 19.63 66.0757 19.4437C66.0942 19.0785 66.2509 18.734 66.5141 18.4801C66.7773 18.2262 67.1272 18.082 67.4929 18.0767C67.6795 18.0763 67.8642 18.1142 68.0357 18.188C68.2071 18.2618 68.3616 18.3699 68.4897 18.5056C68.6178 18.6414 68.7167 18.8019 68.7804 18.9774C68.844 19.1528 68.8711 19.3394 68.8599 19.5257C68.8436 19.8917 68.6875 20.2374 68.4239 20.4918C68.1602 20.7461 67.809 20.8896 67.4427 20.8927Z" fill="#FAFAFA"/>
<path d="M51.3666 20.8927C51.1799 20.8931 50.9952 20.8552 50.8238 20.7814C50.6523 20.7077 50.4978 20.5996 50.3697 20.4638C50.2417 20.3281 50.1427 20.1675 50.0791 19.9921C50.0154 19.8166 49.9883 19.63 49.9995 19.4437C50.0191 19.0781 50.1768 18.7336 50.4408 18.4798C50.7047 18.226 51.0551 18.0819 51.4212 18.0767C51.6079 18.0763 51.7926 18.1142 51.9641 18.188C52.1355 18.2618 52.29 18.3699 52.4181 18.5056C52.5462 18.6414 52.6451 18.8019 52.7087 18.9774C52.7724 19.1528 52.7995 19.3394 52.7883 19.5257C52.7719 19.8925 52.6152 20.2389 52.3506 20.4933C52.086 20.7478 51.7337 20.8908 51.3666 20.8927Z" fill="#FAFAFA"/>
<path d="M35.2855 20.8927C35.0989 20.8931 34.9141 20.8552 34.7427 20.7814C34.5713 20.7077 34.4167 20.5996 34.2887 20.4638C34.1606 20.3281 34.0617 20.1675 33.998 19.9921C33.9343 19.8166 33.9073 19.63 33.9185 19.4437C33.9359 19.0781 34.0923 18.733 34.3557 18.4789C34.6191 18.2248 34.9697 18.0809 35.3356 18.0767C35.5223 18.0763 35.707 18.1142 35.8784 18.188C36.0499 18.2618 36.2044 18.3699 36.3325 18.5056C36.4605 18.6414 36.5595 18.8019 36.6231 18.9774C36.6868 19.1528 36.7139 19.3394 36.7027 19.5257C36.6853 19.8913 36.5289 20.2364 36.2654 20.4905C36.002 20.7446 35.6515 20.8885 35.2855 20.8927Z" fill="#FAFAFA"/>
<path d="M19.2045 20.8927C19.0178 20.8931 18.8331 20.8552 18.6616 20.7814C18.4902 20.7077 18.3357 20.5996 18.2076 20.4638C18.0795 20.3281 17.9806 20.1675 17.917 19.9921C17.8533 19.8166 17.8262 19.63 17.8374 19.4437C17.8548 19.0781 18.0112 18.733 18.2746 18.4789C18.5381 18.2248 18.8886 18.0809 19.2546 18.0767C19.4412 18.0763 19.6259 18.1142 19.7974 18.188C19.9688 18.2618 20.1233 18.3699 20.2514 18.5056C20.3795 18.6414 20.4784 18.8019 20.5421 18.9774C20.6057 19.1528 20.6328 19.3394 20.6216 19.5257C20.6053 19.8917 20.4492 20.2374 20.1856 20.4918C19.9219 20.7461 19.5708 20.8896 19.2045 20.8927Z" fill="#FAFAFA"/>
</g>
<path d="M23.2231 25.9873H15.1348C15.0175 25.9883 14.9013 25.9649 14.7936 25.9186C14.6858 25.8724 14.5888 25.8043 14.5087 25.7186C14.4286 25.633 14.3672 25.5316 14.3283 25.421C14.2894 25.3104 14.2738 25.1929 14.2827 25.0759C14.2917 24.8371 14.3906 24.6105 14.5596 24.4415C14.7286 24.2725 14.9552 24.1736 15.194 24.1646H23.2823C23.3996 24.1636 23.5158 24.187 23.6235 24.2332C23.7313 24.2795 23.8283 24.3476 23.9084 24.4333C23.9885 24.5189 24.0499 24.6203 24.0888 24.7309C24.1277 24.8415 24.1433 24.959 24.1344 25.0759C24.1254 25.3148 24.0265 25.5414 23.8575 25.7104C23.6885 25.8794 23.4619 25.9783 23.2231 25.9873Z" fill="#407BFF"/>
<path d="M39.3041 25.9873H31.2158C31.0986 25.9882 30.9824 25.9649 30.8746 25.9186C30.7669 25.8724 30.6699 25.8043 30.5898 25.7186C30.5097 25.633 30.4483 25.5316 30.4093 25.421C30.3704 25.3104 30.3549 25.1929 30.3637 25.0759C30.3731 24.8333 30.4751 24.6035 30.649 24.4339C30.8228 24.2643 31.0551 24.1679 31.2979 24.1646H39.3816C39.499 24.1637 39.6154 24.187 39.7234 24.2332C39.8314 24.2794 39.9286 24.3475 40.0091 24.433C40.0895 24.5186 40.1514 24.6199 40.1908 24.7305C40.2303 24.8412 40.2464 24.9588 40.2383 25.0759C40.2289 25.3186 40.1268 25.5484 39.953 25.718C39.7792 25.8876 39.5469 25.984 39.3041 25.9873Z" fill="#407BFF"/>
<path d="M55.3845 25.9873H47.2962C47.1788 25.9882 47.0624 25.9648 46.9544 25.9186C46.8464 25.8724 46.7492 25.8044 46.6687 25.7188C46.5883 25.6333 46.5264 25.532 46.487 25.4213C46.4475 25.3107 46.4314 25.1931 46.4396 25.0759C46.4489 24.8333 46.551 24.6035 46.7248 24.4339C46.8986 24.2643 47.1309 24.1679 47.3737 24.1646H55.4665C55.5838 24.1636 55.7 24.187 55.8077 24.2332C55.9155 24.2795 56.0125 24.3476 56.0926 24.4333C56.1727 24.5189 56.2341 24.6203 56.273 24.7309C56.3119 24.8415 56.3275 24.959 56.3186 25.0759C56.3104 25.319 56.2087 25.5494 56.0346 25.7192C55.8606 25.8891 55.6277 25.9851 55.3845 25.9873Z" fill="#407BFF"/>
<path d="M71.4613 25.9873H63.3731C63.2558 25.9883 63.1396 25.9649 63.0319 25.9186C62.9241 25.8724 62.8271 25.8043 62.747 25.7186C62.6669 25.633 62.6055 25.5316 62.5666 25.421C62.5277 25.3104 62.5121 25.1929 62.521 25.0759C62.53 24.8371 62.6289 24.6105 62.7979 24.4415C62.9669 24.2725 63.1935 24.1736 63.4323 24.1646H71.5206C71.6379 24.1636 71.754 24.187 71.8618 24.2332C71.9696 24.2795 72.0666 24.3476 72.1466 24.4333C72.2267 24.5189 72.2882 24.6203 72.3271 24.7309C72.366 24.8415 72.3815 24.959 72.3727 25.0759C72.3637 25.3148 72.2648 25.5414 72.0958 25.7104C71.9268 25.8794 71.7002 25.9783 71.4613 25.9873Z" fill="#407BFF"/>
<path d="M87.5424 25.9873H79.4541C79.3369 25.9883 79.2207 25.9649 79.1129 25.9186C79.0052 25.8724 78.9082 25.8043 78.8281 25.7186C78.748 25.633 78.6865 25.5316 78.6476 25.421C78.6087 25.3104 78.5932 25.1929 78.602 25.0759C78.6113 24.8333 78.7134 24.6035 78.8873 24.4339C79.0611 24.2643 79.2933 24.1679 79.5362 24.1646H87.6244C87.7417 24.1636 87.8579 24.187 87.9657 24.2332C88.0734 24.2795 88.1704 24.3476 88.2505 24.4333C88.3306 24.5189 88.392 24.6203 88.4309 24.7309C88.4698 24.8415 88.4854 24.959 88.4766 25.0759C88.4672 25.3186 88.3651 25.5484 88.1913 25.718C88.0175 25.8876 87.7852 25.984 87.5424 25.9873Z" fill="#407BFF"/>
<path d="M103.622 25.9873H95.5342C95.4169 25.9882 95.3008 25.9649 95.193 25.9186C95.0852 25.8724 94.9882 25.8043 94.9082 25.7186C94.8281 25.633 94.7666 25.5316 94.7277 25.421C94.6888 25.3104 94.6733 25.1929 94.6821 25.0759C94.6914 24.8333 94.7935 24.6035 94.9673 24.4339C95.1411 24.2643 95.3734 24.1679 95.6162 24.1646H103.7C103.817 24.1637 103.934 24.187 104.042 24.2332C104.15 24.2794 104.247 24.3475 104.327 24.433C104.408 24.5186 104.47 24.6199 104.509 24.7305C104.549 24.8412 104.565 24.9588 104.557 25.0759C104.547 25.3186 104.445 25.5484 104.271 25.718C104.098 25.8876 103.865 25.984 103.622 25.9873Z" fill="#407BFF"/>
<g opacity="0.3">
<path d="M23.2231 25.9873H15.1348C15.0175 25.9883 14.9013 25.9649 14.7936 25.9186C14.6858 25.8724 14.5888 25.8043 14.5087 25.7186C14.4286 25.633 14.3672 25.5316 14.3283 25.421C14.2894 25.3104 14.2738 25.1929 14.2827 25.0759C14.2917 24.8371 14.3906 24.6105 14.5596 24.4415C14.7286 24.2725 14.9552 24.1736 15.194 24.1646H23.2823C23.3996 24.1636 23.5158 24.187 23.6235 24.2332C23.7313 24.2795 23.8283 24.3476 23.9084 24.4333C23.9885 24.5189 24.0499 24.6203 24.0888 24.7309C24.1277 24.8415 24.1433 24.959 24.1344 25.0759C24.1254 25.3148 24.0265 25.5414 23.8575 25.7104C23.6885 25.8794 23.4619 25.9783 23.2231 25.9873Z" fill="black"/>
<path d="M39.3041 25.9873H31.2158C31.0986 25.9882 30.9824 25.9649 30.8746 25.9186C30.7669 25.8724 30.6699 25.8043 30.5898 25.7186C30.5097 25.633 30.4483 25.5316 30.4093 25.421C30.3704 25.3104 30.3549 25.1929 30.3637 25.0759C30.3731 24.8333 30.4751 24.6035 30.649 24.4339C30.8228 24.2643 31.0551 24.1679 31.2979 24.1646H39.3816C39.499 24.1637 39.6154 24.187 39.7234 24.2332C39.8314 24.2794 39.9286 24.3475 40.0091 24.433C40.0895 24.5186 40.1514 24.6199 40.1908 24.7305C40.2303 24.8412 40.2464 24.9588 40.2383 25.0759C40.2289 25.3186 40.1268 25.5484 39.953 25.718C39.7792 25.8876 39.5469 25.984 39.3041 25.9873Z" fill="black"/>
<path d="M55.3845 25.9873H47.2962C47.1788 25.9882 47.0624 25.9648 46.9544 25.9186C46.8464 25.8724 46.7492 25.8044 46.6687 25.7188C46.5883 25.6333 46.5264 25.532 46.487 25.4213C46.4475 25.3107 46.4314 25.1931 46.4396 25.0759C46.4489 24.8333 46.551 24.6035 46.7248 24.4339C46.8986 24.2643 47.1309 24.1679 47.3737 24.1646H55.4665C55.5838 24.1636 55.7 24.187 55.8077 24.2332C55.9155 24.2795 56.0125 24.3476 56.0926 24.4333C56.1727 24.5189 56.2341 24.6203 56.273 24.7309C56.3119 24.8415 56.3275 24.959 56.3186 25.0759C56.3104 25.319 56.2087 25.5494 56.0346 25.7192C55.8606 25.8891 55.6277 25.9851 55.3845 25.9873Z" fill="black"/>
<path d="M71.4613 25.9873H63.3731C63.2558 25.9883 63.1396 25.9649 63.0319 25.9186C62.9241 25.8724 62.8271 25.8043 62.747 25.7186C62.6669 25.633 62.6055 25.5316 62.5666 25.421C62.5277 25.3104 62.5121 25.1929 62.521 25.0759C62.53 24.8371 62.6289 24.6105 62.7979 24.4415C62.9669 24.2725 63.1935 24.1736 63.4323 24.1646H71.5206C71.6379 24.1636 71.754 24.187 71.8618 24.2332C71.9696 24.2795 72.0666 24.3476 72.1466 24.4333C72.2267 24.5189 72.2882 24.6203 72.3271 24.7309C72.366 24.8415 72.3815 24.959 72.3727 25.0759C72.3637 25.3148 72.2648 25.5414 72.0958 25.7104C71.9268 25.8794 71.7002 25.9783 71.4613 25.9873Z" fill="black"/>
<path d="M87.5424 25.9873H79.4541C79.3369 25.9883 79.2207 25.9649 79.1129 25.9186C79.0052 25.8724 78.9082 25.8043 78.8281 25.7186C78.748 25.633 78.6865 25.5316 78.6476 25.421C78.6087 25.3104 78.5932 25.1929 78.602 25.0759C78.6113 24.8333 78.7134 24.6035 78.8873 24.4339C79.0611 24.2643 79.2933 24.1679 79.5362 24.1646H87.6244C87.7417 24.1636 87.8579 24.187 87.9657 24.2332C88.0734 24.2795 88.1704 24.3476 88.2505 24.4333C88.3306 24.5189 88.392 24.6203 88.4309 24.7309C88.4698 24.8415 88.4854 24.959 88.4766 25.0759C88.4672 25.3186 88.3651 25.5484 88.1913 25.718C88.0175 25.8876 87.7852 25.984 87.5424 25.9873Z" fill="black"/>
<path d="M103.622 25.9873H95.5342C95.4169 25.9882 95.3008 25.9649 95.193 25.9186C95.0852 25.8724 94.9882 25.8043 94.9082 25.7186C94.8281 25.633 94.7666 25.5316 94.7277 25.421C94.6888 25.3104 94.6733 25.1929 94.6821 25.0759C94.6914 24.8333 94.7935 24.6035 94.9673 24.4339C95.1411 24.2643 95.3734 24.1679 95.6162 24.1646H103.7C103.817 24.1637 103.934 24.187 104.042 24.2332C104.15 24.2794 104.247 24.3475 104.327 24.433C104.408 24.5186 104.47 24.6199 104.509 24.7305C104.549 24.8412 104.565 24.9588 104.557 25.0759C104.547 25.3186 104.445 25.5484 104.271 25.718C104.098 25.8876 103.865 25.984 103.622 25.9873Z" fill="black"/>
</g>
<path d="M23.6694 43.1981H13.1342C12.9031 43.199 12.6743 43.1528 12.4617 43.0623C12.2491 42.9718 12.0572 42.8389 11.8977 42.6717C11.7382 42.5046 11.6144 42.3066 11.534 42.09C11.4536 41.8734 11.4182 41.6426 11.4299 41.4119L11.8856 30.8766C11.9133 30.3977 12.1214 29.9471 12.4681 29.6157C12.8148 29.2842 13.2743 29.0965 13.7539 29.0903H24.2892C24.5202 29.0894 24.7491 29.1356 24.9617 29.2261C25.1743 29.3166 25.3662 29.4495 25.5257 29.6167C25.6852 29.7839 25.8089 29.9819 25.8893 30.1985C25.9698 30.4151 26.0052 30.6458 25.9934 30.8766L25.5377 41.4119C25.509 41.8903 25.3006 42.3403 24.9541 42.6716C24.6076 43.0028 24.1487 43.1909 23.6694 43.1981Z" fill="#407BFF"/>
<path d="M39.7507 43.1981H29.2155C28.9842 43.1997 28.7551 43.1539 28.5422 43.0637C28.3293 42.9734 28.1371 42.8405 27.9775 42.6732C27.8178 42.5058 27.6941 42.3076 27.6139 42.0907C27.5337 41.8738 27.4988 41.6428 27.5112 41.4119L27.9669 30.8766C27.9946 30.3977 28.2027 29.9471 28.5494 29.6157C28.8961 29.2842 29.3556 29.0965 29.8352 29.0903H40.3841C40.6154 29.0895 40.8444 29.1356 41.0573 29.2261C41.2701 29.3166 41.4623 29.4494 41.6221 29.6165C41.782 29.7836 41.9062 29.9815 41.9871 30.1981C42.0681 30.4148 42.1041 30.6456 42.0929 30.8766L41.6145 41.4119C41.5879 41.8903 41.3808 42.3409 41.0348 42.6725C40.6888 43.004 40.2299 43.1919 39.7507 43.1981Z" fill="#407BFF"/>
<path d="M55.8264 43.1981H45.2957C45.0645 43.199 44.8354 43.1528 44.6226 43.0624C44.4098 42.9719 44.2176 42.8391 44.0577 42.672C43.8979 42.5049 43.7737 42.307 43.6927 42.0903C43.6118 41.8737 43.5758 41.6429 43.5869 41.4119L44.0426 30.8766C44.0702 30.3978 44.2784 29.9472 44.6251 29.6157C44.9718 29.2842 45.4313 29.0965 45.9109 29.0904H56.4416C56.6729 29.0888 56.902 29.1345 57.1149 29.2248C57.3278 29.3151 57.52 29.448 57.6796 29.6153C57.8393 29.7826 57.963 29.9808 58.0432 30.1978C58.1233 30.4147 58.1583 30.6457 58.1458 30.8766L57.6902 41.4119C57.6626 41.89 57.4551 42.3399 57.1093 42.6713C56.7636 43.0026 56.3053 43.1909 55.8264 43.1981Z" fill="#407BFF"/>
<path d="M71.9077 43.1981H61.3907C61.1592 43.1997 60.9299 43.1539 60.7168 43.0637C60.5036 42.9735 60.3112 42.8406 60.1512 42.6734C59.9912 42.5061 59.867 42.308 59.7863 42.0911C59.7056 41.8741 59.6701 41.643 59.6819 41.4119L60.1376 30.8766C60.1641 30.3981 60.3713 29.9476 60.7172 29.616C61.0632 29.2844 61.5221 29.0965 62.0013 29.0903H72.5366C72.7676 29.0894 72.9964 29.1356 73.2091 29.2261C73.4217 29.3166 73.6136 29.4495 73.7731 29.6167C73.9326 29.7839 74.0563 29.9819 74.1367 30.1985C74.2172 30.4151 74.2526 30.6458 74.2408 30.8766L73.7851 41.4119C73.7574 41.8923 73.5479 42.3442 73.1993 42.6759C72.8507 43.0076 72.3889 43.1943 71.9077 43.1981Z" fill="#407BFF"/>
<path d="M87.9888 43.1981H77.4535C77.2224 43.1991 76.9936 43.1528 76.781 43.0623C76.5684 42.9718 76.3765 42.8389 76.217 42.6718C76.0575 42.5046 75.9337 42.3066 75.8533 42.09C75.7729 41.8734 75.7375 41.6426 75.7493 41.4119L76.205 30.8766C76.2326 30.3977 76.4407 29.9472 76.7874 29.6157C77.1341 29.2842 77.5936 29.0965 78.0732 29.0904H88.6039C88.8354 29.0888 89.0647 29.1346 89.2778 29.2248C89.491 29.315 89.6835 29.4478 89.8434 29.6151C90.0034 29.7823 90.1276 29.9805 90.2083 30.1974C90.289 30.4143 90.3245 30.6455 90.3127 30.8766L89.857 41.4119C89.8284 41.8904 89.6199 42.3403 89.2734 42.6716C88.9269 43.0029 88.4681 43.1909 87.9888 43.1981Z" fill="#407BFF"/>
<path d="M104.065 43.1981H93.5338C93.3026 43.1997 93.0735 43.1539 92.8606 43.0637C92.6476 42.9734 92.4555 42.8405 92.2958 42.6732C92.1362 42.5058 92.0125 42.3076 91.9323 42.0907C91.8521 41.8738 91.8172 41.6428 91.8296 41.4119L92.2853 30.8766C92.3129 30.3977 92.5211 29.9471 92.8678 29.6157C93.2145 29.2842 93.6739 29.0965 94.1536 29.0903H104.684C104.916 29.0895 105.145 29.1356 105.357 29.2261C105.57 29.3166 105.762 29.4494 105.922 29.6165C106.082 29.7836 106.206 29.9815 106.287 30.1981C106.368 30.4148 106.404 30.6456 106.393 30.8766L105.915 41.4119C105.888 41.888 105.683 42.3366 105.34 42.6679C104.997 42.9991 104.541 43.1885 104.065 43.1981Z" fill="#407BFF"/>
<g opacity="0.8">
<path d="M23.6694 43.1981H13.1342C12.9031 43.199 12.6743 43.1528 12.4617 43.0623C12.2491 42.9718 12.0572 42.8389 11.8977 42.6717C11.7382 42.5046 11.6144 42.3066 11.534 42.09C11.4536 41.8734 11.4182 41.6426 11.4299 41.4119L11.8856 30.8766C11.9133 30.3977 12.1214 29.9471 12.4681 29.6157C12.8148 29.2842 13.2743 29.0965 13.7539 29.0903H24.2892C24.5202 29.0894 24.7491 29.1356 24.9617 29.2261C25.1743 29.3166 25.3662 29.4495 25.5257 29.6167C25.6852 29.7839 25.8089 29.9819 25.8893 30.1985C25.9698 30.4151 26.0052 30.6458 25.9934 30.8766L25.5377 41.4119C25.509 41.8903 25.3006 42.3403 24.9541 42.6716C24.6076 43.0028 24.1487 43.1909 23.6694 43.1981Z" fill="#FAFAFA"/>
<path d="M39.7507 43.1981H29.2155C28.9842 43.1997 28.7551 43.1539 28.5422 43.0637C28.3293 42.9734 28.1371 42.8405 27.9775 42.6732C27.8178 42.5058 27.6941 42.3076 27.6139 42.0907C27.5337 41.8738 27.4988 41.6428 27.5112 41.4119L27.9669 30.8766C27.9946 30.3977 28.2027 29.9471 28.5494 29.6157C28.8961 29.2842 29.3556 29.0965 29.8352 29.0903H40.3841C40.6154 29.0895 40.8444 29.1356 41.0573 29.2261C41.2701 29.3166 41.4623 29.4494 41.6221 29.6165C41.782 29.7836 41.9062 29.9815 41.9871 30.1981C42.0681 30.4148 42.1041 30.6456 42.0929 30.8766L41.6145 41.4119C41.5879 41.8903 41.3808 42.3409 41.0348 42.6725C40.6888 43.004 40.2299 43.1919 39.7507 43.1981Z" fill="#FAFAFA"/>
<path d="M55.8264 43.1981H45.2957C45.0645 43.199 44.8354 43.1528 44.6226 43.0624C44.4098 42.9719 44.2176 42.8391 44.0577 42.672C43.8979 42.5049 43.7737 42.307 43.6927 42.0903C43.6118 41.8737 43.5758 41.6429 43.5869 41.4119L44.0426 30.8766C44.0702 30.3978 44.2784 29.9472 44.6251 29.6157C44.9718 29.2842 45.4313 29.0965 45.9109 29.0904H56.4416C56.6729 29.0888 56.902 29.1345 57.1149 29.2248C57.3278 29.3151 57.52 29.448 57.6796 29.6153C57.8393 29.7826 57.963 29.9808 58.0432 30.1978C58.1233 30.4147 58.1583 30.6457 58.1458 30.8766L57.6902 41.4119C57.6626 41.89 57.4551 42.3399 57.1093 42.6713C56.7636 43.0026 56.3053 43.1909 55.8264 43.1981Z" fill="#FAFAFA"/>
<path d="M71.9077 43.1981H61.3907C61.1592 43.1997 60.9299 43.1539 60.7168 43.0637C60.5036 42.9735 60.3112 42.8406 60.1512 42.6734C59.9912 42.5061 59.867 42.308 59.7863 42.0911C59.7056 41.8741 59.6701 41.643 59.6819 41.4119L60.1376 30.8766C60.1641 30.3981 60.3713 29.9476 60.7172 29.616C61.0632 29.2844 61.5221 29.0965 62.0013 29.0903H72.5366C72.7676 29.0894 72.9964 29.1356 73.2091 29.2261C73.4217 29.3166 73.6136 29.4495 73.7731 29.6167C73.9326 29.7839 74.0563 29.9819 74.1367 30.1985C74.2172 30.4151 74.2526 30.6458 74.2408 30.8766L73.7851 41.4119C73.7574 41.8923 73.5479 42.3442 73.1993 42.6759C72.8507 43.0076 72.3889 43.1943 71.9077 43.1981Z" fill="#FAFAFA"/>
<path d="M87.9888 43.1981H77.4535C77.2224 43.1991 76.9936 43.1528 76.781 43.0623C76.5684 42.9718 76.3765 42.8389 76.217 42.6718C76.0575 42.5046 75.9337 42.3066 75.8533 42.09C75.7729 41.8734 75.7375 41.6426 75.7493 41.4119L76.205 30.8766C76.2326 30.3977 76.4407 29.9472 76.7874 29.6157C77.1341 29.2842 77.5936 29.0965 78.0732 29.0904H88.6039C88.8354 29.0888 89.0647 29.1346 89.2778 29.2248C89.491 29.315 89.6835 29.4478 89.8434 29.6151C90.0034 29.7823 90.1276 29.9805 90.2083 30.1974C90.289 30.4143 90.3245 30.6455 90.3127 30.8766L89.857 41.4119C89.8284 41.8904 89.6199 42.3403 89.2734 42.6716C88.9269 43.0029 88.4681 43.1909 87.9888 43.1981Z" fill="#FAFAFA"/>
<path d="M104.065 43.1981H93.5338C93.3026 43.1997 93.0735 43.1539 92.8606 43.0637C92.6476 42.9734 92.4555 42.8405 92.2958 42.6732C92.1362 42.5058 92.0125 42.3076 91.9323 42.0907C91.8521 41.8738 91.8172 41.6428 91.8296 41.4119L92.2853 30.8766C92.3129 30.3977 92.5211 29.9471 92.8678 29.6157C93.2145 29.2842 93.6739 29.0965 94.1536 29.0903H104.684C104.916 29.0895 105.145 29.1356 105.357 29.2261C105.57 29.3166 105.762 29.4494 105.922 29.6165C106.082 29.7836 106.206 29.9815 106.287 30.1981C106.368 30.4148 106.404 30.6456 106.393 30.8766L105.915 41.4119C105.888 41.888 105.683 42.3366 105.34 42.6679C104.997 42.9991 104.541 43.1885 104.065 43.1981Z" fill="#FAFAFA"/>
</g>
<path d="M22.9312 59.5433H12.3959C12.1648 59.5442 11.936 59.498 11.7234 59.4075C11.5108 59.317 11.3189 59.1841 11.1594 59.017C10.9999 58.8498 10.8761 58.6518 10.7957 58.4352C10.7153 58.2186 10.6799 57.9878 10.6917 57.7571L11.1473 47.2218C11.176 46.7433 11.3845 46.2933 11.731 45.9621C12.0774 45.6308 12.5363 45.4427 13.0156 45.4356H23.5691C23.8002 45.4346 24.029 45.4808 24.2416 45.5713C24.4542 45.6618 24.6461 45.7948 24.8056 45.9619C24.9651 46.1291 25.0889 46.3271 25.1693 46.5437C25.2497 46.7603 25.2851 46.991 25.2733 47.2218L24.8177 57.7571C24.7887 58.2387 24.5777 58.6912 24.2274 59.023C23.877 59.3547 23.4136 59.5407 22.9312 59.5433Z" fill="#407BFF"/>
<path d="M39.0122 59.5434H28.477C28.2459 59.5443 28.0171 59.4981 27.8045 59.4076C27.5919 59.3171 27.3999 59.1842 27.2404 59.017C27.0809 58.8498 26.9572 58.6519 26.8768 58.4352C26.7964 58.2186 26.7609 57.9879 26.7727 57.7571L27.2284 47.2218C27.256 46.743 27.4642 46.2924 27.8109 45.9609C28.1576 45.6294 28.617 45.4417 29.0967 45.4356H39.6274C39.8606 45.4339 40.0917 45.4802 40.3064 45.5715C40.5211 45.6628 40.7147 45.7972 40.8753 45.9663C41.0359 46.1355 41.1601 46.3358 41.2402 46.5549C41.3202 46.774 41.3544 47.0072 41.3407 47.2401L40.885 57.7571C40.8584 58.2371 40.65 58.689 40.3021 59.0208C39.9542 59.3526 39.493 59.5395 39.0122 59.5434Z" fill="#407BFF"/>
<path d="M55.089 59.5434H44.5582C44.327 59.5449 44.0979 59.4992 43.885 59.4089C43.672 59.3186 43.4799 59.1857 43.3202 59.0184C43.1606 58.8511 43.0369 58.6529 42.9567 58.436C42.8765 58.219 42.8416 57.988 42.854 57.7571L43.3097 47.2218C43.3373 46.743 43.5455 46.2924 43.8922 45.9609C44.2389 45.6294 44.6983 45.4417 45.178 45.4356H55.7087C55.9399 45.434 56.1691 45.4798 56.382 45.57C56.5949 45.6603 56.7871 45.7932 56.9467 45.9605C57.1063 46.1278 57.23 46.3261 57.3102 46.543C57.3904 46.7599 57.4253 46.9909 57.4129 47.2218L56.9572 57.7571C56.9296 58.236 56.7214 58.6866 56.3747 59.018C56.028 59.3495 55.5686 59.5372 55.089 59.5434Z" fill="#407BFF"/>
<path d="M71.1692 59.5431H60.6385C60.4072 59.544 60.1782 59.4978 59.9654 59.4074C59.7525 59.3169 59.5604 59.1841 59.4005 59.017C59.2406 58.8499 59.1164 58.652 59.0355 58.4353C58.9546 58.2187 58.9186 57.9878 58.9297 57.7568L59.3854 47.2216C59.4119 46.7431 59.6191 46.2926 59.965 45.961C60.311 45.6294 60.7699 45.4415 61.2491 45.4353H71.7844C72.019 45.4311 72.2519 45.4755 72.4685 45.5657C72.6851 45.6559 72.8806 45.79 73.0429 45.9595C73.2051 46.129 73.3305 46.3303 73.4111 46.5506C73.4918 46.771 73.5259 47.0056 73.5114 47.2398L73.0557 57.7751C73.0234 58.2538 72.8108 58.7025 72.4606 59.0306C72.1105 59.3587 71.649 59.5419 71.1692 59.5431Z" fill="#407BFF"/>
<path d="M87.2505 59.5435H76.7152C76.4842 59.5444 76.2553 59.4982 76.0427 59.4077C75.8301 59.3172 75.6382 59.1843 75.4787 59.0171C75.3192 58.8499 75.1955 58.652 75.115 58.4354C75.0346 58.2187 74.9992 57.988 75.011 57.7572L75.4667 47.222C75.491 46.7395 75.6981 46.2843 76.046 45.9491C76.3939 45.6139 76.8564 45.4238 77.3395 45.4175H87.8748C88.1058 45.4166 88.3346 45.4628 88.5472 45.5533C88.7599 45.6438 88.9518 45.7767 89.1113 45.9439C89.2708 46.1111 89.3945 46.309 89.4749 46.5256C89.5554 46.7422 89.5908 46.973 89.579 47.2038L89.1233 57.739C89.099 58.2215 88.8919 58.6766 88.544 59.0118C88.1961 59.347 87.7336 59.5372 87.2505 59.5435Z" fill="#407BFF"/>
<path d="M103.313 59.5433H92.7956C92.5643 59.5449 92.3352 59.4991 92.1223 59.4089C91.9094 59.3186 91.7172 59.1857 91.5575 59.0184C91.3979 58.8511 91.2742 58.6529 91.194 58.4359C91.1138 58.219 91.0789 57.988 91.0913 57.7571L91.547 47.2218C91.5746 46.7429 91.7828 46.2924 92.1295 45.9609C92.4762 45.6294 92.9357 45.4417 93.4153 45.4356H103.946C104.177 45.4347 104.406 45.4809 104.619 45.5713C104.832 45.6618 105.024 45.7946 105.184 45.9617C105.344 46.1288 105.468 46.3267 105.549 46.5433C105.63 46.76 105.666 46.9908 105.655 47.2218L105.176 57.7571C105.15 58.2355 104.943 58.6861 104.597 59.0177C104.251 59.3493 103.792 59.5371 103.313 59.5433Z" fill="#407BFF"/>
<g opacity="0.8">
<path d="M22.9312 59.5428H12.3959C12.1648 59.5438 11.936 59.4976 11.7234 59.407C11.5108 59.3165 11.3189 59.1836 11.1594 59.0165C10.9999 58.8493 10.8761 58.6513 10.7957 58.4347C10.7153 58.2181 10.6799 57.9873 10.6917 57.7566L11.1473 47.2213C11.176 46.7428 11.3845 46.2929 11.731 45.9616C12.0774 45.6303 12.5363 45.4423 13.0156 45.4351H23.5691C23.8002 45.4342 24.029 45.4803 24.2416 45.5709C24.4542 45.6614 24.6461 45.7943 24.8056 45.9614C24.9651 46.1286 25.0889 46.3266 25.1693 46.5432C25.2497 46.7598 25.2851 46.9906 25.2733 47.2213L24.8177 57.7566C24.7887 58.2382 24.5777 58.6908 24.2274 59.0225C23.877 59.3542 23.4136 59.5402 22.9312 59.5428Z" fill="#FAFAFA"/>
<path d="M39.0122 59.5429H28.477C28.2459 59.5438 28.0171 59.4976 27.8045 59.4071C27.5919 59.3166 27.3999 59.1837 27.2404 59.0165C27.0809 58.8493 26.9572 58.6514 26.8768 58.4347C26.7964 58.2181 26.7609 57.9874 26.7727 57.7566L27.2284 47.2213C27.256 46.7425 27.4642 46.2919 27.8109 45.9604C28.1576 45.6289 28.617 45.4412 29.0967 45.4351H39.6274C39.8606 45.4334 40.0917 45.4797 40.3064 45.571C40.5211 45.6623 40.7147 45.7967 40.8753 45.9658C41.0359 46.135 41.1601 46.3353 41.2402 46.5544C41.3202 46.7735 41.3544 47.0067 41.3407 47.2396L40.885 57.7566C40.8584 58.2366 40.65 58.6885 40.3021 59.0203C39.9542 59.3521 39.493 59.539 39.0122 59.5429Z" fill="#FAFAFA"/>
<path d="M55.088 59.5429H44.5573C44.326 59.5444 44.0969 59.4987 43.884 59.4084C43.6711 59.3181 43.4789 59.1852 43.3192 59.0179C43.1596 58.8506 43.0359 58.6524 42.9557 58.4355C42.8755 58.2186 42.8406 57.9875 42.853 57.7566L43.3087 47.2213C43.3364 46.7425 43.5445 46.2919 43.8912 45.9604C44.2379 45.6289 44.6974 45.4412 45.177 45.4351H55.7077C55.9389 45.4335 56.1681 45.4793 56.381 45.5695C56.5939 45.6598 56.7861 45.7927 56.9457 45.96C57.1054 46.1273 57.2291 46.3256 57.3092 46.5425C57.3894 46.7594 57.4244 46.9904 57.4119 47.2213L56.9562 57.7566C56.9286 58.2355 56.7205 58.6861 56.3738 59.0175C56.0271 59.349 55.5676 59.5367 55.088 59.5429Z" fill="#FAFAFA"/>
<path d="M71.1692 59.5431H60.6385C60.4072 59.544 60.1782 59.4978 59.9654 59.4074C59.7525 59.3169 59.5604 59.1841 59.4005 59.017C59.2406 58.8499 59.1164 58.652 59.0355 58.4353C58.9546 58.2187 58.9186 57.9878 58.9297 57.7568L59.3854 47.2216C59.4119 46.7431 59.6191 46.2926 59.965 45.961C60.311 45.6294 60.7699 45.4415 61.2491 45.4353H71.7844C72.019 45.4311 72.2519 45.4755 72.4685 45.5657C72.6851 45.6559 72.8806 45.79 73.0429 45.9595C73.2051 46.129 73.3305 46.3303 73.4111 46.5506C73.4918 46.771 73.5259 47.0056 73.5114 47.2398L73.0557 57.7751C73.0234 58.2538 72.8108 58.7025 72.4606 59.0306C72.1105 59.3587 71.649 59.5419 71.1692 59.5431Z" fill="#FAFAFA"/>
<path d="M87.2505 59.543H76.7152C76.4842 59.5439 76.2553 59.4977 76.0427 59.4072C75.8301 59.3167 75.6382 59.1838 75.4787 59.0166C75.3192 58.8494 75.1955 58.6515 75.115 58.4349C75.0346 58.2183 74.9992 57.9875 75.011 57.7567L75.4667 47.2215C75.491 46.739 75.6981 46.2839 76.046 45.9487C76.3939 45.6134 76.8564 45.4233 77.3395 45.417H87.8748C88.1058 45.4161 88.3346 45.4623 88.5472 45.5528C88.7599 45.6433 88.9518 45.7762 89.1113 45.9434C89.2708 46.1106 89.3945 46.3085 89.4749 46.5251C89.5554 46.7418 89.5908 46.9725 89.579 47.2033L89.1233 57.7385C89.099 58.221 88.8919 58.6762 88.544 59.0114C88.1961 59.3466 87.7336 59.5367 87.2505 59.543Z" fill="#FAFAFA"/>
<path d="M103.313 59.5428H92.7956C92.5643 59.5444 92.3352 59.4987 92.1223 59.4084C91.9094 59.3181 91.7172 59.1852 91.5575 59.0179C91.3979 58.8506 91.2742 58.6524 91.194 58.4354C91.1138 58.2185 91.0789 57.9875 91.0913 57.7566L91.547 47.2213C91.5746 46.7425 91.7828 46.2919 92.1295 45.9604C92.4762 45.6289 92.9357 45.4412 93.4153 45.4351H103.946C104.177 45.4342 104.406 45.4804 104.619 45.5708C104.832 45.6613 105.024 45.7941 105.184 45.9612C105.344 46.1283 105.468 46.3262 105.549 46.5429C105.63 46.7595 105.666 46.9903 105.655 47.2213L105.176 57.7566C105.15 58.235 104.943 58.6856 104.597 59.0172C104.251 59.3488 103.792 59.5366 103.313 59.5428Z" fill="#FAFAFA"/>
</g>
<path d="M22.2022 75.884H11.6579C11.4266 75.8856 11.1975 75.8398 10.9846 75.7496C10.7717 75.6593 10.5795 75.5264 10.4198 75.3591C10.2602 75.1918 10.1365 74.9935 10.0563 74.7766C9.97613 74.5597 9.94119 74.3287 9.95363 74.0978L10.4093 63.567C10.4369 63.0882 10.6451 62.6376 10.9918 62.3061C11.3385 61.9746 11.798 61.7869 12.2776 61.7808H22.8128C23.0441 61.7792 23.2732 61.825 23.4861 61.9153C23.699 62.0055 23.8912 62.1384 24.0509 62.3057C24.2105 62.4731 24.3342 62.6713 24.4144 62.8882C24.4946 63.1051 24.5295 63.3361 24.5171 63.567L24.0614 74.0978C24.0349 74.5755 23.8284 75.0254 23.4834 75.3568C23.1384 75.6883 22.6806 75.8767 22.2022 75.884Z" fill="#407BFF"/>
<path d="M38.2742 75.884H27.7389C27.5077 75.8856 27.2785 75.8399 27.0656 75.7496C26.8527 75.6593 26.6605 75.5264 26.5009 75.3591C26.3412 75.1918 26.2175 74.9936 26.1374 74.7767C26.0572 74.5597 26.0222 74.3287 26.0347 74.0978L26.4904 63.5671C26.5169 63.0878 26.7248 62.6366 27.0717 62.3049C27.4186 61.9733 27.8787 61.7859 28.3586 61.7808H38.8893C39.121 61.7786 39.3506 61.8239 39.564 61.9139C39.7775 62.0039 39.9702 62.1367 40.1304 62.3041C40.2905 62.4715 40.4146 62.6699 40.4951 62.8871C40.5755 63.1044 40.6106 63.3358 40.5981 63.5671L40.1424 74.0978C40.1169 74.5774 39.9095 75.0293 39.5623 75.3612C39.2151 75.6931 38.7545 75.8801 38.2742 75.884Z" fill="#407BFF"/>
<path d="M54.3507 75.884H43.82C43.5887 75.8856 43.3596 75.8398 43.1467 75.7496C42.9338 75.6593 42.7416 75.5264 42.5819 75.3591C42.4223 75.1918 42.2986 74.9935 42.2184 74.7766C42.1382 74.5597 42.1033 74.3287 42.1157 74.0978L42.5714 63.567C42.598 63.0878 42.8058 62.6366 43.1527 62.3049C43.4997 61.9732 43.9597 61.7858 44.4397 61.7808H55.0114C55.2429 61.7793 55.4722 61.825 55.6853 61.9152C55.8985 62.0055 56.0909 62.1383 56.2509 62.3055C56.4109 62.4728 56.5351 62.6709 56.6158 62.8879C56.6965 63.1048 56.732 63.3359 56.7202 63.567L56.2417 74.0978C56.2149 74.5809 56.0039 75.0354 55.6521 75.3677C55.3003 75.7 54.8346 75.8847 54.3507 75.884Z" fill="#407BFF"/>
<path d="M70.4311 75.884H59.9005C59.669 75.8855 59.4397 75.8398 59.2265 75.7496C59.0134 75.6594 58.8209 75.5265 58.6609 75.3593C58.5009 75.1921 58.3768 74.9939 58.2961 74.777C58.2154 74.56 58.1799 74.3289 58.1917 74.0978L58.6473 63.567C58.6728 63.0882 58.8796 62.637 59.2258 62.3052C59.572 61.9734 60.0316 61.7859 60.5111 61.7808H71.0463C71.2776 61.7792 71.5067 61.825 71.7196 61.9153C71.9325 62.0055 72.1247 62.1384 72.2843 62.3057C72.444 62.4731 72.5677 62.6713 72.6479 62.8882C72.728 63.1051 72.763 63.3361 72.7505 63.567L72.2949 74.0978C72.2683 74.5762 72.0612 75.0268 71.7152 75.3584C71.3693 75.6899 70.9103 75.8778 70.4311 75.884Z" fill="#407BFF"/>
<path d="M86.5121 75.884H75.9723C75.7411 75.8856 75.5119 75.8398 75.299 75.7496C75.0861 75.6593 74.8939 75.5264 74.7343 75.3591C74.5746 75.1918 74.4509 74.9935 74.3708 74.7766C74.2906 74.5597 74.2556 74.3287 74.2681 74.0978L74.7238 63.567C74.7514 63.0882 74.9595 62.6376 75.3062 62.3061C75.6529 61.9746 76.1124 61.7869 76.592 61.7808H87.1273C87.3585 61.7792 87.5877 61.825 87.8006 61.9153C88.0135 62.0055 88.2057 62.1384 88.3653 62.3057C88.525 62.4731 88.6487 62.6713 88.7288 62.8882C88.809 63.1051 88.844 63.3361 88.8315 63.567L88.3758 74.0978C88.3483 74.5759 88.1408 75.0258 87.795 75.3572C87.4493 75.6885 86.991 75.8767 86.5121 75.884Z" fill="#407BFF"/>
<path d="M102.594 75.884H92.0582C91.827 75.8856 91.5979 75.8398 91.385 75.7496C91.1721 75.6593 90.9799 75.5264 90.8202 75.3591C90.6606 75.1918 90.5369 74.9935 90.4567 74.7766C90.3765 74.5597 90.3416 74.3287 90.354 74.0978L90.8097 63.567C90.8363 63.0878 91.0441 62.6366 91.391 62.3049C91.7379 61.9732 92.198 61.7858 92.678 61.7808H103.209C103.44 61.7793 103.669 61.825 103.883 61.9152C104.096 62.0055 104.288 62.1383 104.448 62.3055C104.608 62.4728 104.732 62.6709 104.813 62.8879C104.894 63.1048 104.929 63.3359 104.917 63.567L104.439 74.0978C104.414 74.5735 104.209 75.0221 103.867 75.3534C103.525 75.6848 103.07 75.8743 102.594 75.884Z" fill="#407BFF"/>
<g opacity="0.8">
<path d="M22.2022 75.884H11.6579C11.4266 75.8856 11.1975 75.8398 10.9846 75.7496C10.7717 75.6593 10.5795 75.5264 10.4198 75.3591C10.2602 75.1918 10.1365 74.9935 10.0563 74.7766C9.97613 74.5597 9.94119 74.3287 9.95363 74.0978L10.4093 63.567C10.4369 63.0882 10.6451 62.6376 10.9918 62.3061C11.3385 61.9746 11.798 61.7869 12.2776 61.7808H22.8128C23.0441 61.7792 23.2732 61.825 23.4861 61.9153C23.699 62.0055 23.8912 62.1384 24.0509 62.3057C24.2105 62.4731 24.3342 62.6713 24.4144 62.8882C24.4946 63.1051 24.5295 63.3361 24.5171 63.567L24.0614 74.0978C24.0349 74.5755 23.8284 75.0254 23.4834 75.3568C23.1384 75.6883 22.6806 75.8767 22.2022 75.884Z" fill="#FAFAFA"/>
<path d="M38.2742 75.884H27.7389C27.5077 75.8856 27.2785 75.8399 27.0656 75.7496C26.8527 75.6593 26.6605 75.5264 26.5009 75.3591C26.3412 75.1918 26.2175 74.9936 26.1374 74.7767C26.0572 74.5597 26.0222 74.3287 26.0347 74.0978L26.4904 63.5671C26.5169 63.0878 26.7248 62.6366 27.0717 62.3049C27.4186 61.9733 27.8787 61.7859 28.3586 61.7808H38.8893C39.121 61.7786 39.3506 61.8239 39.564 61.9139C39.7775 62.0039 39.9702 62.1367 40.1304 62.3041C40.2905 62.4715 40.4146 62.6699 40.4951 62.8871C40.5755 63.1044 40.6106 63.3358 40.5981 63.5671L40.1424 74.0978C40.1169 74.5774 39.9095 75.0293 39.5623 75.3612C39.2151 75.6931 38.7545 75.8801 38.2742 75.884Z" fill="#FAFAFA"/>
<path d="M54.3507 75.884H43.82C43.5887 75.8856 43.3596 75.8398 43.1467 75.7496C42.9338 75.6593 42.7416 75.5264 42.5819 75.3591C42.4223 75.1918 42.2986 74.9935 42.2184 74.7766C42.1382 74.5597 42.1033 74.3287 42.1157 74.0978L42.5714 63.567C42.598 63.0878 42.8058 62.6366 43.1527 62.3049C43.4997 61.9732 43.9597 61.7858 44.4397 61.7808H55.0114C55.2429 61.7793 55.4722 61.825 55.6853 61.9152C55.8985 62.0055 56.0909 62.1383 56.2509 62.3055C56.4109 62.4728 56.5351 62.6709 56.6158 62.8879C56.6965 63.1048 56.732 63.3359 56.7202 63.567L56.2417 74.0978C56.2149 74.5809 56.0039 75.0354 55.6521 75.3677C55.3003 75.7 54.8346 75.8847 54.3507 75.884Z" fill="#FAFAFA"/>
<path d="M70.4311 75.884H59.9005C59.669 75.8855 59.4397 75.8398 59.2265 75.7496C59.0134 75.6594 58.8209 75.5265 58.6609 75.3593C58.5009 75.1921 58.3768 74.9939 58.2961 74.777C58.2154 74.56 58.1799 74.3289 58.1917 74.0978L58.6473 63.567C58.6728 63.0882 58.8796 62.637 59.2258 62.3052C59.572 61.9734 60.0316 61.7859 60.5111 61.7808H71.0463C71.2776 61.7792 71.5067 61.825 71.7196 61.9153C71.9325 62.0055 72.1247 62.1384 72.2843 62.3057C72.444 62.4731 72.5677 62.6713 72.6479 62.8882C72.728 63.1051 72.763 63.3361 72.7505 63.567L72.2949 74.0978C72.2683 74.5762 72.0612 75.0268 71.7152 75.3584C71.3693 75.6899 70.9103 75.8778 70.4311 75.884Z" fill="#FAFAFA"/>
<path d="M86.5121 75.884H75.9723C75.7411 75.8856 75.5119 75.8398 75.299 75.7496C75.0861 75.6593 74.8939 75.5264 74.7343 75.3591C74.5746 75.1918 74.4509 74.9935 74.3708 74.7766C74.2906 74.5597 74.2556 74.3287 74.2681 74.0978L74.7238 63.567C74.7514 63.0882 74.9595 62.6376 75.3062 62.3061C75.6529 61.9746 76.1124 61.7869 76.592 61.7808H87.1273C87.3585 61.7792 87.5877 61.825 87.8006 61.9153C88.0135 62.0055 88.2057 62.1384 88.3653 62.3057C88.525 62.4731 88.6487 62.6713 88.7288 62.8882C88.809 63.1051 88.844 63.3361 88.8315 63.567L88.3758 74.0978C88.3483 74.5759 88.1408 75.0258 87.795 75.3572C87.4493 75.6885 86.991 75.8767 86.5121 75.884Z" fill="#FAFAFA"/>
<path d="M102.593 75.884H92.0573C91.826 75.8856 91.5969 75.8398 91.384 75.7496C91.1711 75.6593 90.9789 75.5264 90.8192 75.3591C90.6596 75.1918 90.5359 74.9935 90.4557 74.7766C90.3755 74.5597 90.3406 74.3287 90.353 74.0978L90.8087 63.567C90.8353 63.0878 91.0431 62.6366 91.39 62.3049C91.737 61.9732 92.197 61.7858 92.677 61.7808H103.208C103.439 61.7793 103.668 61.825 103.882 61.9152C104.095 62.0055 104.287 62.1383 104.447 62.3055C104.607 62.4728 104.731 62.6709 104.812 62.8879C104.893 63.1048 104.928 63.3359 104.916 63.567L104.438 74.0978C104.413 74.5735 104.209 75.0221 103.866 75.3534C103.524 75.6848 103.069 75.8743 102.593 75.884Z" fill="#FAFAFA"/>
</g>
<path d="M19.2173 20.5556C15.3349 20.5556 12.291 16.0398 12.291 10.2755C12.291 4.51121 15.3349 0 19.2173 0C23.0997 0 26.1482 4.51576 26.1482 10.2755C26.1305 10.5457 26.0107 10.799 25.8131 10.9841C25.6155 11.1692 25.3549 11.2721 25.0842 11.2721C24.8134 11.2721 24.5528 11.1692 24.3552 10.9841C24.1576 10.799 24.0378 10.5457 24.0202 10.2755C24.0202 5.86001 21.8238 2.12346 19.2173 2.12346C16.6108 2.12346 14.4145 5.86001 14.4145 10.2755C14.4145 14.691 16.6154 18.4276 19.2173 18.4276C19.3629 18.4181 19.5089 18.4385 19.6463 18.4877C19.7836 18.5368 19.9094 18.6136 20.0159 18.7134C20.1224 18.8131 20.2073 18.9336 20.2653 19.0675C20.3233 19.2014 20.3533 19.3457 20.3533 19.4916C20.3533 19.6375 20.3233 19.7818 20.2653 19.9157C20.2073 20.0496 20.1224 20.1701 20.0159 20.2698C19.9094 20.3696 19.7836 20.4464 19.6463 20.4955C19.5089 20.5447 19.3629 20.5651 19.2173 20.5556Z" fill="#407BFF"/>
<path d="M35.2984 20.5556C31.416 20.5556 28.3721 16.0398 28.3721 10.2755C28.3721 4.51121 31.416 0 35.2984 0C39.1807 0 42.252 4.51576 42.252 10.2755C42.2343 10.5457 42.1145 10.799 41.9169 10.9841C41.7193 11.1692 41.4587 11.2721 41.188 11.2721C40.9173 11.2721 40.6567 11.1692 40.4591 10.9841C40.2615 10.799 40.1417 10.5457 40.124 10.2755C40.124 5.86001 37.9276 2.12346 35.3211 2.12346C32.7147 2.12346 30.5183 5.86001 30.5183 10.2755C30.5183 14.691 32.7192 18.4276 35.3211 18.4276C35.5913 18.4453 35.8446 18.5651 36.0297 18.7627C36.2148 18.9603 36.3178 19.2209 36.3178 19.4916C36.3178 19.7623 36.2148 20.0229 36.0297 20.2205C35.8446 20.4181 35.5913 20.5379 35.3211 20.5556H35.2984Z" fill="#407BFF"/>
<path d="M51.3654 20.5556C47.4785 20.5556 44.4346 16.0398 44.4346 10.2755C44.4346 4.51121 47.4785 0 51.3654 0C55.2524 0 58.2917 4.51576 58.2917 10.2755C58.2917 10.5571 58.1799 10.8272 57.9807 11.0263C57.7816 11.2254 57.5116 11.3373 57.23 11.3373C56.9484 11.3373 56.6784 11.2254 56.4792 11.0263C56.2801 10.8272 56.1683 10.5571 56.1683 10.2755C56.1683 5.86001 53.9673 2.12346 51.3654 2.12346C48.7635 2.12346 46.5626 5.86001 46.5626 10.2755C46.5626 14.691 48.7635 18.4276 51.3654 18.4276C51.6356 18.4453 51.8889 18.5651 52.074 18.7627C52.2591 18.9603 52.362 19.2209 52.362 19.4916C52.362 19.7623 52.2591 20.0229 52.074 20.2205C51.8889 20.4181 51.6356 20.5379 51.3654 20.5556Z" fill="#407BFF"/>
<path d="M67.4602 20.5556C63.5732 20.5556 60.5293 16.0398 60.5293 10.2755C60.5293 4.51121 63.5732 0 67.4602 0C71.3471 0 74.3864 4.51576 74.3864 10.2755C74.3864 10.5571 74.2746 10.8272 74.0755 11.0263C73.8764 11.2254 73.6063 11.3373 73.3247 11.3373C73.0431 11.3373 72.7731 11.2254 72.574 11.0263C72.3749 10.8272 72.263 10.5571 72.263 10.2755C72.263 5.86001 70.0621 2.12346 67.4602 2.12346C64.8582 2.12346 62.6573 5.86001 62.6573 10.2755C62.6573 14.691 64.8537 18.4276 67.4602 18.4276C67.7303 18.4453 67.9836 18.5651 68.1687 18.7627C68.3538 18.9603 68.4568 19.2209 68.4568 19.4916C68.4568 19.7623 68.3538 20.0229 68.1687 20.2205C67.9836 20.4181 67.7303 20.5379 67.4602 20.5556Z" fill="#407BFF"/>
<path d="M83.5367 20.5556C79.6543 20.5556 76.6104 16.0398 76.6104 10.2755C76.6104 4.51121 79.6543 0 83.5367 0C87.419 0 90.4675 4.51576 90.4675 10.2755C90.4498 10.5457 90.33 10.799 90.1324 10.9841C89.9348 11.1692 89.6742 11.2721 89.4035 11.2721C89.1328 11.2721 88.8722 11.1692 88.6746 10.9841C88.477 10.799 88.3572 10.5457 88.3395 10.2755C88.3395 5.86001 86.1431 2.12346 83.5367 2.12346C80.9302 2.12346 78.7338 5.86001 78.7338 10.2755C78.7338 14.691 80.9347 18.4276 83.5367 18.4276C83.6822 18.4181 83.8282 18.4385 83.9656 18.4877C84.103 18.5368 84.2288 18.6136 84.3352 18.7134C84.4417 18.8131 84.5266 18.9336 84.5846 19.0675C84.6427 19.2014 84.6726 19.3457 84.6726 19.4916C84.6726 19.6375 84.6427 19.7818 84.5846 19.9157C84.5266 20.0496 84.4417 20.1701 84.3352 20.2698C84.2288 20.3696 84.103 20.4464 83.9656 20.4955C83.8282 20.5447 83.6822 20.5651 83.5367 20.5556Z" fill="#407BFF"/>
<path d="M99.6177 20.5556C95.7353 20.5556 92.6914 16.0398 92.6914 10.2755C92.6914 4.51121 95.7353 0 99.6177 0C103.5 0 106.549 4.51576 106.549 10.2755C106.531 10.5457 106.411 10.799 106.213 10.9841C106.016 11.1692 105.755 11.2721 105.485 11.2721C105.214 11.2721 104.953 11.1692 104.756 10.9841C104.558 10.799 104.438 10.5457 104.421 10.2755C104.421 5.86001 102.22 2.12346 99.6177 2.12346C97.0158 2.12346 94.8149 5.86001 94.8149 10.2755C94.8149 14.691 97.0158 18.4276 99.6177 18.4276C99.8879 18.4453 100.141 18.5651 100.326 18.7627C100.511 18.9603 100.614 19.2209 100.614 19.4916C100.614 19.7623 100.511 20.0229 100.326 20.2205C100.141 20.4181 99.8879 20.5379 99.6177 20.5556Z" fill="#407BFF"/>
<g opacity="0.3">
<path d="M19.2173 20.5556C15.3349 20.5556 12.291 16.0398 12.291 10.2755C12.291 4.51121 15.3349 0 19.2173 0C23.0997 0 26.1482 4.51576 26.1482 10.2755C26.1305 10.5457 26.0107 10.799 25.8131 10.9841C25.6155 11.1692 25.3549 11.2721 25.0842 11.2721C24.8134 11.2721 24.5528 11.1692 24.3552 10.9841C24.1576 10.799 24.0378 10.5457 24.0202 10.2755C24.0202 5.86001 21.8238 2.12346 19.2173 2.12346C16.6108 2.12346 14.4145 5.86001 14.4145 10.2755C14.4145 14.691 16.6154 18.4276 19.2173 18.4276C19.3629 18.4181 19.5089 18.4385 19.6463 18.4877C19.7836 18.5368 19.9094 18.6136 20.0159 18.7134C20.1224 18.8131 20.2073 18.9336 20.2653 19.0675C20.3233 19.2014 20.3533 19.3457 20.3533 19.4916C20.3533 19.6375 20.3233 19.7818 20.2653 19.9157C20.2073 20.0496 20.1224 20.1701 20.0159 20.2698C19.9094 20.3696 19.7836 20.4464 19.6463 20.4955C19.5089 20.5447 19.3629 20.5651 19.2173 20.5556Z" fill="black"/>
<path d="M35.2984 20.5556C31.416 20.5556 28.3721 16.0398 28.3721 10.2755C28.3721 4.51121 31.416 0 35.2984 0C39.1807 0 42.252 4.51576 42.252 10.2755C42.2343 10.5457 42.1145 10.799 41.9169 10.9841C41.7193 11.1692 41.4587 11.2721 41.188 11.2721C40.9173 11.2721 40.6567 11.1692 40.4591 10.9841C40.2615 10.799 40.1417 10.5457 40.124 10.2755C40.124 5.86001 37.9276 2.12346 35.3211 2.12346C32.7147 2.12346 30.5183 5.86001 30.5183 10.2755C30.5183 14.691 32.7192 18.4276 35.3211 18.4276C35.5913 18.4453 35.8446 18.5651 36.0297 18.7627C36.2148 18.9603 36.3178 19.2209 36.3178 19.4916C36.3178 19.7623 36.2148 20.0229 36.0297 20.2205C35.8446 20.4181 35.5913 20.5379 35.3211 20.5556H35.2984Z" fill="black"/>
<path d="M51.3654 20.5556C47.4785 20.5556 44.4346 16.0398 44.4346 10.2755C44.4346 4.51121 47.4785 0 51.3654 0C55.2524 0 58.2917 4.51576 58.2917 10.2755C58.2917 10.5571 58.1799 10.8272 57.9807 11.0263C57.7816 11.2254 57.5116 11.3373 57.23 11.3373C56.9484 11.3373 56.6784 11.2254 56.4792 11.0263C56.2801 10.8272 56.1683 10.5571 56.1683 10.2755C56.1683 5.86001 53.9673 2.12346 51.3654 2.12346C48.7635 2.12346 46.5626 5.86001 46.5626 10.2755C46.5626 14.691 48.7635 18.4276 51.3654 18.4276C51.6356 18.4453 51.8889 18.5651 52.074 18.7627C52.2591 18.9603 52.362 19.2209 52.362 19.4916C52.362 19.7623 52.2591 20.0229 52.074 20.2205C51.8889 20.4181 51.6356 20.5379 51.3654 20.5556Z" fill="black"/>
<path d="M67.4602 20.5556C63.5732 20.5556 60.5293 16.0398 60.5293 10.2755C60.5293 4.51121 63.5732 0 67.4602 0C71.3471 0 74.3864 4.51576 74.3864 10.2755C74.3864 10.5571 74.2746 10.8272 74.0755 11.0263C73.8764 11.2254 73.6063 11.3373 73.3247 11.3373C73.0431 11.3373 72.7731 11.2254 72.574 11.0263C72.3749 10.8272 72.263 10.5571 72.263 10.2755C72.263 5.86001 70.0621 2.12346 67.4602 2.12346C64.8582 2.12346 62.6573 5.86001 62.6573 10.2755C62.6573 14.691 64.8537 18.4276 67.4602 18.4276C67.7303 18.4453 67.9836 18.5651 68.1687 18.7627C68.3538 18.9603 68.4568 19.2209 68.4568 19.4916C68.4568 19.7623 68.3538 20.0229 68.1687 20.2205C67.9836 20.4181 67.7303 20.5379 67.4602 20.5556Z" fill="black"/>
<path d="M83.5367 20.5556C79.6543 20.5556 76.6104 16.0398 76.6104 10.2755C76.6104 4.51121 79.6543 0 83.5367 0C87.419 0 90.4675 4.51576 90.4675 10.2755C90.4498 10.5457 90.33 10.799 90.1324 10.9841C89.9348 11.1692 89.6742 11.2721 89.4035 11.2721C89.1328 11.2721 88.8722 11.1692 88.6746 10.9841C88.477 10.799 88.3572 10.5457 88.3395 10.2755C88.3395 5.86001 86.1431 2.12346 83.5367 2.12346C80.9302 2.12346 78.7338 5.86001 78.7338 10.2755C78.7338 14.691 80.9347 18.4276 83.5367 18.4276C83.6822 18.4181 83.8282 18.4385 83.9656 18.4877C84.103 18.5368 84.2288 18.6136 84.3352 18.7134C84.4417 18.8131 84.5266 18.9336 84.5846 19.0675C84.6427 19.2014 84.6726 19.3457 84.6726 19.4916C84.6726 19.6375 84.6427 19.7818 84.5846 19.9157C84.5266 20.0496 84.4417 20.1701 84.3352 20.2698C84.2288 20.3696 84.103 20.4464 83.9656 20.4955C83.8282 20.5447 83.6822 20.5651 83.5367 20.5556Z" fill="black"/>
<path d="M99.6167 20.5556C95.7344 20.5556 92.6904 16.0398 92.6904 10.2755C92.6904 4.51121 95.7344 0 99.6167 0C103.499 0 106.548 4.51576 106.548 10.2755C106.53 10.5457 106.41 10.799 106.212 10.9841C106.015 11.1692 105.754 11.2721 105.484 11.2721C105.213 11.2721 104.952 11.1692 104.755 10.9841C104.557 10.799 104.437 10.5457 104.42 10.2755C104.42 5.86001 102.219 2.12346 99.6167 2.12346C97.0148 2.12346 94.8139 5.86001 94.8139 10.2755C94.8139 14.691 97.0148 18.4276 99.6167 18.4276C99.8869 18.4453 100.14 18.5651 100.325 18.7627C100.51 18.9603 100.613 19.2209 100.613 19.4916C100.613 19.7623 100.51 20.0229 100.325 20.2205C100.14 20.4181 99.8869 20.5379 99.6167 20.5556Z" fill="black"/>
</g>
<path d="M68.5362 43.7859C64.8178 43.0477 60.6438 43.9089 59.1538 47.8277C57.9553 50.981 59.491 54.3986 62.7992 55.2325C65.7155 55.9661 70.7462 55.0684 71.7851 51.7055C72.9745 47.8596 68.1397 46.611 65.4284 46.3832C64.6128 46.3149 64.6173 47.5908 65.4284 47.6591C66.6633 47.7639 68.0759 47.8323 69.1696 48.5112C71.4479 49.9375 70.5092 52.225 68.5681 53.3186C66.6269 54.4122 63.6513 54.6856 61.7329 53.4735C59.6368 52.1384 59.5684 49.2038 60.8215 47.29C62.4665 44.761 65.4695 44.4785 68.1762 45.0116C68.9782 45.1711 69.3199 43.9408 68.5134 43.7813L68.5362 43.7859Z" fill="#407BFF"/>
<path opacity="0.1" d="M68.5362 43.7859C64.8178 43.0477 60.6438 43.9089 59.1538 47.8277C57.9553 50.981 59.491 54.3986 62.7992 55.2325C65.7155 55.9661 70.7462 55.0684 71.7851 51.7055C72.9745 47.8596 68.1397 46.611 65.4284 46.3832C64.6128 46.3149 64.6173 47.5908 65.4284 47.6591C66.6633 47.7639 68.0759 47.8323 69.1696 48.5112C71.4479 49.9375 70.5092 52.225 68.5681 53.3186C66.6269 54.4122 63.6513 54.6856 61.7329 53.4735C59.6368 52.1384 59.5684 49.2038 60.8215 47.29C62.4665 44.761 65.4695 44.4785 68.1762 45.0116C68.9782 45.1711 69.3199 43.9408 68.5134 43.7813L68.5362 43.7859Z" fill="#FAFAFA"/>
<path d="M27.5107 29.1087C31.0667 33.8228 35.0313 38.2143 39.3583 42.2322C39.9598 42.7927 40.8666 41.8905 40.2697 41.3209C36.0167 37.3823 32.1179 33.0778 28.618 28.4571C28.1305 27.81 27.0232 28.4571 27.5199 29.0996L27.5107 29.1087Z" fill="#407BFF"/>
<path d="M28.8279 41.699C31.5164 36.9189 36.2236 32.8406 40.6755 29.7192C41.3408 29.2635 40.7074 28.1426 40.033 28.6165C35.4033 31.87 30.5367 36.0714 27.7297 41.0519C27.6527 41.197 27.6346 41.3663 27.6793 41.5244C27.7239 41.6825 27.8278 41.8172 27.9694 41.9006C28.1109 41.984 28.2792 42.0096 28.4391 41.972C28.599 41.9345 28.7383 41.8367 28.8279 41.699Z" fill="#407BFF"/>
<g opacity="0.2">
<path d="M27.5107 29.1087C31.0667 33.8228 35.0313 38.2143 39.3583 42.2322C39.9598 42.7927 40.8666 41.8905 40.2697 41.3209C36.0167 37.3823 32.1179 33.0778 28.618 28.4571C28.1305 27.81 27.0232 28.4571 27.5199 29.0996L27.5107 29.1087Z" fill="black"/>
<path d="M28.8279 41.699C31.5164 36.9189 36.2236 32.8406 40.6755 29.7192C41.3408 29.2635 40.7074 28.1426 40.033 28.6165C35.4033 31.87 30.5367 36.0714 27.7297 41.0519C27.6527 41.197 27.6346 41.3663 27.6793 41.5244C27.7239 41.6825 27.8278 41.8172 27.9694 41.9006C28.1109 41.984 28.2792 42.0096 28.4391 41.972C28.599 41.9345 28.7383 41.8367 28.8279 41.699Z" fill="black"/>
</g>
<path d="M78.1915 33.1869H86.5076C86.6669 33.1734 86.8153 33.1005 86.9235 32.9828C87.0317 32.8651 87.0917 32.7111 87.0917 32.5512C87.0917 32.3913 87.0317 32.2373 86.9235 32.1196C86.8153 32.0019 86.6669 31.929 86.5076 31.9155H78.1915C78.0322 31.929 77.8838 32.0019 77.7756 32.1196C77.6674 32.2373 77.6074 32.3913 77.6074 32.5512C77.6074 32.7111 77.6674 32.8651 77.7756 32.9828C77.8838 33.1005 78.0322 33.1734 78.1915 33.1869Z" fill="#407BFF"/>
<path d="M78.096 35.5518H82.917C83.0862 35.5518 83.2485 35.4846 83.3681 35.3649C83.4878 35.2453 83.555 35.083 83.555 34.9138C83.555 34.7446 83.4878 34.5824 83.3681 34.4627C83.2485 34.3431 83.0862 34.2759 82.917 34.2759H78.096C77.9268 34.2759 77.7645 34.3431 77.6449 34.4627C77.5252 34.5824 77.458 34.7446 77.458 34.9138C77.458 35.083 77.5252 35.2453 77.6449 35.3649C77.7645 35.4846 77.9268 35.5518 78.096 35.5518Z" fill="#407BFF"/>
<g opacity="0.1">
<path d="M78.1915 33.1869H86.5076C86.6669 33.1734 86.8153 33.1005 86.9235 32.9828C87.0317 32.8651 87.0917 32.7111 87.0917 32.5512C87.0917 32.3913 87.0317 32.2373 86.9235 32.1196C86.8153 32.0019 86.6669 31.929 86.5076 31.9155H78.1915C78.0322 31.929 77.8838 32.0019 77.7756 32.1196C77.6674 32.2373 77.6074 32.3913 77.6074 32.5512C77.6074 32.7111 77.6674 32.8651 77.7756 32.9828C77.8838 33.1005 78.0322 33.1734 78.1915 33.1869Z" fill="#FAFAFA"/>
<path d="M78.096 35.5518H82.917C83.0862 35.5518 83.2485 35.4846 83.3681 35.3649C83.4878 35.2453 83.555 35.083 83.555 34.9138C83.555 34.7446 83.4878 34.5824 83.3681 34.4627C83.2485 34.3431 83.0862 34.2759 82.917 34.2759H78.096C77.9268 34.2759 77.7645 34.3431 77.6449 34.4627C77.5252 34.5824 77.458 34.7446 77.458 34.9138C77.458 35.083 77.5252 35.2453 77.6449 35.3649C77.7645 35.4846 77.9268 35.5518 78.096 35.5518Z" fill="#FAFAFA"/>
</g>
<path d="M28.3811 65.8316H35.5125C35.6817 65.8316 35.8439 65.7644 35.9636 65.6447C36.0832 65.5251 36.1504 65.3628 36.1504 65.1936C36.1504 65.0244 36.0832 64.8622 35.9636 64.7425C35.8439 64.6229 35.6817 64.5557 35.5125 64.5557H28.3811C28.2119 64.5557 28.0497 64.6229 27.93 64.7425C27.8104 64.8622 27.7432 65.0244 27.7432 65.1936C27.7432 65.3628 27.8104 65.5251 27.93 65.6447C28.0497 65.7644 28.2119 65.8316 28.3811 65.8316Z" fill="#407BFF"/>
<path d="M28.1262 68.5703H37.3765C37.5457 68.5703 37.7079 68.5031 37.8276 68.3835C37.9472 68.2638 38.0144 68.1016 38.0144 67.9324C38.0144 67.7632 37.9472 67.6009 37.8276 67.4813C37.7079 67.3616 37.5457 67.2944 37.3765 67.2944H28.1262C27.957 67.2944 27.7948 67.3616 27.6751 67.4813C27.5555 67.6009 27.4883 67.7632 27.4883 67.9324C27.4883 68.1016 27.5555 68.2638 27.6751 68.3835C27.7948 68.5031 27.957 68.5703 28.1262 68.5703Z" fill="#407BFF"/>
<path d="M28.1262 71.3911H32.7513C32.9205 71.3911 33.0828 71.3239 33.2025 71.2043C33.3221 71.0846 33.3893 70.9224 33.3893 70.7532C33.3893 70.584 33.3221 70.4217 33.2025 70.3021C33.0828 70.1824 32.9205 70.1152 32.7513 70.1152H28.1262C27.957 70.1152 27.7948 70.1824 27.6751 70.3021C27.5555 70.4217 27.4883 70.584 27.4883 70.7532C27.4883 70.9224 27.5555 71.0846 27.6751 71.2043C27.7948 71.3239 27.957 71.3911 28.1262 71.3911Z" fill="#407BFF"/>
<g opacity="0.1">
<path d="M28.3811 65.8316H35.5125C35.6817 65.8316 35.8439 65.7644 35.9636 65.6447C36.0832 65.5251 36.1504 65.3628 36.1504 65.1936C36.1504 65.0244 36.0832 64.8622 35.9636 64.7425C35.8439 64.6229 35.6817 64.5557 35.5125 64.5557H28.3811C28.2119 64.5557 28.0497 64.6229 27.93 64.7425C27.8104 64.8622 27.7432 65.0244 27.7432 65.1936C27.7432 65.3628 27.8104 65.5251 27.93 65.6447C28.0497 65.7644 28.2119 65.8316 28.3811 65.8316Z" fill="#FAFAFA"/>
<path d="M28.1262 68.5703H37.3765C37.5457 68.5703 37.7079 68.5031 37.8276 68.3835C37.9472 68.2638 38.0144 68.1016 38.0144 67.9324C38.0144 67.7632 37.9472 67.6009 37.8276 67.4813C37.7079 67.3616 37.5457 67.2944 37.3765 67.2944H28.1262C27.957 67.2944 27.7948 67.3616 27.6751 67.4813C27.5555 67.6009 27.4883 67.7632 27.4883 67.9324C27.4883 68.1016 27.5555 68.2638 27.6751 68.3835C27.7948 68.5031 27.957 68.5703 28.1262 68.5703Z" fill="#FAFAFA"/>
<path d="M28.1262 71.3911H32.7513C32.9205 71.3911 33.0828 71.3239 33.2025 71.2043C33.3221 71.0846 33.3893 70.9224 33.3893 70.7532C33.3893 70.584 33.3221 70.4217 33.2025 70.3021C33.0828 70.1824 32.9205 70.1152 32.7513 70.1152H28.1262C27.957 70.1152 27.7948 70.1824 27.6751 70.3021C27.5555 70.4217 27.4883 70.584 27.4883 70.7532C27.4883 70.9224 27.5555 71.0846 27.6751 71.2043C27.7948 71.3239 27.957 71.3911 28.1262 71.3911Z" fill="#FAFAFA"/>
</g>
</svg>
