<svg width="100" height="100" viewBox="0 0 100 100" fill="none" xmlns="http://www.w3.org/2000/svg">
<path opacity="0.12" d="M49.9997 91.6693C73.0115 91.6693 91.6664 73.0145 91.6664 50.0026C91.6664 26.9907 73.0115 8.33594 49.9997 8.33594C26.9878 8.33594 8.33301 26.9907 8.33301 50.0026C8.33301 73.0145 26.9878 91.6693 49.9997 91.6693Z" fill="#2A9921"/>
<path d="M91.6664 46.1931V50.0265C91.6612 59.0115 88.7518 67.7543 83.3719 74.9507C77.992 82.1472 70.43 87.4118 61.8137 89.9594C53.1973 92.507 43.9883 92.201 35.56 89.0872C27.1317 85.9734 19.9357 80.2185 15.0453 72.6809C10.155 65.1433 7.83214 56.2267 8.42333 47.2611C9.01452 38.2955 12.488 29.7611 18.3258 22.9309C24.1636 16.1007 32.0529 11.3405 40.8171 9.36039C49.5813 7.38024 58.7508 8.28619 66.958 11.9431M91.6663 16.6693L49.9997 58.3776L37.4997 45.8776" stroke="#2A9921" stroke-width="8.33333" stroke-linecap="round" stroke-linejoin="round"/>
</svg>
