<svg width="420" height="75" viewBox="0 0 420 75" fill="none" xmlns="http://www.w3.org/2000/svg">
<rect width="420" height="75" rx="8" fill="white"/>
<rect x="0.5" y="0.5" width="419" height="74" rx="7.5" stroke="#122023" stroke-opacity="0.14" stroke-dasharray="5 5"/>
<path d="M132.924 33.708V42.5H131.636V33.708H128.836V32.476H135.724V33.708H132.924ZM136.73 40.4C136.73 40.736 136.87 41.016 137.15 41.24C137.439 41.464 137.775 41.576 138.158 41.576C138.699 41.576 139.18 41.3753 139.6 40.974C140.029 40.5727 140.244 40.1013 140.244 39.56C139.842 39.2427 139.282 39.084 138.564 39.084C138.041 39.084 137.602 39.21 137.248 39.462C136.902 39.714 136.73 40.0267 136.73 40.4ZM138.396 35.416C139.348 35.416 140.099 35.6727 140.65 36.186C141.2 36.69 141.476 37.3853 141.476 38.272V42.5H140.244V41.548H140.188C139.656 42.332 138.946 42.724 138.06 42.724C137.304 42.724 136.669 42.5 136.156 42.052C135.652 41.604 135.4 41.044 135.4 40.372C135.4 39.6627 135.666 39.098 136.198 38.678C136.739 38.258 137.458 38.048 138.354 38.048C139.119 38.048 139.749 38.188 140.244 38.468V38.174C140.244 37.726 140.066 37.348 139.712 37.04C139.357 36.7227 138.942 36.564 138.466 36.564C137.747 36.564 137.178 36.8673 136.758 37.474L135.624 36.76C136.249 35.864 137.173 35.416 138.396 35.416ZM146.289 41.548C146.905 41.548 147.423 41.3147 147.843 40.848C148.263 40.3907 148.473 39.798 148.473 39.07C148.473 38.3513 148.263 37.7587 147.843 37.292C147.423 36.8253 146.905 36.592 146.289 36.592C145.663 36.592 145.141 36.8253 144.721 37.292C144.31 37.7587 144.105 38.3513 144.105 39.07C144.105 39.798 144.31 40.3953 144.721 40.862C145.141 41.3193 145.663 41.548 146.289 41.548ZM146.499 42.724C145.995 42.724 145.533 42.6167 145.113 42.402C144.702 42.1873 144.385 41.9027 144.161 41.548H144.105L144.161 42.5V45.524H142.873V35.64H144.105V36.592H144.161C144.385 36.2373 144.702 35.9527 145.113 35.738C145.533 35.5233 145.995 35.416 146.499 35.416C147.404 35.416 148.169 35.7707 148.795 36.48C149.439 37.1987 149.761 38.062 149.761 39.07C149.761 40.0873 149.439 40.9507 148.795 41.66C148.169 42.3693 147.404 42.724 146.499 42.724ZM156.732 42.612C156.172 42.612 155.706 42.4393 155.332 42.094C154.968 41.7487 154.782 41.268 154.772 40.652V36.816H153.568V35.64H154.772V33.54H156.06V35.64H157.74V36.816H156.06V40.232C156.06 40.6893 156.149 41.002 156.326 41.17C156.504 41.3287 156.704 41.408 156.928 41.408C157.031 41.408 157.129 41.3987 157.222 41.38C157.325 41.352 157.418 41.3193 157.502 41.282L157.908 42.43C157.572 42.5513 157.18 42.612 156.732 42.612ZM158.505 39.07C158.505 38.0153 158.837 37.1427 159.499 36.452C160.171 35.7613 161.016 35.416 162.033 35.416C163.051 35.416 163.891 35.7613 164.553 36.452C165.225 37.1427 165.561 38.0153 165.561 39.07C165.561 40.134 165.225 41.0067 164.553 41.688C163.891 42.3787 163.051 42.724 162.033 42.724C161.016 42.724 160.171 42.3787 159.499 41.688C158.837 40.9973 158.505 40.1247 158.505 39.07ZM159.793 39.07C159.793 39.8073 160.008 40.4047 160.437 40.862C160.867 41.3193 161.399 41.548 162.033 41.548C162.668 41.548 163.2 41.3193 163.629 40.862C164.059 40.4047 164.273 39.8073 164.273 39.07C164.273 38.342 164.059 37.7493 163.629 37.292C163.191 36.8253 162.659 36.592 162.033 36.592C161.408 36.592 160.876 36.8253 160.437 37.292C160.008 37.7493 159.793 38.342 159.793 39.07ZM175.827 42.5H174.595V41.548H174.539C174.343 41.884 174.04 42.164 173.629 42.388C173.228 42.612 172.808 42.724 172.369 42.724C171.529 42.724 170.881 42.486 170.423 42.01C169.975 41.5247 169.751 40.8387 169.751 39.952V35.64H171.039V39.868C171.067 40.988 171.632 41.548 172.733 41.548C173.247 41.548 173.676 41.3427 174.021 40.932C174.367 40.512 174.539 40.0127 174.539 39.434V35.64H175.827V42.5ZM180.755 41.548C181.371 41.548 181.889 41.3147 182.309 40.848C182.729 40.3907 182.939 39.798 182.939 39.07C182.939 38.3513 182.729 37.7587 182.309 37.292C181.889 36.8253 181.371 36.592 180.755 36.592C180.13 36.592 179.607 36.8253 179.187 37.292C178.777 37.7587 178.571 38.3513 178.571 39.07C178.571 39.798 178.777 40.3953 179.187 40.862C179.607 41.3193 180.13 41.548 180.755 41.548ZM180.965 42.724C180.461 42.724 179.999 42.6167 179.579 42.402C179.169 42.1873 178.851 41.9027 178.627 41.548H178.571L178.627 42.5V45.524H177.339V35.64H178.571V36.592H178.627C178.851 36.2373 179.169 35.9527 179.579 35.738C179.999 35.5233 180.461 35.416 180.965 35.416C181.871 35.416 182.636 35.7707 183.261 36.48C183.905 37.1987 184.227 38.062 184.227 39.07C184.227 40.0873 183.905 40.9507 183.261 41.66C182.636 42.3693 181.871 42.724 180.965 42.724ZM186.558 32.476V42.5H185.27V32.476H186.558ZM187.667 39.07C187.667 38.0153 187.999 37.1427 188.661 36.452C189.333 35.7613 190.178 35.416 191.195 35.416C192.213 35.416 193.053 35.7613 193.715 36.452C194.387 37.1427 194.723 38.0153 194.723 39.07C194.723 40.134 194.387 41.0067 193.715 41.688C193.053 42.3787 192.213 42.724 191.195 42.724C190.178 42.724 189.333 42.3787 188.661 41.688C187.999 40.9973 187.667 40.1247 187.667 39.07ZM188.955 39.07C188.955 39.8073 189.17 40.4047 189.599 40.862C190.029 41.3193 190.561 41.548 191.195 41.548C191.83 41.548 192.362 41.3193 192.791 40.862C193.221 40.4047 193.435 39.8073 193.435 39.07C193.435 38.342 193.221 37.7493 192.791 37.292C192.353 36.8253 191.821 36.592 191.195 36.592C190.57 36.592 190.038 36.8253 189.599 37.292C189.17 37.7493 188.955 38.342 188.955 39.07ZM196.831 40.4C196.831 40.736 196.971 41.016 197.251 41.24C197.541 41.464 197.877 41.576 198.259 41.576C198.801 41.576 199.281 41.3753 199.701 40.974C200.131 40.5727 200.345 40.1013 200.345 39.56C199.944 39.2427 199.384 39.084 198.665 39.084C198.143 39.084 197.704 39.21 197.349 39.462C197.004 39.714 196.831 40.0267 196.831 40.4ZM198.497 35.416C199.449 35.416 200.201 35.6727 200.751 36.186C201.302 36.69 201.577 37.3853 201.577 38.272V42.5H200.345V41.548H200.289C199.757 42.332 199.048 42.724 198.161 42.724C197.405 42.724 196.771 42.5 196.257 42.052C195.753 41.604 195.501 41.044 195.501 40.372C195.501 39.6627 195.767 39.098 196.299 38.678C196.841 38.258 197.559 38.048 198.455 38.048C199.221 38.048 199.851 38.188 200.345 38.468V38.174C200.345 37.726 200.168 37.348 199.813 37.04C199.459 36.7227 199.043 36.564 198.567 36.564C197.849 36.564 197.279 36.8673 196.859 37.474L195.725 36.76C196.351 35.864 197.275 35.416 198.497 35.416ZM206.042 41.548C206.676 41.548 207.194 41.3193 207.596 40.862C208.016 40.4047 208.226 39.8073 208.226 39.07C208.226 38.3513 208.016 37.7587 207.596 37.292C207.185 36.8253 206.667 36.592 206.042 36.592C205.426 36.592 204.908 36.8253 204.488 37.292C204.068 37.7587 203.858 38.3513 203.858 39.07C203.858 39.798 204.068 40.3907 204.488 40.848C204.908 41.3147 205.426 41.548 206.042 41.548ZM205.832 42.724C204.936 42.724 204.166 42.3693 203.522 41.66C202.887 40.9413 202.57 40.078 202.57 39.07C202.57 38.062 202.887 37.1987 203.522 36.48C204.166 35.7707 204.936 35.416 205.832 35.416C206.336 35.416 206.793 35.5233 207.204 35.738C207.624 35.9527 207.946 36.2373 208.17 36.592H208.226L208.17 35.64V32.476H209.458V42.5H208.226V41.548H208.17C207.946 41.9027 207.624 42.1873 207.204 42.402C206.793 42.6167 206.336 42.724 205.832 42.724ZM218.773 42.724C217.289 42.724 216.048 42.2247 215.049 41.226C214.06 40.2273 213.565 38.9813 213.565 37.488C213.565 35.9947 214.06 34.7533 215.049 33.764C216.038 32.756 217.28 32.252 218.773 32.252C220.285 32.252 221.512 32.798 222.455 33.89L221.531 34.786C220.812 33.918 219.893 33.484 218.773 33.484C217.662 33.484 216.734 33.8573 215.987 34.604C215.25 35.3413 214.881 36.3027 214.881 37.488C214.881 38.6733 215.25 39.6347 215.987 40.372C216.734 41.1187 217.662 41.492 218.773 41.492C219.94 41.492 220.952 41.002 221.811 40.022L222.749 40.932C222.273 41.5013 221.69 41.9447 220.999 42.262C220.308 42.57 219.566 42.724 218.773 42.724ZM223.365 39.07C223.365 38.0153 223.696 37.1427 224.359 36.452C225.031 35.7613 225.875 35.416 226.893 35.416C227.91 35.416 228.75 35.7613 229.413 36.452C230.085 37.1427 230.421 38.0153 230.421 39.07C230.421 40.134 230.085 41.0067 229.413 41.688C228.75 42.3787 227.91 42.724 226.893 42.724C225.875 42.724 225.031 42.3787 224.359 41.688C223.696 40.9973 223.365 40.1247 223.365 39.07ZM224.653 39.07C224.653 39.8073 224.867 40.4047 225.297 40.862C225.726 41.3193 226.258 41.548 226.893 41.548C227.527 41.548 228.059 41.3193 228.489 40.862C228.918 40.4047 229.133 39.8073 229.133 39.07C229.133 38.342 228.918 37.7493 228.489 37.292C228.05 36.8253 227.518 36.592 226.893 36.592C226.267 36.592 225.735 36.8253 225.297 37.292C224.867 37.7493 224.653 38.342 224.653 39.07ZM234.786 42.5H233.498L230.726 35.64H232.126L234.142 40.96H234.17L236.214 35.64H237.586L234.786 42.5ZM241.302 42.724C240.294 42.724 239.463 42.3787 238.81 41.688C238.156 40.9973 237.83 40.1247 237.83 39.07C237.83 38.0247 238.147 37.1567 238.782 36.466C239.416 35.766 240.228 35.416 241.218 35.416C242.235 35.416 243.042 35.7473 243.64 36.41C244.246 37.0633 244.55 37.9827 244.55 39.168L244.536 39.308H239.146C239.164 39.98 239.388 40.5213 239.818 40.932C240.247 41.3427 240.76 41.548 241.358 41.548C242.179 41.548 242.823 41.1373 243.29 40.316L244.438 40.876C244.13 41.4547 243.7 41.9073 243.15 42.234C242.608 42.5607 241.992 42.724 241.302 42.724ZM239.244 38.244H243.178C243.14 37.768 242.944 37.376 242.59 37.068C242.244 36.7507 241.778 36.592 241.19 36.592C240.704 36.592 240.284 36.7413 239.93 37.04C239.584 37.3387 239.356 37.74 239.244 38.244ZM247.015 42.5H245.727V35.64H246.959V36.76H247.015C247.146 36.396 247.412 36.088 247.813 35.836C248.224 35.5747 248.625 35.444 249.017 35.444C249.391 35.444 249.708 35.5 249.969 35.612L249.577 36.858C249.419 36.7927 249.167 36.76 248.821 36.76C248.336 36.76 247.911 36.956 247.547 37.348C247.193 37.74 247.015 38.1973 247.015 38.72V42.5ZM255.555 33.274C255.555 33.526 255.467 33.7407 255.289 33.918C255.112 34.0953 254.897 34.184 254.645 34.184C254.393 34.184 254.179 34.0953 254.001 33.918C253.824 33.7407 253.735 33.526 253.735 33.274C253.735 33.022 253.824 32.8073 254.001 32.63C254.179 32.4527 254.393 32.364 254.645 32.364C254.897 32.364 255.112 32.4527 255.289 32.63C255.467 32.8073 255.555 33.022 255.555 33.274ZM255.289 35.64V42.5H254.001V35.64H255.289ZM258.254 42.5H256.966V35.64H258.198V36.592H258.254C258.45 36.256 258.748 35.976 259.15 35.752C259.56 35.528 259.966 35.416 260.368 35.416C260.872 35.416 261.315 35.5327 261.698 35.766C262.08 35.9993 262.36 36.3213 262.538 36.732C263.107 35.8547 263.896 35.416 264.904 35.416C265.697 35.416 266.308 35.6587 266.738 36.144C267.167 36.6293 267.382 37.32 267.382 38.216V42.5H266.094V38.412C266.094 37.768 265.977 37.306 265.744 37.026C265.51 36.7367 265.118 36.592 264.568 36.592C264.073 36.592 263.658 36.802 263.322 37.222C262.986 37.642 262.818 38.1367 262.818 38.706V42.5H261.53V38.412C261.53 37.768 261.413 37.306 261.18 37.026C260.946 36.7367 260.554 36.592 260.004 36.592C259.509 36.592 259.094 36.802 258.758 37.222C258.422 37.642 258.254 38.1367 258.254 38.706V42.5ZM269.757 40.4C269.757 40.736 269.897 41.016 270.177 41.24C270.466 41.464 270.802 41.576 271.185 41.576C271.726 41.576 272.207 41.3753 272.627 40.974C273.056 40.5727 273.271 40.1013 273.271 39.56C272.87 39.2427 272.31 39.084 271.591 39.084C271.068 39.084 270.63 39.21 270.275 39.462C269.93 39.714 269.757 40.0267 269.757 40.4ZM271.423 35.416C272.375 35.416 273.126 35.6727 273.677 36.186C274.228 36.69 274.503 37.3853 274.503 38.272V42.5H273.271V41.548H273.215C272.683 42.332 271.974 42.724 271.087 42.724C270.331 42.724 269.696 42.5 269.183 42.052C268.679 41.604 268.427 41.044 268.427 40.372C268.427 39.6627 268.693 39.098 269.225 38.678C269.766 38.258 270.485 38.048 271.381 38.048C272.146 38.048 272.776 38.188 273.271 38.468V38.174C273.271 37.726 273.094 37.348 272.739 37.04C272.384 36.7227 271.969 36.564 271.493 36.564C270.774 36.564 270.205 36.8673 269.785 37.474L268.651 36.76C269.276 35.864 270.2 35.416 271.423 35.416ZM278.968 41.548C279.602 41.548 280.12 41.3193 280.522 40.862C280.942 40.4047 281.152 39.8073 281.152 39.07C281.152 38.3513 280.942 37.7587 280.522 37.292C280.111 36.8253 279.593 36.592 278.968 36.592C278.352 36.592 277.834 36.8253 277.414 37.292C276.994 37.7587 276.784 38.3513 276.784 39.07C276.784 39.798 276.994 40.3907 277.414 40.848C277.834 41.3147 278.352 41.548 278.968 41.548ZM278.926 45.748C278.543 45.748 278.184 45.6967 277.848 45.594C277.512 45.5007 277.204 45.3653 276.924 45.188C276.653 45.0107 276.42 44.8007 276.224 44.558C276.028 44.3153 275.878 44.0447 275.776 43.746L276.994 43.242C277.134 43.6433 277.376 43.9653 277.722 44.208C278.067 44.4507 278.468 44.572 278.926 44.572C279.626 44.572 280.172 44.362 280.564 43.942C280.956 43.522 281.152 42.9433 281.152 42.206V41.548H281.096C280.853 41.912 280.522 42.2013 280.102 42.416C279.691 42.6213 279.243 42.724 278.758 42.724C277.862 42.724 277.092 42.374 276.448 41.674C275.813 40.9553 275.496 40.0873 275.496 39.07C275.496 38.0527 275.813 37.1893 276.448 36.48C277.092 35.7707 277.862 35.416 278.758 35.416C279.243 35.416 279.691 35.5233 280.102 35.738C280.522 35.9433 280.853 36.228 281.096 36.592H281.152V35.64H282.384V42.206C282.384 43.3073 282.071 44.1707 281.446 44.796C280.811 45.4307 279.971 45.748 278.926 45.748ZM286.966 42.724C285.958 42.724 285.127 42.3787 284.474 41.688C283.82 40.9973 283.494 40.1247 283.494 39.07C283.494 38.0247 283.811 37.1567 284.446 36.466C285.08 35.766 285.892 35.416 286.882 35.416C287.899 35.416 288.706 35.7473 289.304 36.41C289.91 37.0633 290.214 37.9827 290.214 39.168L290.2 39.308H284.81C284.828 39.98 285.052 40.5213 285.482 40.932C285.911 41.3427 286.424 41.548 287.022 41.548C287.843 41.548 288.487 41.1373 288.954 40.316L290.102 40.876C289.794 41.4547 289.364 41.9073 288.814 42.234C288.272 42.5607 287.656 42.724 286.966 42.724ZM284.908 38.244H288.842C288.804 37.768 288.608 37.376 288.254 37.068C287.908 36.7507 287.442 36.592 286.854 36.592C286.368 36.592 285.948 36.7413 285.594 37.04C285.248 37.3387 285.02 37.74 284.908 38.244Z" fill="#434343" fill-opacity="0.7"/>
</svg>
