<svg width="40" height="40" viewBox="0 0 40 40" fill="none" xmlns="http://www.w3.org/2000/svg">
<g clip-path="url(#clip0_1_15419)">
<path d="M20.3576 26.1113C23.9433 26.1113 26.85 23.2045 26.85 19.6189C26.85 16.0332 23.9433 13.1265 20.3576 13.1265C16.772 13.1265 13.8652 16.0332 13.8652 19.6189C13.8652 23.2045 16.772 26.1113 20.3576 26.1113Z" fill="#A0616A"/>
<path d="M14.9834 27.5655L16.3368 24.1068L23.3293 23.0542L24.0806 30.7103L17.0129 30.8607L14.9834 27.5655Z" fill="#A0616A"/>
<path d="M26.9131 20.8168C26.8289 21.1543 26.6585 21.9581 26.3925 21.9621C26.1752 21.9652 25.9672 18.4783 26.1843 17.9015C26.4337 17.2389 25.7784 16.4007 25.2847 15.9704C24.3972 15.1968 22.4271 16.858 20.4238 16.1054C20.3706 16.0855 20.3812 16.0878 19.7486 15.8354C17.802 15.0587 17.6997 15.0363 17.5882 15.0252C16.6445 14.9319 15.4929 15.7041 15.0227 16.6455C14.5338 17.6242 14.9422 18.4637 14.4825 20.8314C14.429 21.1074 14.3448 21.5007 14.2125 21.5065C13.9705 21.5171 13.7343 20.2247 13.6724 19.8862C13.4131 18.468 13.1632 17.1007 13.6724 15.5653C13.7279 15.3979 14.0702 14.7763 14.7526 13.5399C15.7356 11.7588 16.2301 10.8649 16.3729 10.7043C17.3976 9.55199 19.2628 8.50078 20.8288 8.94898C21.6203 9.17552 21.4784 9.53973 22.4492 9.89417C24.1791 10.5258 25.6826 9.75334 25.9599 10.2993C26.1068 10.5884 25.6958 10.8268 25.6898 11.3795C25.6796 12.3277 26.8789 12.6017 27.5802 13.5399C27.9572 14.0443 28.6026 14.0497 26.9131 20.8168Z" fill="#2F2E41"/>
<path d="M34.9567 33.2792C34.695 33.5732 34.4236 33.8612 34.1424 34.1424C30.365 37.9198 25.3424 40.0002 20.0003 40.0002C15.383 40.0002 11.0048 38.4461 7.4627 35.5852C7.46044 35.5837 7.45893 35.5822 7.45669 35.5799C6.98677 35.201 6.53188 34.798 6.09277 34.3724C6.10103 34.3063 6.11007 34.2409 6.11983 34.1762C6.18149 33.7401 6.24992 33.3243 6.3266 32.9416C6.95442 29.8048 15.2153 26.5115 15.4304 26.4258C15.4334 26.4251 15.4349 26.4243 15.4349 26.4243C15.4349 26.4243 16.498 30.3431 21.0537 30.2928C24.1567 30.2589 23.5552 26.4243 23.5552 26.4243C23.5552 26.4243 23.5928 26.4318 23.6634 26.4469C24.5597 26.6371 30.7823 28.004 33.2371 29.8695C33.9853 30.4378 34.5221 31.6484 34.9078 33.092C34.9243 33.1536 34.9401 33.2168 34.9567 33.2792Z" fill="#023047"/>
<path d="M34.1421 5.85791C30.3647 2.08052 25.3421 0 20 0C14.6579 0 9.63535 2.08052 5.85789 5.85791C2.08046 9.63537 0 14.6579 0 20C0 24.876 1.73309 29.4857 4.90903 33.1256C5.21204 33.4737 5.52857 33.8128 5.85789 34.1422C5.93533 34.2196 6.01353 34.297 6.09248 34.3722C6.53159 34.7978 6.98648 35.2008 7.4564 35.5797C7.45864 35.582 7.46015 35.5835 7.46241 35.585C11.0045 38.4459 15.3827 40 20 40C25.3421 40 30.3647 37.9196 34.1421 34.1422C34.4233 33.8609 34.6947 33.573 34.9564 33.279C38.2173 29.6158 40 24.9452 40 20C40 14.6579 37.9196 9.63537 34.1421 5.85791ZM34.9075 33.0917C34.3158 33.7647 33.6797 34.3978 33.003 34.985C31.7196 36.1015 30.291 37.0549 28.7504 37.8143C28.2098 38.0812 27.6556 38.3241 27.0887 38.5414C24.8865 39.3865 22.4962 39.8496 20 39.8496C17.591 39.8496 15.2812 39.4181 13.1436 38.6286C12.2662 38.3053 11.4181 37.9211 10.6038 37.4812C10.4842 37.4166 10.3654 37.3512 10.2474 37.2843C9.62632 36.9323 9.02557 36.5482 8.44888 36.1331C7.62257 35.5406 6.84361 34.8857 6.11954 34.1759C5.71353 33.7782 5.32557 33.3639 4.9549 32.9331C1.96166 29.4564 0.150376 24.9361 0.150376 20C0.150376 9.05494 9.05488 0.150376 20 0.150376C30.9451 0.150376 39.8496 9.05494 39.8496 20C39.8496 25.012 37.9827 29.5955 34.9075 33.0917Z" fill="#3F3D56"/>
</g>
<defs>
<clipPath id="clip0_1_15419">
<rect width="40" height="40" fill="white"/>
</clipPath>
</defs>
</svg>
