<svg width="24" height="24" viewBox="0 0 24 24" fill="none" xmlns="http://www.w3.org/2000/svg">
<rect width="24" height="24" rx="12" fill="#6D28D9" fill-opacity="0.05"/>
<path d="M11.417 12.5827H8.50033C8.33505 12.5827 8.19661 12.5267 8.08499 12.4147C7.97338 12.3027 7.91738 12.1642 7.91699 11.9994C7.91661 11.8345 7.97261 11.696 8.08499 11.584C8.19738 11.472 8.33583 11.416 8.50033 11.416H11.417V8.49935C11.417 8.33407 11.473 8.19563 11.585 8.08402C11.697 7.97241 11.8354 7.91641 12.0003 7.91602C12.1652 7.91563 12.3039 7.97163 12.4162 8.08402C12.5286 8.19641 12.5844 8.33485 12.5837 8.49935V11.416H15.5003C15.6656 11.416 15.8042 11.472 15.9162 11.584C16.0282 11.696 16.084 11.8345 16.0837 11.9994C16.0833 12.1642 16.0273 12.3029 15.9157 12.4153C15.804 12.5277 15.6656 12.5835 15.5003 12.5827H12.5837V15.4994C12.5837 15.6646 12.5277 15.8033 12.4157 15.9153C12.3037 16.0273 12.1652 16.0831 12.0003 16.0827C11.8354 16.0823 11.697 16.0263 11.585 15.9147C11.473 15.8031 11.417 15.6646 11.417 15.4994V12.5827Z" fill="#6D29D9"/>
</svg>
