<svg width="10" height="10" viewBox="0 0 10 10" fill="none" xmlns="http://www.w3.org/2000/svg">
<path d="M1.86037 3.23214C1.86392 3.13149 1.84716 3.03115 1.8111 2.93711C1.77503 2.84307 1.72039 2.75726 1.65044 2.68479C1.58049 2.61233 1.49666 2.5547 1.40395 2.51533C1.31124 2.47597 1.21155 2.45569 1.11083 2.45569C1.01011 2.45569 0.910429 2.47597 0.81772 2.51533C0.725012 2.5547 0.641182 2.61233 0.571231 2.68479C0.50128 2.75726 0.44664 2.84307 0.410572 2.93711C0.374505 3.03115 0.357748 3.13149 0.361301 3.23214L0.361301 8.889C0.361425 9.08775 0.440433 9.27832 0.580971 9.41886C0.721508 9.5594 0.912083 9.63841 1.11083 9.63853L6.76769 9.63853C6.86835 9.64208 6.96868 9.62533 7.06272 9.58926C7.15676 9.55319 7.24257 9.49855 7.31504 9.4286C7.3875 9.35865 7.44513 9.27482 7.4845 9.18211C7.52386 9.0894 7.54415 8.98972 7.54415 8.889C7.54415 8.78828 7.52386 8.68859 7.4845 8.59588C7.44513 8.50317 7.3875 8.41935 7.31504 8.34939C7.24257 8.27944 7.15676 8.2248 7.06272 8.18874C6.96869 8.15267 6.86834 8.13591 6.76769 8.13946L2.92103 8.13946L9.77289 1.2876C9.91355 1.14695 9.99256 0.956181 9.99256 0.757268C9.99256 0.558356 9.91354 0.367591 9.77289 0.226939C9.63224 0.0862869 9.44148 0.00726863 9.24256 0.00726897C9.04365 0.0072693 8.85288 0.0862866 8.71223 0.226939L1.86037 7.0788L1.86037 3.23214Z" fill="#2A9921"/>
</svg>
