<svg width="10" height="10" viewBox="0 0 10 10" fill="none" xmlns="http://www.w3.org/2000/svg">
<path d="M8.13963 6.76786C8.13608 6.86851 8.15284 6.96885 8.1889 7.06289C8.22497 7.15693 8.27961 7.24274 8.34956 7.31521C8.41951 7.38767 8.50334 7.4453 8.59605 7.48467C8.68876 7.52403 8.78845 7.54431 8.88917 7.54431C8.98989 7.54431 9.08957 7.52403 9.18228 7.48467C9.27499 7.4453 9.35882 7.38767 9.42877 7.31521C9.49872 7.24274 9.55336 7.15693 9.58943 7.06289C9.6255 6.96885 9.64225 6.86851 9.6387 6.76786L9.6387 1.111C9.63858 0.912251 9.55957 0.721677 9.41903 0.581139C9.27849 0.440601 9.08792 0.361593 8.88917 0.361469L3.23231 0.361469C3.13165 0.357916 3.03132 0.374673 2.93728 0.410741C2.84324 0.446809 2.75743 0.501449 2.68496 0.5714C2.6125 0.641351 2.55487 0.725181 2.5155 0.817889C2.47614 0.910597 2.45585 1.01028 2.45585 1.111C2.45585 1.21172 2.47614 1.31141 2.5155 1.40412C2.55487 1.49683 2.6125 1.58065 2.68496 1.65061C2.75743 1.72056 2.84324 1.7752 2.93728 1.81126C3.03131 1.84733 3.13166 1.86409 3.23231 1.86054L7.07897 1.86054L0.227107 8.7124C0.0864549 8.85305 0.00743762 9.04382 0.00743729 9.24273C0.00743695 9.44164 0.0864552 9.63241 0.227107 9.77306C0.367759 9.91371 0.558524 9.99273 0.757437 9.99273C0.956349 9.99273 1.14712 9.91371 1.28777 9.77306L8.13963 2.9212L8.13963 6.76786Z" fill="#009FE2"/>
</svg>
