<svg width="16" height="17" viewBox="0 0 16 17" fill="none" xmlns="http://www.w3.org/2000/svg">
<path d="M6.875 15.8001L0.275 9.20011C0.175 9.10011 0.104167 8.99178 0.0625 8.87511C0.0208333 8.75844 0 8.63344 0 8.50011C0 8.36678 0.0208333 8.24178 0.0625 8.12511C0.104167 8.00844 0.175 7.90011 0.275 7.80011L6.875 1.20011C7.05833 1.01678 7.2875 0.920943 7.5625 0.912609C7.8375 0.904276 8.075 1.00011 8.275 1.20011C8.475 1.38344 8.57917 1.61261 8.5875 1.88761C8.59583 2.16261 8.5 2.40011 8.3 2.60011L3.4 7.50011H14.575C14.8583 7.50011 15.0958 7.59594 15.2875 7.78761C15.4792 7.97928 15.575 8.21678 15.575 8.50011C15.575 8.78344 15.4792 9.02094 15.2875 9.21261C15.0958 9.40428 14.8583 9.50011 14.575 9.50011H3.4L8.3 14.4001C8.48333 14.5834 8.57917 14.8168 8.5875 15.1001C8.59583 15.3834 8.5 15.6168 8.3 15.8001C8.11667 16.0001 7.88333 16.1001 7.6 16.1001C7.31667 16.1001 7.075 16.0001 6.875 15.8001Z" fill="#60696C"/>
</svg>
