<svg width="13" height="13" viewBox="0 0 13 13" fill="none" xmlns="http://www.w3.org/2000/svg">
<path d="M10.9004 1.60039H9.10039V0.700391C9.10039 0.620826 9.06878 0.54452 9.01252 0.488259C8.95626 0.431998 8.87996 0.400391 8.80039 0.400391C8.72083 0.400391 8.64452 0.431998 8.58826 0.488259C8.532 0.54452 8.50039 0.620826 8.50039 0.700391V1.60039H4.30039V0.700391C4.30039 0.620826 4.26878 0.54452 4.21252 0.488259C4.15626 0.431998 4.07996 0.400391 4.00039 0.400391C3.92083 0.400391 3.84452 0.431998 3.78826 0.488259C3.732 0.54452 3.70039 0.620826 3.70039 0.700391V1.60039H1.90039C1.50271 1.60087 1.12146 1.75906 0.840257 2.04026C0.559055 2.32146 0.400867 2.70271 0.400391 3.10039V10.9004C0.400867 11.2981 0.559055 11.6793 0.840257 11.9605C1.12146 12.2417 1.50271 12.3999 1.90039 12.4004H10.9004C11.2982 12.4004 11.6797 12.2424 11.9611 11.9611C12.2424 11.6797 12.4004 11.2982 12.4004 10.9004V3.10039C12.4004 2.70257 12.2424 2.32104 11.9611 2.03973C11.6797 1.75843 11.2982 1.60039 10.9004 1.60039ZM11.8004 10.9004C11.8004 11.1391 11.7056 11.368 11.5368 11.5368C11.368 11.7056 11.1391 11.8004 10.9004 11.8004H1.90039C1.6617 11.8004 1.43278 11.7056 1.26399 11.5368C1.09521 11.368 1.00039 11.1391 1.00039 10.9004V5.80039H11.8004V10.9004ZM11.8004 5.20039H1.00039V3.10039C1.00039 2.60359 1.40239 2.20039 1.90039 2.20039H3.70039V3.10039C3.70039 3.17996 3.732 3.25626 3.78826 3.31252C3.84452 3.36878 3.92083 3.40039 4.00039 3.40039C4.07996 3.40039 4.15626 3.36878 4.21252 3.31252C4.26878 3.25626 4.30039 3.17996 4.30039 3.10039V2.20039H8.50039V3.10039C8.50039 3.17996 8.532 3.25626 8.58826 3.31252C8.64452 3.36878 8.72083 3.40039 8.80039 3.40039C8.87996 3.40039 8.95626 3.36878 9.01252 3.31252C9.06878 3.25626 9.10039 3.17996 9.10039 3.10039V2.20039H10.9004C11.1391 2.20039 11.368 2.29521 11.5368 2.46399C11.7056 2.63278 11.8004 2.8617 11.8004 3.10039V5.20039Z" fill="#009FE2"/>
</svg>
