<svg width="32" height="32" viewBox="0 0 32 32" fill="none" xmlns="http://www.w3.org/2000/svg">
<path d="M26.0003 5.33317H22.0003V3.33317C22.0003 3.15636 21.9301 2.98679 21.8051 2.86177C21.68 2.73674 21.5105 2.6665 21.3337 2.6665C21.1568 2.6665 20.9873 2.73674 20.8623 2.86177C20.7372 2.98679 20.667 3.15636 20.667 3.33317V5.33317H11.3337V3.33317C11.3337 3.15636 11.2634 2.98679 11.1384 2.86177C11.0134 2.73674 10.8438 2.6665 10.667 2.6665C10.4902 2.6665 10.3206 2.73674 10.1956 2.86177C10.0706 2.98679 10.0003 3.15636 10.0003 3.33317V5.33317H6.00033C5.1166 5.33423 4.26936 5.68576 3.64447 6.31065C3.01958 6.93554 2.66805 7.78277 2.66699 8.6665V25.9998C2.66805 26.8836 3.01958 27.7308 3.64447 28.3557C4.26936 28.9806 5.1166 29.3321 6.00033 29.3332H26.0003C26.8844 29.3332 27.7322 28.982 28.3573 28.3569C28.9825 27.7317 29.3337 26.8839 29.3337 25.9998V8.6665C29.3337 7.78245 28.9825 6.9346 28.3573 6.30948C27.7322 5.68436 26.8844 5.33317 26.0003 5.33317ZM28.0003 25.9998C28.0003 26.5303 27.7896 27.039 27.4145 27.414C27.0395 27.7891 26.5308 27.9998 26.0003 27.9998H6.00033C5.46989 27.9998 4.96118 27.7891 4.58611 27.414C4.21104 27.039 4.00033 26.5303 4.00033 25.9998V14.6665H28.0003V25.9998ZM28.0003 13.3332H4.00033V8.6665C4.00033 7.5625 4.89366 6.6665 6.00033 6.6665H10.0003V8.6665C10.0003 8.84331 10.0706 9.01288 10.1956 9.13791C10.3206 9.26293 10.4902 9.33317 10.667 9.33317C10.8438 9.33317 11.0134 9.26293 11.1384 9.13791C11.2634 9.01288 11.3337 8.84331 11.3337 8.6665V6.6665H20.667V8.6665C20.667 8.84331 20.7372 9.01288 20.8623 9.13791C20.9873 9.26293 21.1568 9.33317 21.3337 9.33317C21.5105 9.33317 21.68 9.26293 21.8051 9.13791C21.9301 9.01288 22.0003 8.84331 22.0003 8.6665V6.6665H26.0003C26.5308 6.6665 27.0395 6.87722 27.4145 7.25229C27.7896 7.62736 28.0003 8.13607 28.0003 8.6665V13.3332Z" fill="#434343"/>
</svg>
