<svg width="18" height="18" viewBox="0 0 18 18" fill="none" xmlns="http://www.w3.org/2000/svg">
<rect x="0.5" y="0.5" width="17" height="17" rx="3.5" fill="#6D29D9"/>
<rect x="0.5" y="0.5" width="17" height="17" rx="3.5" stroke="#6D29D9"/>
<path d="M13.6254 5.39713C13.834 5.61146 13.9512 5.90212 13.9512 6.20518C13.9512 6.50825 13.834 6.7989 13.6254 7.01323L8.06212 12.7279C7.85346 12.9421 7.57051 13.0625 7.27547 13.0625C6.98043 13.0625 6.69748 12.9421 6.48882 12.7279L4.26351 10.442C4.06083 10.2265 3.94868 9.93775 3.95121 9.63808C3.95375 9.33841 4.07077 9.05174 4.27706 8.83984C4.48336 8.62793 4.76243 8.50773 5.05416 8.50512C5.3459 8.50252 5.62695 8.61772 5.8368 8.82591L7.27547 10.3037L12.0521 5.39713C12.2608 5.18287 12.5437 5.0625 12.8388 5.0625C13.1338 5.0625 13.4167 5.18287 13.6254 5.39713Z" fill="white"/>
</svg>
