<svg width="21" height="20" viewBox="0 0 21 20" fill="none" xmlns="http://www.w3.org/2000/svg">
<mask id="mask0_250_4324" style="mask-type:alpha" maskUnits="userSpaceOnUse" x="0" y="0" width="21" height="20">
<rect x="0.5" width="20" height="20" fill="#D9D9D9"/>
</mask>
<g mask="url(#mask0_250_4324)">
<path d="M6.45801 17.583C6.24967 17.3747 6.14551 17.128 6.14551 16.843C6.14551 16.5586 6.24967 16.3122 6.45801 16.1038L12.5622 9.99967L6.43717 3.87467C6.24273 3.68023 6.14551 3.43717 6.14551 3.14551C6.14551 2.85384 6.24967 2.60384 6.45801 2.39551C6.66634 2.18717 6.91301 2.08301 7.19801 2.08301C7.48245 2.08301 7.72884 2.18717 7.93717 2.39551L14.9372 9.41634C15.0205 9.49967 15.0797 9.58995 15.1147 9.68717C15.1491 9.7844 15.1663 9.88856 15.1663 9.99967C15.1663 10.1108 15.1491 10.215 15.1147 10.3122C15.0797 10.4094 15.0205 10.4997 14.9372 10.583L7.91634 17.6038C7.7219 17.7983 7.48245 17.8955 7.19801 17.8955C6.91301 17.8955 6.66634 17.7913 6.45801 17.583Z" fill="#60696C"/>
</g>
</svg>
