<svg width="14" height="14" viewBox="0 0 14 14" fill="none" xmlns="http://www.w3.org/2000/svg">
<path d="M6.99935 1.16699C10.2211 1.16699 12.8327 3.77858 12.8327 7.00033C12.8327 10.2221 10.2211 12.8337 6.99935 12.8337C3.7776 12.8337 1.16602 10.2221 1.16602 7.00033C1.16602 3.77858 3.7776 1.16699 6.99935 1.16699ZM6.99935 2.33366C5.76167 2.33366 4.57469 2.82532 3.69952 3.70049C2.82435 4.57566 2.33268 5.76265 2.33268 7.00033C2.33268 8.238 2.82435 9.42499 3.69952 10.3002C4.57469 11.1753 5.76167 11.667 6.99935 11.667C8.23703 11.667 9.42401 11.1753 10.2992 10.3002C11.1743 9.42499 11.666 8.238 11.666 7.00033C11.666 5.76265 11.1743 4.57566 10.2992 3.70049C9.42401 2.82532 8.23703 2.33366 6.99935 2.33366ZM6.99935 3.50033C7.14223 3.50034 7.28013 3.5528 7.3869 3.64774C7.49367 3.74269 7.56188 3.87351 7.5786 4.01541L7.58268 4.08366V6.75883L9.16177 8.33791C9.26639 8.44288 9.32712 8.58375 9.33165 8.73188C9.33617 8.88002 9.28414 9.02432 9.18612 9.13549C9.0881 9.24665 8.95144 9.31634 8.80391 9.33039C8.65637 9.34445 8.50901 9.30182 8.39177 9.21116L8.33693 9.16274L6.58693 7.41274C6.49627 7.322 6.43804 7.20391 6.42127 7.07674L6.41602 7.00033V4.08366C6.41602 3.92895 6.47747 3.78058 6.58687 3.67118C6.69627 3.56178 6.84464 3.50033 6.99935 3.50033Z" fill="white"/>
</svg>
