<svg width="20" height="20" viewBox="0 0 20 20" fill="none" xmlns="http://www.w3.org/2000/svg">
<path d="M9.99922 12.0992L2.64922 19.4492C2.37422 19.7242 2.02422 19.8617 1.59922 19.8617C1.17422 19.8617 0.824218 19.7242 0.549218 19.4492C0.274218 19.1742 0.136719 18.8242 0.136719 18.3992C0.136719 17.9742 0.274218 17.6242 0.549218 17.3492L7.89922 9.99922L0.549218 2.64922C0.274218 2.37422 0.136719 2.02422 0.136719 1.59922C0.136719 1.17422 0.274218 0.824218 0.549218 0.549218C0.824218 0.274218 1.17422 0.136719 1.59922 0.136719C2.02422 0.136719 2.37422 0.274218 2.64922 0.549218L9.99922 7.89922L17.3492 0.549218C17.6242 0.274218 17.9742 0.136719 18.3992 0.136719C18.8242 0.136719 19.1742 0.274218 19.4492 0.549218C19.7242 0.824218 19.8617 1.17422 19.8617 1.59922C19.8617 2.02422 19.7242 2.37422 19.4492 2.64922L12.0992 9.99922L19.4492 17.3492C19.7242 17.6242 19.8617 17.9742 19.8617 18.3992C19.8617 18.8242 19.7242 19.1742 19.4492 19.4492C19.1742 19.7242 18.8242 19.8617 18.3992 19.8617C17.9742 19.8617 17.6242 19.7242 17.3492 19.4492L9.99922 12.0992Z" fill="white"/>
</svg>
