<svg width="32" height="32" viewBox="0 0 32 32" fill="none" xmlns="http://www.w3.org/2000/svg">
<path d="M9.45345 3.6665C8.03896 3.6665 6.68241 4.22841 5.68221 5.2286C4.68202 6.22879 4.12012 7.58535 4.12012 8.99984V17.2772C4.12012 18.6917 4.68202 20.0482 5.68221 21.0484C6.68241 22.0486 8.03896 22.6105 9.45345 22.6105H9.57745V27.6665C9.57733 27.7961 9.61499 27.923 9.68584 28.0315C9.75668 28.14 9.85763 28.2256 9.97633 28.2777C10.095 28.3297 10.2263 28.346 10.3542 28.3246C10.482 28.3032 10.6008 28.245 10.6961 28.1572L16.7228 22.6105H22.5481C23.9626 22.6105 25.3192 22.0486 26.3194 21.0484C27.3195 20.0482 27.8814 18.6917 27.8814 17.2772V8.99984C27.8814 7.58535 27.3195 6.22879 26.3194 5.2286C25.3192 4.22841 23.9626 3.6665 22.5481 3.6665H9.45345Z" stroke="#434343" stroke-width="2" stroke-linecap="round" stroke-linejoin="round"/>
</svg>
