<svg width="22" height="20" viewBox="0 0 22 20" fill="none" xmlns="http://www.w3.org/2000/svg">
<path d="M11.5238 15.7895C11.5238 16.1474 11.5657 16.4947 11.6181 16.8421H2.09522C1.53953 16.8421 1.0066 16.6203 0.613666 16.2255C0.220732 15.8307 -1.52588e-05 15.2952 -1.52588e-05 14.7368V2.10526C-1.52588e-05 0.936842 0.932366 0 2.09522 0H8.38094L10.4762 2.10526H18.8571C19.4128 2.10526 19.9458 2.32707 20.3387 2.72188C20.7316 3.11669 20.9524 3.65218 20.9524 4.21053V10.3263C20.3133 9.9579 19.6114 9.70526 18.8571 9.56842V4.21053H2.09522V14.7368H11.6181C11.5657 15.0842 11.5238 15.4316 11.5238 15.7895ZM18.8571 14.7368V11.5789H16.7619V14.7368H13.619V16.8421H16.7619V20H18.8571V16.8421H22V14.7368H18.8571Z" fill="#60696C"/>
</svg>
