<svg width="20" height="20" viewBox="0 0 20 20" fill="none" xmlns="http://www.w3.org/2000/svg">
<path d="M16.25 5.81988C13.9375 5.59071 11.6111 5.47266 9.29167 5.47266C7.91667 5.47266 6.54167 5.5421 5.16667 5.68099L3.75 5.81988" stroke="#E93131" stroke-width="1.25" stroke-linecap="round" stroke-linejoin="round"/>
<path d="M7.56934 5.11719L7.72211 4.20747C7.83323 3.54774 7.91656 3.05469 9.09017 3.05469H10.9096C12.0832 3.05469 12.1735 3.57552 12.2777 4.21441L12.4304 5.11719" stroke="#E93131" stroke-width="1.25" stroke-linecap="round" stroke-linejoin="round"/>
<path d="M14.7556 8.0127L14.3042 15.0057C14.2278 16.096 14.1653 16.9433 12.2278 16.9433H7.76948C5.83198 16.9433 5.76948 16.096 5.69309 15.0057L5.2417 8.0127" stroke="#E93131" stroke-width="1.25" stroke-linecap="round" stroke-linejoin="round"/>
<path d="M8.83887 13.124H11.1514" stroke="#E93131" stroke-width="1.25" stroke-linecap="round" stroke-linejoin="round"/>
<path d="M8.26367 10.3467H11.7359" stroke="#E93131" stroke-width="1.25" stroke-linecap="round" stroke-linejoin="round"/>
</svg>
