<svg width="24" height="24" viewBox="0 0 24 24" fill="none" xmlns="http://www.w3.org/2000/svg">
<path d="M12.0002 14.2C11.2502 14.2 10.6129 13.9377 10.0882 13.413C9.56353 12.8883 9.30086 12.2507 9.3002 11.5C9.29953 10.7493 9.5622 10.112 10.0882 9.588C10.6142 9.064 11.2515 8.80133 12.0002 8.8C12.7489 8.79867 13.3865 9.06133 13.9132 9.588C14.4399 10.1147 14.7022 10.752 14.7002 11.5C14.6982 12.248 14.4359 12.8857 13.9132 13.413C13.3905 13.9403 12.7529 14.2027 12.0002 14.2ZM12.0002 19C9.76686 19 7.67953 18.4 5.7382 17.2C3.79686 16 2.35086 14.3833 1.4002 12.35C1.33353 12.2167 1.28353 12.0793 1.2502 11.938C1.21686 11.7967 1.2002 11.6507 1.2002 11.5C1.2002 11.3493 1.21686 11.2037 1.2502 11.063C1.28353 10.9223 1.33353 10.7847 1.4002 10.65C2.3502 8.61667 3.7962 7 5.7382 5.8C7.6802 4.6 9.76753 4 12.0002 4C13.9835 4 15.8295 4.45433 17.5382 5.363C19.2469 6.27167 20.6509 7.52567 21.7502 9.125C21.9169 9.35833 21.9629 9.61267 21.8882 9.888C21.8135 10.1633 21.6509 10.3673 21.4002 10.5C21.1495 10.6327 20.8912 10.662 20.6252 10.588C20.3592 10.514 20.1425 10.3597 19.9752 10.125C19.0585 8.825 17.9045 7.81267 16.5132 7.088C15.1219 6.36333 13.6175 6.00067 12.0002 6C10.1169 6 8.38786 6.496 6.8132 7.488C5.23853 8.48 4.0342 9.81733 3.2002 11.5C4.03353 13.1833 5.23786 14.521 6.8132 15.513C8.38853 16.505 10.1175 17.0007 12.0002 17C12.1669 17 12.3335 16.996 12.5002 16.988C12.6669 16.98 12.8335 16.9673 13.0002 16.95C13.2669 16.9167 13.5002 16.9877 13.7002 17.163C13.9002 17.3383 14.0002 17.559 14.0002 17.825C14.0002 18.1083 13.9042 18.3583 13.7122 18.575C13.5202 18.7917 13.2829 18.9167 13.0002 18.95C12.8335 18.9667 12.6669 18.9793 12.5002 18.988C12.3335 18.9967 12.1669 19.0007 12.0002 19ZM12.0002 16C12.3669 16 12.7212 15.9583 13.0632 15.875C13.4052 15.7917 13.7259 15.675 14.0252 15.525C14.1085 14.6917 14.3712 13.9417 14.8132 13.275C15.2552 12.6083 15.8175 12.075 16.5002 11.675V11.5C16.5002 10.25 16.0629 9.18767 15.1882 8.313C14.3135 7.43833 13.2509 7.00067 12.0002 7C10.7495 6.99933 9.68719 7.437 8.8132 8.313C7.9392 9.189 7.50153 10.2513 7.5002 11.5C7.49886 12.7487 7.93653 13.8113 8.8132 14.688C9.68986 15.5647 10.7522 16.002 12.0002 16ZM17.0002 21C16.7169 21 16.4795 20.904 16.2882 20.712C16.0969 20.52 16.0009 20.2827 16.0002 20V17C16.0002 16.7167 16.0962 16.4793 16.2882 16.288C16.4802 16.0967 16.7175 16.0007 17.0002 16V15C17.0002 14.45 17.1962 13.9793 17.5882 13.588C17.9802 13.1967 18.4509 13.0007 19.0002 13C19.5495 12.9993 20.0205 13.1953 20.4132 13.588C20.8059 13.9807 21.0015 14.4513 21.0002 15V16C21.2835 16 21.5212 16.096 21.7132 16.288C21.9052 16.48 22.0009 16.7173 22.0002 17V20C22.0002 20.2833 21.9042 20.521 21.7122 20.713C21.5202 20.905 21.2829 21.0007 21.0002 21H17.0002ZM18.0002 16H20.0002V15C20.0002 14.7167 19.9042 14.4793 19.7122 14.288C19.5202 14.0967 19.2829 14.0007 19.0002 14C18.7175 13.9993 18.4802 14.0953 18.2882 14.288C18.0962 14.4807 18.0002 14.718 18.0002 15V16Z" fill="#434343"/>
</svg>
