<svg width="24" height="24" viewBox="0 0 24 24" fill="none" xmlns="http://www.w3.org/2000/svg">
<path fill-rule="evenodd" clip-rule="evenodd" d="M5.07897 5.06902C8.87397 1.27902 15.044 1.31902 18.862 5.13802C22.682 8.95802 22.722 15.131 18.926 18.926C15.13 22.721 8.95797 22.682 5.13797 18.862C4.06334 17.792 3.25141 16.4875 2.76593 15.0508C2.28045 13.6142 2.13465 12.0845 2.33997 10.582C2.36689 10.3848 2.47104 10.2064 2.62951 10.086C2.78798 9.96562 2.98778 9.9131 3.18497 9.94002C3.38216 9.96694 3.56058 10.0711 3.68098 10.2296C3.80138 10.388 3.85389 10.5878 3.82697 10.785C3.65266 12.0583 3.77605 13.3547 4.18746 14.5723C4.59887 15.7899 5.28707 16.8954 6.19797 17.802C9.44297 21.046 14.666 21.065 17.866 17.866C21.065 14.666 21.046 9.44302 17.802 6.19802C14.559 2.95602 9.33897 2.93502 6.13897 6.13002L6.88697 6.13302C6.98546 6.13348 7.0829 6.15334 7.17372 6.19145C7.26454 6.22957 7.34696 6.2852 7.41628 6.35517C7.4856 6.42514 7.54046 6.50807 7.57772 6.59924C7.61499 6.69041 7.63393 6.78803 7.63347 6.88652C7.63301 6.98501 7.61316 7.08245 7.57504 7.17327C7.53693 7.26409 7.4813 7.34651 7.41133 7.41583C7.34136 7.48515 7.25842 7.54 7.16725 7.57727C7.07608 7.61454 6.97846 7.63348 6.87997 7.63302L4.33397 7.62102C4.13627 7.61997 3.94699 7.5409 3.80728 7.40101C3.66758 7.26112 3.58876 7.07172 3.58797 6.87402L3.57497 4.33002C3.57445 4.23153 3.59333 4.1339 3.63053 4.0427C3.66774 3.95151 3.72254 3.86854 3.79181 3.79852C3.86109 3.7285 3.94347 3.67282 4.03427 3.63464C4.12506 3.59647 4.22248 3.57655 4.32097 3.57602C4.41946 3.5755 4.5171 3.59438 4.60829 3.63158C4.69949 3.66879 4.78246 3.72359 4.85248 3.79286C4.92249 3.86214 4.97818 3.94452 5.01635 4.03531C5.05453 4.12611 5.07445 4.22353 5.07497 4.32202L5.07897 5.06902Z" fill="black"/>
<path opacity="0.5" d="M12 7.25C12.1989 7.25 12.3897 7.32902 12.5303 7.46967C12.671 7.61032 12.75 7.80109 12.75 8V11.69L15.03 13.97C15.1037 14.0387 15.1628 14.1215 15.2038 14.2135C15.2448 14.3055 15.2668 14.4048 15.2686 14.5055C15.2704 14.6062 15.2518 14.7062 15.2141 14.7996C15.1764 14.893 15.1203 14.9778 15.049 15.049C14.9778 15.1203 14.893 15.1764 14.7996 15.2141C14.7062 15.2518 14.6062 15.2704 14.5055 15.2686C14.4048 15.2668 14.3055 15.2448 14.2135 15.2038C14.1215 15.1628 14.0387 15.1037 13.97 15.03L11.543 12.604C11.45 12.511 11.3763 12.4007 11.326 12.2792C11.2757 12.1577 11.2499 12.0275 11.25 11.896V8C11.25 7.80109 11.329 7.61032 11.4697 7.46967C11.6103 7.32902 11.8011 7.25 12 7.25Z" fill="black"/>
</svg>
