<svg width="24" height="24" viewBox="0 0 24 24" fill="none" xmlns="http://www.w3.org/2000/svg">
<path d="M12 14.2C11.25 14.2 10.6127 13.9377 10.088 13.413C9.56335 12.8883 9.30068 12.2507 9.30001 11.5C9.29935 10.7493 9.56201 10.112 10.088 9.588C10.614 9.064 11.2513 8.80133 12 8.8C12.7487 8.79867 13.3863 9.06133 13.913 9.588C14.4397 10.1147 14.702 10.752 14.7 11.5C14.698 12.248 14.4357 12.8857 13.913 13.413C13.3903 13.9403 12.7527 14.2027 12 14.2ZM12 19C9.76668 19 7.67935 18.4 5.73801 17.2C3.79668 16 2.35068 14.3833 1.40001 12.35C1.33335 12.2167 1.28335 12.0793 1.25001 11.938C1.21668 11.7967 1.20001 11.6507 1.20001 11.5C1.20001 11.3493 1.21668 11.2037 1.25001 11.063C1.28335 10.9223 1.33335 10.7847 1.40001 10.65C2.35001 8.61667 3.79601 7 5.73801 5.8C7.68001 4.6 9.76735 4 12 4C13.9833 4 15.8293 4.45433 17.538 5.363C19.2467 6.27167 20.6507 7.52567 21.75 9.125C21.9167 9.35833 21.9627 9.61267 21.888 9.888C21.8133 10.1633 21.6507 10.3673 21.4 10.5C21.1493 10.6327 20.891 10.662 20.625 10.588C20.359 10.514 20.1423 10.3597 19.975 10.125C19.0583 8.825 17.9043 7.81267 16.513 7.088C15.1217 6.36333 13.6173 6.00067 12 6C10.1167 6 8.38768 6.496 6.81301 7.488C5.23835 8.48 4.03401 9.81733 3.20001 11.5C4.03335 13.1833 5.23768 14.521 6.81301 15.513C8.38835 16.505 10.1173 17.0007 12 17C12.1667 17 12.3333 16.996 12.5 16.988C12.6667 16.98 12.8333 16.9673 13 16.95C13.2667 16.9167 13.5 16.9877 13.7 17.163C13.9 17.3383 14 17.559 14 17.825C14 18.1083 13.904 18.3583 13.712 18.575C13.52 18.7917 13.2827 18.9167 13 18.95C12.8333 18.9667 12.6667 18.9793 12.5 18.988C12.3333 18.9967 12.1667 19.0007 12 19ZM12 16C12.3667 16 12.721 15.9583 13.063 15.875C13.405 15.7917 13.7257 15.675 14.025 15.525C14.1083 14.6917 14.371 13.9417 14.813 13.275C15.255 12.6083 15.8173 12.075 16.5 11.675V11.5C16.5 10.25 16.0627 9.18767 15.188 8.313C14.3133 7.43833 13.2507 7.00067 12 7C10.7493 6.99933 9.68701 7.437 8.81301 8.313C7.93901 9.189 7.50135 10.2513 7.50001 11.5C7.49868 12.7487 7.93635 13.8113 8.81301 14.688C9.68968 15.5647 10.752 16.002 12 16ZM17 21C16.7167 21 16.4793 20.904 16.288 20.712C16.0967 20.52 16.0007 20.2827 16 20V17C16 16.7167 16.096 16.4793 16.288 16.288C16.48 16.0967 16.7173 16.0007 17 16V15C17 14.45 17.196 13.9793 17.588 13.588C17.98 13.1967 18.4507 13.0007 19 13C19.5493 12.9993 20.0203 13.1953 20.413 13.588C20.8057 13.9807 21.0013 14.4513 21 15V16C21.2833 16 21.521 16.096 21.713 16.288C21.905 16.48 22.0007 16.7173 22 17V20C22 20.2833 21.904 20.521 21.712 20.713C21.52 20.905 21.2827 21.0007 21 21H17ZM18 16H20V15C20 14.7167 19.904 14.4793 19.712 14.288C19.52 14.0967 19.2827 14.0007 19 14C18.7173 13.9993 18.48 14.0953 18.288 14.288C18.096 14.4807 18 14.718 18 15V16Z" fill="#434343"/>
</svg>
