<svg width="24" height="24" viewBox="0 0 24 24" fill="none" xmlns="http://www.w3.org/2000/svg">
<mask id="mask0_250_1190" style="mask-type:alpha" maskUnits="userSpaceOnUse" x="0" y="0" width="24" height="24">
<rect width="24" height="24" fill="#D9D9D9"/>
</mask>
<g mask="url(#mask0_250_1190)">
<path d="M12 17.0998C12.3167 17.0998 12.5793 16.9958 12.788 16.7878C12.996 16.5791 13.1 16.3165 13.1 15.9998V12.0748C13.1 11.7581 12.996 11.4998 12.788 11.2998C12.5793 11.0998 12.3167 10.9998 12 10.9998C11.6833 10.9998 11.421 11.1038 11.213 11.3118C11.0043 11.5205 10.9 11.7831 10.9 12.0998V16.0248C10.9 16.3248 11.0043 16.5791 11.213 16.7878C11.421 16.9958 11.6833 17.0998 12 17.0998ZM12 9.1248C12.3167 9.1248 12.5833 9.01647 12.8 8.7998C13.0167 8.58314 13.125 8.31647 13.125 7.9998C13.125 7.68314 13.0167 7.41647 12.8 7.1998C12.5833 6.98314 12.3167 6.8748 12 6.8748C11.6833 6.8748 11.4167 6.98314 11.2 7.1998C10.9833 7.41647 10.875 7.68314 10.875 7.9998C10.875 8.31647 10.9833 8.58314 11.2 8.7998C11.4167 9.01647 11.6833 9.1248 12 9.1248ZM12 22.1998C10.5833 22.1998 9.25399 21.9331 8.01199 21.3998C6.77065 20.8665 5.69165 20.1415 4.77499 19.2248C3.85832 18.3081 3.13332 17.2291 2.59999 15.9878C2.06665 14.7458 1.79999 13.4165 1.79999 11.9998C1.79999 10.5831 2.06665 9.2538 2.59999 8.0118C3.13332 6.77047 3.85832 5.69147 4.77499 4.7748C5.69165 3.85814 6.77065 3.13314 8.01199 2.5998C9.25399 2.06647 10.5833 1.7998 12 1.7998C13.4167 1.7998 14.746 2.06647 15.988 2.5998C17.2293 3.13314 18.3083 3.85814 19.225 4.7748C20.1417 5.69147 20.8667 6.77047 21.4 8.0118C21.9333 9.2538 22.2 10.5831 22.2 11.9998C22.2 13.4165 21.9333 14.7458 21.4 15.9878C20.8667 17.2291 20.1417 18.3081 19.225 19.2248C18.3083 20.1415 17.2293 20.8665 15.988 21.3998C14.746 21.9331 13.4167 22.1998 12 22.1998ZM12 19.9248C14.2 19.9248 16.071 19.1541 17.613 17.6128C19.1543 16.0708 19.925 14.1998 19.925 11.9998C19.925 9.7998 19.1543 7.9288 17.613 6.3868C16.071 4.84547 14.2 4.0748 12 4.0748C9.79999 4.0748 7.92932 4.84547 6.38799 6.3868C4.84599 7.9288 4.07499 9.7998 4.07499 11.9998C4.07499 14.1998 4.84599 16.0708 6.38799 17.6128C7.92932 19.1541 9.79999 19.9248 12 19.9248Z" fill="#354144"/>
</g>
</svg>
