<svg width="13" height="14" viewBox="0 0 13 14" fill="none" xmlns="http://www.w3.org/2000/svg">
<path d="M8.46611 11.6961C8.01137 11.6961 7.62352 11.5374 7.30255 11.22C6.98159 10.9025 6.82085 10.5198 6.82033 10.0719C6.81981 9.62388 6.98055 9.24066 7.30255 8.92222C7.62455 8.60377 8.01241 8.44531 8.46611 8.44685C8.91981 8.44838 9.30767 8.60709 9.62967 8.92298C9.95167 9.23887 10.1121 9.62183 10.1111 10.0719C10.1101 10.5219 9.94933 10.9048 9.62889 11.2207C9.30844 11.5366 8.92085 11.6951 8.46611 11.6961ZM1.25611 14C0.898333 14 0.599666 13.8817 0.360111 13.6452C0.120555 13.4087 0.000518518 13.1135 0 12.7597V2.95282C0 2.59956 0.120037 2.30466 0.360111 2.06813C0.600185 1.8316 0.899111 1.71307 1.25689 1.71256H2.63278V0H3.47044V1.71256H9.03467V0H9.81244V1.71256H11.1883C11.5461 1.71256 11.845 1.83108 12.0851 2.06813C12.3252 2.30517 12.445 2.60033 12.4444 2.95359V12.7597C12.4444 13.113 12.3247 13.4082 12.0851 13.6452C11.8456 13.8822 11.5464 14.0005 11.1876 14H1.25611ZM1.25611 13.232H11.1883C11.3076 13.232 11.4173 13.1829 11.5173 13.0846C11.6174 12.9863 11.6672 12.8777 11.6667 12.759V6.02545H0.777778V12.7597C0.777778 12.8775 0.827555 12.9858 0.927111 13.0846C1.02667 13.1834 1.13633 13.2325 1.25611 13.232Z" fill="#6D29D9"/>
</svg>
