<svg width="21" height="20" viewBox="0 0 21 20" fill="none" xmlns="http://www.w3.org/2000/svg">
<path d="M9.78628 2.44937e-08C8.26898 9.81939e-05 6.77399 0.364838 5.42763 1.0634C4.08127 1.76197 2.92311 2.77383 2.05099 4.01349C1.17887 5.25316 0.618427 6.6842 0.417009 8.18571C0.215592 9.68722 0.37912 11.2151 0.893777 12.6402C1.40843 14.0653 2.2591 15.3458 3.37389 16.3734C4.48869 17.4011 5.83486 18.1458 7.29866 18.5445C8.76246 18.9432 10.3009 18.9843 11.784 18.6643C13.267 18.3443 14.6511 17.6726 15.8194 16.7059L18.888 19.7697C19.051 19.9213 19.2664 20.0038 19.4891 19.9999C19.7117 19.9959 19.9242 19.9059 20.0816 19.7487C20.2391 19.5915 20.3293 19.3794 20.3332 19.1571C20.3371 18.9348 20.2545 18.7196 20.1027 18.557L17.0374 15.4954C18.1915 14.1183 18.9282 12.441 19.161 10.6605C19.3938 8.88 19.1131 7.07013 18.3518 5.44332C17.5905 3.81651 16.3803 2.44026 14.8631 1.4761C13.3459 0.511937 11.5847 -0.00012931 9.78628 2.44937e-08Z" fill="#6D29D9"/>
</svg>
