<svg width="20" height="20" viewBox="0 0 20 20" fill="none" xmlns="http://www.w3.org/2000/svg">
<path fill-rule="evenodd" clip-rule="evenodd" d="M0.519989 5.823C-1.14441e-05 6.77 -1.14441e-05 7.915 -1.14441e-05 10.203V11.725C-1.14441e-05 15.625 -1.15633e-05 17.576 1.17199 18.788C2.34399 20 4.22899 20 7.99999 20H12C15.771 20 17.657 20 18.828 18.788C19.999 17.576 20 15.626 20 11.725V10.204C20 7.915 20 6.771 19.48 5.823C18.962 4.874 18.013 4.286 16.116 3.108L14.116 1.867C12.111 0.622 11.108 0 9.99999 0C8.89199 0 7.88999 0.622 5.88399 1.867L3.88399 3.108C1.98699 4.286 1.03899 4.874 0.519989 5.823ZM9.24999 16C9.24999 16.1989 9.32901 16.3897 9.46966 16.5303C9.61031 16.671 9.80108 16.75 9.99999 16.75C10.1989 16.75 10.3897 16.671 10.5303 16.5303C10.671 16.3897 10.75 16.1989 10.75 16V13C10.75 12.8011 10.671 12.6103 10.5303 12.4697C10.3897 12.329 10.1989 12.25 9.99999 12.25C9.80108 12.25 9.61031 12.329 9.46966 12.4697C9.32901 12.6103 9.24999 12.8011 9.24999 13V16Z" fill="#6D29D9"/>
</svg>
