<svg width="32" height="32" viewBox="0 0 32 32" fill="none" xmlns="http://www.w3.org/2000/svg">
<g clip-path="url(#clip0_1_15249)">
<path d="M26.4126 4.50704C27.3009 5.2745 28.0468 6.08992 28.7459 7.03098C28.7849 7.08339 28.8238 7.13579 28.864 7.18979C30.541 9.48217 31.552 12.3945 31.6386 15.2338C31.6422 15.3477 31.6458 15.4615 31.6495 15.5789C31.6889 17.4699 31.441 19.419 30.7346 21.1831C30.675 21.1831 30.6153 21.1831 30.5538 21.1831C30.4306 21.0385 30.3129 20.8892 30.1979 20.738C28.8771 19.0958 27.0091 18.355 24.9889 17.9662C22.4617 17.7371 19.7407 18.2775 17.5556 19.5799C17.2877 19.7286 17.1093 19.7789 16.8137 19.831C16.6432 19.9094 16.4755 19.9943 16.3109 20.0845C16.2269 20.1297 16.1429 20.1749 16.0563 20.2215C15.8179 20.3597 15.8179 20.3597 15.6523 20.5451C15.3036 20.8809 14.8632 21.0702 14.4352 21.2901C14.3347 21.3418 14.2343 21.3934 14.1307 21.4467C11.3699 22.8406 8.53919 23.7262 5.47721 22.8028C4.06982 22.3077 2.4444 21.2912 1.62728 20.0113C1.38982 19.3557 1.28658 18.6724 1.20355 17.9831C1.19217 17.8891 1.18079 17.7952 1.16906 17.6983C0.738032 13.8882 1.73355 9.8587 4.12825 6.81998C6.70737 3.61883 10.239 1.37129 14.385 0.856687C18.8193 0.414198 23.0095 1.61596 26.4126 4.50704Z" fill="#6D29D9"/>
<path d="M22.6036 19.0954C25.0555 19.0294 27.4282 19.7428 29.2883 21.3634C30.4006 22.4179 31.2738 23.8653 31.3674 25.4197C31.0788 25.2105 30.8519 24.989 30.6272 24.7155C29.7021 23.6461 28.2341 22.9973 26.8355 22.8795C23.9702 22.7086 21.633 24.0162 19.3153 25.5386C17.4631 26.7544 15.5513 27.9445 13.3787 28.4845C13.3211 28.499 13.2634 28.5135 13.2041 28.5284C10.5302 29.1742 7.57145 28.7322 5.21575 27.3187C2.87357 25.8516 1.11903 23.5659 0.452108 20.8789C0.347995 20.4129 0.347995 20.4129 0.452108 20.1014C0.516255 20.1915 0.516255 20.1915 0.581698 20.2835C1.98143 22.2289 3.59162 23.7984 6.01489 24.3036C7.36193 24.5119 8.73605 24.3558 10.034 23.9775C10.1256 23.9528 10.1256 23.9528 10.219 23.9277C11.9979 23.4445 13.6949 22.5222 15.2929 21.6192C17.6577 20.2832 19.853 19.2394 22.6036 19.0954Z" fill="#009FE2"/>
<path d="M13.6163 4.6465C15.1763 5.59987 15.9016 7.2341 16.3617 8.92396C16.3997 8.77999 16.3997 8.77999 16.4383 8.63312C16.8717 7.04453 17.511 5.58053 18.9832 4.68734C19.6319 4.32224 20.371 4.33761 21.0923 4.44967C21.6516 4.61136 21.9962 5.0414 22.3278 5.49861C22.6013 6.03267 22.5947 6.63811 22.4327 7.20777C21.9432 8.4865 21.0935 9.22986 19.8871 9.82537C19.9456 9.8263 20.0041 9.82723 20.0644 9.82819C20.6714 9.83792 21.2785 9.84825 21.8855 9.85893C22.1123 9.86284 22.339 9.8666 22.5658 9.8702C22.8911 9.87539 23.2165 9.88114 23.5418 9.88699C23.6946 9.88925 23.6946 9.88925 23.8506 9.89156C23.9917 9.89425 23.9917 9.89425 24.1357 9.897C24.2188 9.89841 24.3019 9.89981 24.3875 9.90125C24.5877 9.91551 24.5877 9.91551 24.7685 10.0057C24.7707 10.4902 24.7724 10.9747 24.7735 11.4592C24.7739 11.6241 24.7745 11.789 24.7753 11.9539C24.7764 12.1907 24.7769 12.4274 24.7773 12.6641C24.7778 12.7381 24.7783 12.8121 24.7787 12.8883C24.7788 13.4105 24.7788 13.4105 24.6781 13.6113C22.2022 13.6113 19.7262 13.6113 17.1753 13.6113C17.1753 12.5702 17.1753 11.529 17.1753 10.4564C16.6383 10.4564 16.1014 10.4564 15.5482 10.4564C15.5482 11.4975 15.5482 12.5386 15.5482 13.6113C14.5715 13.6133 13.5948 13.615 12.6181 13.616C12.1646 13.6164 11.7112 13.6171 11.2577 13.6181C10.8205 13.6191 10.3832 13.6196 9.94599 13.6198C9.77879 13.62 9.61159 13.6203 9.44439 13.6208C9.21104 13.6215 8.97769 13.6216 8.74434 13.6215C8.6745 13.6218 8.60467 13.6222 8.53272 13.6225C8.05565 13.6216 8.05565 13.6216 7.95494 13.5211C7.94581 13.2622 7.94231 13.0055 7.94294 12.7465C7.94285 12.6688 7.94276 12.5911 7.94268 12.5111C7.94261 12.3465 7.94278 12.1819 7.94316 12.0173C7.94364 11.7645 7.94316 11.5117 7.94258 11.2588C7.94264 11.0993 7.94276 10.9398 7.94294 10.7803C7.94266 10.6661 7.94266 10.6661 7.94238 10.5495C7.94455 10.016 7.94455 10.016 8.04534 9.91551C8.1923 9.90444 8.33974 9.89948 8.4871 9.897C8.5812 9.89521 8.6753 9.89341 8.77226 9.89156C8.87461 9.89005 8.97696 9.88854 9.08241 9.88699C9.18662 9.88512 9.29083 9.88324 9.39819 9.88131C9.73254 9.8754 10.0669 9.8701 10.4013 9.86481C10.6273 9.86092 10.8534 9.85699 11.0794 9.85301C11.6349 9.84334 12.1904 9.83417 12.7459 9.82537C12.6775 9.78862 12.609 9.75186 12.5385 9.71399C12.4488 9.66558 12.3591 9.61716 12.2667 9.56727C12.1778 9.51936 12.0888 9.47145 11.9972 9.42209C11.2279 8.99129 10.5196 8.18197 10.2516 7.32748C10.1203 6.58983 10.098 5.86302 10.5192 5.21974C11.3082 4.30118 12.5223 4.13777 13.6163 4.6465Z" fill="#FDFCFD"/>
<path d="M29.1074 24.5183C27.4763 27.5063 24.1037 29.7123 20.9019 30.6964C20.5059 30.8112 20.1073 30.9126 19.7062 31.0084C19.6406 31.0246 19.575 31.0408 19.5074 31.0574C17.5059 31.5272 15.0106 31.4973 13.017 31.0084C12.9474 30.9915 12.8779 30.9746 12.8063 30.9572C11.986 30.7525 11.1826 30.5066 10.3955 30.1972C10.3955 30.1377 10.3955 30.0782 10.3955 30.0169C10.4541 30.0156 10.5127 30.0143 10.5731 30.0129C12.2644 29.9713 12.2644 29.9713 13.9209 29.6563C13.9811 29.64 14.0413 29.6236 14.1033 29.6068C15.9769 29.0821 17.6406 28.1033 19.2543 27.0422C19.7648 26.709 20.2764 26.3776 20.791 26.0507C20.8527 26.0114 20.9144 25.9721 20.9779 25.9316C23.3086 24.4621 26.4103 23.3349 29.1074 24.5183Z" fill="#6C27D8"/>
<path d="M9.12995 14.8732C11.3076 14.8732 13.4852 14.8732 15.7288 14.8732C15.7288 16.7473 15.7288 18.6213 15.7288 20.5521C14.0322 21.5037 14.0322 21.5037 13.4237 21.7859C13.352 21.8193 13.2803 21.8527 13.2064 21.8871C10.4183 23.1662 10.4183 23.1662 9.03955 23.1662C9.06938 20.4295 9.09921 17.6928 9.12995 14.8732Z" fill="#FCFBFD"/>
<path d="M17.085 14.9634C19.2328 14.9634 21.3806 14.9634 23.5934 14.9634C23.6233 15.945 23.6531 16.9266 23.6838 17.938C23.2252 17.9687 23.2252 17.9687 22.7573 18C20.9135 18.1508 19.1441 18.647 17.5387 19.5856C17.2658 19.7408 17.2658 19.7408 17.085 19.7408C17.085 18.1643 17.085 16.5877 17.085 14.9634Z" fill="#FDFDFD"/>
<path d="M20.6104 6.12958C20.7912 6.30986 20.7912 6.30986 20.8308 6.54648C20.7298 7.32353 20.1035 7.85253 19.5257 8.32677C18.2739 9.28451 18.2739 9.28451 17.7178 9.28451C17.8912 8.09789 18.8576 6.84143 19.7969 6.12958C20.0788 5.98902 20.3088 6.0705 20.6104 6.12958Z" fill="#702DD9"/>
<path d="M12.6553 6.03945C13.5505 6.49414 14.0482 7.44495 14.5084 8.29297C14.5401 8.35129 14.5718 8.40962 14.6044 8.46971C14.7406 8.72927 14.8248 8.89718 14.8248 9.19438C13.8193 9.06094 12.7532 8.13896 12.1376 7.37924C11.8959 7.02572 11.7599 6.74821 11.8417 6.30987C12.043 5.97537 12.2896 5.97752 12.6553 6.03945Z" fill="#712EDA"/>
</g>
<defs>
<clipPath id="clip0_1_15249">
<rect width="32" height="32" fill="white"/>
</clipPath>
</defs>
</svg>
