<svg width="136" height="32" viewBox="0 0 136 32" fill="none" xmlns="http://www.w3.org/2000/svg">
<g clip-path="url(#clip0_1_15248)">
<path d="M26.4126 4.50704C27.3009 5.2745 28.0468 6.08992 28.7459 7.03098C28.7849 7.08339 28.8238 7.13579 28.864 7.18979C30.541 9.48217 31.552 12.3945 31.6386 15.2338C31.6422 15.3477 31.6458 15.4615 31.6495 15.5789C31.6889 17.4699 31.441 19.419 30.7346 21.1831C30.675 21.1831 30.6153 21.1831 30.5538 21.1831C30.4306 21.0385 30.3129 20.8892 30.1979 20.738C28.8771 19.0958 27.0091 18.355 24.9889 17.9662C22.4617 17.7371 19.7407 18.2775 17.5556 19.5799C17.2877 19.7286 17.1093 19.7789 16.8137 19.831C16.6432 19.9094 16.4755 19.9943 16.3109 20.0845C16.2269 20.1297 16.1429 20.1749 16.0563 20.2215C15.8179 20.3597 15.8179 20.3597 15.6523 20.5451C15.3036 20.8809 14.8632 21.0702 14.4352 21.2901C14.3347 21.3418 14.2343 21.3934 14.1307 21.4467C11.3699 22.8406 8.53919 23.7262 5.47721 22.8028C4.06982 22.3077 2.4444 21.2912 1.62728 20.0113C1.38982 19.3557 1.28658 18.6724 1.20355 17.9831C1.19217 17.8891 1.18079 17.7952 1.16906 17.6983C0.738032 13.8882 1.73355 9.8587 4.12825 6.81998C6.70737 3.61883 10.239 1.37129 14.385 0.856687C18.8193 0.414198 23.0095 1.61596 26.4126 4.50704Z" fill="#6D29D9"/>
<path d="M22.6036 19.0954C25.0555 19.0294 27.4282 19.7428 29.2883 21.3634C30.4006 22.4179 31.2738 23.8653 31.3674 25.4197C31.0788 25.2105 30.8519 24.989 30.6272 24.7155C29.7021 23.6461 28.2341 22.9973 26.8355 22.8795C23.9702 22.7086 21.633 24.0162 19.3153 25.5386C17.4631 26.7544 15.5513 27.9445 13.3787 28.4845C13.3211 28.499 13.2634 28.5135 13.2041 28.5284C10.5302 29.1742 7.57145 28.7322 5.21575 27.3187C2.87357 25.8516 1.11903 23.5659 0.452108 20.8789C0.347995 20.4129 0.347995 20.4129 0.452108 20.1014C0.516255 20.1915 0.516255 20.1915 0.581698 20.2835C1.98143 22.2289 3.59162 23.7984 6.01489 24.3036C7.36193 24.5119 8.73605 24.3558 10.034 23.9775C10.1256 23.9528 10.1256 23.9528 10.219 23.9277C11.9979 23.4445 13.6949 22.5222 15.2929 21.6192C17.6577 20.2832 19.853 19.2394 22.6036 19.0954Z" fill="#009FE2"/>
<path d="M13.6163 4.6465C15.1763 5.59987 15.9016 7.2341 16.3617 8.92396C16.3997 8.77999 16.3997 8.77999 16.4383 8.63312C16.8717 7.04453 17.511 5.58053 18.9832 4.68734C19.6319 4.32224 20.371 4.33761 21.0923 4.44967C21.6516 4.61136 21.9962 5.0414 22.3278 5.49861C22.6013 6.03267 22.5947 6.63811 22.4327 7.20777C21.9432 8.4865 21.0935 9.22986 19.8871 9.82537C19.9456 9.8263 20.0041 9.82723 20.0644 9.82819C20.6714 9.83792 21.2785 9.84825 21.8855 9.85893C22.1123 9.86284 22.339 9.8666 22.5658 9.8702C22.8911 9.87539 23.2165 9.88114 23.5418 9.88699C23.6946 9.88925 23.6946 9.88925 23.8506 9.89156C23.9917 9.89425 23.9917 9.89425 24.1357 9.897C24.2188 9.89841 24.3019 9.89981 24.3875 9.90125C24.5877 9.91551 24.5877 9.91551 24.7685 10.0057C24.7707 10.4902 24.7724 10.9747 24.7735 11.4592C24.7739 11.6241 24.7745 11.789 24.7753 11.9539C24.7764 12.1907 24.7769 12.4274 24.7773 12.6641C24.7778 12.7381 24.7783 12.8121 24.7787 12.8883C24.7788 13.4105 24.7788 13.4105 24.6781 13.6113C22.2022 13.6113 19.7262 13.6113 17.1753 13.6113C17.1753 12.5702 17.1753 11.529 17.1753 10.4564C16.6383 10.4564 16.1014 10.4564 15.5482 10.4564C15.5482 11.4975 15.5482 12.5386 15.5482 13.6113C14.5715 13.6133 13.5948 13.615 12.6181 13.616C12.1646 13.6164 11.7112 13.6171 11.2577 13.6181C10.8205 13.6191 10.3832 13.6196 9.94599 13.6198C9.77879 13.62 9.61159 13.6203 9.44439 13.6208C9.21104 13.6215 8.97769 13.6216 8.74434 13.6215C8.6745 13.6218 8.60467 13.6222 8.53272 13.6225C8.05565 13.6216 8.05565 13.6216 7.95494 13.5211C7.94581 13.2622 7.94231 13.0055 7.94294 12.7465C7.94285 12.6688 7.94276 12.5911 7.94268 12.5111C7.94261 12.3465 7.94278 12.1819 7.94316 12.0173C7.94364 11.7645 7.94316 11.5117 7.94258 11.2588C7.94264 11.0993 7.94276 10.9398 7.94294 10.7803C7.94266 10.6661 7.94266 10.6661 7.94238 10.5495C7.94455 10.016 7.94455 10.016 8.04534 9.91551C8.1923 9.90444 8.33974 9.89948 8.4871 9.897C8.5812 9.89521 8.6753 9.89341 8.77226 9.89156C8.87461 9.89005 8.97696 9.88854 9.08241 9.88699C9.18662 9.88512 9.29083 9.88324 9.39819 9.88131C9.73254 9.8754 10.0669 9.8701 10.4013 9.86481C10.6273 9.86092 10.8534 9.85699 11.0794 9.85301C11.6349 9.84334 12.1904 9.83417 12.7459 9.82537C12.6775 9.78862 12.609 9.75186 12.5385 9.71399C12.4488 9.66558 12.3591 9.61716 12.2667 9.56727C12.1778 9.51936 12.0888 9.47145 11.9972 9.42209C11.2279 8.99129 10.5196 8.18197 10.2516 7.32748C10.1203 6.58983 10.098 5.86302 10.5192 5.21974C11.3082 4.30118 12.5223 4.13777 13.6163 4.6465Z" fill="#FDFCFD"/>
<path d="M29.1074 24.5183C27.4763 27.5063 24.1037 29.7123 20.9019 30.6964C20.5059 30.8112 20.1073 30.9126 19.7062 31.0084C19.6406 31.0246 19.575 31.0408 19.5074 31.0574C17.5059 31.5272 15.0106 31.4973 13.017 31.0084C12.9474 30.9915 12.8779 30.9746 12.8063 30.9572C11.986 30.7525 11.1826 30.5066 10.3955 30.1972C10.3955 30.1377 10.3955 30.0782 10.3955 30.0169C10.4541 30.0156 10.5127 30.0143 10.5731 30.0129C12.2644 29.9713 12.2644 29.9713 13.9209 29.6563C13.9811 29.64 14.0413 29.6236 14.1033 29.6068C15.9769 29.0821 17.6406 28.1033 19.2543 27.0422C19.7648 26.709 20.2764 26.3776 20.791 26.0507C20.8527 26.0114 20.9144 25.9721 20.9779 25.9316C23.3086 24.4621 26.4103 23.3349 29.1074 24.5183Z" fill="#6C27D8"/>
<path d="M9.12995 14.8732C11.3076 14.8732 13.4852 14.8732 15.7288 14.8732C15.7288 16.7473 15.7288 18.6213 15.7288 20.5521C14.0322 21.5037 14.0322 21.5037 13.4237 21.7859C13.352 21.8193 13.2803 21.8527 13.2064 21.8871C10.4183 23.1662 10.4183 23.1662 9.03955 23.1662C9.06938 20.4295 9.09921 17.6928 9.12995 14.8732Z" fill="#FCFBFD"/>
<path d="M17.085 14.9634C19.2328 14.9634 21.3806 14.9634 23.5934 14.9634C23.6233 15.945 23.6531 16.9266 23.6838 17.938C23.2252 17.9687 23.2252 17.9687 22.7573 18C20.9135 18.1508 19.1441 18.647 17.5387 19.5856C17.2658 19.7408 17.2658 19.7408 17.085 19.7408C17.085 18.1643 17.085 16.5877 17.085 14.9634Z" fill="#FDFDFD"/>
<path d="M20.6104 6.12958C20.7912 6.30986 20.7912 6.30986 20.8308 6.54648C20.7298 7.32353 20.1035 7.85253 19.5257 8.32677C18.2739 9.28451 18.2739 9.28451 17.7178 9.28451C17.8912 8.09789 18.8576 6.84143 19.7969 6.12958C20.0788 5.98902 20.3088 6.0705 20.6104 6.12958Z" fill="#702DD9"/>
<path d="M12.6553 6.03945C13.5505 6.49414 14.0482 7.44495 14.5084 8.29297C14.5401 8.35129 14.5718 8.40962 14.6044 8.46971C14.7406 8.72927 14.8248 8.89718 14.8248 9.19438C13.8193 9.06094 12.7532 8.13896 12.1376 7.37924C11.8959 7.02572 11.7599 6.74821 11.8417 6.30987C12.043 5.97537 12.2896 5.97752 12.6553 6.03945Z" fill="#712EDA"/>
</g>
<path d="M40.7904 8.816H44.2224L46.8864 18.848L47.2704 20.696H47.4624L47.9664 18.848L50.4384 11.12H53.4624L55.9584 18.848L56.4384 20.672H56.6304L56.9904 18.848L59.4864 8.816H62.9184L58.3584 26H55.2384L52.5504 17.72L52.0464 15.824H51.8544L51.3504 17.72L48.6624 26H45.5424L40.7904 8.816ZM65.6921 12.536C65.4201 12.536 65.1561 12.488 64.9001 12.392C64.6601 12.28 64.4441 12.136 64.2521 11.96C64.0761 11.768 63.9321 11.552 63.8201 11.312C63.7241 11.072 63.6761 10.808 63.6761 10.52C63.6761 10.232 63.7241 9.968 63.8201 9.728C63.9321 9.488 64.0761 9.28 64.2521 9.104C64.4441 8.912 64.6601 8.768 64.9001 8.672C65.1561 8.56 65.4201 8.504 65.6921 8.504C66.2521 8.504 66.7321 8.704 67.1321 9.104C67.5321 9.488 67.7321 9.96 67.7321 10.52C67.7321 11.08 67.5321 11.56 67.1321 11.96C66.7321 12.344 66.2521 12.536 65.6921 12.536ZM64.1321 26V14.24H67.2761V26H64.1321ZM74.567 26.384C73.799 26.384 73.111 26.288 72.503 26.096C71.911 25.904 71.391 25.656 70.943 25.352C70.511 25.032 70.143 24.672 69.839 24.272C69.535 23.856 69.303 23.44 69.143 23.024L71.951 21.824C72.223 22.432 72.583 22.888 73.031 23.192C73.495 23.48 74.007 23.624 74.567 23.624C75.143 23.624 75.599 23.52 75.935 23.312C76.271 23.104 76.439 22.856 76.439 22.568C76.439 22.248 76.295 21.992 76.007 21.8C75.735 21.592 75.255 21.408 74.567 21.248L72.911 20.888C72.543 20.808 72.159 20.68 71.759 20.504C71.375 20.328 71.023 20.104 70.703 19.832C70.383 19.56 70.119 19.232 69.911 18.848C69.703 18.464 69.599 18.016 69.599 17.504C69.599 16.928 69.719 16.416 69.959 15.968C70.215 15.52 70.559 15.144 70.991 14.84C71.423 14.52 71.927 14.28 72.503 14.12C73.095 13.944 73.727 13.856 74.399 13.856C75.519 13.856 76.519 14.08 77.399 14.528C78.279 14.96 78.927 15.656 79.343 16.616L76.631 17.72C76.407 17.256 76.079 16.92 75.647 16.712C75.215 16.504 74.783 16.4 74.351 16.4C73.903 16.4 73.511 16.496 73.175 16.688C72.839 16.864 72.671 17.096 72.671 17.384C72.671 17.656 72.807 17.872 73.079 18.032C73.367 18.192 73.751 18.336 74.231 18.464L76.031 18.896C77.231 19.184 78.119 19.648 78.695 20.288C79.287 20.912 79.583 21.656 79.583 22.52C79.583 23.032 79.463 23.52 79.223 23.984C78.983 24.448 78.639 24.864 78.191 25.232C77.759 25.584 77.231 25.864 76.607 26.072C75.999 26.28 75.319 26.384 74.567 26.384ZM81.2726 8.816H84.4166V13.64L84.2246 15.776H84.4166C84.7526 15.216 85.2326 14.76 85.8566 14.408C86.4966 14.04 87.2086 13.856 87.9926 13.856C89.5126 13.856 90.6326 14.304 91.3526 15.2C92.0886 16.096 92.4566 17.32 92.4566 18.872V26H89.3126V19.256C89.3126 18.44 89.1206 17.824 88.7366 17.408C88.3526 16.976 87.8166 16.76 87.1286 16.76C86.6966 16.76 86.3126 16.856 85.9766 17.048C85.6406 17.224 85.3526 17.472 85.1126 17.792C84.8886 18.112 84.7126 18.488 84.5846 18.92C84.4726 19.336 84.4166 19.784 84.4166 20.264V26H81.2726V8.816ZM95.5005 16.928H93.4365V14.24H95.5005V10.64H98.6445V14.24H101.524V16.928H98.6445V21.488C98.6445 21.76 98.6685 22.016 98.7165 22.256C98.7805 22.48 98.8925 22.672 99.0525 22.832C99.2765 23.088 99.5965 23.216 100.012 23.216C100.284 23.216 100.5 23.192 100.66 23.144C100.82 23.08 100.972 23 101.116 22.904L102.004 25.664C101.636 25.84 101.236 25.968 100.804 26.048C100.388 26.144 99.9245 26.192 99.4125 26.192C98.8205 26.192 98.2845 26.104 97.8045 25.928C97.3405 25.736 96.9485 25.48 96.6285 25.16C95.8765 24.44 95.5005 23.416 95.5005 22.088V16.928ZM105.466 12.536C105.194 12.536 104.93 12.488 104.674 12.392C104.434 12.28 104.218 12.136 104.026 11.96C103.85 11.768 103.706 11.552 103.594 11.312C103.498 11.072 103.45 10.808 103.45 10.52C103.45 10.232 103.498 9.968 103.594 9.728C103.706 9.488 103.85 9.28 104.026 9.104C104.218 8.912 104.434 8.768 104.674 8.672C104.93 8.56 105.194 8.504 105.466 8.504C106.026 8.504 106.506 8.704 106.906 9.104C107.306 9.488 107.506 9.96 107.506 10.52C107.506 11.08 107.306 11.56 106.906 11.96C106.506 12.344 106.026 12.536 105.466 12.536ZM103.906 26V14.24H107.05V26H103.906ZM118.328 24.584H118.136C117.848 25.08 117.4 25.504 116.792 25.856C116.184 26.208 115.432 26.384 114.536 26.384C113.784 26.384 113.064 26.232 112.376 25.928C111.704 25.608 111.104 25.176 110.576 24.632C110.064 24.072 109.656 23.408 109.352 22.64C109.048 21.872 108.896 21.032 108.896 20.12C108.896 19.208 109.048 18.368 109.352 17.6C109.656 16.832 110.064 16.176 110.576 15.632C111.104 15.072 111.704 14.64 112.376 14.336C113.064 14.016 113.784 13.856 114.536 13.856C115.432 13.856 116.184 14.032 116.792 14.384C117.4 14.736 117.848 15.16 118.136 15.656H118.328L118.136 13.976V8.816H121.28V26H118.328V24.584ZM115.184 23.48C115.6 23.48 115.992 23.408 116.36 23.264C116.744 23.104 117.08 22.88 117.368 22.592C117.656 22.304 117.888 21.952 118.064 21.536C118.24 21.12 118.328 20.648 118.328 20.12C118.328 19.592 118.24 19.12 118.064 18.704C117.888 18.288 117.656 17.936 117.368 17.648C117.08 17.36 116.744 17.144 116.36 17C115.992 16.84 115.6 16.76 115.184 16.76C114.768 16.76 114.368 16.84 113.984 17C113.616 17.16 113.288 17.384 113 17.672C112.712 17.96 112.48 18.312 112.304 18.728C112.128 19.144 112.04 19.608 112.04 20.12C112.04 20.632 112.128 21.096 112.304 21.512C112.48 21.928 112.712 22.28 113 22.568C113.288 22.856 113.616 23.08 113.984 23.24C114.368 23.4 114.768 23.48 115.184 23.48ZM134.738 23.168C134.194 24.128 133.458 24.904 132.53 25.496C131.618 26.088 130.498 26.384 129.17 26.384C128.274 26.384 127.442 26.232 126.674 25.928C125.922 25.608 125.266 25.168 124.706 24.608C124.146 24.048 123.706 23.392 123.386 22.64C123.082 21.872 122.93 21.032 122.93 20.12C122.93 19.272 123.082 18.472 123.386 17.72C123.69 16.952 124.114 16.288 124.658 15.728C125.202 15.152 125.842 14.696 126.578 14.36C127.33 14.024 128.154 13.856 129.05 13.856C129.994 13.856 130.834 14.016 131.57 14.336C132.306 14.64 132.922 15.072 133.418 15.632C133.914 16.176 134.29 16.824 134.546 17.576C134.802 18.328 134.93 19.144 134.93 20.024C134.93 20.136 134.93 20.232 134.93 20.312C134.914 20.408 134.906 20.496 134.906 20.576C134.89 20.656 134.882 20.744 134.882 20.84H126.026C126.09 21.32 126.218 21.736 126.41 22.088C126.618 22.424 126.866 22.712 127.154 22.952C127.458 23.176 127.786 23.344 128.138 23.456C128.49 23.552 128.85 23.6 129.218 23.6C129.938 23.6 130.53 23.44 130.994 23.12C131.474 22.784 131.85 22.368 132.122 21.872L134.738 23.168ZM131.882 18.608C131.866 18.4 131.794 18.168 131.666 17.912C131.554 17.656 131.378 17.416 131.138 17.192C130.914 16.968 130.626 16.784 130.274 16.64C129.938 16.496 129.53 16.424 129.05 16.424C128.378 16.424 127.786 16.616 127.274 17C126.762 17.384 126.402 17.92 126.194 18.608H131.882Z" fill="#6D29D9"/>
<defs>
<clipPath id="clip0_1_15248">
<rect width="32" height="32" fill="white"/>
</clipPath>
</defs>
</svg>
