<svg width="18" height="16" viewBox="0 0 18 16" fill="none" xmlns="http://www.w3.org/2000/svg">
<path d="M13.9998 12.833C14.4582 12.833 14.8507 12.67 15.1773 12.3438C15.504 12.0177 15.6671 11.6252 15.6665 11.1663C15.6659 10.7075 15.5029 10.3152 15.1773 9.98967C14.8518 9.66412 14.4593 9.50079 13.9998 9.49967C13.5404 9.49856 13.1482 9.6619 12.8232 9.98967C12.4982 10.3175 12.3348 10.7097 12.3332 11.1663C12.3315 11.623 12.4948 12.0155 12.8232 12.3438C13.1515 12.6722 13.5437 12.8352 13.9998 12.833ZM13.8332 15.333C13.6387 15.333 13.4687 15.2705 13.3232 15.1455C13.1776 15.0205 13.0837 14.8608 13.0415 14.6663L12.9165 14.083C12.7498 14.0136 12.5937 13.9408 12.4482 13.8647C12.3026 13.7886 12.1532 13.6947 11.9998 13.583L11.3957 13.7705C11.2151 13.8261 11.0382 13.8191 10.8648 13.7497C10.6915 13.6802 10.5559 13.5691 10.4582 13.4163L10.2915 13.1247C10.1943 12.958 10.1596 12.7775 10.1873 12.583C10.2151 12.3886 10.3054 12.2288 10.4582 12.1038L10.9165 11.708C10.8887 11.5413 10.8748 11.3608 10.8748 11.1663C10.8748 10.9719 10.8887 10.7913 10.9165 10.6247L10.4582 10.2288C10.3054 10.1038 10.2151 9.94773 10.1873 9.76051C10.1596 9.57329 10.1943 9.39606 10.2915 9.22884L10.479 8.91634C10.5762 8.76356 10.7082 8.65245 10.8748 8.58301C11.0415 8.51356 11.2151 8.50662 11.3957 8.56217L11.9998 8.74967C12.1526 8.63856 12.3021 8.54495 12.4482 8.46884C12.5943 8.39273 12.7504 8.31967 12.9165 8.24967L13.0415 7.64551C13.0832 7.45106 13.1768 7.29495 13.3223 7.17717C13.4679 7.0594 13.6382 7.00023 13.8332 6.99967H14.1665C14.3609 6.99967 14.5312 7.06217 14.6773 7.18717C14.8234 7.31217 14.9171 7.4719 14.9582 7.66634L15.0832 8.24967C15.2498 8.31912 15.4059 8.3919 15.5515 8.46801C15.6971 8.54412 15.8465 8.63801 15.9998 8.74967L16.604 8.56217C16.7846 8.50662 16.9618 8.51356 17.1357 8.58301C17.3096 8.65245 17.4448 8.76356 17.5415 8.91634L17.7082 9.20801C17.8054 9.37467 17.8401 9.55523 17.8123 9.74967C17.7846 9.94412 17.6943 10.1038 17.5415 10.2288L17.0832 10.6247C17.1109 10.7913 17.1248 10.9719 17.1248 11.1663C17.1248 11.3608 17.1109 11.5413 17.0832 11.708L17.5415 12.1038C17.6943 12.2288 17.7846 12.3852 17.8123 12.573C17.8401 12.7608 17.8054 12.9377 17.7082 13.1038L17.5207 13.4163C17.4234 13.5691 17.2915 13.6802 17.1248 13.7497C16.9582 13.8191 16.7846 13.8261 16.604 13.7705L15.9998 13.583C15.8471 13.6941 15.6979 13.7877 15.5523 13.8638C15.4068 13.94 15.2504 14.013 15.0832 14.083L14.9582 14.6872C14.9165 14.8816 14.8229 15.038 14.6773 15.1563C14.5318 15.2747 14.3615 15.3336 14.1665 15.333H13.8332ZM2.33317 11.9997V1.99967V5.58301V5.33301V11.9997ZM2.33317 13.6663C1.87484 13.6663 1.48262 13.5033 1.1565 13.1772C0.830393 12.8511 0.667059 12.4586 0.666504 11.9997V1.99967C0.666504 1.54134 0.829837 1.14912 1.1565 0.823008C1.48317 0.496897 1.87539 0.333563 2.33317 0.333008H6.64567C6.86789 0.333008 7.07984 0.374675 7.2815 0.458008C7.48317 0.541341 7.66011 0.659397 7.81234 0.812174L8.99984 1.99967H15.6665C16.1248 1.99967 16.5173 2.16301 16.844 2.48967C17.1707 2.81634 17.3337 3.20856 17.3332 3.66634V5.33301C17.3332 5.56912 17.2532 5.76717 17.0932 5.92717C16.9332 6.08717 16.7354 6.1669 16.4998 6.16634C16.2643 6.16579 16.0665 6.08579 15.9065 5.92634C15.7465 5.7669 15.6665 5.56912 15.6665 5.33301V3.66634H8.31234L6.64567 1.99967H2.33317V11.9997H8.1665C8.40261 11.9997 8.60067 12.0797 8.76067 12.2397C8.92067 12.3997 9.00039 12.5975 8.99984 12.833C8.99928 13.0686 8.91928 13.2666 8.75984 13.4272C8.60039 13.5877 8.40261 13.6675 8.1665 13.6663H2.33317Z" fill="#434343"/>
</svg>
