<svg width="19" height="18" viewBox="0 0 19 18" fill="none" xmlns="http://www.w3.org/2000/svg">
<path d="M4.33404 13.0479L13.0207 5.0294H6.25748C6.18143 5.0294 6.10849 5.00152 6.05471 4.95187C6.00093 4.90223 5.97072 4.8349 5.97072 4.7647C5.97072 4.6945 6.00093 4.62717 6.05471 4.57753C6.10849 4.52789 6.18143 4.5 6.25748 4.5H13.7132C13.7893 4.5 13.8622 4.52789 13.916 4.57753C13.9698 4.62717 14 4.6945 14 4.7647V11.6469C14 11.7171 13.9698 11.7845 13.916 11.8341C13.8622 11.8838 13.7893 11.9116 13.7132 11.9116C13.6372 11.9116 13.5642 11.8838 13.5105 11.8341C13.4567 11.7845 13.4265 11.7171 13.4265 11.6469V5.40396L4.7398 13.4224C4.71316 13.447 4.68153 13.4665 4.64672 13.4798C4.61191 13.4931 4.5746 13.5 4.53692 13.5C4.49924 13.5 4.46193 13.4931 4.42712 13.4798C4.39231 13.4665 4.36068 13.447 4.33404 13.4224C4.30739 13.3978 4.28626 13.3686 4.27184 13.3365C4.25742 13.3044 4.25 13.2699 4.25 13.2352C4.25 13.2004 4.25742 13.1659 4.27184 13.1338C4.28626 13.1017 4.30739 13.0725 4.33404 13.0479Z" fill="white"/>
</svg>
