<svg width="72" height="72" viewBox="0 0 72 72" fill="none" xmlns="http://www.w3.org/2000/svg">
<rect width="72" height="72" rx="36" fill="#2A9921" fill-opacity="0.1"/>
<path fill-rule="evenodd" clip-rule="evenodd" d="M21.2866 24.6201C19.3333 26.5717 19.3333 29.7151 19.3333 36.0001C19.3333 42.2851 19.3333 45.4284 21.2866 47.3801C23.2399 49.3317 26.3816 49.3334 32.6666 49.3334H39.3333C45.6183 49.3334 48.7616 49.3334 50.7132 47.3801C52.6649 45.4267 52.6666 42.2851 52.6666 36.0001C52.6666 29.7151 52.6666 26.5717 50.7132 24.6201C48.7599 22.6684 45.6183 22.6667 39.3333 22.6667H32.6666C26.3816 22.6667 23.2383 22.6667 21.2866 24.6201ZM37.2499 32.6667C37.2499 32.3352 37.1182 32.0173 36.8838 31.7829C36.6494 31.5484 36.3314 31.4167 35.9999 31.4167C35.6684 31.4167 35.3505 31.5484 35.116 31.7829C34.8816 32.0173 34.7499 32.3352 34.7499 32.6667V33.8351L33.7383 33.2517C33.4522 33.0994 33.1183 33.0642 32.8068 33.1533C32.4952 33.2425 32.2305 33.4491 32.0684 33.7297C31.9063 34.0102 31.8595 34.3428 31.9378 34.6572C32.0161 34.9716 32.2135 35.2434 32.4883 35.4151L33.4999 35.9984L32.4883 36.5834C32.2009 36.7492 31.9912 37.0223 31.9053 37.3427C31.8193 37.663 31.8642 38.0044 32.0299 38.2917C32.1957 38.5791 32.4688 38.7888 32.7892 38.8747C33.1095 38.9607 33.4509 38.9158 33.7383 38.7501L34.7499 38.1651V39.3334C34.7499 39.6649 34.8816 39.9829 35.116 40.2173C35.3505 40.4517 35.6684 40.5834 35.9999 40.5834C36.3314 40.5834 36.6494 40.4517 36.8838 40.2173C37.1182 39.9829 37.2499 39.6649 37.2499 39.3334V38.1667L38.2616 38.7501C38.5489 38.9158 38.8903 38.9607 39.2107 38.8747C39.531 38.7888 39.8042 38.5791 39.9699 38.2917C40.1357 38.0044 40.1805 37.663 40.0946 37.3427C40.0086 37.0223 39.7989 36.7492 39.5116 36.5834L38.4999 36.0001L39.5116 35.4167C39.7989 35.251 40.0086 34.9779 40.0946 34.6575C40.1805 34.3371 40.1357 33.9957 39.9699 33.7084C39.8042 33.4211 39.531 33.2114 39.2107 33.1254C38.8903 33.0395 38.5489 33.0843 38.2616 33.2501L37.2499 33.8334V32.6667ZM27.2216 31.4167C27.5531 31.4167 27.871 31.5484 28.1055 31.7829C28.3399 32.0173 28.4716 32.3352 28.4716 32.6667V33.8334L29.4816 33.2501C29.7689 33.0843 30.1103 33.0395 30.4307 33.1254C30.751 33.2114 31.0242 33.4211 31.1899 33.7084C31.3557 33.9957 31.4005 34.3371 31.3146 34.6575C31.2286 34.9779 31.0189 35.251 30.7316 35.4167L29.7199 36.0001L30.7316 36.5834C30.8738 36.6655 30.9986 36.7748 31.0986 36.9051C31.1986 37.0353 31.272 37.184 31.3146 37.3427C31.3571 37.5013 31.368 37.6668 31.3466 37.8296C31.3252 37.9924 31.272 38.1495 31.1899 38.2917C31.1078 38.434 30.9985 38.5587 30.8683 38.6587C30.738 38.7588 30.5893 38.8322 30.4307 38.8747C30.272 38.9173 30.1066 38.9282 29.9437 38.9068C29.7809 38.8854 29.6238 38.8322 29.4816 38.7501L28.4716 38.1667V39.3334C28.4716 39.6649 28.3399 39.9829 28.1055 40.2173C27.871 40.4517 27.5531 40.5834 27.2216 40.5834C26.8901 40.5834 26.5721 40.4517 26.3377 40.2173C26.1033 39.9829 25.9716 39.6649 25.9716 39.3334V38.1651L24.9583 38.7484C24.6722 38.9007 24.3383 38.936 24.0268 38.8468C23.7152 38.7577 23.4505 38.551 23.2884 38.2705C23.1263 37.9899 23.0795 37.6574 23.1578 37.3429C23.2361 37.0285 23.4335 36.7568 23.7083 36.5851L24.7199 36.0001L23.7083 35.4167C23.566 35.3347 23.4413 35.2254 23.3413 35.0951C23.2412 34.9648 23.1678 34.8161 23.1253 34.6575C23.0827 34.4989 23.0718 34.3334 23.0932 34.1706C23.1146 34.0077 23.1678 33.8507 23.2499 33.7084C23.332 33.5661 23.4413 33.4414 23.5716 33.3414C23.7018 33.2414 23.8505 33.168 24.0092 33.1254C24.1678 33.0829 24.3333 33.072 24.4961 33.0934C24.6589 33.1148 24.816 33.168 24.9583 33.2501L25.9716 33.8351V32.6667C25.9716 32.3352 26.1033 32.0173 26.3377 31.7829C26.5721 31.5484 26.8901 31.4167 27.2216 31.4167ZM46.0299 32.6667C46.0299 32.3352 45.8982 32.0173 45.6638 31.7829C45.4294 31.5484 45.1114 31.4167 44.7799 31.4167C44.4484 31.4167 44.1305 31.5484 43.896 31.7829C43.6616 32.0173 43.5299 32.3352 43.5299 32.6667V33.8351L42.5183 33.2517C42.2322 33.0994 41.8983 33.0642 41.5868 33.1533C41.2752 33.2425 41.0105 33.4491 40.8484 33.7297C40.6863 34.0102 40.6395 34.3428 40.7178 34.6572C40.7961 34.9716 40.9935 35.2434 41.2683 35.4151L42.2799 35.9984L41.2666 36.5834C40.9793 36.7492 40.7696 37.0223 40.6836 37.3427C40.5977 37.663 40.6425 38.0044 40.8083 38.2917C40.974 38.5791 41.2471 38.7888 41.5675 38.8747C41.8879 38.9607 42.2293 38.9158 42.5166 38.7501L43.5299 38.1651V39.3334C43.5299 39.6649 43.6616 39.9829 43.896 40.2173C44.1305 40.4517 44.4484 40.5834 44.7799 40.5834C45.1114 40.5834 45.4294 40.4517 45.6638 40.2173C45.8982 39.9829 46.0299 39.6649 46.0299 39.3334V38.1667L47.0416 38.7501C47.3289 38.9158 47.6703 38.9607 47.9907 38.8747C48.3111 38.7888 48.5842 38.5791 48.7499 38.2917C48.9157 38.0044 48.9605 37.663 48.8746 37.3427C48.7886 37.0223 48.5789 36.7492 48.2916 36.5834L47.2799 36.0001L48.2916 35.4167C48.5789 35.251 48.7886 34.9779 48.8746 34.6575C48.9605 34.3371 48.9157 33.9957 48.7499 33.7084C48.5842 33.4211 48.3111 33.2114 47.9907 33.1254C47.6703 33.0395 47.3289 33.0843 47.0416 33.2501L46.0299 33.8334V32.6667Z" fill="#2A9921"/>
</svg>
