<svg width="27" height="32" viewBox="0 0 27 32" fill="none" xmlns="http://www.w3.org/2000/svg">
<g clip-path="url(#clip0_1_21189)">
<path d="M22.9037 2.49126C21.4341 0.808398 18.7775 0.0869141 15.379 0.0869141H5.51558C5.17931 0.086862 4.85406 0.20736 4.59833 0.426734C4.3426 0.646108 4.17318 0.949958 4.12054 1.28363L0.0135873 27.4523C-0.0680455 27.9683 0.329677 28.4356 0.850271 28.4356H6.93961L8.46891 18.6904L8.42145 18.9955C8.5304 18.3067 9.11681 17.7986 9.81121 17.7986H12.7049C18.3894 17.7986 22.8405 15.4789 24.1407 8.76856C24.1793 8.57009 24.2128 8.37693 24.2417 8.18821C24.0775 8.1009 24.0775 8.1009 24.2417 8.18821C24.6288 5.708 24.239 4.01974 22.9037 2.49126Z" fill="#27346A"/>
<path d="M10.7989 7.29475C10.9654 7.21499 11.1475 7.17371 11.3319 7.17396H19.0646C19.9803 7.17396 20.8344 7.23383 21.6149 7.36003C21.8332 7.39504 22.0505 7.43681 22.2663 7.48527C22.5722 7.5531 22.8746 7.6361 23.1723 7.73396C23.556 7.8627 23.9133 8.01264 24.2418 8.18821C24.6288 5.70705 24.239 4.01974 22.9037 2.49126C21.4332 0.808398 18.7775 0.0869141 15.379 0.0869141H5.51473C4.82022 0.0869141 4.22938 0.594888 4.12054 1.28363L0.0135879 27.4514C-0.0680449 27.9682 0.329678 28.4349 0.849428 28.4349H6.93962L10.1124 8.22085C10.1437 8.02217 10.2224 7.83408 10.342 7.67277C10.4616 7.51145 10.6184 7.38172 10.7989 7.29475Z" fill="#27346A"/>
<path d="M24.1407 8.76784C22.8405 15.4772 18.3895 17.7979 12.7049 17.7979H9.81038C9.11597 17.7979 8.52946 18.306 8.42157 18.9948L6.51902 31.1119C6.44793 31.5635 6.79556 31.9727 7.25034 31.9727H12.3835C12.6775 31.9726 12.9619 31.8672 13.1855 31.6753C13.409 31.4834 13.5571 31.2176 13.603 30.9258L13.653 30.663L14.6205 24.5029L14.6828 24.1625C14.7288 23.8707 14.8768 23.605 15.1004 23.4131C15.3239 23.2212 15.6082 23.1157 15.9023 23.1156H16.6705C21.643 23.1156 25.5366 21.086 26.6744 15.2163C27.1493 12.7633 26.9036 10.7153 25.6473 9.27677C25.2662 8.84106 24.793 8.48122 24.2417 8.1875C24.2118 8.37717 24.1794 8.56938 24.1407 8.76784Z" fill="#2790C3"/>
<path d="M22.8815 7.64313C22.6787 7.58366 22.4741 7.531 22.2678 7.48525C22.0519 7.43755 21.8347 7.39607 21.6164 7.36085C20.835 7.2338 19.9816 7.17383 19.0651 7.17383H11.3333C11.1488 7.17352 10.9666 7.21514 10.8003 7.29558C10.6196 7.38224 10.4626 7.51187 10.3429 7.67324C10.2233 7.83461 10.1446 8.02286 10.1137 8.22167L8.47031 18.6903L8.42285 18.9955C8.53096 18.3067 9.11736 17.7986 9.81187 17.7986H12.7064C18.3909 17.7986 22.8419 15.4789 24.1421 8.76853C24.1808 8.57007 24.2133 8.37775 24.2432 8.18819C23.914 8.01371 23.5575 7.86257 23.1737 7.73478C23.0769 7.70252 22.9795 7.67197 22.8816 7.64313" fill="#1F264F"/>
</g>
<defs>
<clipPath id="clip0_1_21189">
<rect width="27" height="32" fill="white"/>
</clipPath>
</defs>
</svg>
