<svg width="10" height="10" viewBox="0 0 10 10" fill="none" xmlns="http://www.w3.org/2000/svg">
<path d="M4.3335 5.66634H1.00017C0.811276 5.66634 0.653054 5.60234 0.525498 5.47434C0.397943 5.34634 0.333943 5.18812 0.333498 4.99968C0.333054 4.81123 0.397054 4.65301 0.525498 4.52501C0.653943 4.39701 0.812165 4.33301 1.00017 4.33301H4.3335V0.999677C4.3335 0.810788 4.3975 0.652566 4.5255 0.52501C4.6535 0.397455 4.81172 0.333455 5.00016 0.33301C5.18861 0.332566 5.34705 0.396566 5.4755 0.52501C5.60394 0.653455 5.66772 0.811677 5.66683 0.999677V4.33301H9.00017C9.18905 4.33301 9.3475 4.39701 9.4755 4.52501C9.6035 4.65301 9.66728 4.81123 9.66683 4.99968C9.66639 5.18812 9.60239 5.34657 9.47483 5.47501C9.34728 5.60346 9.18905 5.66723 9.00017 5.66634H5.66683V8.99968C5.66683 9.18857 5.60283 9.34701 5.47483 9.47501C5.34683 9.60301 5.18861 9.66679 5.00016 9.66634C4.81172 9.6659 4.6535 9.6019 4.5255 9.47434C4.3975 9.34679 4.3335 9.18857 4.3335 8.99968V5.66634Z" fill="black"/>
</svg>
