<svg width="18" height="18" viewBox="0 0 18 18" fill="none" xmlns="http://www.w3.org/2000/svg">
<path fill-rule="evenodd" clip-rule="evenodd" d="M8.86418 17.3321L9.00004 17.3332C8.81606 17.3332 8.63214 17.3272 8.44855 17.3152C8.22137 17.3003 7.99488 17.2762 7.76965 17.2429C7.50799 17.2042 7.24834 17.153 6.99156 17.0895C6.73844 17.0269 6.48842 16.9523 6.24234 16.8661L6.24097 16.8656C5.83574 16.7234 5.44217 16.55 5.06383 16.3468C4.79531 16.2027 4.53492 16.0438 4.28383 15.8711C4.00146 15.677 3.7313 15.4656 3.47488 15.2383C3.38529 15.1589 3.2974 15.0776 3.21129 14.9944C1.64234 13.479 0.666718 11.3533 0.666718 8.99982C0.666718 4.39748 4.39769 0.666504 9.00004 0.666504C10.0944 0.666499 11.178 0.882043 12.1891 1.30083C13.2001 1.71962 14.1188 2.33344 14.8926 3.10726C15.6664 3.88108 16.2803 4.79974 16.6991 5.81079C17.1178 6.82184 17.3334 7.90547 17.3334 8.99982C17.3334 11.3534 16.3577 13.4791 14.7887 14.9945C14.7887 14.9946 14.7887 14.9948 14.7887 14.995C14.394 15.376 13.9628 15.7173 13.5014 16.014L13.495 16.0181C13.3904 16.0854 13.2842 16.1502 13.1766 16.2126L13.1653 16.2192C12.9771 16.328 12.7847 16.4293 12.5886 16.5231C12.5118 16.5597 12.4345 16.5952 12.3567 16.6295C12.2756 16.6652 12.1939 16.6996 12.1117 16.7328C12.032 16.7648 11.9519 16.7957 11.8713 16.8253C11.7898 16.8552 11.7079 16.8838 11.6256 16.9112C11.5447 16.9379 11.4633 16.9635 11.3816 16.9879C11.2951 17.0136 11.2081 17.0379 11.1208 17.0609C11.0358 17.0832 10.9505 17.1041 10.8649 17.1237C10.7794 17.1432 10.6937 17.1614 10.6077 17.1782C10.2571 17.2467 9.90249 17.2926 9.54601 17.3156C9.45742 17.3213 9.36873 17.3256 9.28 17.3286L9.27828 17.3286C9.1403 17.3331 9.00222 17.3343 8.86418 17.3321ZM9.8334 12.3332H8.16672C6.83926 12.3332 5.67828 13.1143 5.14457 14.2565L5.08422 14.3948L5.13644 14.4335C6.08629 15.11 7.22109 15.5438 8.45027 15.6442C8.48697 15.6472 8.52374 15.6499 8.56059 15.6522L8.45535 15.6446C8.49116 15.6475 8.52704 15.6501 8.56301 15.6524L8.56059 15.6522C8.59621 15.6546 8.63189 15.6566 8.66762 15.6584L8.56301 15.6524C8.60012 15.6548 8.63733 15.6569 8.67465 15.6587L8.66762 15.6584C8.69441 15.6597 8.72121 15.6608 8.74801 15.6618L9.00004 15.6665L9.10453 15.6657C9.14295 15.6651 9.18136 15.6642 9.21976 15.663L9.1143 15.6655C9.14984 15.665 9.18532 15.6641 9.22074 15.6629L9.21976 15.6629C9.25547 15.6618 9.29112 15.6604 9.32672 15.6587L9.22074 15.6629C9.25746 15.6617 9.29417 15.6602 9.33086 15.6584L9.32672 15.6587C9.3638 15.6568 9.40078 15.6547 9.43766 15.6524L9.33086 15.6584C9.36698 15.6567 9.40305 15.6546 9.43906 15.6523L9.43769 15.6524C9.47379 15.65 9.5098 15.6474 9.54574 15.6445L9.43902 15.6523C9.47574 15.6499 9.51242 15.6472 9.54906 15.6442L9.54574 15.6445C9.58064 15.6416 9.61546 15.6385 9.6502 15.6352L9.54906 15.6442C9.58552 15.6413 9.6219 15.638 9.6582 15.6344L9.6502 15.6352C10.8383 15.5202 11.9352 15.0933 12.858 14.4375L12.915 14.3948L12.8556 14.2566C12.3452 13.1641 11.2608 12.4018 10.0056 12.3376L9.8334 12.3332ZM9.00004 2.33318C5.31816 2.33318 2.3334 5.31795 2.3334 8.99982C2.3334 10.5898 2.89 12.0498 3.81898 13.1955C4.67945 11.6849 6.30414 10.6665 8.16672 10.6665H9.8334C11.696 10.6665 13.3207 11.685 14.1811 13.1954C15.1101 12.0498 15.6667 10.5898 15.6667 8.99982C15.6667 5.31795 12.682 2.33318 9.00004 2.33318ZM9.00004 3.1665C10.841 3.1665 12.3334 4.65889 12.3334 6.49982C12.3334 8.28498 10.9301 9.7424 9.16641 9.82912L9.00004 9.83318C7.1591 9.83318 5.66672 8.3408 5.66672 6.49982C5.66672 4.71467 7.07004 3.25725 8.83367 3.17057L9.00004 3.1665ZM9.00004 4.83318C8.07957 4.83318 7.3334 5.57936 7.3334 6.49982C7.3334 7.42029 8.07957 8.1665 9.00004 8.1665C9.92051 8.1665 10.6667 7.42029 10.6667 6.49982C10.6667 5.57936 9.92051 4.83318 9.00004 4.83318Z" fill="#60696C"/>
</svg>
