<svg width="24" height="24" viewBox="0 0 24 24" fill="none" xmlns="http://www.w3.org/2000/svg">
<path d="M8.01562 3.32812H5.67188C4.37746 3.32812 3.32812 4.37746 3.32812 5.67188V8.01562C3.32812 9.31004 4.37746 10.3594 5.67188 10.3594H8.01562C9.31004 10.3594 10.3594 9.31004 10.3594 8.01562V5.67188C10.3594 4.37746 9.31004 3.32812 8.01562 3.32812Z" stroke="#6D29D9" stroke-width="1.40625" stroke-linecap="round" stroke-linejoin="round"/>
<path d="M18.3281 3.32812H15.9844C14.69 3.32812 13.6406 4.37746 13.6406 5.67188V8.01562C13.6406 9.31004 14.69 10.3594 15.9844 10.3594H18.3281C19.6225 10.3594 20.6719 9.31004 20.6719 8.01562V5.67188C20.6719 4.37746 19.6225 3.32812 18.3281 3.32812Z" stroke="#6D29D9" stroke-width="1.40625" stroke-linecap="round" stroke-linejoin="round"/>
<path d="M8.01562 13.6406H5.67188C4.37746 13.6406 3.32812 14.69 3.32812 15.9844V18.3281C3.32812 19.6225 4.37746 20.6719 5.67188 20.6719H8.01562C9.31004 20.6719 10.3594 19.6225 10.3594 18.3281V15.9844C10.3594 14.69 9.31004 13.6406 8.01562 13.6406Z" stroke="#6D29D9" stroke-width="1.40625" stroke-linecap="round" stroke-linejoin="round"/>
<path d="M8.25 6.84375C8.25 6.0671 7.6204 5.4375 6.84375 5.4375C6.0671 5.4375 5.4375 6.0671 5.4375 6.84375C5.4375 7.6204 6.0671 8.25 6.84375 8.25C7.6204 8.25 8.25 7.6204 8.25 6.84375Z" fill="#6D29D9"/>
<path d="M18.5625 6.84375C18.5625 6.0671 17.9329 5.4375 17.1562 5.4375C16.3796 5.4375 15.75 6.0671 15.75 6.84375C15.75 7.6204 16.3796 8.25 17.1562 8.25C17.9329 8.25 18.5625 7.6204 18.5625 6.84375Z" fill="#6D29D9"/>
<path d="M8.25 17.1562C8.25 16.3796 7.6204 15.75 6.84375 15.75C6.0671 15.75 5.4375 16.3796 5.4375 17.1562C5.4375 17.9329 6.0671 18.5625 6.84375 18.5625C7.6204 18.5625 8.25 17.9329 8.25 17.1562Z" fill="#6D29D9"/>
<path d="M15.75 14.3438C15.75 13.5671 15.1204 12.9375 14.3438 12.9375C13.5671 12.9375 12.9375 13.5671 12.9375 14.3438C12.9375 15.1204 13.5671 15.75 14.3438 15.75C15.1204 15.75 15.75 15.1204 15.75 14.3438Z" fill="#6D29D9"/>
<path d="M18.5625 17.1562C18.5625 16.3796 17.9329 15.75 17.1562 15.75C16.3796 15.75 15.75 16.3796 15.75 17.1562C15.75 17.9329 16.3796 18.5625 17.1562 18.5625C17.9329 18.5625 18.5625 17.9329 18.5625 17.1562Z" fill="#6D29D9"/>
<path d="M21.375 19.9688C21.375 19.1921 20.7454 18.5625 19.9688 18.5625C19.1921 18.5625 18.5625 19.1921 18.5625 19.9688C18.5625 20.7454 19.1921 21.375 19.9688 21.375C20.7454 21.375 21.375 20.7454 21.375 19.9688Z" fill="#6D29D9"/>
<path d="M21.375 14.3438C21.375 13.5671 20.7454 12.9375 19.9688 12.9375C19.1921 12.9375 18.5625 13.5671 18.5625 14.3438C18.5625 15.1204 19.1921 15.75 19.9688 15.75C20.7454 15.75 21.375 15.1204 21.375 14.3438Z" fill="#6D29D9"/>
<path d="M15.75 19.9688C15.75 19.1921 15.1204 18.5625 14.3438 18.5625C13.5671 18.5625 12.9375 19.1921 12.9375 19.9688C12.9375 20.7454 13.5671 21.375 14.3438 21.375C15.1204 21.375 15.75 20.7454 15.75 19.9688Z" fill="#6D29D9"/>
</svg>
