<svg width="21" height="20" viewBox="0 0 21 20" fill="none" xmlns="http://www.w3.org/2000/svg">
<path d="M10.5 12.5C11.8807 12.5 13 11.3807 13 10C13 8.61929 11.8807 7.5 10.5 7.5C9.11929 7.5 8 8.61929 8 10C8 11.3807 9.11929 12.5 10.5 12.5Z" stroke="black" stroke-width="1.25"/>
<path opacity="0.5" d="M11.9702 1.79268C11.6644 1.66602 11.2761 1.66602 10.4994 1.66602C9.72273 1.66602 9.3344 1.66602 9.02857 1.79268C8.82622 1.87644 8.64236 1.99926 8.4875 2.15412C8.33265 2.30898 8.20983 2.49283 8.12607 2.69518C8.0494 2.88102 8.01857 3.09852 8.0069 3.41435C8.00147 3.64262 7.93823 3.86579 7.8231 4.06298C7.70797 4.26016 7.5447 4.42493 7.34857 4.54185C7.14924 4.65332 6.92489 4.71241 6.69651 4.71358C6.46813 4.71474 6.24319 4.65795 6.04273 4.54852C5.76273 4.40018 5.56023 4.31852 5.3594 4.29185C4.92133 4.23424 4.47832 4.35294 4.12773 4.62185C3.86607 4.82435 3.67107 5.16018 3.28273 5.83268C2.8944 6.50518 2.6994 6.84102 2.6569 7.17018C2.62826 7.38723 2.64267 7.60779 2.69929 7.81926C2.75591 8.03074 2.85364 8.22899 2.9869 8.40268C3.11023 8.56268 3.28273 8.69685 3.55023 8.86518C3.9444 9.11268 4.19773 9.53435 4.19773 9.99935C4.19773 10.4643 3.9444 10.886 3.55023 11.1327C3.28273 11.3018 3.1094 11.436 2.9869 11.596C2.85364 11.7697 2.75591 11.968 2.69929 12.1794C2.64267 12.3909 2.62826 12.6115 2.6569 12.8285C2.70023 13.1568 2.8944 13.4935 3.2819 14.166C3.67107 14.8385 3.86523 15.1743 4.12773 15.3768C4.30143 15.5101 4.49968 15.6078 4.71115 15.6645C4.92263 15.7211 5.14319 15.7355 5.36023 15.7068C5.56023 15.6802 5.76273 15.5985 6.04273 15.4502C6.24319 15.3407 6.46813 15.284 6.69651 15.2851C6.92489 15.2863 7.14924 15.3454 7.34857 15.4568C7.75107 15.6902 7.99023 16.1193 8.0069 16.5843C8.01857 16.901 8.04857 17.1177 8.12607 17.3035C8.20983 17.5059 8.33265 17.6897 8.4875 17.8446C8.64236 17.9994 8.82622 18.1223 9.02857 18.206C9.3344 18.3327 9.72273 18.3327 10.4994 18.3327C11.2761 18.3327 11.6644 18.3327 11.9702 18.206C12.1726 18.1223 12.3564 17.9994 12.5113 17.8446C12.6662 17.6897 12.789 17.5059 12.8727 17.3035C12.9494 17.1177 12.9802 16.901 12.9919 16.5843C13.0086 16.1193 13.2477 15.6893 13.6502 15.4568C13.8496 15.3454 14.0739 15.2863 14.3023 15.2851C14.5307 15.284 14.7556 15.3407 14.9561 15.4502C15.2361 15.5985 15.4386 15.6802 15.6386 15.7068C15.8556 15.7355 16.0762 15.7211 16.2876 15.6645C16.4991 15.6078 16.6974 15.5101 16.8711 15.3768C17.1336 15.1752 17.3277 14.8385 17.7161 14.166C18.1044 13.4935 18.2994 13.1577 18.3419 12.8285C18.3705 12.6115 18.3561 12.3909 18.2995 12.1794C18.2429 11.968 18.1452 11.7697 18.0119 11.596C17.8886 11.436 17.7161 11.3018 17.4486 11.1335C17.2535 11.0147 17.0918 10.8483 16.9785 10.6499C16.8653 10.4516 16.8042 10.2277 16.8011 9.99935C16.8011 9.53435 17.0544 9.11268 17.4486 8.86602C17.7161 8.69685 17.8894 8.56268 18.0119 8.40268C18.1452 8.22899 18.2429 8.03074 18.2995 7.81926C18.3561 7.60779 18.3705 7.38723 18.3419 7.17018C18.2986 6.84185 18.1044 6.50518 17.7169 5.83268C17.3277 5.16018 17.1336 4.82435 16.8711 4.62185C16.6974 4.48859 16.4991 4.39086 16.2876 4.33424C16.0762 4.27762 15.8556 4.26321 15.6386 4.29185C15.4386 4.31852 15.2361 4.40018 14.9552 4.54852C14.7549 4.6578 14.5301 4.71451 14.3019 4.71335C14.0737 4.71218 13.8495 4.65318 13.6502 4.54185C13.4541 4.42493 13.2908 4.26016 13.1757 4.06298C13.0606 3.86579 12.9973 3.64262 12.9919 3.41435C12.9802 3.09768 12.9502 2.88102 12.8727 2.69518C12.789 2.49283 12.6662 2.30898 12.5113 2.15412C12.3564 1.99926 12.1726 1.87644 11.9702 1.79268Z" stroke="black" stroke-width="1.25"/>
</svg>
