<svg width="32" height="32" viewBox="0 0 32 32" fill="none" xmlns="http://www.w3.org/2000/svg">
<g clip-path="url(#clip0_1_25420)">
<path d="M2.6146 9.50629L23.2508 3.72876C23.3645 3.69733 23.4844 3.69661 23.5985 3.72667C23.7125 3.75674 23.8165 3.81652 23.8999 3.8999C23.9833 3.98329 24.0431 4.08731 24.0731 4.20134C24.1032 4.31537 24.1025 4.43534 24.071 4.549L18.2935 25.1852C18.2561 25.3171 18.1789 25.4343 18.0725 25.5208C17.966 25.6072 17.8355 25.6588 17.6987 25.6684C17.562 25.6779 17.4255 25.6451 17.3081 25.5743C17.1906 25.5036 17.0979 25.3983 17.0424 25.2729L12.7102 15.4309C12.6431 15.2785 12.5213 15.1568 12.3689 15.0896L2.52598 10.7583C2.40024 10.703 2.29468 10.6101 2.22373 10.4925C2.15278 10.3749 2.11991 10.2382 2.12961 10.1011C2.13931 9.96409 2.19111 9.83339 2.27792 9.72692C2.36474 9.62044 2.48232 9.54339 2.6146 9.50629Z" stroke="#151515" stroke-width="2" stroke-linecap="round" stroke-linejoin="round"/>
</g>
<defs>
<clipPath id="clip0_1_25420">
<rect width="32" height="32" fill="white" transform="matrix(1 0 0 -1 0 32)"/>
</clipPath>
</defs>
</svg>
