<svg width="14" height="14" viewBox="0 0 14 14" fill="none" xmlns="http://www.w3.org/2000/svg">
<path d="M1.04591 12.4043L6.68875 1.20269C6.71998 1.14116 6.76527 1.08998 6.81999 1.05437C6.87472 1.01876 6.93692 1 7.00026 1C7.06359 1 7.1258 1.01876 7.18052 1.05437C7.23524 1.08998 7.28053 1.14116 7.31176 1.20269L12.9546 12.4043C12.9905 12.4761 13.0057 12.5585 12.9981 12.6403C12.9905 12.7221 12.9605 12.7993 12.9122 12.8614C12.8639 12.9235 12.7996 12.9674 12.7281 12.9872C12.6567 13.007 12.5815 13.0017 12.5128 12.972L7.12987 10.6354C7.04649 10.5993 6.95402 10.5993 6.87064 10.6354L1.48774 12.9728C1.41897 13.0027 1.34362 13.0081 1.272 12.9883C1.20038 12.9685 1.13598 12.9245 1.08763 12.8622C1.03927 12.8 1.00931 12.7226 1.00184 12.6406C0.994372 12.5587 1.00976 12.4761 1.04591 12.4043Z" stroke="white" stroke-width="1.2" stroke-linecap="round" stroke-linejoin="round"/>
</svg>
