<svg width="22" height="23" viewBox="0 0 22 23" fill="none" xmlns="http://www.w3.org/2000/svg">
<path fill-rule="evenodd" clip-rule="evenodd" d="M17.3958 0.719518C17.2121 0.204822 16.4842 0.204822 16.3005 0.719518L15.4112 3.21102C15.3526 3.37529 15.2233 3.50457 15.059 3.5632L12.5675 4.4525C12.0528 4.63622 12.0528 5.36411 12.5675 5.54782L15.059 6.43712C15.2233 6.49575 15.3526 6.62503 15.4112 6.7893L16.3005 9.28081C16.4842 9.7955 17.2121 9.7955 17.3958 9.28081L18.2851 6.7893C18.3438 6.62503 18.473 6.49575 18.6373 6.43712L21.1288 5.54782C21.6435 5.36411 21.6435 4.63622 21.1288 4.4525L18.6373 3.5632C18.473 3.50457 18.3438 3.37529 18.2851 3.21102L17.3958 0.719518ZM9.32601 6.61385C9.10486 5.99427 8.22864 5.99427 8.00749 6.61386L6.26182 11.5046C6.19123 11.7024 6.03561 11.858 5.83787 11.9286L0.947108 13.6742C0.327525 13.8954 0.327527 14.7716 0.94711 14.9928L5.83787 16.7384C6.03561 16.809 6.19123 16.9646 6.26182 17.1624L8.00749 22.0531C8.22864 22.6727 9.10487 22.6727 9.32601 22.0531L11.0717 17.1624C11.1423 16.9646 11.2979 16.809 11.4956 16.7384L16.3864 14.9928C17.006 14.7716 17.006 13.8954 16.3864 13.6742L11.4956 11.9286C11.2979 11.858 11.1423 11.7024 11.0717 11.5046L9.32601 6.61385Z" fill="white"/>
</svg>
