<svg width="24" height="24" viewBox="0 0 24 24" fill="none" xmlns="http://www.w3.org/2000/svg">
<mask id="mask0_1_5635" style="mask-type:alpha" maskUnits="userSpaceOnUse" x="0" y="0" width="24" height="24">
<rect width="24" height="24" fill="#D9D9D9"/>
</mask>
<g mask="url(#mask0_1_5635)">
<path fill-rule="evenodd" clip-rule="evenodd" d="M17.0452 2.0574C16.888 1.60001 16.265 1.60001 16.1078 2.0574L15.3467 4.27149C15.2965 4.41747 15.1859 4.53236 15.0453 4.58446L12.913 5.37475C12.4725 5.538 12.4725 6.18485 12.913 6.34811L15.0453 7.13839C15.1859 7.1905 15.2965 7.30538 15.3467 7.45136L16.1078 9.66546C16.265 10.1228 16.888 10.1228 17.0452 9.66546L17.8063 7.45136C17.8564 7.30538 17.9671 7.1905 18.1077 7.13839L20.2399 6.34811C20.6804 6.18485 20.6804 5.538 20.2399 5.37475L18.1077 4.58446C17.9671 4.53236 17.8564 4.41747 17.8063 4.27149L17.0452 2.0574ZM10.1389 7.29545C9.94959 6.74485 9.19969 6.74485 9.01043 7.29545L7.51644 11.6417C7.45604 11.8174 7.32285 11.9557 7.15362 12.0184L2.968 13.5697C2.43775 13.7662 2.43775 14.5449 2.968 14.7414L7.15362 16.2927C7.32285 16.3555 7.45604 16.4938 7.51645 16.6695L9.01043 21.0157C9.19969 21.5663 9.94959 21.5663 10.1389 21.0157L11.6328 16.6695C11.6932 16.4938 11.8264 16.3555 11.9957 16.2927L16.1813 14.7414C16.7115 14.5449 16.7115 13.7662 16.1813 13.5697L11.9957 12.0184C11.8264 11.9557 11.6932 11.8174 11.6328 11.6417L10.1389 7.29545Z" fill="#6D29D9"/>
</g>
</svg>
