<svg width="32" height="32" viewBox="0 0 32 32" fill="none" xmlns="http://www.w3.org/2000/svg">
<g clip-path="url(#clip0_1_21181)">
<path d="M4 0C2.93913 0 1.92172 0.421427 1.17157 1.17157C0.421427 1.92172 0 2.93913 0 4L0 28C0 29.0609 0.421427 30.0783 1.17157 30.8284C1.92172 31.5786 2.93913 32 4 32H28C29.0609 32 30.0783 31.5786 30.8284 30.8284C31.5786 30.0783 32 29.0609 32 28V4C32 2.93913 31.5786 1.92172 30.8284 1.17157C30.0783 0.421427 29.0609 0 28 0L4 0ZM16.452 10.77C15.284 10.77 14.578 11.098 14.578 11.956C14.578 12.892 15.792 13.304 17.298 13.816C19.754 14.646 22.986 15.742 23 19.802C23 23.736 19.848 26 15.26 26C13.1902 25.9913 11.1435 25.5655 9.242 24.748V19.516C11.094 20.528 13.432 21.276 15.262 21.276C16.496 21.276 17.378 20.946 17.378 19.934C17.378 18.898 16.062 18.424 14.472 17.852C12.052 16.98 9 15.88 9 12.22C9 8.33 11.976 6 16.452 6C18.3225 5.98327 20.1789 6.32615 21.92 7.01V12.176C20.244 11.276 18.128 10.77 16.452 10.77Z" fill="#635BFF"/>
</g>
<defs>
<clipPath id="clip0_1_21181">
<rect width="32" height="32" fill="white"/>
</clipPath>
</defs>
</svg>
