<svg width="15" height="16" viewBox="0 0 15 16" fill="none" xmlns="http://www.w3.org/2000/svg">
<path d="M2.89616 4.45817C2.61437 4.45817 2.34412 4.34623 2.14486 4.14697C1.9456 3.94771 1.83366 3.67746 1.83366 3.39567C1.83366 3.11388 1.9456 2.84363 2.14486 2.64437C2.34412 2.44511 2.61437 2.33317 2.89616 2.33317C3.17795 2.33317 3.4482 2.44511 3.64746 2.64437C3.84672 2.84363 3.95866 3.11388 3.95866 3.39567C3.95866 3.67746 3.84672 3.94771 3.64746 4.14697C3.4482 4.34623 3.17795 4.45817 2.89616 4.45817ZM14.1657 7.70234L7.79074 1.32734C7.53574 1.07234 7.18158 0.916504 6.79199 0.916504H1.83366C1.04741 0.916504 0.416992 1.54692 0.416992 2.33317V7.2915C0.416992 7.68109 0.572825 8.03525 0.834909 8.29025L7.20283 14.6653C7.46491 14.9203 7.81908 15.0832 8.20866 15.0832C8.59824 15.0832 8.95241 14.9203 9.20741 14.6653L14.1657 9.70692C14.4278 9.45192 14.5837 9.09775 14.5837 8.70817C14.5837 8.3115 14.4207 7.95734 14.1657 7.70234Z" fill="#6D29D9"/>
</svg>
