<svg width="72" height="72" viewBox="0 0 72 72" fill="none" xmlns="http://www.w3.org/2000/svg">
<mask id="mask0_1_30015" style="mask-type:luminance" maskUnits="userSpaceOnUse" x="0" y="0" width="72" height="72">
<path d="M36.0013 69.3347C40.3795 69.3401 44.7156 68.4803 48.7605 66.8048C52.8054 65.1293 56.4794 62.6711 59.5713 59.5713C62.6711 56.4794 65.1293 52.8054 66.8048 48.7605C68.4803 44.7156 69.3401 40.3795 69.3347 36.0013C69.3401 31.6231 68.4803 27.287 66.8048 23.2421C65.1293 19.1972 62.6711 15.5233 59.5713 12.4313C56.4794 9.33159 52.8054 6.87336 48.7605 5.19785C44.7156 3.52235 40.3795 2.6626 36.0013 2.66799C31.6231 2.6626 27.287 3.52235 23.2421 5.19785C19.1972 6.87336 15.5233 9.33159 12.4313 12.4313C9.33159 15.5233 6.87336 19.1972 5.19785 23.2421C3.52235 27.287 2.6626 31.6231 2.66799 36.0013C2.6626 40.3795 3.52235 44.7156 5.19785 48.7605C6.87336 52.8054 9.33159 56.4794 12.4313 59.5713C15.5233 62.6711 19.1972 65.1293 23.2421 66.8048C27.287 68.4803 31.6231 69.3401 36.0013 69.3347Z" fill="#555555" stroke="white" stroke-width="4" stroke-linejoin="round"/>
<path fill-rule="evenodd" clip-rule="evenodd" d="M36.0026 57.6693C37.1077 57.6693 38.1675 57.2303 38.9489 56.4489C39.7303 55.6675 40.1693 54.6077 40.1693 53.5026C40.1693 52.3975 39.7303 51.3377 38.9489 50.5563C38.1675 49.7749 37.1077 49.3359 36.0026 49.3359C34.8975 49.3359 33.8377 49.7749 33.0563 50.5563C32.2749 51.3377 31.8359 52.3975 31.8359 53.5026C31.8359 54.6077 32.2749 55.6675 33.0563 56.4489C33.8377 57.2303 34.8975 57.6693 36.0026 57.6693Z" fill="white"/>
<path d="M36 16V42.6667" stroke="white" stroke-width="4" stroke-linecap="round" stroke-linejoin="round"/>
</mask>
<g mask="url(#mask0_1_30015)">
<path d="M-4 -4H76V76H-4V-4Z" fill="#6D29D9"/>
</g>
</svg>
