<svg width="50" height="50" viewBox="0 0 50 50" fill="none" xmlns="http://www.w3.org/2000/svg">
<path d="M22.8123 26.4583L19.7915 23.4895C19.4096 23.1076 18.9325 22.9166 18.3603 22.9166C17.788 22.9166 17.2929 23.125 16.8748 23.5416C16.4929 23.9236 16.3019 24.4097 16.3019 25C16.3019 25.5902 16.4929 26.0763 16.8748 26.4583L21.354 30.9375C21.7707 31.3541 22.2568 31.5625 22.8123 31.5625C23.3679 31.5625 23.854 31.3541 24.2707 30.9375L33.1248 22.0833C33.5415 21.6666 33.7408 21.1805 33.7228 20.625C33.7047 20.0694 33.5054 19.5833 33.1248 19.1666C32.7082 18.75 32.2137 18.5333 31.6415 18.5166C31.0693 18.5 30.5741 18.6993 30.1561 19.1145L22.8123 26.4583ZM16.979 45.3125L13.9582 40.2083L8.229 38.9583C7.70817 38.8541 7.2915 38.5854 6.979 38.152C6.6665 37.7187 6.54498 37.2409 6.61442 36.7187L7.18734 30.8333L3.28109 26.3541C2.93386 25.9722 2.76025 25.5208 2.76025 25C2.76025 24.4791 2.93386 24.0277 3.28109 23.6458L7.18734 19.1666L6.61442 13.2812C6.54498 12.7604 6.6665 12.2826 6.979 11.8479C7.2915 11.4132 7.70817 11.1444 8.229 11.0416L13.9582 9.79163L16.979 4.68746C17.2568 4.23607 17.6387 3.9319 18.1248 3.77496C18.6109 3.61802 19.0971 3.6444 19.5832 3.85413L24.9998 6.14579L30.4165 3.85413C30.9026 3.64579 31.3887 3.6194 31.8748 3.77496C32.3609 3.93052 32.7429 4.23468 33.0207 4.68746L36.0415 9.79163L41.7707 11.0416C42.2915 11.1458 42.7082 11.4152 43.0207 11.85C43.3332 12.2847 43.4547 12.7618 43.3853 13.2812L42.8123 19.1666L46.7186 23.6458C47.0658 24.0277 47.2394 24.4791 47.2394 25C47.2394 25.5208 47.0658 25.9722 46.7186 26.3541L42.8123 30.8333L43.3853 36.7187C43.4547 37.2395 43.3332 37.7173 43.0207 38.152C42.7082 38.5868 42.2915 38.8555 41.7707 38.9583L36.0415 40.2083L33.0207 45.3125C32.7429 45.7638 32.3609 46.068 31.8748 46.225C31.3887 46.3819 30.9026 46.3555 30.4165 46.1458L24.9998 43.8541L19.5832 46.1458C19.0971 46.3541 18.6109 46.3805 18.1248 46.225C17.6387 46.0694 17.2568 45.7652 16.979 45.3125Z" fill="#319F43"/>
</svg>
